<?xml version="1.0"?>
<svg xmlns="http://www.w3.org/2000/svg" height="512px" viewBox="-34 0 451 451.99822" width="512px"><g transform="matrix(-1 0 0 1 417 0)"><path d="m118.007812 336.296875v-52.230469c-.078124-3.464844-2.949218-6.210937-6.414062-6.136718h-21.378906c3.464844-.074219 6.335937 2.671874 6.414062 6.136718v52.230469c.003906 7.984375 3.367188 15.601563 9.273438 20.976563 6.007812 5.558593 13.96875 8.523437 22.152344 8.242187 1.308593-.039063 8.359374-.085937 17.441406-.136719-6.800782-.609375-13.210938-3.460937-18.21875-8.105468-5.902344-5.375-9.269532-12.992188-9.269532-20.976563zm0 0" fill="#d4e1f4" data-original="#D4E1F4"/><path d="m206.914062 375.171875h-.023437c-.941406 0-9.582031.03125-20.394531.078125 2.511718.328125 4.582031 2.121094 5.261718 4.558594l7.257813 65.664062h31.375l-17.253906-65.664062c-.78125-2.777344-3.335938-4.679688-6.222657-4.636719zm0 0" fill="#d4e1f4" data-original="#D4E1F4"/><path d="m234.304688 7.535156c-.601563-.007812-1.210938-.011718-1.808594-.011718-40.65625-.101563-79.816406 15.296874-109.515625 43.058593-29.949219 27.769531-47.921875 66.101563-50.121094 106.886719-.128906 2.097656-.222656 21.925781-.25 33.945312-.003906.769532-.144531 1.535157-.421875 2.253907l-31.90625 82.949219c-.125.296874-.085938.640624.105469.898437.175781.269531.480469.429687.800781.421875h21.378906c-.324218.007812-.628906-.152344-.804687-.421875-.195313-.257813-.234375-.601563-.109375-.898437l31.90625-82.949219c.277344-.71875.421875-1.484375.421875-2.253907.027343-12.019531.121093-31.847656.25-33.945312 2.199219-40.785156 20.175781-79.117188 50.125-106.886719 27.007812-25.253906 61.949219-40.347656 98.847656-42.699219-1.582031-.105468-3.171875-.191406-4.769531-.25-1.371094-.050781-2.746094-.082031-4.128906-.097656zm0 0" fill="#d4e1f4" data-original="#D4E1F4"/><path d="m234.585938.109375c-1.433594-.0507812-2.871094-.0859375-4.316407-.0976562h-.074219c-89.617187-.9921878-164.125 68.7500002-169.058593 158.2343752-.171875 2.800781-.242188 26.730468-.257813 32.789062l-30.597656 80.140625c-1.546875 4.050781-1 8.601563 1.457031 12.175781 2.460938 3.570313 6.519531 5.703126 10.855469 5.703126h41.605469v47.007812c.003906 11.324219 4.585937 22.164062 12.710937 30.054688 8.125 7.886718 19.097656 12.152343 30.417969 11.816406 1.871094-.054688 18.570313-.15625 47.015625-.273438h.09375c7.621094-.007812 14.328125 5.011719 16.46875 12.324219v56.015625c0 3.3125 2.6875 6 6 6h144.097656c1.652344 0 3.230469-.683594 4.363282-1.882812 1.132812-1.199219 1.722656-2.816407 1.625-4.464844-.054688-.984375-5.597657-99.167969-.015626-159.191406 1.511719-16.246094 17.011719-55.191407 18.445313-58.765626 24.882813-47.613281 23.488281-104.6875-3.6875-151.027343-26.773437-46.039063-74.304687-74.65625-127.148437-76.558594zm116.773437 82.589844c.195313.335937.375.675781.570313 1.011719h-66.765626c-27.039062 0-48.960937-21.921876-48.960937-48.960938v-22.542969c47.878906 2.410157 90.816406 28.636719 115.15625 70.492188zm-229.492187-28.507813c9.589843-9.023437 20.28125-16.796875 31.824218-23.132812v25.261718c0 22.210938-18 40.210938-40.207031 40.214844h-23.53125c8.140625-15.835937 18.933594-30.15625 31.914063-42.34375zm-47.753907 93.660156h27.1875c12.5625 0 22.746094 10.183594 22.746094 22.742188 0 12.5625-10.183594 22.746094-22.746094 22.746094h-28.550781c.082031-.386719.125-.78125.128906-1.175782.027344-11.761718.117188-31.167968.242188-33.226562.203125-3.722656.53125-7.417969.992187-11.085938zm128.617188 239.871094c-1.257813-5.007812-3.828125-9.59375-7.441407-13.28125 18.167969-5.78125 33.105469-18.878906 41.207032-36.144531v33.738281c-9.28125 2.667969-15.671875 11.160156-15.671875 20.820313 0 9.65625 6.390625 18.148437 15.671875 20.820312v26.324219h-33.582032v-50.8125c-.003906-.496094-.0625-.984375-.183593-1.464844zm39.765625 14.800782c-5.34375 0-9.675782-4.332032-9.675782-9.671876 0-5.34375 4.332032-9.675781 9.671876-9.675781 5.34375 0 9.675781 4.332031 9.675781 9.675781-.003907 5.339844-4.332031 9.667969-9.671875 9.675782zm56.960937-48.585938c5.339844 0 9.671875 4.332031 9.671875 9.675781 0 5.339844-4.332031 9.671875-9.671875 9.671875-5.34375 0-9.675781-4.332031-9.675781-9.671875.011719-5.339843 4.335938-9.664062 9.675781-9.671875zm55.191407-131.535156c-.089844.171875-.171876.347656-.242188.527344-.71875 1.773437-17.636719 43.71875-19.375 62.414062-4.839844 51.984375-1.476562 131.738281-.347656 154.652344h-29.226563v-55.558594c9.28125-2.671875 15.671875-11.164062 15.671875-20.820312 0-9.660157-6.390625-18.152344-15.671875-20.820313v-55.554687c0-3.316407-2.6875-6-6-6-3.316406 0-6 2.683593-6 6v55.554687c-9.28125 2.671875-15.671875 11.164063-15.671875 20.824219 0 9.65625 6.390625 18.148437 15.671875 20.820312v55.558594h-44.960937v-26.324219c9.28125-2.671875 15.671875-11.164062 15.671875-20.820312 0-9.660157-6.390625-18.148438-15.671875-20.820313v-58.070312h-12v.425781l-5.722656-.46875c-2.542969 29.191406-26.921876 51.625-56.222657 51.738281h-.238281c-29.386719.125-45.320312.21875-47.355469.28125-8.074219.234375-15.898437-2.8125-21.691406-8.441406s-9.058594-13.359375-9.058594-21.4375v-53.007812c0-3.3125-2.6875-6-6-6h-47.609375c-.386718 0-.75-.191407-.972656-.511719-.21875-.320313-.265625-.726563-.128906-1.089844l26.769531-70.113281h33.035156c19.191407 0 34.746094-15.558594 34.746094-34.746094 0-19.191406-15.554687-34.746094-34.746094-34.746094h-25.191406c1.917969-9.34375 4.703125-18.488281 8.3125-27.316406h29.0625c28.832031 0 52.210937-23.375 52.207031-52.210938v-31.1875c18.46875-8.117187 38.34375-12.554687 58.511719-13.066406v22.6875c0 33.664063 27.292969 60.957032 60.960937 60.957032h72.917969c8.65625 18.941406 13.109375 39.53125 13.046875 60.355468l-74.539062 18.554688 2.902344 11.644531 71.039062-17.683594c-1.726562 18.808594-7.125 37.09375-15.882812 53.824219zm0 0" fill="#0635c9" data-original="#0635C9"/><g fill="#69e781"><path d="m239.480469 148.839844c-39.078125-.011719-73.21875 26.394531-83.035157 64.214844-9.820312 37.824218 7.171876 77.5 41.320313 96.496093-17.179687 14.019531-38.679687 21.667969-60.855469 21.648438h-78.84375v-11.089844c0-3.3125-2.6875-6-6-6h-30.566406c-11.59375.011719-20.988281 9.40625-21 21v4.175781c.011719 11.59375 9.40625 20.988282 21 21h30.566406c3.3125 0 6-2.6875 6-6v-11.085937h78.84375c26.925782.019531 52.890625-10.003907 72.816406-28.113281 32.167969 11.898437 68.332032 3.488281 91.953126-21.378907 23.621093-24.863281 30.160156-61.410156 16.628906-92.925781s-44.53125-51.941406-78.828125-51.941406zm-193.414063 199.445312h-24.566406c-4.96875-.003906-8.996094-4.03125-9-9v-4.175781c.003906-4.96875 4.03125-8.996094 9-9h24.566406zm193.414063-39.871094c-6.90625-.003906-13.773438-.976562-20.410157-2.894531 9.816407-11.34375 17.171876-24.601562 21.601563-38.933593 16.464844-.625 29.757813-13.660157 30.707031-30.109376.949219-16.449218-10.757812-30.925781-27.039062-33.441406-16.285156-2.511718-31.8125 7.757813-35.871094 23.730469-4.054688 15.96875 4.6875 32.40625 20.195312 37.96875-4.449218 13.492187-11.816406 25.839844-21.582031 36.164063-33.679687-16.488282-49.625-55.617188-37.066406-90.949219 12.558594-35.328125 49.625-55.613281 86.152344-47.144531 36.527343 8.46875 60.886719 42.996093 56.617187 80.246093-4.269531 37.253907-35.808594 65.375-73.304687 65.359375zm0-79.789062c-3.3125 0-6 2.6875-6 6 0 6.183594-.59375 12.351562-1.769531 18.421875-9.097657-3.828125-14.039063-13.71875-11.644532-23.292969 2.398438-9.570312 11.417969-15.964844 21.242188-15.058594 9.828125.910157 17.523437 8.847657 18.121094 18.699219.601562 9.847657-6.070313 18.664063-15.714844 20.761719 1.175781-6.445312 1.765625-12.980469 1.765625-19.53125 0-3.3125-2.6875-6-6-6zm0 0" data-original="#69e781" class="active-path" style="fill:#69e781"/><path d="m201.039062 263.683594c-1.996093-2.644532-5.757812-3.171875-8.40625-1.179688-2.644531 1.996094-3.171874 5.757813-1.175781 8.40625 4.46875 5.933594 10.007813 10.980469 16.328125 14.882813 1.824219 1.148437 4.125 1.226562 6.023438.210937 1.902344-1.015625 3.109375-2.96875 3.171875-5.125.058593-2.152344-1.042969-4.171875-2.882813-5.292968-5.054687-3.121094-9.484375-7.15625-13.058594-11.902344zm0 0" data-original="#69e781" class="active-path" style="fill:#69e781"/><path d="m271.714844 270.457031c-3.394532 3.046875-7.203125 5.597657-11.316406 7.574219-1.238282.597656-2.515626 1.148438-3.789063 1.632812-3.09375 1.179688-4.648437 4.648438-3.464844 7.746094 1.179688 3.09375 4.644531 4.648438 7.742188 3.464844 1.589843-.605469 3.179687-1.289062 4.722656-2.035156 5.132813-2.46875 9.890625-5.652344 14.128906-9.460938 1.613281-1.425781 2.339844-3.609375 1.898438-5.71875-.441407-2.113281-1.980469-3.824218-4.03125-4.484375-2.050781-.664062-4.296875-.171875-5.890625 1.28125zm0 0" data-original="#69e781" class="active-path" style="fill:#69e781"/><path d="m285.683594 205.699219c-2.984375 1.4375-4.238282 5.023437-2.800782 8.007812 2.589844 5.351563 4.164063 11.140625 4.640626 17.066407.25 3.113281 2.847656 5.515624 5.972656 5.519531.160156 0 .324218-.003907.488281-.019531 3.300781-.265626 5.761719-3.15625 5.5-6.460938-.59375-7.402344-2.558594-14.628906-5.792969-21.3125-1.4375-2.984375-5.023437-4.238281-8.007812-2.800781zm0 0" data-original="#69e781" class="active-path" style="fill:#69e781"/><path d="m193.058594 221.71875c1.589844-5.730469 4.226562-11.117188 7.777344-15.886719 1.980468-2.660156 1.425781-6.417969-1.230469-8.394531-2.660157-1.980469-6.417969-1.425781-8.398438 1.230469-4.429687 5.957031-7.722656 12.679687-9.707031 19.832031-.890625 3.191406.976562 6.5 4.171875 7.386719 3.191406.890625 6.5-.976563 7.386719-4.167969zm0 0" data-original="#69e781" class="active-path" style="fill:#69e781"/><path d="m260.503906 178.234375c-6.738281-2.511719-13.871094-3.796875-21.0625-3.800781h-.695312c-3.3125.039062-5.96875 2.757812-5.929688 6.070312.039063 3.316406 2.757813 5.96875 6.070313 5.929688h.554687c5.761719.003906 11.472656 1.035156 16.871094 3.046875 3.105469 1.160156 6.558594-.421875 7.71875-3.527344 1.15625-3.105469-.425781-6.558594-3.527344-7.714844zm0 0" data-original="#69e781" class="active-path" style="fill:#69e781"/></g></g> </svg>
