<?xml version="1.0"?>
<svg xmlns="http://www.w3.org/2000/svg" id="Layer_1" data-name="Layer 1" viewBox="0 0 512 512" width="512" height="512"><title>Discussion</title><path d="M75.76,71.243a44.706,44.706,0,0,1,34.639-43.5,44.64,44.64,0,1,0,0,86.993A44.708,44.708,0,0,1,75.76,71.243Z" style="fill:#d4e1f4"/><path d="M110.4,162.265a77.671,77.671,0,0,0-10-.664c-41.211,0-75.1,32.4-78.172,72.4h20A78.937,78.937,0,0,1,110.4,162.265Z" style="fill:#d4e1f4"/><path d="M386.961,322.6a44.71,44.71,0,0,1,34.64-43.5,44.64,44.64,0,1,0,0,86.993A44.709,44.709,0,0,1,386.961,322.6Z" style="fill:#d4e1f4"/><path d="M421.6,413.265a77.671,77.671,0,0,0-10-.664c-41.211,0-75.1,32.4-78.172,72.4h20A78.937,78.937,0,0,1,421.6,413.265Z" style="fill:#d4e1f4"/><path d="M42,452.459V316.807A15.846,15.846,0,0,1,57.944,301h-20A15.846,15.846,0,0,0,22,316.807V452.459A15.623,15.623,0,0,0,37.944,468h20A15.623,15.623,0,0,1,42,452.459Z" style="fill:#d4e1f4"/><path d="M474.056,34h-20A16.2,16.2,0,0,1,470,50.22V185.872A16.12,16.12,0,0,1,454.056,202h20A16.12,16.12,0,0,0,490,185.872V50.22A16.2,16.2,0,0,0,474.056,34Z" style="fill:#d4e1f4"/><path d="M316.1,69h11.25a6,6,0,0,0,0-12H316.1a35.9,35.9,0,0,0-33.3,22h-7.8a6,6,0,0,0,0,12h5.148c-.025,1-.042,1.481-.042,2.037A43.237,43.237,0,0,0,280.531,99h-5.54a6,6,0,0,0,0,12H284.7a35.609,35.609,0,0,0,31.4,18h11.25a6,6,0,0,0,0-12H316.1c-6.295,0-12.028-3-16.313-6h19.63a6,6,0,0,0,0-12H292.759a28.792,28.792,0,0,1-.662-5.963c0-.557.026-1.037.063-2.037h27.254a6,6,0,0,0,0-12H296.376A24.331,24.331,0,0,1,316.1,69Z" style="fill:#0635c9"/><path d="M321.1,405.127a43.687,43.687,0,0,0-6.955-.964C298.868,402.735,285,399.945,285,381.735V316.807A27.591,27.591,0,0,0,257.371,289H37.944A27.859,27.859,0,0,0,10,316.807V452.459A27.634,27.634,0,0,0,37.944,480H257.371A27.366,27.366,0,0,0,285,452.459V443.53a1.722,1.722,0,0,1,1.319-1.608c28.315-5,37.2-23.566,38.9-27.906a6.108,6.108,0,0,0,.674-3.709A6.275,6.275,0,0,0,321.1,405.127Zm-36.868,24.978A13.659,13.659,0,0,0,273,443.53v8.929A15.356,15.356,0,0,1,257.371,468H37.944A15.623,15.623,0,0,1,22,452.459V316.807A15.846,15.846,0,0,1,37.944,301H257.371A15.58,15.58,0,0,1,273,316.807v64.928c0,28.513,24.259,32.76,37.236,34.112C306.263,420.924,298.577,427.57,284.231,430.105Z" style="fill:#0635c9"/><path d="M230.831,397H218.1a6,6,0,0,0,0,12h12.727a6,6,0,1,0,0-12Z" style="fill:#0635c9"/><path d="M194.8,409a6,6,0,0,0,0-12H128.364a6,6,0,0,0,0,12Z" style="fill:#0635c9"/><path d="M230.831,360H128.364a6,6,0,0,0,0,12H230.831a6,6,0,1,0,0-12Z" style="fill:#0635c9"/><path d="M230.831,324H171.377a6,6,0,0,0,0,12h59.454a6,6,0,1,0,0-12Z" style="fill:#0635c9"/><path d="M128.364,336H148a6,6,0,0,0,0-12H128.364a6,6,0,0,0,0,12Z" style="fill:#0635c9"/><path d="M230.831,434H173.739a6,6,0,0,0,0,12h57.092a6,6,0,1,0,0-12Z" style="fill:#0635c9"/><path d="M150.438,434H66.253a6,6,0,1,0,0,12h84.185a6,6,0,0,0,0-12Z" style="fill:#0635c9"/><path d="M474.056,22H254.629C239.221,22,227,34.812,227,50.22v64.928c0,18.21-13.868,21-29.144,22.428a42.546,42.546,0,0,0-6.873.963,6.406,6.406,0,0,0-4.875,5.181,6.08,6.08,0,0,0,.615,3.709c1.694,4.341,10.654,22.9,38.968,27.906A1.715,1.715,0,0,1,227,176.943v8.929C227,201.28,239.221,214,254.629,214H474.056A28.134,28.134,0,0,0,502,185.872V50.22A28.213,28.213,0,0,0,474.056,22ZM490,185.872A16.12,16.12,0,0,1,474.056,202H254.629A15.855,15.855,0,0,1,239,185.872v-8.929a13.657,13.657,0,0,0-11.231-13.424c-14.356-2.538-22.043-9.192-26.01-14.258,12.975-1.351,37.241-5.6,37.241-34.113V50.22C239,41.429,245.838,34,254.629,34H474.056A16.2,16.2,0,0,1,490,50.22Z" style="fill:#0635c9"/><path d="M445.747,94H351.011a6,6,0,0,0,0,12h94.736a6,6,0,1,0,0-12Z" style="fill:#0635c9"/><path d="M406.86,142a6,6,0,0,0,0-12H351.011a6,6,0,0,0,0,12Z" style="fill:#0635c9"/><path d="M445.747,130H431.6a6,6,0,0,0,0,12h14.146a6,6,0,1,0,0-12Z" style="fill:#0635c9"/><path d="M322.86,167H281.169a6,6,0,0,0,0,12H322.86a6,6,0,0,0,0-12Z" style="fill:#0635c9"/><path d="M445.747,167H346.86a6,6,0,0,0,0,12h98.887a6,6,0,1,0,0-12Z" style="fill:#0635c9"/><path d="M351.011,69h11.121a6,6,0,0,0,0-12H351.011a6,6,0,0,0,0,12Z" style="fill:#0635c9"/><path d="M445.747,57H385.819a6,6,0,0,0,0,12h59.928a6,6,0,0,0,0-12Z" style="fill:#0635c9"/><path d="M96.732,406h11.25a6,6,0,0,0,0-12H96.732c-6.3,0-12.028-3-16.313-7h19.63a6,6,0,0,0,0-12H73.394a24.313,24.313,0,0,1-.662-5.463A12.241,12.241,0,0,1,72.8,368h27.254a6,6,0,0,0,0-12H77.011a24.331,24.331,0,0,1,19.721-10h11.25a6,6,0,0,0,0-12H96.732a35.893,35.893,0,0,0-33.3,22h-7.8a6,6,0,1,0,0,12h5.148c-.025,0-.042.981-.042,1.537A36.313,36.313,0,0,0,61.167,375H55.626a6,6,0,1,0,0,12h9.708C71.507,398,83.264,406,96.732,406Z" style="fill:#0635c9"/><path d="M411.6,265.959A56.64,56.64,0,1,0,468.24,322.6,56.7,56.7,0,0,0,411.6,265.959Zm0,101.279A44.64,44.64,0,1,1,456.24,322.6,44.69,44.69,0,0,1,411.6,367.238Z" style="fill:#69e781"/><path d="M411.6,401a90.333,90.333,0,0,0-90.4,90.2,5.834,5.834,0,0,0,6,5.8H496a5.834,5.834,0,0,0,6-5.8A90.333,90.333,0,0,0,411.6,401Zm-78.172,84c3.075-40,36.961-72.4,78.172-72.4S486.7,445,489.773,485Z" style="fill:#69e781"/><path d="M43.76,71.243A56.64,56.64,0,1,0,100.4,14.6,56.7,56.7,0,0,0,43.76,71.243Zm101.279,0A44.64,44.64,0,1,1,100.4,26.6,44.691,44.691,0,0,1,145.039,71.243Z" style="fill:#69e781"/><path d="M100.4,149.642A90.484,90.484,0,0,0,10,240.021,5.983,5.983,0,0,0,16,246H184.8a5.983,5.983,0,0,0,6-5.979A90.484,90.484,0,0,0,100.4,149.642ZM22.227,234c3.075-40,36.961-72.4,78.172-72.4S175.5,194,178.571,234Z" style="fill:#69e781"/></svg>
