<svg height="453pt" viewBox="-60 1 453 453.99922" width="453pt" xmlns="http://www.w3.org/2000/svg"><path d="m42.5 338v-60c0-2.210938 1.789062-4 4-4h-30c-2.210938 0-4 1.789062-4 4v60c0 2.210938 1.789062 4 4 4h30c-2.210938 0-4-1.789062-4-4zm0 0" fill="#d4e1f4"/><path d="m115.691406 201.101562c2.882813-2.183593 5.828125-4.234374 8.84375-6.160156.128906-.078125.257813-.15625.382813-.242187 17.089843-10.867188 36.449219-17.664063 56.582031-19.867188-4.980469-.550781-9.988281-.832031-15-.832031-25.347656-.078125-50.1875 7.105469-71.582031 20.699219-.125.085937-.253907.164062-.382813.242187-3.011718 1.925782-5.960937 3.980469-8.84375 6.160156-20.511718 15.59375-36.144531 36.722657-45.054687 60.898438h30c8.910156-24.175781 24.542969-45.304688 45.054687-60.898438zm0 0" fill="#d4e1f4"/><path d="m115.691406 414.898438c-20.511718-15.59375-36.144531-36.722657-45.054687-60.898438h-30c8.910156 24.175781 24.542969 45.304688 45.054687 60.898438 23.226563 17.667968 51.625 27.191406 80.808594 27.101562 5.011719-.003906 10.019531-.285156 15-.84375-23.914062-2.617188-46.660156-11.695312-65.808594-26.257812zm0 0" fill="#d4e1f4"/><g fill="#0635c9"><path d="m26.546875 349.714844c8.964844 29.777344 27.132813 55.945312 51.898437 74.753906 52.097657 39.375 124.003907 39.375 176.101563 0 24.765625-18.808594 42.933594-44.976562 51.898437-74.753906.644532-2.066406.128907-4.316406-1.347656-5.894532-1.480468-1.578124-3.695312-2.238281-5.796875-1.726562-2.101562.511719-3.765625 2.113281-4.355469 4.195312-8.230468 27.328126-24.90625 51.347657-47.636718 68.609376-47.816406 36.132812-113.800782 36.132812-161.617188 0-22.734375-17.261719-39.414062-41.28125-47.644531-68.613282-.585937-2.082031-2.25-3.683594-4.351563-4.195312-2.101562-.511719-4.316406.148437-5.796874 1.726562-1.480469 1.578125-1.996094 3.828125-1.351563 5.894532zm0 0"/><path d="m166.5 0c-61.277344.0703125-110.929688 49.726562-111 111v102.253906c-13.230469 15.476563-23.089844 33.535156-28.953125 53.03125-.644531 2.066406-.128906 4.316406 1.351563 5.894532 1.476562 1.578124 3.691406 2.238281 5.792968 1.726562 2.101563-.511719 3.765625-2.113281 4.355469-4.195312 8.230469-27.332032 24.910156-51.351563 47.644531-68.609376 2.882813-2.183593 5.828125-4.234374 8.84375-6.160156.128906-.078125.257813-.15625.382813-.242187 43.75-27.609375 99.480469-27.59375 143.214843.039062l.03125.019531c2.894532 1.839844 5.730469 3.792969 8.507813 5.863282 22.601563 16.960937 39.320313 40.578125 47.804687 67.53125.984376 3.164062 4.347657 4.933594 7.511719 3.949218 3.164063-.984374 4.929688-4.347656 3.949219-7.511718-5.925781-18.855469-15.597656-36.316406-28.4375-51.335938v-102.253906c-.070312-61.273438-49.726562-110.9296875-111-111zm-69 179.285156v-68.285156c0-38.109375 30.890625-69 69-69 38.105469 0 69 30.890625 69 69v68.289062c-43.113281-23.050781-94.886719-23.050781-138 0zm156.355469 11.722656c-2.085938-1.558593-4.203125-3.058593-6.355469-4.492187v-75.515625c0-44.734375-36.265625-81-81-81s-81 36.265625-81 81v75.507812c-2.390625 1.601563-4.738281 3.273438-7.050781 5.019532-3.808594 2.886718-7.449219 5.980468-10.949219 9.21875v-89.746094c0-54.675781 44.324219-99 99-99s99 44.324219 99 99v89.746094c-3.707031-3.449219-7.59375-6.699219-11.644531-9.738282zm0 0"/><path d="m166.5 422.828125c7.769531.003906 15.519531-.777344 23.132812-2.332031 2.132813-.398438 3.878907-1.914063 4.578126-3.96875.695312-2.050782.230468-4.316406-1.210938-5.929688-1.445312-1.613281-3.648438-2.324218-5.765625-1.859375-6.824219 1.394531-13.769531 2.09375-20.734375 2.089844-3.3125 0-6 2.6875-6 6 0 3.316406 2.6875 6 6 6zm0 0"/><path d="m262.160156 345.800781c-10.09375 25.300781-29.734375 45.613281-54.683594 56.546875-2.019531.820313-3.433593 2.671875-3.695312 4.832032-.265625 2.164062.664062 4.296874 2.425781 5.578124s4.078125 1.507813 6.054688.589844c27.855469-12.210937 49.789062-34.890625 61.058593-63.140625 1.21875-3.082031-.289062-6.566406-3.371093-7.785156s-6.570313.292969-7.789063 3.375zm0 0"/><path d="m172.5 199.171875c0-3.316406-2.6875-6-6-6-6.988281 0-13.964844.628906-20.839844 1.886719-2.148437.34375-3.945312 1.824218-4.691406 3.867187-.746094 2.046875-.324219 4.335938 1.097656 5.980469 1.421875 1.648438 3.625 2.394531 5.757813 1.953125 6.160156-1.125 12.414062-1.691406 18.675781-1.6875 3.3125 0 6-2.6875 6-6zm0 0"/><path d="m121.800781 202.199219c-28.355469 12.074219-50.714843 34.964843-62.125 63.59375-.8125 2-.492187 4.28125.84375 5.976562 1.335938 1.695313 3.476563 2.542969 5.613281 2.222657 2.132813-.324219 3.929688-1.769532 4.703126-3.785157 10.214843-25.640625 30.242187-46.140625 55.636718-56.953125 3.054688-1.292968 4.480469-4.8125 3.191406-7.863281-1.292968-3.054687-4.8125-4.480469-7.863281-3.191406zm0 0"/></g><path d="m316.5 262h-300c-8.832031.011719-15.988281 7.167969-16 16v60c.011719 8.832031 7.167969 15.988281 16 16h300c8.832031-.011719 15.988281-7.167969 16-16v-60c-.011719-8.832031-7.167969-15.988281-16-16zm4 76c0 2.210938-1.792969 4-4 4h-300c-2.210938 0-4-1.789062-4-4v-60c0-2.210938 1.789062-4 4-4h300c2.207031 0 4 1.789062 4 4zm0 0" fill="#69e781"/><path d="m39.847656 296.738281c-6.21875 0-11.261718 5.042969-11.261718 11.261719s5.042968 11.261719 11.261718 11.261719c6.222656 0 11.265625-5.042969 11.265625-11.261719-.007812-6.21875-5.046875-11.253906-11.265625-11.261719zm0 12c-.40625 0-.734375-.332031-.734375-.738281s.328125-.738281.734375-.738281.738282.332031.738282.738281-.332032.738281-.738282.738281zm0 0" fill="#69e781"/><path d="m103.175781 296.738281c-6.222656 0-11.265625 5.042969-11.265625 11.261719s5.042969 11.261719 11.265625 11.261719c6.21875 0 11.261719-5.042969 11.261719-11.261719-.007812-6.21875-5.046875-11.253906-11.261719-11.261719zm0 12c-.410156 0-.738281-.332031-.738281-.738281s.328125-.738281.734375-.738281c.410156 0 .738281.332031.738281.738281s-.328125.734375-.734375.738281zm0 0" fill="#69e781"/><path d="m166.5 296.738281c-6.222656 0-11.261719 5.042969-11.261719 11.261719s5.039063 11.261719 11.261719 11.261719c6.21875 0 11.261719-5.042969 11.261719-11.261719-.007813-6.21875-5.042969-11.253906-11.261719-11.261719zm0 12c-.40625 0-.738281-.332031-.738281-.738281s.332031-.738281.738281-.738281.738281.332031.738281.738281c-.003906.40625-.332031.738281-.738281.738281zm0 0" fill="#69e781"/><path d="m229.824219 296.738281c-6.21875 0-11.261719 5.042969-11.261719 11.261719 0 6.222656 5.042969 11.261719 11.261719 11.261719 6.222656 0 11.265625-5.042969 11.265625-11.261719-.007813-6.21875-5.046875-11.257812-11.265625-11.261719zm0 12c-.40625 0-.738281-.332031-.738281-.738281s.332031-.738281.738281-.738281.738281.332031.738281.738281-.332031.738281-.738281.738281zm0 0" fill="#69e781"/><path d="m293.152344 296.738281c-6.222656 0-11.265625 5.042969-11.265625 11.261719s5.042969 11.261719 11.265625 11.261719c6.21875 0 11.261718-5.042969 11.261718-11.261719-.007812-6.21875-5.046874-11.253906-11.261718-11.261719zm0 12c-.410156 0-.738282-.332031-.738282-.738281s.328126-.738281.738282-.738281c.40625 0 .734375.332031.734375.738281s-.328125.738281-.734375.738281zm0 0" fill="#69e781"/></svg>