<?xml version="1.0"?>
<svg xmlns="http://www.w3.org/2000/svg" id="Layer_1" data-name="Layer 1" viewBox="0 0 512 512" width="512" height="512"><title>mail box</title><path d="M158.993,75.139h-30A67.068,67.068,0,0,0,62,142.131V267.518H92V142.131A67.068,67.068,0,0,1,158.993,75.139Z" style="fill:#d4e1f4"/><path d="M398.008,76.853a66.942,66.942,0,0,0-81.993,65.278V267.518h30V142.131A67.1,67.1,0,0,1,398.008,76.853Z" style="fill:#d4e1f4"/><path d="M383.007,63.139H128.993A79.083,79.083,0,0,0,50,142.131V273.518a6,6,0,0,0,6,6H204.744V442.861a6,6,0,0,0,6,6h58.4a6,6,0,0,0,6-6V279.518H456a6,6,0,0,0,6-6V142.131A79.083,79.083,0,0,0,383.007,63.139ZM62,142.131a67.068,67.068,0,0,1,66.993-66.992H341.224a78.994,78.994,0,0,0-37.209,66.992V267.518H62Zm201.139,294.73h-46.4V279.518h46.4ZM450,267.518H316.015V142.131a66.993,66.993,0,0,1,133.985,0Z" style="fill:#0635c9"/><path d="M410.744,214.963H355.271a6,6,0,0,0,0,12h55.473a6,6,0,0,0,0-12Z" style="fill:#0635c9"/><path d="M146.511,206.525h61.314a6,6,0,0,0,6-6V158.351h33.416a6,6,0,0,0,0-12H146.511a6,6,0,0,0-6,6,5.455,5.455,0,0,1,0,1.459v46.715A6,6,0,0,0,146.511,206.525Zm55.314-12H152.511V158.351h49.314Z" style="fill:#69e781"/></svg>
