<svg height="460pt" viewBox="0 -26 460.001 460" width="460pt" xmlns="http://www.w3.org/2000/svg"><path d="m103.796875 197.679688c-3.316406 0-6 2.6875-6 6s2.683594 6 6 6h252.410156c3.3125 0 6-2.6875 6-6s-2.6875-6-6-6zm0 0" fill="#69e781"/><path d="m62.449219 115.679688h61.691406c12.617187.121093 22.777344 10.386718 22.773437 23 .003907 19.238281 15.53125 34.871093 34.769532 35h96.632812c19.238282-.128907 34.769532-15.761719 34.769532-35-.003907-12.613282 10.15625-22.878907 22.773437-23h61.695313c3.3125 0 6-2.6875 6-6s-2.6875-6-6-6h-61.695313c-19.238281.128906-34.769531 15.761718-34.773437 35 .007812 12.617187-10.15625 22.878906-22.769532 23h-96.632812c-12.613282-.121094-22.773438-10.382813-22.769532-23-.003906-19.238282-15.53125-34.871094-34.773437-35h-61.691406c-3.316407 0-6 2.6875-6 6s2.683593 6 6 6zm0 0" fill="#69e781"/><path d="m397.554688 291.679688h-61.695313c-12.617187-.121094-22.777344-10.382813-22.773437-23 0-19.238282-15.53125-34.871094-34.769532-35h-96.632812c-19.238282.128906-34.765625 15.761718-34.769532 35 .003907 12.617187-10.15625 22.878906-22.773437 23h-61.691406c-3.316407 0-6 2.6875-6 6s2.683593 6 6 6h61.691406c19.242187-.128907 34.769531-15.761719 34.773437-35-.003906-12.617188 10.15625-22.878907 22.769532-23h96.632812c12.613282.121093 22.777344 10.382812 22.769532 23 .003906 19.238281 15.535156 34.871093 34.773437 35h61.695313c3.3125 0 6-2.6875 6-6s-2.6875-6-6-6zm0 0" fill="#69e781"/><path d="m337.386719 370.679688h-14.203125c-12.660156-.097657-23.941406-8.011719-28.347656-19.882813l-18.710938-50.539063c-6.175781-16.539062-21.949219-27.523437-39.601562-27.578124h-13.046876c-17.640624.023437-33.417968 10.980468-39.601562 27.5l-18.710938 50.648437c-4.410156 11.863281-15.695312 19.765625-28.351562 19.851563h-14.199219c-3.3125 0-6 2.6875-6 6s2.6875 6 6 6h14.199219c17.675781-.113282 33.441406-11.144532 39.601562-27.714844l18.714844-50.539063c4.417969-11.839843 15.710938-19.707031 28.347656-19.746093h13.046876c12.625.007812 23.921874 7.847656 28.347656 19.667968l18.714844 50.648438c6.164062 16.5625 21.929687 27.585937 39.601562 27.683594h14.199219c3.316406 0 6-2.6875 6-6s-2.683594-6-6-6zm0 0" fill="#69e781"/><path d="m122.617188 36.679688h14.199218c12.660156.097656 23.941406 8.011718 28.347656 19.882812l18.714844 50.542969c6.171875 16.535156 21.945313 27.519531 39.597656 27.574219h13.046876c17.640624-.023438 33.417968-10.980469 39.601562-27.5l18.714844-50.648438c4.40625-11.863281 15.691406-19.765625 28.347656-19.851562h14.199219c3.316406 0 6-2.6875 6-6s-2.683594-6-6-6h-14.199219c-17.675781.113281-33.441406 11.148437-39.601562 27.714843l-18.710938 50.542969c-4.421875 11.839844-15.710938 19.703125-28.351562 19.742188h-13.046876c-12.625-.007813-23.921874-7.84375-28.347656-19.667969l-18.714844-50.648438c-6.160156-16.5625-21.929687-27.582031-39.601562-27.683593h-14.199219c-3.3125 0-6 2.6875-6 6s2.6875 6 6 6zm0 0" fill="#69e781"/><g fill="#0635c9"><path d="m350.15625 203.679688c0 18.914062 15.332031 34.246093 34.246094 34.25 18.914062 0 34.246094-15.332032 34.25-34.246094 0-18.914063-15.332032-34.25-34.246094-34.25s-34.25 15.332031-34.25 34.246094zm18.515625-15.730469c8.6875-8.6875 22.777344-8.691407 31.464844 0 8.6875 8.6875 8.6875 22.773437 0 31.460937-8.6875 8.691406-22.777344 8.691406-31.464844 0-4.207031-4.152344-6.578125-9.816406-6.578125-15.730468 0-5.910157 2.371094-11.578126 6.578125-15.730469zm0 0"/><path d="m401.535156 85.640625c-13.375 13.375-13.375 35.0625 0 48.4375s35.058594 13.375 48.433594 0 13.375-35.0625 0-48.4375c-6.390625-6.476563-15.113281-10.125-24.214844-10.125-9.101562 0-17.824218 3.648437-24.21875 10.125zm39.949219 39.949219c-8.695313 8.675781-22.769531 8.675781-31.460937 0-8.691407-8.6875-8.691407-22.773438-.003907-31.464844 8.691407-8.6875 22.777344-8.6875 31.464844 0 8.6875 8.691406 8.6875 22.777344 0 31.464844zm0 0"/><path d="m401.535156 273.28125c-13.375 13.375-13.375 35.058594 0 48.433594s35.058594 13.375 48.433594 0 13.375-35.058594 0-48.433594c-6.390625-6.480469-15.113281-10.125-24.214844-10.125-9.101562 0-17.824218 3.644531-24.21875 10.125zm39.949219 39.945312c-8.6875 8.691407-22.773437 8.691407-31.460937 0-8.691407-8.6875-8.691407-22.773437 0-31.460937 8.699218-8.609375 22.722656-8.574219 31.378906.082031s8.695312 22.679688.082031 31.382813zm0 0"/><path d="m341.152344 348.910156c-13.351563 13.382813-13.351563 35.050782 0 48.433594 13.375 13.375 35.0625 13.375 48.433594 0 13.375-13.371094 13.375-35.058594 0-48.433594-13.371094-13.375-35.058594-13.375-48.433594 0zm39.949218 39.949219c-8.6875 8.6875-22.777343 8.6875-31.464843 0s-8.6875-22.773437 0-31.464844c8.6875-8.6875 22.777343-8.6875 31.464843 0 8.6875 8.691407 8.6875 22.777344 0 31.464844zm0 0"/><path d="m389.585938 10.015625c-13.371094-13.359375-35.039063-13.351563-48.402344.015625-13.363282 13.367188-13.363282 35.035156 0 48.402344 13.363281 13.367187 35.03125 13.375 48.402344.015625 6.480468-6.390625 10.128906-15.113281 10.128906-24.214844 0-9.105469-3.648438-17.828125-10.128906-24.21875zm-8.484376 39.949219c-8.6875 8.6875-22.773437 8.6875-31.464843 0-8.6875-8.6875-8.6875-22.777344 0-31.464844 5.605469-5.691406 13.832031-7.941406 21.554687-5.894531 7.722656 2.050781 13.753906 8.082031 15.800782 15.800781 2.050781 7.722656-.199219 15.949219-5.890626 21.558594zm0 0"/><path d="m51.378906 227.898438c10.960938 10.957031 27.917969 13.191406 41.339844 5.441406 13.425781-7.75 19.96875-23.546875 15.960938-38.519532-4.011719-14.972656-17.578126-25.386718-33.078126-25.386718-13.851562 0-26.339843 8.34375-31.640624 21.140625-5.300782 12.796875-2.371094 27.527343 7.421874 37.324219zm8.488282-39.949219c8.6875-8.6875 22.773437-8.6875 31.460937 0s8.6875 22.773437 0 31.460937c-8.6875 8.691406-22.773437 8.691406-31.460937 0-4.210938-4.152344-6.582032-9.816406-6.582032-15.730468 0-5.914063 2.371094-11.578126 6.582032-15.730469zm0 0"/><path d="m10.03125 85.644531c-13.375 13.371094-13.375 35.058594 0 48.433594s35.058594 13.375 48.433594 0 13.375-35.0625 0-48.433594c-6.394532-6.480469-15.113282-10.128906-24.21875-10.128906-9.101563 0-17.820313 3.648437-24.214844 10.128906zm39.949219 39.945313c-7.507813 7.503906-19.269531 8.65625-28.09375 2.757812-8.824219-5.898437-12.25-17.207031-8.1875-27.011718 4.066406-9.808594 14.488281-15.375 24.898437-13.300782 10.410156 2.074219 17.90625 11.210938 17.902344 21.824219-.003906 5.898437-2.347656 11.558594-6.519531 15.730469zm0 0"/><path d="m58.464844 273.28125c-11.554688-11.550781-29.660156-13.332031-43.242188-4.253906-13.585937 9.082031-18.863281 26.492187-12.609375 41.585937 6.253907 15.09375 22.300781 23.667969 38.324219 20.476563 16.023438-3.1875 27.5625-17.25 27.5625-33.589844-.003906-9.082031-3.613281-17.792969-10.035156-24.21875zm-8.484375 39.949219c-8.6875 8.675781-22.761719 8.671875-31.445313-.011719-8.679687-8.683594-8.679687-22.757812 0-31.441406 8.683594-8.683594 22.757813-8.691406 31.445313-.011719 8.6875 8.6875 8.6875 22.773437 0 31.460937zm0 0"/><path d="m70.414062 348.910156c-13.375 13.375-13.375 35.058594 0 48.433594s35.058594 13.375 48.433594 0 13.375-35.058594 0-48.433594c-13.382812-13.351562-35.050781-13.351562-48.433594 0zm39.949219 39.949219c-8.6875 8.675781-22.761719 8.671875-31.441406-.011719-8.683594-8.683594-8.683594-22.757812 0-31.441406 8.679687-8.683594 22.753906-8.6875 31.441406-.011719 4.207031 4.152344 6.578125 9.820313 6.578125 15.734375 0 5.910156-2.371094 11.578125-6.578125 15.730469zm0 0"/><path d="m118.847656 10.015625c-13.371094-13.359375-35.039062-13.351563-48.402344.015625-13.367187 13.367188-13.367187 35.035156 0 48.402344 13.363282 13.367187 35.03125 13.375 48.402344.015625 6.480469-6.390625 10.128906-15.113281 10.128906-24.214844 0-9.105469-3.648437-17.828125-10.128906-24.21875zm-8.484375 39.949219c-8.6875 8.6875-22.777343 8.6875-31.464843 0-8.6875-8.691406-8.6875-22.777344 0-31.464844s22.777343-8.6875 31.464843 0c8.671875 8.695312 8.671875 22.769531 0 31.464844zm0 0"/></g></svg>