<svg id="Layer_1" height="512" viewBox="0 0 512 512" width="512" xmlns="http://www.w3.org/2000/svg" data-name="Layer 1"><g fill="#d4e1f4"><path d="m263.039 281.463h30v193.537h-30z"/><path d="m140.009 192.695h30v282.305h-30z"/><path d="m25.724 98.656-3.665 376.344h30l3.665-376.344z"/><path d="m390.043 360.02-1.466 114.98h30l1.466-114.98z"/></g><path d="m496 348.02h-105.881v-72.557a6 6 0 0 0 -6-6h-121.08v-82.763a6 6 0 0 0 -6-6h-117.03v-88.044a6 6 0 0 0 -6-6h-114.226a6 6 0 0 0 -6 5.941l-3.783 388.345a6 6 0 0 0 6 6.058h480a6 6 0 0 0 6-6v-126.98a6 6 0 0 0 -6-6zm-117.881-66.557v72.557l-1.542 120.98h-113.538v-193.537zm-127.08-88.763v282.3h-111.03v-282.3zm-225.315-94.044h102.285v376.344h-105.95zm464.276 376.344h-101.423l1.466-114.98h99.957z" fill="#0635c9"/><path d="m498.06 270.6c-15.181-5.548-30.355-11.7-45.1-18.282-104.55-46.668-197.788-119.077-277.305-215.318h37.1a6 6 0 0 0 0-12h-49.731c-.07 0-.138.008-.207.011-.117 0-.234.006-.35.017-.093.009-.182.024-.273.036s-.206.027-.308.047-.2.044-.293.068-.185.044-.276.071-.2.065-.3.1-.172.06-.257.094-.2.087-.294.134c-.08.037-.16.073-.239.114-.1.053-.2.112-.294.171-.072.043-.144.084-.214.13-.1.067-.2.14-.294.212-.054.04-.109.075-.162.117-.01.008-.018.018-.028.026-.089.072-.173.151-.257.228-.064.059-.131.114-.192.175s-.093.1-.14.152a5.975 5.975 0 0 0 -.882 1.206l-.019.032c-.053.1-.1.2-.144.3-.037.079-.078.156-.112.237-.017.039-.029.081-.045.121a5.972 5.972 0 0 0 -.348 1.3c-.014.088-.031.176-.04.264s-.009.151-.014.226c-.009.125-.019.251-.019.377v.034 50.4a6 6 0 1 0 12 0v-33.625c80.134 96.113 173.933 168.582 279.042 215.5 15 6.7 30.434 12.952 45.875 18.595a6 6 0 1 0 4.12-11.27z" fill="#69e781"/></svg>