<?xml version="1.0"?>
<svg xmlns="http://www.w3.org/2000/svg" id="Layer_1" data-name="Layer 1" viewBox="0 0 512 512" width="512" height="512"><title>service hours</title><path d="M104.133,263h21.238a6,6,0,1,0,0-12H104.056A144.17,144.17,0,0,1,211,116.423V111.8C136,115.378,76.617,176,74.056,251H95.371a6,6,0,0,1,0,12H74.133C77.69,336,137,395.916,211,399.459V394.8C151.538,378.942,107.194,325.816,104.133,263Z" style="fill:#d4e1f4"/><path d="M232.927,112.421q-4.92-.513-9.927-.693V113.8Q227.907,112.941,232.927,112.421Z" style="fill:#d4e1f4"/><path d="M223,397.446v2.094q5.1-.173,10.054-.691Q227.972,398.323,223,397.446Z" style="fill:#d4e1f4"/><path d="M285.592,377.924A91.279,91.279,0,0,1,361.928,288a91.136,91.136,0,1,0,0,179.856A91.281,91.281,0,0,1,285.592,377.924Z" style="fill:#d4e1f4"/><path d="M405.7,343.11l-53.3-30.828a6.909,6.909,0,0,0-6.95,0L292.278,343.11A6.8,6.8,0,0,0,289,349.173v61.654a6.826,6.826,0,0,0,3.3,6.063l53.3,30.828a6.818,6.818,0,0,0,3.45.937,6.909,6.909,0,0,0,3.476-.937L405.71,416.89a6.813,6.813,0,0,0,3.29-6.063V349.173A6.826,6.826,0,0,0,405.7,343.11Zm-56.7,28.8-13.221-7.633,39.391-22.743,13.221,7.633Zm0-45.485,12.17,7.026L321.778,356.2l-12.169-7.026Zm-46,34.865,39,22.745v45.493l-39-22.745Zm53,68.238V384.038l39-22.745v45.493Z" style="fill:#69e781"/><path d="M66.15,255.691c0,85.856,69.2,155.824,154.788,156.973a6.73,6.73,0,0,0,1.119.258c.333,0,.62.078.941.078h0a157.591,157.591,0,0,0,40.191-5.348A7.057,7.057,0,0,0,259.607,394,146.742,146.742,0,0,1,229,398.551V377.327a7,7,0,0,0-14,0v21.138C143,394.456,84.25,336,80.228,264h20.183a7,7,0,0,0,0-14H80.135A143.15,143.15,0,0,1,215,112.918V134.11a7,7,0,0,0,14,0V112.827C303,115.911,362.8,176,365.865,250H343.628a7,7,0,1,0,0,14h22.141a142.147,142.147,0,0,1-4.019,26.59,6.924,6.924,0,0,0,5.1,8.412,7.026,7.026,0,0,0,8.487-5.134A157.807,157.807,0,0,0,380,255.71a156.109,156.109,0,0,0-25.075-85.035l17.148-17.153a14.8,14.8,0,0,0,0-20.9l-11.83-11.831a14.793,14.793,0,0,0-20.9,0l-15.2,15.051A156.305,156.305,0,0,0,245,100.282V81h9.559A14.273,14.273,0,0,0,269,66.505V49.774A14.51,14.51,0,0,0,254.559,35H191.44A14.509,14.509,0,0,0,177,49.774V66.505A14.272,14.272,0,0,0,191.44,81H201v19.282C125,111.144,66.15,176.691,66.15,255.691Zm283.1-125a.777.777,0,0,1,1.095,0l11.831,11.829a.776.776,0,0,1,0,1.1L346.688,159.1a158.39,158.39,0,0,0-12.107-13.744ZM256,66.226a.775.775,0,0,1-.775.774h-63.45a.775.775,0,0,1-.775-.774V49.774a.775.775,0,0,1,.775-.774h63.45a.775.775,0,0,1,.775.774ZM215,81h16V98.911c-2-.144-5.366-.22-8.15-.22-.148,0-.22.006-.368.006-.178-.014-.319-.027-.5-.027a4.205,4.205,0,0,0-.6.044c-2.194.024-4.385.083-6.385.2Z" style="fill:#0635c9"/><path d="M223,176.068a7,7,0,0,0-7,7v74.719A6.976,6.976,0,0,0,222.749,265h56.014a7,7,0,0,0,0-14H230V183.068A7,7,0,0,0,223,176.068Z" style="fill:#0635c9"/><path d="M349,283a97,97,0,1,0,97,97A97.11,97.11,0,0,0,349,283Zm0,180a83,83,0,1,1,83-83A83.094,83.094,0,0,1,349,463Z" style="fill:#69e781"/></svg>
