<?xml version="1.0"?>
<svg xmlns="http://www.w3.org/2000/svg" id="Layer_1" data-name="Layer 1" viewBox="0 0 512 512" width="512" height="512"><title>Server Link</title><path d="M107,264.578v-80c0-2.206,1.794-3.578,4-3.578H91c-2.206,0-4,1.372-4,3.578v80c0,2.205,1.794,4.422,4,4.422h20C108.794,269,107,266.783,107,264.578Z" style="fill:#d4e1f4"/><path d="M107,144.578v-80c0-2.206,1.794-3.578,4-3.578H91c-2.206,0-4,1.372-4,3.578v80c0,2.2,1.794,4.422,4,4.422h20C108.794,149,107,146.783,107,144.578Z" style="fill:#d4e1f4"/><path d="M325.5,201.578a23,23,0,1,0,23,23A23.026,23.026,0,0,0,325.5,201.578Zm0,34a11,11,0,1,1,11-11A11.013,11.013,0,0,1,325.5,235.578Z" style="fill:#0635c9"/><path d="M383.5,201.578a23,23,0,1,0,23,23A23.026,23.026,0,0,0,383.5,201.578Zm0,34a11,11,0,1,1,11-11A11.013,11.013,0,0,1,383.5,235.578Z" style="fill:#0635c9"/><path d="M111,213.578a6,6,0,0,0-6,6v20a6,6,0,0,0,12,0v-20A6,6,0,0,0,111,213.578Z" style="fill:#0635c9"/><path d="M138,213.578a6,6,0,0,0-6,6v20a6,6,0,0,0,12,0v-20A6,6,0,0,0,138,213.578Z" style="fill:#0635c9"/><path d="M164,213.578a6,6,0,0,0-6,6v20a6,6,0,0,0,12,0v-20A6,6,0,0,0,164,213.578Z" style="fill:#0635c9"/><path d="M191,213.578a6,6,0,0,0-6,6v20a6,6,0,0,0,12,0v-20A6,6,0,0,0,191,213.578Z" style="fill:#0635c9"/><path d="M217,213.578a6,6,0,0,0-6,6v20a6,6,0,0,0,12,0v-20A6,6,0,0,0,217,213.578Z" style="fill:#0635c9"/><path d="M325.5,81.578a23,23,0,1,0,23,23A23.026,23.026,0,0,0,325.5,81.578Zm0,34a11,11,0,1,1,11-11A11.013,11.013,0,0,1,325.5,115.578Z" style="fill:#0635c9"/><path d="M383.5,81.578a23,23,0,1,0,23,23A23.026,23.026,0,0,0,383.5,81.578Zm0,34a11,11,0,1,1,11-11A11.013,11.013,0,0,1,383.5,115.578Z" style="fill:#0635c9"/><path d="M111,93.578a6,6,0,0,0-6,6v20a6,6,0,0,0,12,0v-20A6,6,0,0,0,111,93.578Z" style="fill:#0635c9"/><path d="M138,93.578a6,6,0,0,0-6,6v20a6,6,0,0,0,12,0v-20A6,6,0,0,0,138,93.578Z" style="fill:#0635c9"/><path d="M164,93.578a6,6,0,0,0-6,6v20a6,6,0,0,0,12,0v-20A6,6,0,0,0,164,93.578Z" style="fill:#0635c9"/><path d="M191,93.578a6,6,0,0,0-6,6v20a6,6,0,0,0,12,0v-20A6,6,0,0,0,191,93.578Z" style="fill:#0635c9"/><path d="M217,93.578a6,6,0,0,0-6,6v20a6,6,0,0,0,12,0v-20A6,6,0,0,0,217,93.578Z" style="fill:#0635c9"/><path d="M256,463.422a29.256,29.256,0,0,0,6-57.89V275H250V405.532a29.256,29.256,0,0,0,6,57.89Zm0-46.511a17.256,17.256,0,1,1-17.256,17.256A17.275,17.275,0,0,1,256,416.911Z" style="fill:#69e781"/><path d="M297.86,336H327v30.773a28.7,28.7,0,0,0-23.384,28.634A29.272,29.272,0,1,0,339,366.773V330.291A6.477,6.477,0,0,0,332.744,324H304V275H292v55.291A5.641,5.641,0,0,0,297.86,336ZM350,395.407a17.256,17.256,0,1,1-17.256-17.256A17.276,17.276,0,0,1,350,395.407Z" style="fill:#69e781"/><path d="M208,324H179.256A6.477,6.477,0,0,0,173,330.291v13.226a29.265,29.265,0,1,0,35.352,28.634A28.668,28.668,0,0,0,185,343.517V336h29.14a5.641,5.641,0,0,0,5.86-5.709V275H208Zm-11.488,48.151A17.256,17.256,0,1,1,179.256,354.9,17.276,17.276,0,0,1,196.512,372.151Z" style="fill:#69e781"/><path d="M421,49H91A15.663,15.663,0,0,0,75,64.578v80C75,153.4,82.178,161,91,161h34v8H91a15.663,15.663,0,0,0-16,15.578v80C75,273.4,82.178,281,91,281H421c8.822,0,16-7.6,16-16.422v-80A15.663,15.663,0,0,0,421,169H387v-8h34c8.822,0,16-7.6,16-16.422v-80A15.663,15.663,0,0,0,421,49ZM375,172H137V157H375Zm50,12.578v80c0,2.205-1.794,4.422-4,4.422H91c-2.206,0-4-2.217-4-4.422v-80c0-2.206,1.794-3.578,4-3.578h34.809c1.038,1,2.971,3,5.191,3H381c2.22,0,4.153-2,5.191-3H421C423.206,181,425,182.372,425,184.578Zm0-40c0,2.2-1.794,4.422-4,4.422H386.651c-.824-3-3.04-4-5.651-4H131c-2.611,0-4.827,1-5.651,4H91c-2.206,0-4-2.217-4-4.422v-80C87,62.372,88.794,61,91,61H421c2.206,0,4,1.372,4,3.578Z" style="fill:#0635c9"/></svg>
