<svg height="491pt" viewBox="-47 1 491 491.99977" width="491pt" xmlns="http://www.w3.org/2000/svg"><path d="m188.5 60v-18c.015625-12.707031 8.023438-24.03125 20-28.28125-9.179688-3.25-19.371094-1.839844-27.324219 3.78125-7.953125 5.625-12.679687 14.757812-12.675781 24.5v18c0 3.3125-2.6875 6-6 6h20c3.3125 0 6-2.6875 6-6zm0 0" fill="#d4e1f4"/><path d="m102.5 66h20v36h-20zm0 0" fill="#d4e1f4"/><path d="m78.882812 420.917969v-325.835938c0-2.210937 1.792969-4 4-4h-20c-2.207031 0-4 1.789063-4 4v325.835938c0 2.210937 1.792969 4 4 4h20c-2.207031 0-4-1.789063-4-4zm0 0" fill="#d4e1f4"/><path d="m281.929688 436.917969h3.871093c-.488281 0-.972656-.0625-1.441406-.179688-.804687.113281-1.617187.175781-2.429687.179688zm0 0" fill="#d4e1f4"/><path d="m32.5 466v-416c.007812-7.730469 6.269531-13.992188 14-14h-20c-7.730469.007812-13.992188 6.269531-14 14v416c.007812 7.726562 6.269531 13.992188 14 14h20c-7.730469-.007812-13.992188-6.273438-14-14zm0 0" fill="#d4e1f4"/><g fill="#69e781"><path d="m284.359375 436.738281c2.1875.550781 4.503906-.183593 5.972656-1.902343 1.59375-.84375 3.050781-1.921876 4.324219-3.199219l50.1875-50.1875c3.386719-3.367188 5.285156-7.949219 5.273438-12.726563v-273.640625c-.011719-8.832031-7.167969-15.992187-16-16h-33.617188c-3.3125 0-6 2.683594-6 6 0 3.3125 2.6875 6 6 6h33.617188c2.207031 0 4 1.789063 4 4v272.371094h-32.316407c-14.355469.015625-25.984375 11.648437-26 26v31.464844h-216.917969c-2.207031 0-4-1.789063-4-4v-325.835938c0-2.210937 1.792969-4 4-4h33.617188c3.3125 0 6-2.6875 6-6 0-3.316406-2.6875-6-6-6h-33.617188c-8.832031.007813-15.988281 7.167969-16 16v325.835938c.011719 8.832031 7.167969 15.992187 16 16h219.046876c.8125-.003907 1.625-.066407 2.429687-.179688zm21.441406-57.285156h24.078125l-38.078125 38.078125v-24.078125c.007813-7.726563 6.269531-13.992187 14-14zm0 0"/><path d="m300.5 165.179688h-141.261719c-3.316406 0-6 2.6875-6 6s2.683594 6 6 6h141.261719c3.3125 0 6-2.6875 6-6s-2.6875-6-6-6zm0 0"/><path d="m300.5 219.894531h-141.261719c-3.316406 0-6 2.683594-6 6 0 3.3125 2.683594 6 6 6h141.261719c3.3125 0 6-2.6875 6-6 0-3.316406-2.6875-6-6-6zm0 0"/><path d="m300.5 274.605469h-141.261719c-3.316406 0-6 2.6875-6 6 0 3.316406 2.683594 6 6 6h141.261719c3.3125 0 6-2.683594 6-6 0-3.3125-2.6875-6-6-6zm0 0"/><path d="m300.5 329.320312h-141.261719c-3.316406 0-6 2.6875-6 6s2.683594 6 6 6h141.261719c3.3125 0 6-2.6875 6-6s-2.6875-6-6-6zm0 0"/><path d="m106.5 155.179688c-8.835938 0-16 7.164062-16 16 0 8.835937 7.164062 16 16 16s16-7.164063 16-16c-.011719-8.832032-7.167969-15.988282-16-16zm0 20c-2.210938 0-4-1.789063-4-4 0-2.210938 1.789062-4 4-4s4 1.789062 4 4c0 2.210937-1.789062 4-4 4zm0 0"/><path d="m106.5 209.894531c-8.835938 0-16 7.164063-16 16 0 8.835938 7.164062 16 16 16s16-7.164062 16-16c-.011719-8.832031-7.167969-15.992187-16-16zm0 20c-2.210938 0-4-1.792969-4-4 0-2.210937 1.789062-4 4-4s4 1.789063 4 4c0 2.207031-1.789062 4-4 4zm0 0"/><path d="m106.5 264.605469c-8.835938 0-16 7.164062-16 16 0 8.835937 7.164062 16 16 16s16-7.164063 16-16c-.011719-8.832031-7.167969-15.988281-16-16zm0 20c-2.210938 0-4-1.789063-4-4 0-2.207031 1.789062-4 4-4s4 1.792969 4 4c0 2.210937-1.789062 4-4 4zm0 0"/><path d="m106.5 319.320312c-8.835938 0-16 7.164063-16 16 0 8.835938 7.164062 16 16 16s16-7.164062 16-16c-.011719-8.832031-7.167969-15.988281-16-16zm0 20c-2.210938 0-4-1.792968-4-4 0-2.210937 1.789062-4 4-4s4 1.789063 4 4c0 2.207032-1.789062 4-4 4zm0 0"/></g><path d="m370.5 24h-134.0625c-6.949219-14.65625-21.71875-24-37.9375-24s-30.992188 9.34375-37.9375 24h-134.0625c-14.351562.015625-25.984375 11.648438-26 26v416c.015625 14.351562 11.648438 25.984375 26 26h344c14.351562-.015625 25.984375-11.648438 26-26v-416c-.015625-14.351562-11.648438-25.984375-26-26zm-172-12c16.5625.019531 29.980469 13.4375 30 30v18c0 3.3125 2.6875 6 6 6h60v36h-192v-36h60c3.3125 0 6-2.6875 6-6v-18c.019531-16.5625 13.4375-29.980469 30-30zm186 454c-.007812 7.726562-6.273438 13.992188-14 14h-344c-7.730469-.007812-13.992188-6.273438-14-14v-416c.007812-7.730469 6.269531-13.992188 14-14h130.433594c-.285156 1.988281-.429688 3.992188-.433594 6v12h-60c-3.3125 0-6 2.6875-6 6v48c0 3.3125 2.6875 6 6 6h204c3.3125 0 6-2.6875 6-6v-48c0-3.3125-2.6875-6-6-6h-60v-12c-.003906-2.007812-.148438-4.011719-.433594-6h130.433594c7.726562.007812 13.992188 6.269531 14 14zm0 0" fill="#0635c9"/></svg>