<?xml version="1.0"?>
<svg xmlns="http://www.w3.org/2000/svg" id="Layer_1" data-name="Layer 1" viewBox="0 0 512 512" width="512" height="512"><title>Tool Box 2</title><path d="M286,263.909a28.846,28.846,0,0,0,28.8-28.181H284.818v9.363a28.667,28.667,0,0,1-6.223,17.855A28.945,28.945,0,0,0,286,263.909Z" style="fill:#d4e1f4"/><path d="M166,397.182a36.678,36.678,0,0,1-36.636-36.636V235.728h-30V370.546A36.678,36.678,0,0,0,136,407.182H376a36.5,36.5,0,0,0,25.115-10Z" style="fill:#d4e1f4"/><path d="M436,189H415.727v-3.909a28.851,28.851,0,0,0-28.818-28.819H341.545V119.637a28.851,28.851,0,0,0-28.818-28.819H199.273a28.851,28.851,0,0,0-28.818,28.819v36.635H125.091a28.851,28.851,0,0,0-28.818,28.819V189H76a7,7,0,0,0-7,7v32.728a7,7,0,0,0,7,7h9.364V370.546A50.693,50.693,0,0,0,136,421.182H376a50.693,50.693,0,0,0,50.636-50.636V235.728H436a7,7,0,0,0,7-7V196A7,7,0,0,0,436,189ZM184.455,119.637a14.835,14.835,0,0,1,14.818-14.819H312.727a14.835,14.835,0,0,1,14.818,14.819v36.635H184.455Zm-74.182,65.454a14.835,14.835,0,0,1,14.818-14.819H386.909a14.835,14.835,0,0,1,14.818,14.819V189H110.273ZM270.818,203v42.091a14.818,14.818,0,0,1-29.636,0V203ZM83,221.728V203H227.182v18.728ZM412.636,370.546A36.678,36.678,0,0,1,376,407.182H136a36.678,36.678,0,0,1-36.636-36.636V235.728H227.182v9.363a28.818,28.818,0,1,0,57.636,0v-9.363H412.636ZM429,221.728H284.818V203H429Z" style="fill:#0635c9"/><path d="M146.909,292.637a7,7,0,0,0-7,7v70.909a7,7,0,0,0,14,0V299.637A7,7,0,0,0,146.909,292.637Z" style="fill:#69e781"/><path d="M201.455,292.637a7,7,0,0,0-7,7v70.909a7,7,0,0,0,14,0V299.637A7,7,0,0,0,201.455,292.637Z" style="fill:#69e781"/><path d="M256,292.637a7,7,0,0,0-7,7v70.909a7,7,0,1,0,14,0V299.637A7,7,0,0,0,256,292.637Z" style="fill:#69e781"/><path d="M310.545,292.637a7,7,0,0,0-7,7v70.909a7,7,0,0,0,14,0V299.637A7,7,0,0,0,310.545,292.637Z" style="fill:#69e781"/><path d="M365.091,292.637a7,7,0,0,0-7,7v70.909a7,7,0,0,0,14,0V299.637A7,7,0,0,0,365.091,292.637Z" style="fill:#69e781"/></svg>
