<?xml version="1.0" standalone="no"?><!DOCTYPE svg PUBLIC "-//W3C//DTD SVG 1.1//EN" "http://www.w3.org/Graphics/SVG/1.1/DTD/svg11.dtd"><svg t="1608171622167" class="icon" viewBox="0 0 1024 1024" version="1.1" xmlns="http://www.w3.org/2000/svg" p-id="858" width="128" height="128" xmlns:xlink="http://www.w3.org/1999/xlink"><defs><style type="text/css"></style></defs><path d="M809.664 785.72L837.64 936l-156.644-99.024A654 654 0 0 1 512 858.908c-280.56 0-508-172.572-508-385.452S231.44 88 512 88s508 172.572 508 385.456c0 128.492-82.944 242.228-210.336 312.264zM512 120.024c-265.124 0-480.048 158.496-480.048 354s214.924 354 480.048 354 480.048-158.496 480.048-354-214.924-354-480.048-354z m333.388 351.296a15.712 15.712 0 0 0-5.672-11.32 24.592 24.592 0 0 0-15.392-3.936 39.948 39.948 0 0 0-19.528 3.7 9.904 9.904 0 0 0-4.992 6.8 6.192 6.192 0 0 0 2.256 6.084q3.924 3.344 29.512 9.428t34.604 14.912q8.872 8.952 6.072 24.94a47.396 47.396 0 0 1-19.74 29.948q-16.688 12.528-45.056 12.528-25.764 0-38.94-10.5a38.8 38.8 0 0 1-14.648-28.516l34.4-5.132a20.168 20.168 0 0 0 6.056 14.856 25.412 25.412 0 0 0 17.396 5.072 37.124 37.124 0 0 0 20.284-4.788 13.2 13.2 0 0 0 5.964-8.952 7.744 7.744 0 0 0-1.264-6.324 22.024 22.024 0 0 0-10.4-4.4q-38.8-8.952-48.304-16.348-13.156-10.26-9.956-28.516a43.404 43.404 0 0 1 17.796-27.684q14.908-11.2 42.1-11.2 25.876 0 36.976 8.472a34.696 34.696 0 0 1 12.94 25.06z m-128.4-53.692l5.44-31.024h33.364l-5.444 31.024h-33.36z m8.112 143.896h-33.36l22.232-126.716h33.36z m-75.124-16.048a73.804 73.804 0 0 1-49.8 18.912 64.744 64.744 0 0 1-31.684-7.876 41.844 41.844 0 0 1-19.868-23.088 71.972 71.972 0 0 1-1.692-37.048 80.4 80.4 0 0 1 13.864-32.332 72.8 72.8 0 0 1 27.396-23.864 77.132 77.132 0 0 1 34.984-8.236q28.616 0 43.62 18.676t10 47.2a79.484 79.484 0 0 1-26.836 47.656z m-11.328-76.184a23.2 23.2 0 0 0-20.148-10.024 33.876 33.876 0 0 0-23.724 10.024 50.2 50.2 0 0 0-13.968 28.876q-3.312 18.852 3.836 28.872a23.356 23.356 0 0 0 20.208 10.024 33.644 33.644 0 0 0 23.66-10.024 50.852 50.852 0 0 0 13.956-29.112q3.248-18.612-3.836-28.636z m-129.268 92.232H476l11.744-66.936q3.492-19.928 2.536-25.296a13.104 13.104 0 0 0-5.2-8.532 18.864 18.864 0 0 0-11.496-3.16 31.324 31.324 0 0 0-15.556 4.056 30.14 30.14 0 0 0-11.7 12.228 81.896 81.896 0 0 0-7.268 24.164l-11.136 63.476H394.56l30.688-174.92h33.364l-11.288 64.312q19.476-18.972 41.916-18.972a43.908 43.908 0 0 1 20.024 4.296 26.4 26.4 0 0 1 12.024 10.98 34 34 0 0 1 3.812 14.8 133.94 133.94 0 0 1-2.692 25.176z m-211.92 0l-11.72-130.772-57.512 130.772h-38.112l-10.864-174.92h35.972L220.4 506.76l52.884-120.156h41.792l9.072 122.196 48.152-122.196h35.38l-72.956 174.92h-37.28z" fill="#0635c9" p-id="859"></path></svg>