<?xml version="1.0"?>
<svg xmlns="http://www.w3.org/2000/svg" xmlns:xlink="http://www.w3.org/1999/xlink" version="1.1" id="Capa_1" x="0px" y="0px" viewBox="0 0 395.947 395.947" style="enable-background:new 0 0 395.947 395.947;" xml:space="preserve" width="512px" height="512px" class=""><g><path style="fill:#031B4E" d="M320.853,68.267H109.053c-3.773,0-6.827-3.053-6.827-6.827s3.053-6.827,6.827-6.827h211.801  c3.773,0,6.827,3.053,6.827,6.827S324.627,68.267,320.853,68.267z" data-original="#602F75" class="active-path" data-old_color="#031B4E"/><circle style="fill:#5E8DA7;" cx="40.96" cy="61.44" r="34.133" data-original="#5E8DA7"/><path style="fill:#031B4E" d="M40.96,102.4C18.374,102.4,0,84.026,0,61.44s18.374-40.96,40.96-40.96s40.96,18.374,40.96,40.96  S63.546,102.4,40.96,102.4z M40.96,34.133c-15.06,0-27.307,12.247-27.307,27.307S25.9,88.747,40.96,88.747S68.267,76.5,68.267,61.44  S56.02,34.133,40.96,34.133z" data-original="#602F75" class="active-path" data-old_color="#031B4E"/><circle style="fill:#EBAA39;" cx="354.987" cy="61.44" r="34.133" data-original="#EBAA39"/><path style="fill:#031B4E" d="M354.987,102.4c-22.586,0-40.96-18.374-40.96-40.96s18.374-40.96,40.96-40.96  c22.586,0,40.96,18.374,40.96,40.96S377.573,102.4,354.987,102.4z M354.987,34.133c-15.06,0-27.307,12.247-27.307,27.307  s12.247,27.307,27.307,27.307c15.06,0,27.307-12.247,27.307-27.307S370.046,34.133,354.987,34.133z" data-original="#602F75" class="active-path" data-old_color="#031B4E"/><circle style="fill:#C13D3D;" cx="40.96" cy="197.973" r="34.133" data-original="#C13D3D"/><path style="fill:#031B4E" d="M40.96,238.933c-22.586,0-40.96-18.374-40.96-40.96s18.374-40.96,40.96-40.96  s40.96,18.374,40.96,40.96S63.546,238.933,40.96,238.933z M40.96,170.667c-15.06,0-27.307,12.247-27.307,27.307  c0,15.06,12.247,27.307,27.307,27.307s27.307-12.247,27.307-27.307C68.267,182.914,56.02,170.667,40.96,170.667z" data-original="#602F75" class="active-path" data-old_color="#031B4E"/><g>
	<rect x="150.187" y="150.187" style="fill:#5E8DA7;" width="95.573" height="95.573" data-original="#5E8DA7"/>
	<path style="fill:#5E8DA7;" d="M245.76,252.587h-95.573c-3.773,0-6.827-3.053-6.827-6.827v-95.573c0-3.773,3.053-6.827,6.827-6.827   h95.573c3.773,0,6.827,3.053,6.827,6.827v95.573C252.587,249.533,249.533,252.587,245.76,252.587z M157.013,238.933h81.92v-81.92   h-81.92V238.933z" data-original="#5E8DA7"/>
</g><circle style="fill:#EBAA39;" cx="354.987" cy="197.973" r="34.133" data-original="#EBAA39"/><g>
	<path style="fill:#031B4E" d="M354.987,238.933c-22.586,0-40.96-18.374-40.96-40.96s18.374-40.96,40.96-40.96   c22.586,0,40.96,18.374,40.96,40.96S377.573,238.933,354.987,238.933z M354.987,170.667c-15.06,0-27.307,12.247-27.307,27.307   c0,15.06,12.247,27.307,27.307,27.307c15.06,0,27.307-12.247,27.307-27.307C382.293,182.914,370.046,170.667,354.987,170.667z" data-original="#602F75" class="active-path" data-old_color="#031B4E"/>
	<path style="fill:#031B4E" d="M320.853,204.8H75.093c-3.773,0-6.827-3.053-6.827-6.827s3.053-6.827,6.827-6.827h245.76   c3.773,0,6.827,3.053,6.827,6.827S324.627,204.8,320.853,204.8z" data-original="#602F75" class="active-path" data-old_color="#031B4E"/>
</g><circle style="fill:#EAEAEA;" cx="40.96" cy="334.507" r="34.133" data-original="#EAEAEA"/><path style="fill:#031B4E" d="M40.96,375.467c-22.586,0-40.96-18.374-40.96-40.96c0-22.586,18.374-40.96,40.96-40.96  s40.96,18.374,40.96,40.96C81.92,357.093,63.546,375.467,40.96,375.467z M40.96,307.2c-15.06,0-27.307,12.247-27.307,27.307  S25.9,361.813,40.96,361.813s27.307-12.247,27.307-27.307S56.02,307.2,40.96,307.2z" data-original="#602F75" class="active-path" data-old_color="#031B4E"/><circle style="fill:#C13D3D;" cx="354.987" cy="334.507" r="34.133" data-original="#C13D3D"/><g>
	<path style="fill:#031B4E" d="M354.987,375.467c-22.586,0-40.96-18.374-40.96-40.96c0-22.586,18.374-40.96,40.96-40.96   c22.586,0,40.96,18.374,40.96,40.96C395.947,357.093,377.573,375.467,354.987,375.467z M354.987,307.2   c-15.06,0-27.307,12.247-27.307,27.307s12.247,27.307,27.307,27.307c15.06,0,27.307-12.247,27.307-27.307   S370.046,307.2,354.987,307.2z" data-original="#602F75" class="active-path" data-old_color="#031B4E"/>
	<path style="fill:#031B4E" d="M286.486,341.333H75.093c-3.773,0-6.827-3.053-6.827-6.827s3.053-6.827,6.827-6.827h211.393   c3.773,0,6.827,3.053,6.827,6.827S290.26,341.333,286.486,341.333z" data-original="#602F75" class="active-path" data-old_color="#031B4E"/>
	<path style="fill:#031B4E" d="M197.973,341.333c-3.773,0-6.827-3.053-6.827-6.827V61.44c0-3.773,3.053-6.827,6.827-6.827   s6.827,3.053,6.827,6.827v273.067C204.8,338.28,201.747,341.333,197.973,341.333z" data-original="#602F75" class="active-path" data-old_color="#031B4E"/>
</g></g> </svg>
