<svg height="477pt" viewBox="-32 0 477 477.58" width="477pt" xmlns="http://www.w3.org/2000/svg"><path d="m326.289062 304.25c-9.566406.011719-17.316406 7.765625-17.328124 17.328125-.019532 16.199219-13.144532 29.324219-29.339844 29.34375h-30c16.195312-.019531 29.320312-13.144531 29.339844-29.34375.011718-9.5625 7.761718-17.316406 17.328124-17.328125zm0 0" fill="#d4e1f4"/><path d="m42.289062 444.917969v-140.667969h-30v140.667969c.011719 11.410156 9.257813 20.660156 20.667969 20.671875h30c-11.410156-.011719-20.65625-9.261719-20.667969-20.671875zm0 0" fill="#d4e1f4"/><path d="m62.289062 219.101562-10.128906-6.160156-1.871094 3.070313v23.109375l12-19.730469.132813-.210937zm-12 73.148438v.921875h12v-.921875zm309.902344-68.019531-9.800781 6.941406 11.898437 16.789063v-20.769532zm0 0" fill="#0635c9"/><path d="m17.960938 292.25 32.328124-53.128906v-23.109375s-50 79.9375-50 82.238281v146.671875c.023438 18.03125 14.636719 32.640625 32.671876 32.65625h346.660156c18.03125-.015625 32.648437-14.625 32.667968-32.65625v-146.671875c0-2.421875-50-71.058594-50-71.058594v20.769532l31.390626 44.289062h-97.390626c-16.1875.019531-29.308593 13.140625-29.328124 29.328125-.011719 9.574219-7.769532 17.332031-17.339844 17.34375h-86.660156c-9.574219-.011719-17.328126-7.769531-17.339844-17.34375-.019532-16.1875-13.140625-29.308594-29.332032-29.328125m284 152.671875c-.015624 11.40625-9.261718 20.648437-20.667968 20.65625h-346.660156c-11.410157-.007813-20.65625-9.25-20.671876-20.65625v-140.671875h104c9.566407.011719 17.320313 7.765625 17.332032 17.328125.015625 16.199219 13.140625 29.324219 29.339844 29.34375h86.660156c16.195312-.019531 29.320312-13.144531 29.339844-29.34375.011718-9.5625 7.761718-17.316406 17.328124-17.328125h104zm0 0" fill="#0635c9"/><path d="m139.621094 410.917969h133.335937c3.3125 0 6-2.6875 6-6v-26.667969c0-3.3125-2.6875-6-6-6h-133.335937c-3.3125 0-6 2.6875-6 6v26.667969c0 3.3125 2.6875 6 6 6zm6-26.667969h121.335937v14.667969h-121.335937zm0 0" fill="#0635c9"/><g fill="#69e781"><path d="m273.320312 59.820312v-39.359374l68.648438 68.5h-39.5c-16.085938-.015626-29.128906-13.050782-29.148438-29.140626zm-50.886718 45.136719v-39.363281l68.648437 68.507812h-39.503906c-16.089844-.019531-29.125-13.058593-29.144531-29.144531zm138.101562-14.425781-88.789062-88.601562c-.980469-.972657-2.265625-1.582032-3.640625-1.71875l-1.851563-.1914068c-.199218-.0195312-.398437-.0195312-.597656-.0195312h-123.335938c-22.710937.0234375-41.117187 18.429688-41.140624 41.140625v3.988281h-9.75c-22.707032.03125-41.109376 18.433594-41.140626 41.140625v205.902344h12v-205.902344c.015626-16.085937 13.054688-29.121093 29.140626-29.140625h119v47.832032c.035156 22.710937 18.4375 41.113281 41.148437 41.140624h47.820313v146.148438h12v-152.339844c.003906-1.589844-.628907-3.117187-1.757813-4.238281l-88.78125-88.601563c-.976563-.980468-2.261719-1.585937-3.640625-1.71875l-1.859375-.191406c-.195313-.019531-.390625-.03125-.589844-.03125h-101.589843v-3.988281c.015624-16.085937 13.054687-29.125 29.140624-29.140625h119v47.820312c.023438 22.710938 18.429688 41.113282 41.140626 41.140626h47.828124v191.289062h12v-197.46875c0-1.59375-.632812-3.125-1.757812-4.25zm0 0"/><path d="m175.644531 231.691406c-3.316406 0-6 2.683594-6 6 0 3.3125 2.683594 6 6 6h17.566407c3.3125 0 6-2.6875 6-6 0-3.316406-2.6875-6-6-6zm0 0"/><path d="m259.769531 193.761719c0-3.316407-2.6875-6-6-6h-145.84375c-3.3125 0-6 2.683593-6 6 0 3.3125 2.6875 6 6 6h145.84375c3.3125 0 6-2.6875 6-6zm0 0"/><path d="m107.925781 231.691406c-3.3125 0-6 2.683594-6 6 0 3.3125 2.6875 6 6 6h45.464844c3.3125 0 6-2.6875 6-6 0-3.316406-2.6875-6-6-6zm0 0"/></g></svg>