<?xml version="1.0" standalone="no"?><!DOCTYPE svg PUBLIC "-//W3C//DTD SVG 1.1//EN" "http://www.w3.org/Graphics/SVG/1.1/DTD/svg11.dtd"><svg t="1608098530331" class="icon" viewBox="0 0 1098 1024" version="1.1" xmlns="http://www.w3.org/2000/svg" p-id="1677" width="51.46875" height="48" xmlns:xlink="http://www.w3.org/1999/xlink"><defs><style type="text/css"></style></defs><path d="M868.445997 975.443652c0 15.606485-1.021701 30.983088-2.681966 46.129808h-46.155351c1.864605-15.14672 3.141731-30.472237 3.141732-46.129808 0-203.829384-163.625443-369.064006-365.46251-369.064006-7.713844 0-15.24889 0.689648-22.860564 1.174956v-1.174956l1.685807-0.383138c-6.028037-0.40868-12.030531-0.919531-18.135195-0.919531-205.20868 0-371.541631 166.716089-371.541632 372.358992 0 15.785283 1.302669 31.264056 3.218359 46.538488H2.733051A418.131205 418.131205 0 0 1 0 977.435969c0-193.127064 130.57341-355.27104 307.940733-403.750761-99.794662-49.348167-168.606236-152.08022-168.606236-271.159491C139.334497 135.452033 274.48002 0 441.196109 0 607.912198 0 743.05772 135.452033 743.05772 302.525717c0 121.275929-71.365827 225.591619-174.148965 273.841457C741.627338 625.562085 868.445997 785.305064 868.445997 975.443652z m-171.824595-672.917935c0-141.3779-114.353904-255.987229-255.425293-255.987229s-255.425293 114.609329-255.425293 255.987229c0 141.403442 114.353904 256.012771 255.425293 256.012771s255.425293-114.609329 255.425293-256.012771z" fill="#13227a" p-id="1678"></path><path d="M893.988526 613.020703h204.340234v51.085059h-204.340234zM791.818409 485.308057h306.510351v51.085058H791.818409zM791.818409 357.59541h306.510351v51.085059H791.818409z" fill="#13227a" p-id="1679"></path></svg>