<?xml version="1.0"?>
<svg xmlns="http://www.w3.org/2000/svg" id="Layer_1" data-name="Layer 1" viewBox="0 0 512 512" width="512" height="512"><title>Stream Advertisment</title><path d="M167.5,241a104.157,104.157,0,0,1,89-102.914,104,104,0,1,0,0,205.828A104.157,104.157,0,0,1,167.5,241Z" style="fill:#d4e1f4"/><path d="M125.5,241a116,116,0,1,0,116-116A116.132,116.132,0,0,0,125.5,241Zm116-104a104,104,0,1,1-104,104A104.118,104.118,0,0,1,241.5,137Z" style="fill:#0635c9"/><path d="M241.5,376.65a6,6,0,0,0-6,6v55.234a21,21,0,1,0,12,0V382.65A6,6,0,0,0,241.5,376.65Zm9,81.35a9,9,0,1,1-9-9A9.01,9.01,0,0,1,250.5,458Z" style="fill:#0635c9"/><path d="M241.5,105.35a6,6,0,0,0,6-6V74.116a21,21,0,1,0-12,0V99.35A6,6,0,0,0,241.5,105.35ZM232.5,54a9,9,0,1,1,9,9A9.01,9.01,0,0,1,232.5,54Z" style="fill:#0635c9"/><path d="M373.15,235a6,6,0,0,0,0,12h55.235a21,21,0,1,0,0-12Zm75.35-3a9,9,0,1,1-9,9A9.01,9.01,0,0,1,448.5,232Z" style="fill:#0635c9"/><path d="M63.5,262a21.029,21.029,0,0,0,20.115-15H108.85a6,6,0,1,0,0-12H83.615A21,21,0,1,0,63.5,262Zm0-30a9,9,0,1,1-9,9A9.01,9.01,0,0,1,63.5,232Z" style="fill:#0635c9"/><path d="M69.882,85.872a21.014,21.014,0,0,0,9.981-2.524l59.057,59.057a6,6,0,0,0,8.484-8.486L88.357,74.873a21.019,21.019,0,1,0-18.475,11ZM63.519,58.518a9,9,0,1,1-2.637,6.364A8.937,8.937,0,0,1,63.519,58.518Z" style="fill:#0635c9"/><path d="M376.269,381.967a21,21,0,1,0,4.868-33.315l-17.843-17.844a6,6,0,0,0-8.486,8.485l17.834,17.835a21.011,21.011,0,0,0,3.627,24.839Zm21.213-21.213a9.01,9.01,0,1,1-6.364-2.632A8.937,8.937,0,0,1,397.482,360.754Z" style="fill:#0635c9"/><path d="M65.033,382.269a21,21,0,1,0,33.324,4.858L137.4,348.081a6,6,0,0,0-8.484-8.486L89.863,378.652A21.027,21.027,0,0,0,65.033,382.269Zm21.213,21.213h0a9,9,0,1,1,2.637-6.364A8.937,8.937,0,0,1,86.245,403.482Z" style="fill:#0635c9"/><path d="M345.809,151.192a6,6,0,0,0,8.485,0l17.843-17.843a20.949,20.949,0,1,0-8.5-8.477l-17.834,17.835A6,6,0,0,0,345.809,151.192Zm29.945-42.674h0a9,9,0,1,1-2.637,6.364A8.937,8.937,0,0,1,375.755,108.518Z" style="fill:#0635c9"/><path d="M205.484,265.092l2.756-10.132H225.2l2.757,10.138c.364,1.277,1.487,2.8,4.765,2.8,3.629,0,8.9-2.289,8.9-5.875a4.8,4.8,0,0,0-.189-1.071l-15.71-51.243c-.9-2.866-4.452-4.718-9.045-4.718s-8.144,1.852-9.046,4.722L192,260.976a4.645,4.645,0,0,0-.183,1.045c0,3.586,5.272,5.875,8.9,5.875C204,267.9,205.118,266.375,205.484,265.092Zm11.194-41.321,5.478,20.109H211.2Z" style="fill:#69e781"/><path d="M251.705,267.9h14.868c13.648,0,21.164-7.217,21.164-20.323V225.817c0-13.107-7.516-20.324-21.164-20.324H251.705c-3.541,0-6.212,1.912-6.212,4.448v53.508C245.493,265.984,248.164,267.9,251.705,267.9Zm21.928-20.323c0,5.168-2.442,7.9-7.06,7.9H259.6V217.917h6.975c4.618,0,7.06,2.731,7.06,7.9Z" style="fill:#69e781"/></svg>
