<?xml version="1.0"?>
<svg xmlns="http://www.w3.org/2000/svg" id="Layer_1" data-name="Layer 1" viewBox="0 0 512 512" width="512" height="512"><title>certificate</title><path d="M403.992,332.686a44.591,44.591,0,0,1-39.684-64.535,44.524,44.524,0,1,0,59.368,59.9A43.95,43.95,0,0,1,403.992,332.686Z" style="fill:#d4e1f4"/><path d="M66,406a13.174,13.174,0,0,1-13-13.184V161H46a12.821,12.821,0,0,0-13,12.771V412.816A13.174,13.174,0,0,0,46,426H290.435l7.772-20Z" style="fill:#d4e1f4"/><path d="M46,440H294a7,7,0,0,0,0-14H46a13.174,13.174,0,0,1-13-13.184V173.771A12.821,12.821,0,0,1,46,161H399a12.821,12.821,0,0,1,13,12.771V231.06a7,7,0,0,0,14,0V173.771A26.836,26.836,0,0,0,399,147H46a26.836,26.836,0,0,0-27,26.771V412.816A27.188,27.188,0,0,0,46,440Z" style="fill:#0635c9"/><path d="M384,228.286a7,7,0,0,0,7-7V204.924C391,192.042,379.209,182,364.463,182H80.158C65.412,182,53,193.558,53,208.305V377.893A27.444,27.444,0,0,0,80.158,405H308.194a7,7,0,0,0,0-14H80.158A13.434,13.434,0,0,1,67,377.893V208.305C67,201.278,73.132,196,80.158,196H364.463c6.907,0,12.537,3.849,12.537,8.924v16.362A7,7,0,0,0,384,228.286Z" style="fill:#0635c9"/><path d="M280,273H87a7,7,0,0,0,0,14H280a7,7,0,0,0,0-14Z" style="fill:#0635c9"/><path d="M87,359H280a7,7,0,0,0,0-14H87a7,7,0,0,0,0,14Z" style="fill:#0635c9"/><path d="M87,322H220a7,7,0,0,0,0-14H87a7,7,0,0,0,0,14Z" style="fill:#0635c9"/><path d="M383.992,366.686A58.587,58.587,0,1,0,325.6,308.1,58.556,58.556,0,0,0,383.992,366.686Zm0-103.173A44.587,44.587,0,1,1,339.6,308.1,44.541,44.541,0,0,1,383.992,263.513Z" style="fill:#69e781"/><path d="M453.771,364.813a27.913,27.913,0,0,0,12.062-34.706,28,28,0,0,0,0-44.014,27.961,27.961,0,0,0-21.923-38.118,27.862,27.862,0,0,0-37.978-22.014,27.833,27.833,0,0,0-43.886,0,27.865,27.865,0,0,0-37.984,22.019,27.947,27.947,0,0,0-21.915,38.11,28.005,28.005,0,0,0,0,44.012,27.917,27.917,0,0,0,12.062,34.709L275.6,464.187a7,7,0,0,0,8.752,9.172l40.021-13.436,21.718,37.711a7,7,0,0,0,6.064,3.506c.177,0,.355-.007.534-.02a7,7,0,0,0,5.993-4.444l25.315-65.147,25.318,65.147a7,7,0,0,0,5.994,4.444c.177.013.355.02.532.02a7,7,0,0,0,6.064-3.507l21.714-37.71,40.023,13.436a7,7,0,0,0,8.752-9.172Zm-135.335-39.07a7,7,0,0,0-4.194-4.7,13.934,13.934,0,0,1,0-25.888,7,7,0,0,0,2.912-10.868,13.868,13.868,0,0,1-1.16-15.623,13.691,13.691,0,0,1,14-6.777,7,7,0,0,0,7.974-7.961,13.834,13.834,0,0,1,6.763-14.114,13.686,13.686,0,0,1,15.5,1.163,7,7,0,0,0,10.89-2.913,13.8,13.8,0,0,1,25.732,0,7,7,0,0,0,10.894,2.913,13.676,13.676,0,0,1,15.5-1.161,13.82,13.82,0,0,1,6.759,14.1,7,7,0,0,0,7.973,7.962,13.7,13.7,0,0,1,14.009,6.786,13.871,13.871,0,0,1-1.157,15.624,7,7,0,0,0,2.912,10.867,13.933,13.933,0,0,1,0,25.888,7,7,0,0,0-2.916,10.864,13.883,13.883,0,0,1,1.163,15.627,13.686,13.686,0,0,1-8.85,6.579,13.48,13.48,0,0,1-5.155.208,7,7,0,0,0-7.979,7.962,13.822,13.822,0,0,1-6.758,14.1,13.68,13.68,0,0,1-15.5-1.161,7,7,0,0,0-10.894,2.913,13.745,13.745,0,0,1-12.865,8.808,13.587,13.587,0,0,1-5.079-.967,13.91,13.91,0,0,1-7.787-7.841,7,7,0,0,0-10.892-2.916,13.688,13.688,0,0,1-15.5,1.165,13.835,13.835,0,0,1-6.763-14.11,7,7,0,0,0-7.961-7.96,13.89,13.89,0,0,1-12.857-22.407A7,7,0,0,0,318.436,325.743Zm32.487,152.236-17.282-30.01a7,7,0,0,0-8.294-3.142l-31.291,10.5,31.525-81.123a27.883,27.883,0,0,0,36.49,16.017,27.975,27.975,0,0,0,8.739,7.383l5.672,14.6Zm91.713-33.152a7,7,0,0,0-8.294,3.143l-17.28,30.008-30-77.2a27.572,27.572,0,0,0,18.875-10.54A27.882,27.882,0,0,0,442.4,374.208l31.526,81.124Z" style="fill:#69e781"/></svg>
