<?xml version="1.0"?>
<svg xmlns="http://www.w3.org/2000/svg" id="Layer_1" data-name="Layer 1" viewBox="0 0 512 512" width="512" height="512"><title>Search</title><path d="M155.86,376.262a177.063,177.063,0,0,1,110.2-301.627c-4.962-.413-9.964-.635-15-.635a177.061,177.061,0,0,0,0,354.122c5.036,0,10.036-.222,15-.636A175.731,175.731,0,0,1,155.86,376.262Z" style="fill:#d4e1f4"/><path d="M251.061,341.905a74.383,74.383,0,0,0,32.543-7.464l49.927,16.187a30.349,30.349,0,0,1,20.187,20.656q.157.572.292,1.15a28.167,28.167,0,0,1,.675,6.451V403.8h14V378.885a41.933,41.933,0,0,0-1.042-9.634q-.2-.841-.425-1.674a44.3,44.3,0,0,0-29.369-30.266L289.93,321.774v-19.8a73.728,73.728,0,0,0,33.565-48.7l2.565-8.821a25.04,25.04,0,0,0,15.5-29.384,20.342,20.342,0,0,0-11.834-14.01V169.976a78.652,78.652,0,1,0-157.3,0v31.07a20.342,20.342,0,0,0-11.863,14.025,25.039,25.039,0,0,0,15.5,29.383l2.564,8.821a73.732,73.732,0,0,0,33.566,48.7v19.8l-47.92,15.537a44.3,44.3,0,0,0-29.367,30.263q-.23.834-.427,1.678a41.962,41.962,0,0,0-1.041,9.633V403.8h14V378.885a28.152,28.152,0,0,1,.675-6.45q.133-.577.292-1.151a30.349,30.349,0,0,1,20.186-20.656l49.928-16.187A74.363,74.363,0,0,0,251.061,341.905Zm5.525-168.163c5.978,6.093,20.415,18.387,44.189,24.531-16.894-2.1-40.957-7.455-62.181-20.98Q248.043,175.853,256.586,173.742Zm-70.162-3.766a64.652,64.652,0,1,1,129.3,0v16.99c-21.232-2.868-35.481-11.478-43.473-17.892a110.539,110.539,0,0,0,30.393-16,7,7,0,0,0-8.52-11.11c-35.076,26.9-98.06,24.062-98.688,24.033a7,7,0,0,0-7.351,6.672L186.9,198.686a2.529,2.529,0,0,1-.479,1.41Zm5.9,80.37a6.759,6.759,0,0,0-.158-.661l-3.556-12.234a7,7,0,0,0-5.668-5.576,10.982,10.982,0,0,1-9.094-10.842,11.094,11.094,0,0,1,.315-2.633A6.337,6.337,0,0,1,178,213.925a16.6,16.6,0,0,0,22.89-14.6l.875-19.21c4.057,0,9.662-.125,16.286-.573,42.571,36,102.377,34.137,104.947,34.037.022,0,.043,0,.065-.006a6.444,6.444,0,0,1,4.9,4.829,11.026,11.026,0,0,1-8.778,13.476,7,7,0,0,0-5.668,5.576l-3.557,12.234a6.755,6.755,0,0,0-.157.661,59.77,59.77,0,0,1-117.482,0Zm58.741,62.725a73.54,73.54,0,0,0,24.869-4.325V322.58a60.668,60.668,0,0,1-49.738,0V308.746A73.54,73.54,0,0,0,251.061,313.071Z" style="fill:#69e781"/><path d="M393.109,381.8A193.057,193.057,0,0,0,114.546,114.546,193.056,193.056,0,0,0,381.8,393.109l58.548,58.548a8,8,0,0,0,11.314-11.314ZM125.86,376.262a177.07,177.07,0,1,1,251.582-1.21,7.919,7.919,0,0,0-2.39,2.39,177.038,177.038,0,0,1-249.192-1.18Z" style="fill:#0635c9"/></svg>
