<?xml version="1.0"?>
<svg xmlns="http://www.w3.org/2000/svg" id="Layer_1" data-name="Layer 1" viewBox="0 0 512 512" width="512" height="512"><title>Computer Server3</title><path d="M223,45.957V33H193V45.957A6.16,6.16,0,0,1,186.857,52h30A6.16,6.16,0,0,0,223,45.957Z" style="fill:#d4e1f4"/><rect x="152" y="52" width="30" height="57" style="fill:#d4e1f4"/><path d="M223,221.957V209H193v12.957A6.16,6.16,0,0,1,186.857,228h30A6.16,6.16,0,0,0,223,221.957Z" style="fill:#d4e1f4"/><rect x="152" y="228" width="30" height="57" style="fill:#d4e1f4"/><path d="M223,133.957V121H193v12.957A6.16,6.16,0,0,1,186.857,140h30A6.16,6.16,0,0,0,223,133.957Z" style="fill:#d4e1f4"/><rect x="152" y="140" width="30" height="57" style="fill:#d4e1f4"/><path d="M96,366.076V339H66v27.076A31.661,31.661,0,0,0,97.615,398h30A31.661,31.661,0,0,1,96,366.076Z" style="fill:#d4e1f4"/><rect x="296" y="121" width="30" height="7" style="fill:#d4e1f4"/><path d="M127.615,102h-30C79.983,102,66,116.566,66,134.2V327H96V134.2C96,116.566,109.983,102,127.615,102Z" style="fill:#d4e1f4"/><path d="M414.385,90H366v12h48.385C432.017,102,446,116.566,446,134.2V327H66V134.2C66,116.566,79.983,102,97.615,102H146V90H97.615C73.367,90,54,109.949,54,134.2V366.076A43.674,43.674,0,0,0,97.615,410H250v69H177.554a6,6,0,1,0,0,12H338.988a6,6,0,1,0,0-12H262V410H414.385A43.674,43.674,0,0,0,458,366.076V134.2C458,109.949,438.633,90,414.385,90Zm0,308H97.615A31.661,31.661,0,0,1,66,366.076V339H446v27.076A31.661,31.661,0,0,1,414.385,398Z" style="fill:#0635c9"/><path d="M173,247.386a6,6,0,0,0-6,6v11.428a6,6,0,0,0,12,0V253.386A6,6,0,0,0,173,247.386Z" style="fill:#69e781"/><path d="M179,77.386a6,6,0,0,0-12,0V88.814a6,6,0,0,0,12,0Z" style="fill:#69e781"/><path d="M179,165.386a6,6,0,1,0-12,0v11.428a6,6,0,0,0,12,0Z" style="fill:#69e781"/><path d="M270,256.243a15.714,15.714,0,1,0,15.714-15.715A15.731,15.731,0,0,0,270,256.243Zm15.714-3.715A3.715,3.715,0,1,1,282,256.243,3.718,3.718,0,0,1,285.714,252.528Z" style="fill:#69e781"/><path d="M328.857,271.957a15.715,15.715,0,1,0-15.714-15.714A15.732,15.732,0,0,0,328.857,271.957Zm0-19.429a3.715,3.715,0,1,1-3.714,3.715A3.719,3.719,0,0,1,328.857,252.528Z" style="fill:#69e781"/><path d="M199,247.386a6,6,0,0,0-6,6v11.428a6,6,0,0,0,12,0V253.386A6,6,0,0,0,199,247.386Z" style="fill:#69e781"/><path d="M224,247.386a6,6,0,0,0-6,6v11.428a6,6,0,0,0,12,0V253.386A6,6,0,0,0,224,247.386Z" style="fill:#69e781"/><path d="M360.286,40H296V26.528c0-3.313-2.972-5.528-6.286-5.528H186.857C183.543,21,181,23.215,181,26.528V40H151.714A11.691,11.691,0,0,0,140,51.672v57.142c0,6.459,5.255,12.186,11.714,12.186H181v7H151.714A11.691,11.691,0,0,0,140,139.672v57.142c0,6.459,5.255,12.186,11.714,12.186H181v7H151.714A11.691,11.691,0,0,0,140,227.672v57.142c0,6.459,5.255,12.186,11.714,12.186H360.286c6.459,0,11.714-5.727,11.714-12.186V227.672A11.691,11.691,0,0,0,360.286,216H296v-7h64.286c6.459,0,11.714-5.727,11.714-12.186V139.672A11.691,11.691,0,0,0,360.286,128H296v-7h64.286c6.459,0,11.714-5.727,11.714-12.186V51.672A11.691,11.691,0,0,0,360.286,40ZM289.714,228H360v57H152V228h34.857A6.16,6.16,0,0,0,193,221.957V209h91v12.957A5.8,5.8,0,0,0,289.714,228Zm0-88H360v57H152V140h34.857A6.16,6.16,0,0,0,193,133.957V121h91v12.957A5.8,5.8,0,0,0,289.714,140ZM360,109H152V52h34.857A6.16,6.16,0,0,0,193,45.957V33h91V45.957A5.8,5.8,0,0,0,289.714,52H360Z" style="fill:#69e781"/><path d="M270,80.243a15.714,15.714,0,1,0,15.714-15.715A15.731,15.731,0,0,0,270,80.243Zm19.428,0a3.714,3.714,0,1,1-3.714-3.715A3.718,3.718,0,0,1,289.428,80.243Z" style="fill:#69e781"/><path d="M328.857,95.957a15.715,15.715,0,1,0-15.714-15.714A15.732,15.732,0,0,0,328.857,95.957Zm0-19.429a3.715,3.715,0,1,1-3.714,3.715A3.719,3.719,0,0,1,328.857,76.528Z" style="fill:#69e781"/><path d="M199,71.386a6,6,0,0,0-6,6V88.814a6,6,0,0,0,12,0V77.386A6,6,0,0,0,199,71.386Z" style="fill:#69e781"/><path d="M224,71.386a6,6,0,0,0-6,6V88.814a6,6,0,0,0,12,0V77.386A6,6,0,0,0,224,71.386Z" style="fill:#69e781"/><path d="M270,168.243a15.714,15.714,0,1,0,15.714-15.715A15.731,15.731,0,0,0,270,168.243Zm15.714-3.715A3.715,3.715,0,1,1,282,168.243,3.718,3.718,0,0,1,285.714,164.528Z" style="fill:#69e781"/><path d="M328.857,183.957a15.715,15.715,0,1,0-15.714-15.714A15.732,15.732,0,0,0,328.857,183.957Zm0-19.429a3.715,3.715,0,1,1-3.714,3.715A3.719,3.719,0,0,1,328.857,164.528Z" style="fill:#69e781"/><path d="M199,159.386a6,6,0,0,0-6,6v11.428a6,6,0,0,0,12,0V165.386A6,6,0,0,0,199,159.386Z" style="fill:#69e781"/><path d="M224,159.386a6,6,0,0,0-6,6v11.428a6,6,0,0,0,12,0V165.386A6,6,0,0,0,224,159.386Z" style="fill:#69e781"/></svg>
