<svg height="603pt" viewBox="-18 -57 603.99896 603" width="603pt" xmlns="http://www.w3.org/2000/svg"><path d="m94.539062 333.390625c-22.734374-.027344-41.15625-18.453125-41.1875-41.183594v-272.828125c0-1.210937.066407-2.398437.167969-3.582031-21.265625 1.875-37.582031 19.675781-37.605469 41.023437v272.828126c.027344 22.730468 18.449219 41.152343 41.183594 41.183593h289.074219l37.441406-37.441406zm0 0" fill="#d4e1f4"/><path d="m441.796875 56.515625v210.992187l-17.472656 17.472657v-168.121094h-406.851563v212.484375c.023438 22.738281 18.445313 41.167969 41.183594 41.1875h280.117188l-12.304688 12.308594c-.113281.109375-.226562.246094-.335938.371094-.066406.058593-.121093.121093-.175781.1875-.214843.257812-.414062.53125-.601562.808593-.03125.050781-.0625.105469-.097657.152344-.144531.234375-.277343.476563-.398437.722656-.054687.09375-.097656.191407-.136719.285157-.113281.230468-.203125.464843-.289062.703124-.023438.058594-.046875.113282-.078125.171876l-.582031 1.757812h-265.117188c-32.378906-.027344-58.6210938-26.269531-58.65625-58.65625v-272.828125c.0351562-32.378906 26.277344-58.621094 58.65625-58.65625h324.484375c32.378906.039063 58.617187 26.277344 58.65625 58.65625zm-17.472656 42.871094v-42.871094c-.027344-22.730469-18.453125-41.152344-41.183594-41.183594h-324.484375c-22.738281.023438-41.160156 18.449219-41.183594 41.183594v42.871094zm0 0" fill="#0635c9"/><g fill="#69e781"><path d="m504.523438 217.136719c-3.417969-3.402344-8.945313-3.402344-12.355469 0l-153.394531 153.394531-12.304688 12.308594c-.113281.109375-.226562.246094-.335938.371094-.066406.058593-.121093.121093-.175781.1875-.214843.257812-.414062.53125-.601562.808593-.03125.050781-.0625.105469-.097657.152344-.144531.234375-.277343.476563-.398437.722656-.054687.09375-.097656.191407-.136719.285157-.113281.230468-.203125.464843-.289062.703124-.023438.058594-.046875.113282-.078125.171876l-.582031 1.757812-28.992188 87.015625c-1.050781 3.136719-.230469 6.597656 2.109375 8.9375 2.335937 2.339844 5.796875 3.152344 8.9375 2.105469l88.757813-29.585938c.050781-.015625.085937-.039062.136718-.054687.257813-.097657.523438-.199219.769532-.3125.070312-.039063.144531-.066407.214843-.097657.304688-.148437.601563-.316406.890625-.5 0-.007812.003906-.011718.007813-.011718.28125-.191406.554687-.394532.8125-.613282.074219-.058593.148437-.121093.226562-.199218.125-.097656.242188-.210938.359375-.324219l165.6875-165.6875c3.410156-3.40625 3.410156-8.941406 0-12.351563zm-187.65625 246.824219 19.597656-58.785157 39.1875 39.1875zm74.960937-28.136719-23.414063-23.410157-23.410156-23.398437 3.566406-3.570313 90.667969-90.667968 26.558594-26.554688 46.824219 46.824219zm133.148437-133.136719-46.824218-46.824219 20.191406-20.191406 46.816406 46.824219zm0 0"/><path d="m195.640625 82.402344h.074219c13.445312-.011719 24.359375-10.890625 24.410156-24.335938v-.085937c-.015625-13.445313-10.890625-24.355469-24.335938-24.414063h-.089843c-13.484375-.015625-24.429688 10.898438-24.449219 24.390625-.011719 13.484375 10.902344 24.425781 24.390625 24.445313zm-4.832031-29.339844c1.304687-1.296875 3.066406-2.023438 4.90625-2.023438h.007812c3.835938.003907 6.949219 3.113282 6.941406 6.949219-.003906 3.835938-3.113281 6.941407-6.949218 6.941407h-.023438c-3.839844-.007813-6.9375-3.128907-6.929687-6.964844.003906-1.84375.742187-3.601563 2.046875-4.902344zm0 0"/><path d="m125.1875 82.1875h.085938c13.453124-.019531 24.355468-10.898438 24.414062-24.34375v-.078125c-.019531-13.445313-10.890625-24.351563-24.335938-24.410156h-.085937c-13.484375-.019531-24.433594 10.894531-24.460937 24.378906-.019532 13.484375 10.898437 24.433594 24.382812 24.453125zm-4.816406-29.351562c1.300781-1.292969 3.058594-2.011719 4.894531-2.007813h.023437c3.835938.007813 6.9375 3.128906 6.925782 6.960937-.019532 3.832032-3.125 6.929688-6.949219 6.929688h-.015625c-2.808594-.011719-5.339844-1.714844-6.40625-4.3125-1.066406-2.601562-.460938-5.585938 1.527344-7.570312zm0 0"/><path d="m54.75 81.964844h.074219c13.445312-.019532 24.355469-10.890625 24.425781-24.335938v-.074218c-.015625-13.453126-10.898438-24.363282-24.351562-24.421876h-.074219c-13.484375-.019531-24.433594 10.894532-24.453125 24.378907-.019532 13.484375 10.894531 24.433593 24.378906 24.453125zm-4.816406-29.339844c1.292968-1.300781 3.058594-2.03125 4.890625-2.019531h.023437c3.839844.007812 6.9375 3.125 6.929688 6.960937-.019532 3.824219-3.125 6.921875-6.953125 6.925782h-.023438c-1.84375 0-3.609375-.734376-4.90625-2.046876-1.296875-1.308593-2.015625-3.078124-2.007812-4.914062-.007813-1.847656.726562-3.617188 2.046875-4.90625zm0 0"/></g></svg>