<?xml version="1.0"?>
<svg xmlns="http://www.w3.org/2000/svg" id="Layer_1" data-name="Layer 1" viewBox="0 0 512 512" width="512" height="512"><title>Box 3</title><polygon points="90.013 151.522 275.526 44.417 256 33.143 70.013 140.522 90.013 151.522" style="fill:#d4e1f4"/><polygon points="83 358.429 83 164.253 63 152.638 63 367.429 249 474.815 249 454.269 83 358.429" style="fill:#d4e1f4"/><path d="M182.5,209.922a7,7,0,0,0-3.5,6.062V334.2l-14.155-16.079a7.291,7.291,0,0,0-8.116-1.845L142,322.285v-131.9L338.675,76.943,331.77,64.818,131.642,180.28A7.137,7.137,0,0,0,128,186.343V332.75a7.259,7.259,0,0,0,9.956,6.47l19.637-8.091,23.129,26.246A7.015,7.015,0,0,0,193,352.75V220.025L389.845,106.377l-7-12.125Z" style="fill:#69e781"/><path d="M459.5,134.468,259.5,19a7,7,0,0,0-7,0L52.5,134.468A7,7,0,0,0,49,140.53V371.47a7,7,0,0,0,3.5,6.062L252.5,493a7.005,7.005,0,0,0,7,0l200-115.471a7,7,0,0,0,3.5-6.062V140.53A7,7,0,0,0,459.5,134.468ZM256,33.143,441.986,140.522,256,247.9,70.014,140.522ZM63,152.638,249,260.026v214.79L63,367.429ZM263,474.816V260.026L449,152.638V367.429Z" style="fill:#0635c9"/></svg>
