<svg height="493pt" viewBox="0 -46 493.87649 493" width="493pt" xmlns="http://www.w3.org/2000/svg"><path d="m346 367.9375h-280c-18.214844-.019531-32.980469-14.78125-33-33v-187.425781c-.003906-3.777344.648438-7.527344 1.917969-11.082031-13.132813 4.699218-21.902344 17.132812-21.917969 31.082031v187.425781c.019531 18.21875 14.785156 32.980469 33 33h280c13.945312-.015625 26.382812-8.785156 31.082031-21.917969-3.558593 1.273438-7.304687 1.921875-11.082031 1.917969zm0 0" fill="#d4e1f4"/><g fill="#69e781"><path d="m187.046875 311.636719c10.195313-.003907 20.054687-3.636719 27.8125-10.246094l85.164063-72.230469c1.921874-1.613281 2.835937-4.128906 2.390624-6.601562-.445312-2.46875-2.175781-4.511719-4.542968-5.355469-2.363282-.839844-4.996094-.351563-6.902344 1.28125l-85.164062 72.226563c-10.800782 9.210937-26.691407 9.21875-37.5.015624l-156.78125-132.757812c-2.953126-2.449219-7.328126-2.0625-9.808594.863281-2.480469 2.929688-2.140625 7.308594.761718 9.820313l156.785157 132.757812c7.753906 6.597656 17.605469 10.222656 27.785156 10.226563zm0 0"/><path d="m329.113281 125.191406c0 21.539063 17.460938 39 39 39 21.539063 0 39-17.460937 39-39 0-21.539062-17.460937-39-39-39-21.527343.023438-38.972656 17.46875-39 39zm64 0c0 13.804688-11.191406 25-25 25-13.804687 0-25-11.195312-25-25 0-13.808594 11.195313-25 25-25 13.800781.015625 24.984375 11.199219 25 25zm0 0"/><path d="m440.703125 151.316406c16.625 0 30.101563-13.476562 30.101563-30.101562s-13.476563-30.097656-30.101563-30.097656c-16.621094 0-30.097656 13.472656-30.097656 30.097656.015625 16.617187 13.484375 30.082031 30.097656 30.101562zm0-46.195312c8.894531 0 16.101563 7.210937 16.101563 16.101562s-7.207032 16.097656-16.101563 16.097656c-8.890625 0-16.097656-7.207031-16.097656-16.097656.007812-8.890625 7.210937-16.09375 16.097656-16.101562zm0 0"/><path d="m440.703125 155.460938c-16.808594.058593-32.085937 9.789062-39.246094 25-22.109375-14.171876-50.765625-12.820313-71.441406 3.375-7.765625-12.441407-21.296875-20.105469-35.960937-20.363282-14.660157-.261718-28.457032 6.917969-36.65625 19.074219-1.417969 2.074219-1.617188 4.746094-.523438 7.003906 1.09375 2.257813 3.316406 3.757813 5.820312 3.929688 2.503907.171875 4.90625-1.007813 6.300782-3.09375 5.867187-8.699219 15.9375-13.597657 26.40625-12.839844 10.464844.753906 19.726562 7.050781 24.28125 16.503906-8.792969 10.957031-13.582032 24.589844-13.570313 38.640625 0 3.867188 3.132813 7 7 7 3.867188 0 7-3.132812 7-7 0-26.507812 21.488281-48 48-48 26.507813 0 48 21.492188 48 48 0 3.867188 3.132813 7 7 7 3.867188 0 7-3.132812 7-7 .007813-16.070312-6.25-31.507812-17.4375-43.042968.234375-.375.429688-.773438.589844-1.1875 4.128906-10.976563 14.398437-18.4375 26.113281-18.96875 11.714844-.527344 22.617188 5.976562 27.71875 16.535156 1.070313 2.285156 3.285156 3.816406 5.800782 4.007812 2.511718.195313 4.9375-.980468 6.34375-3.070312 1.40625-2.09375 1.582031-4.78125.453124-7.035156-7.273437-14.917969-22.394531-24.40625-38.992187-24.46875zm0 0"/><path d="m263.199219 129.21875c0 16.625 13.476562 30.097656 30.101562 30.097656 16.621094 0 30.097657-13.472656 30.097657-30.097656s-13.476563-30.101562-30.097657-30.101562c-16.617187.019531-30.085937 13.484374-30.101562 30.101562zm46.195312 0c0 8.890625-7.207031 16.097656-16.101562 16.097656-8.890625 0-16.097657-7.207031-16.097657-16.097656s7.207032-16.101562 16.097657-16.101562c8.886719.011718 16.089843 7.214843 16.097656 16.101562zm0 0"/></g><path d="m367 .4375c-67.257812-.015625-122.859375 52.429688-126.765625 119.574219h-193.234375c-25.945312.027343-46.9726562 21.054687-47 47v187.425781c-.0117188 10.960938 3.828125 21.582031 10.847656 30 .539063 1.046875 1.339844 1.933594 2.324219 2.582031 8.839844 9.214844 21.058594 14.421875 33.828125 14.417969h280c12.753906.003906 24.960938-5.191406 33.800781-14.386719.988281-.652343 1.792969-1.546875 2.335938-2.597656 7.027343-8.421875 10.871093-19.046875 10.863281-30.015625v-100.199219c68.621094-3.855469 121.722656-61.597656 119.828125-130.300781s-58.101563-123.433594-126.828125-123.5zm-7 354c.007812 5.527344-1.382812 10.960938-4.039062 15.808594l-84.132813-85.601563c-2.714844-2.734375-7.128906-2.761719-9.875-.058593-2.746094 2.699218-2.796875 7.113281-.109375 9.871093l84.914062 86.394531c-5.695312 4.28125-12.632812 6.59375-19.757812 6.585938h-280c-7.144531.007812-14.097656-2.316406-19.800781-6.617188l84.449219-86.375c1.789062-1.78125 2.480468-4.382812 1.808593-6.816406-.667969-2.433594-2.59375-4.316406-5.042969-4.929687-2.445312-.617188-5.035156.132812-6.773437 1.960937l-83.628906 85.535156c-2.640625-4.832031-4.019531-10.25-4.011719-15.757812v-187.425781c.019531-18.21875 14.785156-32.980469 33-33h193.1875c3.339844 64.808593 55.015625 116.667969 119.8125 120.242187zm107.199219-174.699219c-26.433594 50.714844-86.578125 73.699219-140.09375 53.539063-53.519531-20.160156-83.550781-77.113282-69.957031-132.664063 13.597656-55.550781 66.535156-92.195312 123.316406-85.363281 56.777344 6.835938 99.511718 55 99.535156 112.1875.019531 18.210938-4.371094 36.15625-12.800781 52.300781zm0 0" fill="#0635c9"/></svg>