<?xml version="1.0"?>
<svg xmlns="http://www.w3.org/2000/svg" height="512px" viewBox="0 -13 395.94837 395" width="512px" class=""><g><path d="m273.070312 7.300781h91.910157c13.332031 0 24.140625 10.808594 24.140625 24.140625v40.464844c0 13.332031-10.808594 24.140625-24.140625 24.140625h-334.015625c-13.328125 0-24.136719-10.808594-24.136719-24.136719v-40.46875c0-13.332031 10.808594-24.140625 24.136719-24.140625h195.113281" fill="#fff" fill-rule="evenodd" data-original="#FFF"/><path d="m364.980469 102.875h-334.011719c-17.078125 0-30.96875-13.894531-30.96875-30.96875v-40.464844c0-17.074218 13.890625-30.96875 30.96875-30.96875h195.113281c3.769531 0 6.824219 3.054688 6.824219 6.828125 0 3.773438-3.054688 6.828125-6.824219 6.828125h-195.113281c-9.546875 0-17.316406 7.765625-17.316406 17.3125v40.46875c0 9.542969 7.769531 17.3125 17.316406 17.3125h334.011719c9.546875 0 17.3125-7.769531 17.3125-17.316406v-40.464844c0-9.546875-7.765625-17.3125-17.3125-17.3125h-91.914063c-3.769531 0-6.828125-3.054687-6.828125-6.828125 0-3.773437 3.058594-6.828125 6.828125-6.828125h91.914063c17.074219 0 30.964843 13.894532 30.964843 30.96875v40.46875c0 17.070313-13.890624 30.964844-30.964843 30.964844zm0 0" fill="#602f75" data-original="#602F75" class="active-path" style="fill:#031B4E" data-old_color="#031B4E"/><path d="m364.980469 205.273438h-334.015625c-13.328125 0-24.136719-10.808594-24.136719-24.136719v-40.46875c0-13.332031 10.808594-24.140625 24.136719-24.140625h334.015625c13.332031 0 24.136719 10.808594 24.136719 24.140625v40.464843c.003906 13.332032-10.804688 24.140626-24.136719 24.140626zm0 0" fill="#fff" fill-rule="evenodd" data-original="#FFF"/><path d="m364.980469 212.101562h-334.011719c-17.078125 0-30.96875-13.894531-30.96875-30.96875v-40.464843c0-17.074219 13.890625-30.96875 30.96875-30.96875h334.011719c17.078125 0 30.96875 13.894531 30.96875 30.96875v40.46875c-.003907 17.070312-13.894531 30.964843-30.96875 30.964843zm-334.011719-88.746093c-9.546875 0-17.316406 7.765625-17.316406 17.3125v40.46875c0 9.542969 7.769531 17.3125 17.316406 17.3125h334.011719c9.546875 0 17.316406-7.769531 17.316406-17.316407v-40.464843c0-9.546875-7.769531-17.316407-17.316406-17.316407h-334.011719zm0 0" fill="#602f75" data-original="#602F75" class="active-path" style="fill:#031B4E" data-old_color="#031B4E"/><path d="m163.839844 300.847656h-73.066406c-23.703126 0-42.988282-19.289062-42.988282-42.988281v-25.277344c0-3.773437 3.058594-6.828125 6.828125-6.828125s6.828125 3.054688 6.828125 6.828125v25.277344c0 16.175781 13.160156 29.335937 29.332032 29.335937h73.066406c3.769531 0 6.828125 3.050782 6.828125 6.824219 0 3.773438-3.058594 6.828125-6.828125 6.828125zm0 0" fill="#602f75" data-original="#602F75" class="active-path" style="fill:#031B4E" data-old_color="#031B4E"/><path d="m81.921875 51.675781c0 13.195313-10.699219 23.890625-23.894531 23.890625-13.195313 0-23.894532-10.695312-23.894532-23.890625 0-13.199219 10.699219-23.894531 23.894532-23.894531 13.195312 0 23.894531 10.695312 23.894531 23.894531zm0 0" fill="#5E8DA7" fill-rule="evenodd" data-original="#5E8DA7"/><path d="m58.027344 82.394531c-16.941406 0-30.71875-13.78125-30.71875-30.71875 0-16.941406 13.777344-30.722656 30.71875-30.722656s30.71875 13.78125 30.71875 30.722656c0 16.9375-13.777344 30.71875-30.71875 30.71875zm0-47.785156c-9.410156 0-17.066406 7.652344-17.066406 17.066406 0 9.414063 7.65625 17.066407 17.066406 17.066407s17.066406-7.652344 17.066406-17.066407c0-9.414062-7.65625-17.066406-17.066406-17.066406zm0 0" fill="#602f75" data-original="#602F75" class="active-path" style="fill:#031B4E" data-old_color="#031B4E"/><path d="m81.921875 160.902344c0 13.195312-10.699219 23.890625-23.894531 23.890625-13.195313 0-23.894532-10.695313-23.894532-23.890625 0-13.199219 10.699219-23.894532 23.894532-23.894532 13.195312 0 23.894531 10.695313 23.894531 23.894532zm0 0" fill="#C13D3D" data-original="#C13D3D"/><path d="m58.027344 191.621094c-16.941406 0-30.71875-13.78125-30.71875-30.71875 0-16.941406 13.777344-30.722656 30.71875-30.722656s30.71875 13.78125 30.71875 30.722656c0 16.9375-13.777344 30.71875-30.71875 30.71875zm0-47.785156c-9.410156 0-17.066406 7.652343-17.066406 17.066406 0 9.414062 7.65625 17.066406 17.066406 17.066406s17.066406-7.652344 17.066406-17.066406c0-9.414063-7.65625-17.066406-17.066406-17.066406zm0 0" fill="#602f75" data-original="#602F75" class="active-path" style="fill:#031B4E" data-old_color="#031B4E"/><g fill="#C13D3D"><path d="m361.8125 143.835938h-27.304688c-3.769531 0-6.828124-3.054688-6.828124-6.828126 0-3.773437 3.058593-6.828124 6.828124-6.828124h27.304688c3.769531 0 6.828125 3.054687 6.828125 6.828124 0 3.773438-3.058594 6.828126-6.828125 6.828126zm0 0" data-original="#000000"/><path d="m361.8125 171.140625h-81.917969c-3.769531 0-6.828125-3.054687-6.828125-6.828125s3.058594-6.824219 6.828125-6.824219h81.917969c3.769531 0 6.828125 3.050781 6.828125 6.824219s-3.058594 6.828125-6.828125 6.828125zm0 0" data-original="#000000"/><path d="m361.8125 191.621094h-81.917969c-3.769531 0-6.828125-3.054688-6.828125-6.828125 0-3.773438 3.058594-6.824219 6.828125-6.824219h81.917969c3.769531 0 6.828125 3.050781 6.828125 6.824219 0 3.773437-3.058594 6.828125-6.828125 6.828125zm0 0" data-original="#000000"/><path d="m361.8125 34.609375h-27.304688c-3.769531 0-6.828124-3.054687-6.828124-6.828125s3.058593-6.828125 6.828124-6.828125h27.304688c3.769531 0 6.828125 3.054687 6.828125 6.828125s-3.058594 6.828125-6.828125 6.828125zm0 0" data-original="#000000"/><path d="m361.8125 61.914062h-81.917969c-3.769531 0-6.828125-3.054687-6.828125-6.828124 0-3.773438 3.058594-6.824219 6.828125-6.824219h81.917969c3.769531 0 6.828125 3.050781 6.828125 6.824219 0 3.773437-3.058594 6.828124-6.828125 6.828124zm0 0" data-original="#000000"/><path d="m361.8125 82.394531h-81.917969c-3.769531 0-6.828125-3.054687-6.828125-6.828125 0-3.773437 3.058594-6.824218 6.828125-6.824218h81.917969c3.769531 0 6.828125 3.050781 6.828125 6.824218 0 3.773438-3.058594 6.828125-6.828125 6.828125zm0 0" data-original="#000000"/></g><path d="m320.851562 294.019531c0 37.703125-30.5625 68.269531-68.265624 68.269531-37.703126 0-68.265626-30.566406-68.265626-68.269531s30.5625-68.265625 68.265626-68.265625c37.703124 0 68.265624 30.5625 68.265624 68.265625zm0 0" fill="#EBAA39" data-original="#EBAA39"/><path d="m252.585938 369.113281c-41.40625 0-75.09375-33.683593-75.09375-75.09375 0-41.40625 33.6875-75.09375 75.09375-75.09375s75.09375 33.6875 75.09375 75.09375c0 41.410157-33.6875 75.09375-75.09375 75.09375zm0-136.53125c-33.875 0-61.4375 27.558594-61.4375 61.4375 0 33.882813 27.5625 61.441407 61.4375 61.441407 33.878906 0 61.441406-27.558594 61.441406-61.441407 0-33.878906-27.5625-61.4375-61.441406-61.4375zm0 0" fill="#602f75" data-original="#602F75" class="active-path" style="fill:#031B4E" data-old_color="#031B4E"/><path d="m232.902344 262.179688c0-.566407.375-.9375.9375-.9375h23.746094c13.515624 0 19.898437 6.753906 19.898437 16.984374 0 7.226563-3.378906 11.355469-7.414063 13.515626v.183593c3.941407 1.507813 8.539063 6.574219 8.539063 14.359375 0 12.675782-7.976563 18.773438-21.960937 18.773438h-22.808594c-.5625 0-.9375-.371094-.9375-.9375zm24.402344 25.621093c5.632812 0 9.101562-3.378906 9.101562-8.355469 0-5.066406-3.46875-8.445312-9.101562-8.445312h-12.765626c-.375 0-.5625.1875-.5625.558594v15.683594c0 .371093.1875.558593.5625.558593zm-12.765626 27.5h13.328126c6.195312 0 9.667968-3.566406 9.667968-8.921875 0-5.25-3.472656-8.820312-9.667968-8.820312h-13.328126c-.375 0-.5625.1875-.5625.570312v16.605469c0 .378906.1875.566406.5625.566406zm0 0" fill="#602f75" data-original="#602F75" class="active-path" style="fill:#031B4E" data-old_color="#031B4E"/><path d="m249.171875 266.714844c-1.882813 0-3.410156-1.527344-3.410156-3.414063v-6.828125c0-1.882812 1.527343-3.410156 3.410156-3.410156 1.886719 0 3.414063 1.527344 3.414063 3.410156v6.828125c0 1.886719-1.527344 3.414063-3.414063 3.414063zm0 0" fill="#602f75" data-original="#602F75" class="active-path" style="fill:#031B4E" data-old_color="#031B4E"/><path d="m249.171875 334.980469c-1.882813 0-3.410156-1.527344-3.410156-3.414063v-6.824218c0-1.886719 1.527343-3.414063 3.410156-3.414063 1.886719 0 3.414063 1.527344 3.414063 3.414063v6.824218c0 1.886719-1.527344 3.414063-3.414063 3.414063zm0 0" fill="#602f75" data-original="#602F75" class="active-path" style="fill:#031B4E" data-old_color="#031B4E"/><path d="m116.054688 14.128906h40.957031v75.09375h-40.957031zm0 0" fill="#5E8DA7" fill-rule="evenodd" data-original="#5E8DA7"/></g> </svg>
