<?xml version="1.0"?>
<svg xmlns="http://www.w3.org/2000/svg" xmlns:xlink="http://www.w3.org/1999/xlink" version="1.1" id="Capa_1" x="0px" y="0px" viewBox="0 0 512.002 512.002" style="enable-background:new 0 0 512.002 512.002;" xml:space="preserve" width="512px" height="512px" class=""><g><path style="fill:#5E8DA7;" d="M336.001,333.538V232.002V99.314l-80-80l-80,80v132.688v101.536v18.464h160V333.538z   M264.001,328.002h-16v-104h16V328.002z M256.001,208.002c-30.88,0-56-25.12-56-56s25.12-56,56-56s56,25.12,56,56  S286.881,208.002,256.001,208.002z" data-original="#5E8DA7"/><polygon style="fill:#C13D3D;" points="128.001,340.354 160.001,328.042 160.001,243.65 128.001,255.962 " data-original="#C13D3D" class=""/><path style="fill:#EBAA39;" d="M271.985,152.002c-4.504,0-6.432,1.736-10.352,5.664c-4.368,4.36-10.352,10.336-21.664,10.336  c-11.304,0-17.28-5.984-21.64-10.344c-0.72-0.72-1.328-1.296-1.944-1.872c1.936,20.256,18.856,36.216,39.616,36.216  c17.152,0,31.696-10.904,37.368-26.104c-4.92-2.136-8.296-5.496-11.032-8.232C278.409,153.738,276.481,152.002,271.985,152.002z" data-original="#EBAA39"/><polygon style="fill:#C13D3D;" points="384.001,255.962 352.001,243.65 352.001,328.042 384.001,340.354 " data-original="#C13D3D" class=""/><g>
	<path style="fill:#EBAA39;" d="M256.001,112.002c-17.152,0-31.696,10.912-37.368,26.112c4.912,2.136,8.28,5.504,11.016,8.24   c3.912,3.92,5.832,5.648,10.32,5.648c4.496,0,6.424-1.736,10.352-5.656c4.36-4.368,10.344-10.344,21.664-10.344   c11.32,0,17.296,5.976,21.664,10.344c0.728,0.728,1.344,1.312,1.968,1.896C293.689,127.97,276.769,112.002,256.001,112.002z" data-original="#EBAA39"/>
	<path style="fill:#EBAA39;" d="M389.329,418.474c6.72,10.944,10.672,23.768,10.672,37.528h-16c0-30.88-25.12-56-56-56h-16   c-4.416,0-8-3.584-8-8v-24h-96v24c0,4.416-3.584,8-8,8h-16c-30.88,0-56,25.12-56,56h-16c0-13.76,3.952-26.584,10.672-37.528   c-42.688,9.736-74.672,47.936-74.672,93.528h80c0-22.576,15.68-41.504,36.712-46.608c-3-7.912-4.712-16.44-4.712-25.392h16   c0,30.88,25.12,56,56,56v16h16c0-19.272,5.76-37.192,15.568-52.24c-2.096-15.632-15.376-27.76-31.568-27.76v-16   c19.528,0,36.336,11.736,43.824,28.512c17.408-17.592,41.536-28.512,68.176-28.512v16c-44.112,0-80,35.888-80,80h104   c0-17.648-14.352-32-32-32v-16c26.472,0,48,21.528,48,48h80C464.001,466.41,432.017,428.21,389.329,418.474z M248.001,400.002h-16   v-16h16V400.002z M280.001,400.002h-16v-16h16V400.002z" data-original="#EBAA39"/>
	<path style="fill:#EBAA39;" d="M172.417,480.362c-15.944,1.808-28.416,15.224-28.416,31.64h88   C207.249,512.002,185.377,499.442,172.417,480.362z" data-original="#EBAA39"/>
</g><g>
	<rect x="248.001" y="224.002" style="fill:#031B4E" width="16" height="104" data-original="#1F2933" class="active-path" data-old_color="#031b4e"/>
	<path style="fill:#031B4E" d="M256.001,96.002c-30.88,0-56,25.12-56,56s25.12,56,56,56s56-25.12,56-56   S286.881,96.002,256.001,96.002z M256.001,192.002c-20.76,0-37.68-15.96-39.616-36.216c0.616,0.576,1.216,1.144,1.944,1.872   c4.36,4.36,10.336,10.344,21.64,10.344c11.32,0,17.296-5.976,21.664-10.336c3.92-3.928,5.848-5.664,10.352-5.664   c4.496,0,6.424,1.736,10.352,5.664c2.736,2.736,6.112,6.104,11.032,8.232C287.697,181.098,273.153,192.002,256.001,192.002z    M293.649,146.346c-4.368-4.368-10.344-10.344-21.664-10.344c-11.32,0-17.304,5.976-21.664,10.344   c-3.928,3.92-5.856,5.656-10.352,5.656c-4.48,0-6.408-1.736-10.32-5.648c-2.736-2.736-6.104-6.104-11.016-8.24   c5.672-15.2,20.216-26.112,37.368-26.112c20.768,0,37.688,15.968,39.624,36.24C295.001,147.658,294.385,147.074,293.649,146.346z" data-original="#1F2933" class="active-path" data-old_color="#031b4e"/>
	<path style="fill:#031B4E" d="M373.529,400.282c-12.416-10.16-28.272-16.28-45.528-16.28h-8v-16h24c4.416,0,8-3.584,8-8v-14.816   l37.128,14.28c0.928,0.36,1.904,0.536,2.872,0.536c1.592,0,3.176-0.48,4.528-1.408c2.176-1.488,3.472-3.952,3.472-6.592V250.466   c0-3.312-2.04-6.28-5.128-7.464l-42.872-16.496V96.002c0-2.12-0.848-4.152-2.344-5.656l-88-88c-3.128-3.128-8.184-3.128-11.312,0   l-88,88c-1.496,1.504-2.344,3.536-2.344,5.656v130.504l-42.872,16.496c-3.088,1.184-5.128,4.152-5.128,7.464v101.536   c0,2.64,1.296,5.104,3.472,6.592c1.352,0.928,2.936,1.408,4.528,1.408c0.968,0,1.944-0.176,2.872-0.528l37.128-14.288v14.816   c0,4.416,3.584,8,8,8h24v16h-8c-17.256,0-33.112,6.12-45.528,16.28c-59.184,2.912-106.472,51.824-106.472,111.72h8h8   c0-45.592,31.984-83.792,74.672-93.528c-6.72,10.944-10.672,23.768-10.672,37.528h16c0-30.88,25.12-56,56-56h16   c4.416,0,8-3.584,8-8v-24h96v24c0,4.416,3.584,8,8,8h16c30.88,0,56,25.12,56,56h16c0-13.76-3.952-26.584-10.672-37.528   c42.688,9.736,74.672,47.936,74.672,93.528h8h8C480.001,452.106,432.713,403.194,373.529,400.282z M352.001,243.65l32,12.312   v84.392l-32-12.304V243.65z M160.001,328.042l-32,12.304v-84.384l32-12.312V328.042z M176.001,352.002v-18.464V232.002V99.314   l80-80l80,80v132.688v101.536v18.464H176.001z" data-original="#1F2933" class="active-path" data-old_color="#031b4e"/>
	<path style="fill:#031B4E" d="M176.001,440.002h-16c0,8.952,1.712,17.48,4.712,25.392c-21.032,5.104-36.712,24.032-36.712,46.608   h16c0-16.416,12.472-29.832,28.416-31.64c12.96,19.08,34.832,31.64,59.584,31.64v-16   C201.121,496.002,176.001,470.882,176.001,440.002z" data-original="#1F2933" class="active-path" data-old_color="#031b4e"/>
	<path style="fill:#031B4E" d="M344.001,432.002v-16c-26.64,0-50.768,10.92-68.176,28.512   c-7.488-16.776-24.296-28.512-43.824-28.512v16c16.192,0,29.472,12.128,31.568,27.76c-9.808,15.048-15.568,32.968-15.568,52.24h16   C264.001,467.89,299.889,432.002,344.001,432.002z" data-original="#1F2933" class="active-path" data-old_color="#031b4e"/>
	<path style="fill:#031B4E" d="M336.001,464.002v16c17.648,0,32,14.352,32,32h16C384.001,485.53,362.473,464.002,336.001,464.002z" data-original="#1F2933" class="active-path" data-old_color="#031b4e"/>
	<rect x="264.001" y="384.002" style="fill:#031B4E" width="16" height="16" data-original="#1F2933" class="active-path" data-old_color="#031b4e"/>
	<rect x="232.001" y="384.002" style="fill:#031B4E" width="16" height="16" data-original="#1F2933" class="active-path" data-old_color="#031b4e"/>
</g></g> </svg>
