<?xml version="1.0"?>
<svg xmlns="http://www.w3.org/2000/svg" xmlns:xlink="http://www.w3.org/1999/xlink" version="1.1" id="Capa_1" x="0px" y="0px" viewBox="0 0 423.253 423.253" style="enable-background:new 0 0 423.253 423.253;" xml:space="preserve" width="512px" height="512px" class=""><g><path style="fill:#EAEAEA;" d="M379.689,102.4H43.564c-16.521,0-29.911-13.391-29.911-29.911V36.738  c0-16.521,13.391-29.911,29.911-29.911h336.126c16.519,0,29.909,13.391,29.909,29.911v35.753  C409.6,89.009,396.21,102.4,379.689,102.4z" data-original="#EAEAEA" class=""/><path style="fill:#031B4E" d="M379.687,109.227H43.566c-20.26,0-36.739-16.48-36.739-36.739V36.739C6.827,16.48,23.306,0,43.566,0  h336.12c20.262,0,36.741,16.48,36.741,36.739v35.746C416.427,92.747,399.947,109.227,379.687,109.227z M43.566,13.653  c-12.727,0-23.086,10.359-23.086,23.086v35.746c0,12.728,10.359,23.088,23.086,23.088h336.12c12.728,0,23.088-10.359,23.088-23.086  V36.739c0-12.727-10.359-23.086-23.086-23.086H43.566z" data-original="#602F75" class="active-path" data-old_color="#031B4E"/><g>
	<circle style="fill:#C13D3D;" cx="54.613" cy="54.613" r="20.48" data-original="#C13D3D"/>
	<g>
		<rect x="252.587" y="68.267" style="fill:#031B4E" width="13.653" height="13.653" data-original="#602F75" class="active-path" data-old_color="#031B4E"/>
		<rect x="273.067" y="68.267" style="fill:#031B4E" width="13.653" height="13.653" data-original="#602F75" class="active-path" data-old_color="#031B4E"/>
		<rect x="293.547" y="68.267" style="fill:#031B4E" width="13.653" height="13.653" data-original="#602F75" class="active-path" data-old_color="#031B4E"/>
		<rect x="314.027" y="68.267" style="fill:#031B4E" width="13.653" height="13.653" data-original="#602F75" class="active-path" data-old_color="#031B4E"/>
		<rect x="334.507" y="68.267" style="fill:#031B4E" width="13.653" height="13.653" data-original="#602F75" class="active-path" data-old_color="#031B4E"/>
		<rect x="354.987" y="68.267" style="fill:#031B4E" width="13.653" height="13.653" data-original="#602F75" class="active-path" data-old_color="#031B4E"/>
	</g>
	<path style="fill:#FFFFFF;" d="M259.415,218.453H43.564c-16.521,0-29.911-13.39-29.911-29.911v-35.753   c0-16.519,13.391-29.909,29.911-29.909h336.126c16.519,0,29.911,13.391,29.911,29.911v35.753c0,16.519-13.391,29.911-29.911,29.911   h-69.048" data-original="#FFFFFF" class=""/>
</g><path style="fill:#031B4E" d="M379.687,225.28h-69.047c-3.773,0-6.827-3.053-6.827-6.827s3.053-6.827,6.827-6.827h69.047  c12.727,0,23.086-10.359,23.086-23.086v-35.746c0-12.727-10.359-23.086-23.086-23.086H43.566  c-12.727-0.002-23.086,10.358-23.086,23.084v35.746c0,12.728,10.359,23.088,23.086,23.088h215.847c3.773,0,6.827,3.053,6.827,6.827  s-3.053,6.827-6.827,6.827H43.566c-20.26,0-36.739-16.48-36.739-36.739v-35.746c0-20.262,16.48-36.741,36.739-36.741h336.12  c20.262,0,36.741,16.48,36.741,36.739v35.746C416.427,208.8,399.947,225.28,379.687,225.28z" data-original="#602F75" class="active-path" data-old_color="#031B4E"/><g>
	<circle style="fill:#EBAA39;" cx="54.613" cy="170.667" r="20.48" data-original="#EBAA39"/>
	<g>
		<rect x="252.587" y="184.32" style="fill:#031B4E" width="13.653" height="13.653" data-original="#602F75" class="active-path" data-old_color="#031B4E"/>
		<rect x="273.067" y="184.32" style="fill:#031B4E" width="13.653" height="13.653" data-original="#602F75" class="active-path" data-old_color="#031B4E"/>
		<rect x="293.547" y="184.32" style="fill:#031B4E" width="13.653" height="13.653" data-original="#602F75" class="active-path" data-old_color="#031B4E"/>
		<rect x="314.027" y="184.32" style="fill:#031B4E" width="13.653" height="13.653" data-original="#602F75" class="active-path" data-old_color="#031B4E"/>
		<rect x="334.507" y="184.32" style="fill:#031B4E" width="13.653" height="13.653" data-original="#602F75" class="active-path" data-old_color="#031B4E"/>
		<rect x="354.987" y="184.32" style="fill:#031B4E" width="13.653" height="13.653" data-original="#602F75" class="active-path" data-old_color="#031B4E"/>
	</g>
	<path style="fill:#5E8DA7" d="M348.16,368.64H150.187V254.17c0-4.646,3.765-8.41,8.41-8.41H339.75c4.646,0,8.41,3.765,8.41,8.41   L348.16,368.64L348.16,368.64z" data-original="#5E8DA7" class=""/>
</g><path style="fill:#031B4E" d="M348.16,375.467H150.187c-3.773,0-6.827-3.053-6.827-6.827V254.174  c0-8.407,6.833-15.241,15.241-15.241h181.146c8.407,0,15.241,6.833,15.241,15.241V368.64  C354.987,372.413,351.933,375.467,348.16,375.467z M157.013,361.813h184.32V254.174c0-0.874-0.713-1.587-1.587-1.587H158.601  c-0.874,0-1.587,0.713-1.587,1.587V361.813z" data-original="#602F75" class="active-path" data-old_color="#031B4E"/><polygon style="fill:#FFFFFF;" points="361.813,416.427 136.533,416.427 150.187,368.64 348.16,368.64 " data-original="#FFFFFF" class=""/><g>
	<path style="fill:#031B4E" d="M361.813,423.253h-225.28c-2.14,0-4.161-1.007-5.453-2.714c-1.287-1.714-1.7-3.927-1.113-5.987   l13.653-47.787c0.84-2.934,3.519-4.953,6.567-4.953h197.973c3.046,0,5.726,2.021,6.567,4.953l13.653,47.787   c0.587,2.06,0.174,4.273-1.113,5.987C365.974,422.246,363.953,423.253,361.813,423.253z M145.587,409.6h207.174l-9.747-34.133   h-187.68L145.587,409.6z" data-original="#602F75" class="active-path" data-old_color="#031B4E"/>
	<path style="fill:#031B4E" d="M122.88,327.68H75.093c-3.773,0-6.827-3.053-6.827-6.827v-81.92c0-3.773,3.053-6.827,6.827-6.827   s6.827,3.053,6.827,6.827v75.093h40.96c3.773,0,6.827,3.053,6.827,6.827S126.653,327.68,122.88,327.68z" data-original="#602F75" class="active-path" data-old_color="#031B4E"/>
	<path style="fill:#031B4E" d="M279.893,402.773h-61.44c-3.773,0-6.827-3.053-6.827-6.827s3.053-6.827,6.827-6.827h61.44   c3.773,0,6.827,3.053,6.827,6.827S283.667,402.773,279.893,402.773z" data-original="#602F75" class="active-path" data-old_color="#031B4E"/>
</g></g> </svg>
