<?xml version="1.0"?>
<svg xmlns="http://www.w3.org/2000/svg" xmlns:xlink="http://www.w3.org/1999/xlink" version="1.1" id="Capa_1" x="0px" y="0px" viewBox="0 0 511.999 511.999" style="enable-background:new 0 0 511.999 511.999;" xml:space="preserve" width="512px" height="512px" class=""><g><g>
	<path style="fill:#5E8DA7" d="M342.206,321.864v-85.299l-78.282,45.156c-6.708,3.869-14.97,3.869-21.678,0l-78.282-45.156v85.299   c0,6.787,5.502,12.288,12.288,12.288h153.666C336.705,334.152,342.206,328.651,342.206,321.864z" data-original="#4CC1EB" class="" data-old_color="#4CC1EB"/>
	<path style="fill:#5E8DA7" d="M340.108,229.695c0.662,0.98,1.187,2.062,1.546,3.216   C341.295,231.756,340.77,230.675,340.108,229.695z" data-original="#4CC1EB" class="" data-old_color="#4CC1EB"/>
</g><path style="fill:#5E8DA7" d="M263.924,281.72l78.282-45.156c0-1.272-0.193-2.5-0.552-3.654c-0.359-1.155-0.884-2.236-1.546-3.216  c-2.208-3.269-5.948-5.418-10.19-5.418H176.252c-6.787,0-12.288,5.501-12.288,12.288l78.282,45.156  C248.954,285.59,257.216,285.59,263.924,281.72z" data-original="#E5EAED" class="active-path" data-old_color="#E5EAED"/><g>
	<path style="fill:#C13D3D" d="M127.725,445.283c0.907-0.749,1.741-1.583,2.489-2.489   C129.466,443.7,128.632,444.534,127.725,445.283z" data-original="#EB5664" class="" data-old_color="#EB5664"/>
	<path style="fill:#C13D3D" d="M124.797,447.26c-2.602,1.414-5.584,2.216-8.753,2.216   C119.214,449.476,122.195,448.673,124.797,447.26z" data-original="#EB5664" class="" data-old_color="#EB5664"/>
	<path style="fill:#C13D3D" d="M132.192,439.866c-0.565,1.041-1.229,2.021-1.977,2.928   C130.963,441.886,131.626,440.906,132.192,439.866z" data-original="#EB5664" class="" data-old_color="#EB5664"/>
	<path style="fill:#C13D3D" d="M71.101,449.476h9.13V248.35h-9.13C37.356,248.35,10,275.705,10,309.45v78.925   C10,422.121,37.356,449.476,71.101,449.476z" data-original="#EB5664" class="" data-old_color="#EB5664"/>
</g><path style="fill:#EBAA39" d="M116.044,449.476c3.169,0,6.151-0.803,8.753-2.216c1.041-0.565,2.021-1.229,2.928-1.977  s1.741-1.583,2.489-2.489c0.748-0.907,1.412-1.887,1.977-2.928c1.414-2.602,2.216-5.584,2.216-8.753v-164.4l0,0  c0-10.142-8.222-18.364-18.364-18.364H80.23l0,0v201.126L116.044,449.476L116.044,449.476z" data-original="#F8C55A" class="" data-old_color="#F8C55A"/><g>
	<path style="fill:#C13D3D" d="M395.956,449.476c-3.169,0-6.151-0.803-8.753-2.216   C389.805,448.673,392.786,449.476,395.956,449.476z" data-original="#EB5664" class="" data-old_color="#EB5664"/>
	<path style="fill:#C13D3D" d="M381.785,442.793c-0.748-0.907-1.412-1.887-1.977-2.928   C380.374,440.906,381.037,441.886,381.785,442.793z" data-original="#EB5664" class="" data-old_color="#EB5664"/>
	<path style="fill:#C13D3D" d="M440.899,248.35h-9.13v201.126h9.13c33.745,0,61.101-27.355,61.101-61.101V309.45   C502,275.705,474.644,248.35,440.899,248.35z" data-original="#EB5664" class="" data-old_color="#EB5664"/>
</g><path style="fill:#EBAA39" d="M431.77,248.349h-35.814c-10.142,0-18.364,8.222-18.364,18.364l0,0v164.399  c0,3.169,0.803,6.151,2.216,8.753c0.565,1.041,1.229,2.021,1.977,2.928c1.497,1.814,3.336,3.335,5.417,4.466  c2.602,1.414,5.584,2.216,8.753,2.216h35.814V248.349H431.77z" data-original="#F8C55A" class="" data-old_color="#F8C55A"/><path style="fill:#5E8DA7" d="M389.439,167.405c5.01,12.115,16.72,19.431,29.063,19.431c4.003,0,8.072-0.77,12-2.393  c16.044-6.635,23.673-25.02,17.038-41.064C415.366,65.575,340.182,15.301,256,15.301S96.634,65.575,64.46,143.379  c-6.635,16.045,0.994,34.429,17.038,41.064c16.042,6.633,34.429-0.995,41.063-17.038C144.976,113.199,197.354,78.174,256,78.174  S367.024,113.199,389.439,167.405z" data-original="#E5EAED" class="active-path" data-old_color="#E5EAED"/><ellipse style="fill:#5E8DA7" cx="244" cy="472.699" rx="31" ry="24" data-original="#4CC1EB" class="" data-old_color="#4CC1EB"/><path d="M329.918,344.152c12.29,0,22.288-9.998,22.288-22.288v-85.299c0-12.29-9.999-22.289-22.288-22.289H176.252  c-12.29,0-22.288,9.999-22.288,22.289v85.299c0,12.29,9.999,22.288,22.288,22.288H329.918z M180.011,324.152l57.917-33.408  c4.711,2.566,9.931,3.864,15.157,3.864s10.446-1.298,15.157-3.864l57.917,33.408H180.011z M332.206,253.878v50.674l-43.924-25.337  L332.206,253.878z M326.161,234.276l-57.918,33.409l-9.315,5.374c-3.603,2.078-8.081,2.078-11.685,0l-9.315-5.373l-57.918-33.409  h146.151V234.276z M173.964,253.878l43.925,25.337l-43.925,25.337V253.878z" data-original="#000000" class="" style="fill:#031B4E" data-old_color="#000000"/><path d="M441.77,238.372v-15.865c0-10.631-0.911-21.052-2.634-31.199c17.776-10.204,25.682-32.314,17.645-51.75  C423.055,58,344.244,5.301,256,5.301S88.945,58,55.219,139.558c-8.037,19.435-0.131,41.545,17.645,51.75  c-1.723,10.148-2.634,20.569-2.634,31.2v15.865C31.427,238.842,0,270.537,0,309.45v78.926c0,39.205,31.896,71.101,71.101,71.101  h9.13h35.813l0,0c7.27,0,13.91-2.75,18.935-7.263c0.718-0.645,1.403-1.326,2.052-2.04c1.222-1.344,2.316-2.805,3.265-4.365  c0.474-0.78,0.912-1.584,1.311-2.411s0.759-1.675,1.077-2.544c1.115-3.04,1.724-6.321,1.724-9.742V266.713  c0-15.64-12.724-28.363-28.364-28.363H90.23v-15.843c0-8.741,0.685-17.325,1.996-25.705c16.722,0.499,32.813-9.223,39.576-25.575  C152.666,120.774,201.416,88.174,256,88.174s103.334,32.601,124.198,83.053c6.433,15.557,21.468,25.609,38.304,25.609  c0.425,0,0.849-0.018,1.273-0.031c1.31,8.379,1.995,16.961,1.995,25.702v15.843h-25.814c-15.64,0-28.364,12.724-28.364,28.363  v164.399c0,4.398,1.006,8.567,2.801,12.286c0.399,0.826,0.837,1.631,1.311,2.411c0.237,0.39,0.483,0.773,0.739,1.151  c0.765,1.132,1.61,2.206,2.526,3.214c0.649,0.714,1.334,1.395,2.052,2.04c5.025,4.514,11.665,7.263,18.935,7.263l0,0h25.682  c-0.896,6.883-6.784,12.221-13.907,12.221H284.969c-0.642-18.286-18.766-33-40.969-33c-22.607,0-41,15.252-41,34s18.393,34,41,34  c14.128,0,26.61-5.957,33.985-15H407.73c18.166,0,33.053-14.305,33.99-32.242c38.826-0.444,70.279-32.15,70.279-71.08V309.45  C512,270.537,480.573,238.842,441.77,238.372z M244,486.697c-11.383,0-21-6.411-21-14s9.617-14,21-14s21,6.411,21,14  S255.383,486.697,244,486.697z M116.044,258.35c4.612,0,8.364,3.752,8.364,8.363v164.399c0,1.153-0.235,2.252-0.658,3.253  c-1.271,3.001-4.247,5.111-7.706,5.111H90.23v-85.67c0-5.522-4.477-10-10-10s-10,4.478-10,10v85.648  C42.455,438.986,20,416.261,20,388.376V309.45c0-27.885,22.455-50.61,50.23-51.079v15.435c0,5.522,4.477,10,10,10s10-4.478,10-10  v-15.457h25.814V258.35z M418.502,176.836c-1.085,0-2.155-0.081-3.204-0.238c-7.377-1.102-13.703-5.967-16.617-13.014  c-23.968-57.96-79.973-95.41-142.68-95.41s-118.712,37.45-142.68,95.41c-2.973,7.188-9.431,11.902-16.613,12.998  c-3.73,0.569-7.654,0.164-11.387-1.38c-2.948-1.219-5.476-3.028-7.513-5.229c-5.511-5.953-7.404-14.798-4.106-22.773  C104.323,73.149,175.879,25.301,256,25.301S407.677,73.149,438.298,147.2c3.298,7.975,1.405,16.82-4.105,22.773  c-2.037,2.201-4.564,4.009-7.512,5.229C424.059,176.286,421.307,176.836,418.502,176.836z M395.956,439.477  c-3.459,0-6.435-2.11-7.706-5.111c-0.424-1-0.658-2.1-0.658-3.253v-164.4c0-4.611,3.752-8.363,8.364-8.363h25.814v29.263v151.864  L395.956,439.477L395.956,439.477z M492,388.376c0,27.885-22.455,50.61-50.23,51.079V287.612v-29.241  c27.775,0.468,50.23,23.194,50.23,51.079V388.376z" data-original="#000000" class="" style="fill:#031B4E" data-old_color="#000000"/><path d="M89.46,309.978c-0.25-0.6-0.56-1.18-0.92-1.72c-0.36-0.55-0.78-1.06-1.24-1.52c-0.46-0.471-0.97-0.881-1.52-1.25  c-0.54-0.36-1.12-0.671-1.73-0.921c-0.6-0.25-1.23-0.439-1.87-0.569c-1.29-0.26-2.61-0.26-3.9,0c-0.64,0.13-1.27,0.319-1.87,0.569  c-0.61,0.25-1.19,0.561-1.73,0.921c-0.55,0.369-1.06,0.779-1.52,1.25c-0.46,0.46-0.88,0.97-1.24,1.52  c-0.36,0.54-0.67,1.12-0.92,1.72c-0.25,0.61-0.44,1.24-0.57,1.87c-0.13,0.65-0.2,1.3-0.2,1.96c0,0.65,0.07,1.311,0.2,1.95  c0.13,0.64,0.32,1.271,0.57,1.87c0.25,0.61,0.56,1.189,0.92,1.729c0.36,0.551,0.78,1.061,1.24,1.521s0.97,0.88,1.52,1.24  c0.54,0.359,1.12,0.67,1.73,0.92c0.6,0.25,1.23,0.439,1.87,0.569c0.64,0.131,1.3,0.2,1.95,0.2s1.31-0.069,1.95-0.2  c0.64-0.13,1.27-0.319,1.87-0.569c0.61-0.25,1.19-0.561,1.73-0.92c0.55-0.36,1.06-0.78,1.52-1.24s0.88-0.97,1.24-1.521  c0.36-0.54,0.67-1.119,0.92-1.729c0.25-0.6,0.45-1.23,0.57-1.87c0.13-0.64,0.2-1.3,0.2-1.95c0-0.66-0.07-1.31-0.2-1.96  C89.91,311.219,89.71,310.589,89.46,309.978z" data-original="#000000" class="" style="fill:#031B4E" data-old_color="#000000"/></g> </svg>
