<?xml version="1.0"?>
<svg xmlns="http://www.w3.org/2000/svg" height="512px" viewBox="0 0 512 512" width="512px" class=""><g><path d="m124.65625 108.625c0 8.855469-7.175781 16.03125-16.03125 16.03125s-16.03125-7.175781-16.03125-16.03125 7.175781-16.03125 16.03125-16.03125 16.03125 7.175781 16.03125 16.03125zm0 0" fill="#dad8db" data-original="#DAD8DB"/><path d="m336.160156 191.871094h-160.320312c-8.855469 0-16.03125-7.179688-16.03125-16.03125v-32.066406c0-8.851563 7.175781-16.03125 16.03125-16.03125h160.320312c8.855469 0 16.035156 7.179687 16.035156 16.03125v32.066406c0 8.851562-7.179687 16.03125-16.035156 16.03125zm0 0" fill="#857e87" data-original="#857E87" class="" style="fill:#5E8DA7" data-old_color="#857E87"/><path d="m87.660156 256c0 22.136719-17.941406 40.082031-40.078125 40.082031s-40.082031-17.945312-40.082031-40.082031 17.945312-40.082031 40.082031-40.082031 40.078125 17.945312 40.078125 40.082031zm0 0" fill="#ffe07d" data-original="#FFE07D" class="" style="fill:#C13D3D" data-old_color="#FFE07D"/><path d="m59.605469 284.054688c-22.136719 0-40.082031-17.945313-40.082031-40.078126 0-7.988281 2.398437-15.386718 6.425781-21.632812-11.074219 7.132812-18.449219 19.503906-18.449219 33.65625 0 22.136719 17.945312 40.082031 40.082031 40.082031 14.148438 0 26.523438-7.375 33.65625-18.449219-6.25 4.023438-13.648437 6.421876-21.632812 6.421876zm0 0" fill="#ffd064" data-original="#FFD064" class="active-path" style="fill:#C13D3D" data-old_color="#FFD064"/><path d="m504.5 256c0 22.136719-17.945312 40.082031-40.082031 40.082031s-40.078125-17.945312-40.078125-40.082031 17.941406-40.082031 40.078125-40.082031 40.082031 17.945312 40.082031 40.082031zm0 0" fill="#c3ddff" data-original="#C3DDFF" class="" style="fill:#C13D3D" data-old_color="#C3DDFF"/><path d="m476.445312 284.054688c-22.136718 0-40.082031-17.945313-40.082031-40.078126 0-7.988281 2.398438-15.386718 6.421875-21.632812-11.070312 7.132812-18.445312 19.503906-18.445312 33.65625 0 22.136719 17.945312 40.078125 40.082031 40.078125 14.148437 0 26.523437-7.371094 33.65625-18.445313-6.25 4.023438-13.648437 6.421876-21.632813 6.421876zm0 0" fill="#a4ccff" data-original="#A4CCFF" class="" style="fill:#C13D3D" data-old_color="#A4CCFF"/><path d="m296.082031 47.582031c0 22.136719-17.945312 40.078125-40.082031 40.078125s-40.082031-17.941406-40.082031-40.078125 17.945312-40.082031 40.082031-40.082031 40.082031 17.945312 40.082031 40.082031zm0 0" fill="#ccf49f" data-original="#CCF49F" class="" style="fill:#EBAA39" data-old_color="#CCF49F"/><path d="m268.023438 75.636719c-22.136719 0-40.082032-17.945313-40.082032-40.082031 0-7.984376 2.402344-15.382813 6.425782-21.632813-11.074219 7.132813-18.449219 19.507813-18.449219 33.65625 0 22.136719 17.945312 40.082031 40.082031 40.082031 14.152344 0 26.523438-7.375 33.65625-18.445312-6.25 4.023437-13.648438 6.421875-21.632812 6.421875zm0 0" fill="#b3e59f" data-original="#B3E59F" class="" style="fill:#EBAA39" data-old_color="#B3E59F"/><path d="m296.082031 464.417969c0 22.136719-17.945312 40.082031-40.082031 40.082031s-40.082031-17.945312-40.082031-40.082031 17.945312-40.078125 40.082031-40.078125 40.082031 17.941406 40.082031 40.078125zm0 0" fill="#ff9a9f" data-original="#FF9A9F" class="" style="fill:#EBAA39" data-old_color="#FF9A9F"/><path d="m268.023438 492.476562c-22.136719 0-40.082032-17.945312-40.082032-40.082031 0-7.984375 2.402344-15.382812 6.425782-21.632812-11.074219 7.132812-18.449219 19.507812-18.449219 33.65625 0 22.136719 17.945312 40.082031 40.082031 40.082031 14.152344 0 26.523438-7.375 33.65625-18.449219-6.25 4.027344-13.648438 6.425781-21.632812 6.425781zm0 0" fill="#ff8086" data-original="#FF8086" class="" style="fill:#EBAA39" data-old_color="#FF8086"/><g fill="#dad8db"><path d="m419.40625 108.625c0 8.855469-7.175781 16.03125-16.03125 16.03125s-16.03125-7.175781-16.03125-16.03125 7.175781-16.03125 16.03125-16.03125 16.03125 7.175781 16.03125 16.03125zm0 0" data-original="#000000" class="" style="fill:#031B4E" data-old_color="#000000"/><path d="m124.65625 403.375c0 8.855469-7.175781 16.03125-16.03125 16.03125s-16.03125-7.175781-16.03125-16.03125 7.175781-16.03125 16.03125-16.03125 16.03125 7.175781 16.03125 16.03125zm0 0" data-original="#000000" class="" style="fill:#031B4E" data-old_color="#000000"/><path d="m419.40625 403.375c0 8.855469-7.175781 16.03125-16.03125 16.03125s-16.03125-7.175781-16.03125-16.03125 7.175781-16.03125 16.03125-16.03125 16.03125 7.175781 16.03125 16.03125zm0 0" data-original="#000000" class="" style="fill:#031B4E" data-old_color="#000000"/></g><path d="m183.855469 151.226562v-23.484374h-8.015625c-8.855469 0-16.03125 7.179687-16.03125 16.03125v32.066406c0 8.851562 7.175781 16.03125 16.03125 16.03125h160.320312c8.855469 0 16.035156-7.179688 16.035156-16.03125v-8.578125h-152.308593c-8.855469 0-16.03125-7.179688-16.03125-16.035157zm0 0" fill="#6f6571" data-original="#6F6571" class="" style="fill:#5E8DA7" data-old_color="#6F6571"/><path d="m336.160156 288.066406h-160.320312c-8.855469 0-16.03125-7.179687-16.03125-16.035156v-32.0625c0-8.855469 7.175781-16.03125 16.03125-16.03125h160.320312c8.855469 0 16.035156 7.175781 16.035156 16.03125v32.0625c0 8.855469-7.179687 16.035156-16.035156 16.035156zm0 0" fill="#857e87" data-original="#857E87" class="" style="fill:#5E8DA7" data-old_color="#857E87"/><path d="m183.855469 247.421875v-23.488281h-8.015625c-8.855469 0-16.03125 7.179687-16.03125 16.035156v32.0625c0 8.855469 7.175781 16.03125 16.03125 16.03125h160.320312c8.855469 0 16.035156-7.175781 16.035156-16.03125v-8.578125h-152.308593c-8.855469 0-16.03125-7.175781-16.03125-16.03125zm0 0" fill="#6f6571" data-original="#6F6571" class="" style="fill:#5E8DA7" data-old_color="#6F6571"/><path d="m336.160156 384.257812h-160.320312c-8.855469 0-16.03125-7.179687-16.03125-16.03125v-32.066406c0-8.851562 7.175781-16.03125 16.03125-16.03125h160.320312c8.855469 0 16.035156 7.179688 16.035156 16.03125v32.066406c0 8.851563-7.179687 16.03125-16.035156 16.03125zm0 0" fill="#857e87" data-original="#857E87" class="" style="fill:#5E8DA7" data-old_color="#857E87"/><path d="m183.855469 343.613281v-23.484375h-8.015625c-8.855469 0-16.03125 7.179688-16.03125 16.03125v32.066406c0 8.851563 7.175781 16.03125 16.03125 16.03125h160.320312c8.855469 0 16.035156-7.179687 16.035156-16.03125v-8.578124h-152.308593c-8.855469 0-16.03125-7.179688-16.03125-16.035157zm0 0" fill="#6f6571" data-original="#6F6571" class="" style="fill:#5E8DA7" data-old_color="#6F6571"/><path d="m199.886719 152.308594h-8.015625c-4.140625 0-7.5 3.355468-7.5 7.5 0 4.140625 3.359375 7.5 7.5 7.5h8.015625c4.140625 0 7.5-3.359375 7.5-7.5 0-4.144532-3.359375-7.5-7.5-7.5zm0 0" data-original="#000000" class="" style="fill:#031B4E" data-old_color="#000000"/><path d="m191.871094 344.691406c-4.140625 0-7.5 3.359375-7.5 7.5 0 4.144532 3.359375 7.5 7.5 7.5h8.015625c4.140625 0 7.5-3.355468 7.5-7.5 0-4.140625-3.359375-7.5-7.5-7.5zm0 0" data-original="#000000" class="" style="fill:#031B4E" data-old_color="#000000"/><path d="m199.886719 248.5h-8.015625c-4.140625 0-7.5 3.359375-7.5 7.5s3.359375 7.5 7.5 7.5h8.015625c4.140625 0 7.5-3.359375 7.5-7.5s-3.359375-7.5-7.5-7.5zm0 0" data-original="#000000" class="" style="fill:#031B4E" data-old_color="#000000"/><path d="m320.128906 248.5h-88.175781c-4.144531 0-7.5 3.359375-7.5 7.5s3.355469 7.5 7.5 7.5h88.175781c4.140625 0 7.5-3.359375 7.5-7.5s-3.359375-7.5-7.5-7.5zm0 0" data-original="#000000" class="" style="fill:#031B4E" data-old_color="#000000"/><path d="m327.628906 159.808594c0-4.144532-3.359375-7.5-7.5-7.5h-88.175781c-4.144531 0-7.5 3.355468-7.5 7.5 0 4.140625 3.355469 7.5 7.5 7.5h88.175781c4.140625 0 7.5-3.359375 7.5-7.5zm0 0" data-original="#000000" class="" style="fill:#031B4E" data-old_color="#000000"/><path d="m224.453125 352.191406c0 4.144532 3.355469 7.5 7.5 7.5h88.175781c4.140625 0 7.5-3.355468 7.5-7.5 0-4.140625-3.359375-7.5-7.5-7.5h-88.175781c-4.144531 0-7.5 3.359375-7.5 7.5zm0 0" data-original="#000000" class="" style="fill:#031B4E" data-old_color="#000000"/><path d="m464.417969 208.417969c-23.683594 0-43.375 17.398437-46.984375 40.082031h-57.742188v-8.53125c0-12.976562-10.554687-23.53125-23.53125-23.53125h-72.660156v-17.066406h72.660156c12.976563 0 23.53125-10.554688 23.53125-23.53125v-32.0625c0-12.976563-10.554687-23.535156-23.53125-23.535156h-72.660156v-25.675782c22.683594-3.609375 40.082031-23.300781 40.082031-46.984375 0-26.238281-21.347656-47.582031-47.582031-47.582031s-47.582031 21.34375-47.582031 47.582031c0 23.683594 17.398437 43.375 40.082031 46.984375v25.675782h-72.660156c-12.976563 0-23.53125 10.558593-23.53125 23.53125v32.066406c0 12.976562 10.554687 23.53125 23.53125 23.53125h72.660156v17.0625h-72.660156c-12.976563 0-23.53125 10.558594-23.53125 23.535156v8.53125h-57.742188c-3.609375-22.683594-23.300781-40.082031-46.984375-40.082031-26.238281 0-47.582031 21.347656-47.582031 47.582031s21.34375 47.582031 47.582031 47.582031c23.683594 0 43.375-17.398437 46.984375-40.082031h57.742188v8.53125c0 12.976562 10.554687 23.53125 23.53125 23.53125h72.660156v17.066406h-72.660156c-12.976563 0-23.53125 10.554688-23.53125 23.53125v32.0625c0 12.976563 10.554687 23.535156 23.53125 23.535156h72.660156v25.675782c-22.683594 3.609375-40.082031 23.300781-40.082031 46.984375 0 26.238281 21.347656 47.582031 47.582031 47.582031s47.582031-21.34375 47.582031-47.582031c0-23.683594-17.398437-43.375-40.082031-46.984375v-25.675782h72.660156c12.976563 0 23.53125-10.558593 23.53125-23.53125v-32.066406c0-12.976562-10.554687-23.53125-23.53125-23.53125h-8.015625c-4.140625 0-7.5 3.359375-7.5 7.5s3.359375 7.5 7.5 7.5h8.015625c4.707032 0 8.53125 3.828125 8.53125 8.53125v32.066406c0 4.703126-3.828125 8.53125-8.53125 8.53125h-160.320312c-4.707032 0-8.53125-3.828124-8.53125-8.53125v-32.066406c0-4.703125 3.828125-8.53125 8.53125-8.53125h120.242187c4.140625 0 7.5-3.359375 7.5-7.5s-3.359375-7.5-7.5-7.5h-32.582031v-17.0625h72.660156c12.976563 0 23.53125-10.558594 23.53125-23.535156v-8.53125h57.742188c3.609375 22.683594 23.300781 40.082031 46.984375 40.082031 26.238281 0 47.582031-21.347656 47.582031-47.582031s-21.34375-47.582031-47.582031-47.582031zm-241-160.835938c0-17.964843 14.617187-32.582031 32.582031-32.582031s32.582031 14.617188 32.582031 32.582031c0 17.964844-14.617187 32.578125-32.582031 32.578125s-32.582031-14.613281-32.582031-32.578125zm-56.109375 128.257813v-32.066406c0-4.703126 3.828125-8.53125 8.53125-8.53125h160.320312c4.707032 0 8.53125 3.828124 8.53125 8.53125v32.066406c0 4.703125-3.828125 8.53125-8.53125 8.53125h-160.320312c-4.707032 0-8.53125-3.828125-8.53125-8.53125zm-119.726563 112.742187c-17.964843 0-32.582031-14.617187-32.582031-32.582031s14.617188-32.582031 32.582031-32.582031c17.964844 0 32.578125 14.617187 32.578125 32.582031s-14.613281 32.582031-32.578125 32.582031zm241 175.835938c0 17.96875-14.617187 32.582031-32.582031 32.582031s-32.582031-14.613281-32.582031-32.582031c0-17.964844 14.617187-32.578125 32.582031-32.578125s32.582031 14.613281 32.582031 32.578125zm56.109375-192.386719c0 4.707031-3.828125 8.53125-8.53125 8.53125h-160.320312c-4.707032 0-8.53125-3.828125-8.53125-8.53125v-32.0625c0-4.707031 3.828125-8.53125 8.53125-8.53125h160.320312c4.707032 0 8.53125 3.828125 8.53125 8.53125zm119.726563 16.550781c-17.964844 0-32.578125-14.617187-32.578125-32.582031s14.613281-32.582031 32.578125-32.582031c17.964843 0 32.582031 14.617187 32.582031 32.582031s-14.617188 32.582031-32.582031 32.582031zm0 0" data-original="#000000" class="" style="fill:#031B4E" data-old_color="#000000"/><path d="m454.550781 319.949219c-3.894531-1.40625-8.195312.605469-9.605469 4.496093-7.535156 20.796876-18.386718 40.058594-32.28125 57.328126-8.585937-3.679688-18.929687-2.039063-25.929687 4.960937s-8.640625 17.34375-4.957031 25.933594c-17.277344 13.890625-36.542969 24.742187-57.328125 32.277343-3.894531 1.410157-5.910157 5.710938-4.496094 9.605469 1.105469 3.050781 3.984375 4.945313 7.050781 4.945313.847656 0 1.710938-.144532 2.554688-.449219 22.601562-8.191406 43.519531-20.03125 62.246094-35.207031 3.582031 2.019531 7.570312 3.054687 11.570312 3.054687 6.027344 0 12.054688-2.292969 16.640625-6.878906 7.628906-7.632813 8.890625-19.230469 3.832031-28.203125 15.175782-18.722656 27.007813-39.644531 35.203125-62.253906 1.40625-3.894532-.605469-8.195313-4.5-9.609375zm-45.144531 89.457031c-3.324219 3.328125-8.738281 3.328125-12.066406 0-3.324219-3.324219-3.324219-8.738281 0-12.0625 3.328125-3.328125 8.742187-3.328125 12.066406 0 3.328125 3.324219 3.328125 8.738281 0 12.0625zm0 0" data-original="#000000" class="" style="fill:#031B4E" data-old_color="#000000"/><path d="m187.554688 444.945312c-20.796876-7.535156-40.058594-18.386718-57.328126-32.28125 3.679688-8.585937 2.039063-18.929687-4.960937-25.929687s-17.339844-8.640625-25.929687-4.960937c-13.890626-17.277344-24.75-36.542969-32.28125-57.328126-1.410157-3.894531-5.710938-5.90625-9.605469-4.496093-3.894531 1.414062-5.90625 5.714843-4.496094 9.609375 8.1875 22.59375 20.03125 43.515625 35.207031 62.242187-5.066406 8.972657-3.808594 20.582031 3.824219 28.214844 4.589844 4.585937 10.617187 6.878906 16.640625 6.878906 4 0 7.988281-1.03125 11.5625-3.050781 18.726562 15.175781 39.648438 27.011719 62.253906 35.203125.84375.304687 1.707032.449219 2.554688.449219 3.070312 0 5.949218-1.894532 7.054687-4.945313 1.410157-3.894531-.605469-8.195312-4.496093-9.605469zm-84.960938-35.539062c-3.328125-3.324219-3.328125-8.738281 0-12.066406 3.324219-3.324219 8.738281-3.324219 12.0625 0 3.328125 3.328125 3.328125 8.742187 0 12.066406-3.324219 3.328125-8.738281 3.328125-12.0625 0zm0 0" data-original="#000000" class="" style="fill:#031B4E" data-old_color="#000000"/><path d="m57.449219 192.050781c.84375.304688 1.707031.449219 2.554687.449219 3.066406 0 5.945313-1.894531 7.050782-4.945312 7.542968-20.808594 18.394531-40.058594 32.285156-57.324219 2.957031 1.265625 6.121094 1.917969 9.285156 1.917969 6.027344 0 12.054688-2.292969 16.640625-6.882813 7-6.996094 8.640625-17.335937 4.964844-25.925781 17.265625-13.890625 36.515625-24.742188 57.324219-32.28125 3.894531-1.414063 5.90625-5.714844 4.496093-9.609375-1.414062-3.890625-5.710937-5.90625-9.609375-4.496094-22.621094 8.199219-43.527344 20.035156-62.246094 35.207031-8.972656-5.066406-20.578124-3.804687-28.210937 3.828125-7.628906 7.632813-8.890625 19.238281-3.824219 28.207031-15.171875 18.71875-27.007812 39.628907-35.207031 62.25-1.410156 3.890626.601563 8.191407 4.496094 9.605469zm45.144531-89.457031c3.324219-3.328125 8.738281-3.328125 12.0625 0 3.328125 3.324219 3.328125 8.738281 0 12.0625-3.324219 3.328125-8.738281 3.328125-12.0625 0-3.328125-3.324219-3.328125-8.738281 0-12.0625zm0 0" data-original="#000000" class="" style="fill:#031B4E" data-old_color="#000000"/><path d="m324.445312 67.054688c20.796876 7.535156 40.058594 18.386718 57.328126 32.277343-3.679688 8.589844-2.039063 18.933594 4.960937 25.933594 4.589844 4.585937 10.613281 6.878906 16.640625 6.878906 3.167969 0 6.332031-.652343 9.289062-1.917969 13.890626 17.269532 24.742188 36.527344 32.28125 57.324219 1.105469 3.050781 3.984376 4.949219 7.050782 4.949219.847656 0 1.710937-.144531 2.554687-.453125 3.894531-1.410156 5.910157-5.710937 4.496094-9.605469-8.191406-22.613281-20.023437-43.53125-35.199219-62.253906 5.058594-8.972656 3.796875-20.574219-3.832031-28.203125-7.632813-7.628906-19.234375-8.890625-28.207031-3.828125-18.722656-15.175781-39.644532-27.011719-62.25-35.203125-3.894532-1.410156-8.195313.601563-9.605469 4.496094-1.414063 3.894531.601563 8.195312 4.492187 9.605469zm84.960938 35.539062c3.328125 3.324219 3.328125 8.738281 0 12.0625-3.324219 3.328125-8.738281 3.328125-12.0625 0-3.328125-3.324219-3.328125-8.738281 0-12.0625 3.324219-3.328125 8.738281-3.328125 12.0625 0zm0 0" data-original="#000000" class="" style="fill:#031B4E" data-old_color="#000000"/></g> </svg>
