<?xml version="1.0"?>
<svg xmlns="http://www.w3.org/2000/svg" height="512px" viewBox="-24 0 496 496" width="512px" class=""><g><path d="m440 64v8.960938c0 17.917968-2.878906 35.519531-8.480469 52.238281-5.597656 16.722656-13.839843 32.5625-24.558593 46.800781-9.679688 12.960938-14.960938 28.800781-14.960938 44.960938 0 19.839843 7.921875 38.960937 21.921875 52.960937l18.078125 18.078125c-30.878906 82.238281-91.679688 149.839844-170.238281 189.121094l-7.441407 3.757812c-9.441406 4.640625-19.761718 7.121094-30.320312 7.121094s-20.878906-2.480469-30.320312-7.121094l-7.441407-3.757812c-39.277343-19.679688-74.078125-46.402344-103.039062-78.480469-28.800781-32.082031-51.757813-69.519531-67.199219-110.640625l18.078125-18.078125c7.042969-7.042969 12.480469-15.28125 16.242187-24.320313 3.679688-8.960937 5.679688-18.722656 5.679688-28.640624 0-16.160157-5.28125-32-14.960938-44.960938-21.4375-28.558594-33.039062-63.28125-33.039062-99.039062v-8.960938h16l16.71875 8.398438c10.082031 4.960937 21.121094 7.601562 32.320312 7.601562 28.5625 0 54.402344-16.800781 66-42.878906l12.960938-29.121094h144l12.960938 29.121094c5.757812 13.039062 15.199218 23.757812 26.640624 31.199218 11.4375 7.519532 25.039063 11.679688 39.359376 11.679688 11.199218 0 22.238281-2.640625 32.320312-7.601562l16.71875-8.398438zm0 0" fill="#ff826e" data-original="#FF826E" class="" style="fill:#C13D3D" data-old_color="#c13d3d"/><path d="m360 216.960938c0-22.960938 7.601562-45.761719 21.359375-64.160157 10.082031-13.359375 17.441406-28.640625 21.921875-44.722656-9.203125 2.5625-18.800781 3.921875-28.320312 3.921875-41.121094 0-78.5625-24.320312-95.28125-61.921875l-4.480469-10.078125h-102.398438l-4.480469 10.078125c-16.71875 37.601563-54.082031 61.921875-95.28125 61.921875-9.519531 0-19.117187-1.359375-28.320312-3.921875 4.480469 16.082031 11.839844 31.363281 21.921875 44.722656 13.757813 18.398438 21.359375 41.199219 21.359375 64.160157 0 28.558593-11.121094 55.4375-31.28125 75.597656l-3.039062 2.960937c29.839843 66.402344 81.359374 120.242188 146.878906 152.960938l7.441406 3.757812c4.960938 2.480469 10.480469 3.761719 16 3.761719s11.039062-1.28125 16-3.761719l7.441406-3.757812c65.519532-32.71875 117.039063-86.558594 146.878906-152.960938l-3.039062-2.960937c-20.160156-20.160156-31.28125-47.039063-31.28125-75.597656zm0 0" fill="#fcd770" data-original="#FCD770" class="" style="fill:#EBAA39" data-old_color="#ebaa39"/><path d="m288 224v48h-40v40h-48v-40h-40v-48h40v-40h48v40zm0 0" fill="#e6e9ed" data-original="#E6E9ED" class="" style="fill:#5E8DA7" data-old_color="#E6E9ED"/><path d="m448 72.96875v-16.96875h-25.886719l-18.433593 9.214844c-8.871094 4.441406-18.808594 6.785156-28.734376 6.785156-25.359374 0-48.402343-14.976562-58.699218-38.152344l-15.046875-33.847656h-154.398438l-15.039062 33.847656c-10.304688 23.175782-33.347657 38.152344-58.707031 38.152344-9.925782 0-19.855469-2.34375-28.726563-6.785156l-18.441406-9.214844h-25.886719v16.96875c0 37.199219 12.296875 74.085938 34.617188 103.855469 8.628906 11.511719 13.382812 25.769531 13.382812 40.144531 0 17.871094-6.960938 34.671875-19.601562 47.320312l-21.703126 21.695313 1.808594 4.824219c31.664063 84.4375 93.527344 153.160156 174.183594 193.488281l7.425781 3.703125c10.472657 5.230469 22.183594 8 33.886719 8s23.425781-2.769531 33.886719-8l7.417969-3.703125c80.65625-40.328125 142.519531-109.039063 174.183593-193.488281l1.808594-4.824219-21.703125-21.695313c-12.640625-12.640624-19.601562-29.441406-19.601562-47.320312 0-14.375 4.75-28.640625 13.375-40.144531 22.335937-29.769531 34.632812-66.648438 34.632812-103.855469zm-64 144c0 22.152344 8.625 42.96875 24.289062 58.632812l14.382813 14.382813c-30.769531 78.457031-89.023437 142.246094-164.519531 180l-7.417969 3.703125c-16.511719 8.257812-36.949219 8.257812-53.46875 0l-7.417969-3.703125c-75.503906-37.753906-133.757812-101.542969-164.519531-180l14.382813-14.382813c15.664062-15.664062 24.289062-36.480468 24.289062-58.632812 0-17.824219-5.886719-35.488281-16.585938-49.746094-20.253906-27.015625-31.414062-60.488281-31.414062-94.253906v-.96875h6.113281l15.054688 7.527344c11.078125 5.542968 23.496093 8.472656 35.886719 8.472656 31.671874 0 60.457031-18.703125 73.328124-47.648438l10.816407-24.351562h133.601562l10.824219 24.351562c12.863281 28.945313 41.648438 47.648438 73.320312 47.648438 12.390626 0 24.808594-2.929688 35.886719-8.472656l15.054688-7.527344h6.113281v.96875c0 33.765625-11.160156 67.238281-31.425781 94.253906-10.6875 14.265625-16.574219 31.929688-16.574219 49.746094zm0 0" data-original="#000000" class="active-path" style="fill:#031B4E" data-old_color="#031b4e"/><path d="m232 376v-56h24v-40h40v-64h-40v-40h-24v-48h-16v48h-24v40h-40v64h40v40h24v56zm-64-112v-32h40v-40h32v40h40v32h-40v40h-32v-40zm0 0" data-original="#000000" class="active-path" style="fill:#031B4E" data-old_color="#031b4e"/><path d="m63.289062 297.265625c25.390626-25.96875 36.832032-61.632813 31.375-98.066406-2.648437-17.71875-10.367187-35.535157-22.945312-52.941407-6.132812-8.488281-11.152344-17.683593-14.984375-27.457031 5.410156.800781 10.859375 1.199219 16.320313 1.199219 44.296874 0 84.5625-26.160156 102.570312-66.65625l2.375-5.34375h38v64h16v-80h-64.40625l-6.59375 14.847656c-15.441406 34.71875-49.960938 57.152344-87.945312 57.152344-8.796876 0-17.582032-1.222656-26.125-3.632812l-13.640626-3.847657 3.75 13.664063c4.519532 16.480468 11.824219 31.769531 21.714844 45.441406 11.0625 15.3125 17.820313 30.765625 20.09375 45.933594 4.753906 31.816406-5.382812 62.921875-27.816406 85.335937l-6.894531 6.898438 2.261719 5.039062c13.609374 30.265625 31.738281 58.175781 53.890624 82.960938l11.925782-10.664063c-19.832032-22.183594-36.277344-47.015625-48.925782-73.863281zm0 0" data-original="#000000" class="active-path" style="fill:#031B4E" data-old_color="#031b4e"/><path d="m358.921875 102.601562-2.683594 15.773438c12.121094 2.058594 23.617188 2.113281 35.027344.433594-3.832031 9.785156-8.859375 18.984375-15 27.488281-12.570313 17.398437-20.289063 35.214844-22.9375 52.933594-5.441406 36.425781 6 72.074219 31.382813 98.042969-29.328126 62.199218-79.167969 113.238281-140.878907 144.085937l-7.40625 3.703125c-1.410156.707031-2.921875 1.136719-4.425781 1.585938v-54.648438h-16v54.648438c-1.503906-.449219-3.015625-.878907-4.414062-1.578126l-7.417969-3.710937c-30.136719-15.070313-57.457031-34.863281-81.191407-58.832031l-11.367187 11.257812c24.964844 25.207032 53.695313 46.03125 85.398437 61.886719l7.425782 3.710937c6.039062 3.015626 12.804687 4.617188 19.566406 4.617188s13.527344-1.601562 19.585938-4.632812l7.40625-3.703126c66.632812-33.3125 120.121093-89.007812 150.609374-156.832031l2.261719-5.03125-6.894531-6.898437c-22.425781-22.421875-32.570312-53.519532-27.816406-85.316406 2.261718-15.171876 9.015625-30.625 20.078125-45.929688 9.898437-13.6875 17.210937-28.992188 21.730469-45.472656l3.742187-13.664063-13.632813 3.847657c-13.542968 3.816406-27.300781 4.746093-42.148437 2.234374zm0 0" data-original="#000000" class="active-path" style="fill:#031B4E" data-old_color="#031b4e"/><path d="m272.375 53.34375c12.457031 28.007812 36.25 49.953125 65.265625 60.199219l5.328125-15.085938c-24.890625-8.800781-45.296875-27.609375-55.96875-51.617187l-6.601562-14.839844h-32.398438v16h22zm0 0" data-original="#000000" class="active-path" style="fill:#031B4E" data-old_color="#031b4e"/></g> </svg>
