<?xml version="1.0"?>
<svg xmlns="http://www.w3.org/2000/svg" height="512px" viewBox="0 0 456 456" width="512px" class=""><g><path d="m228 100c-70.6875 0-128 57.304688-128 128 0 53.703125 33.113281 99.609375 80 118.609375v-70.609375h-16c-5.894531 0-11.320312-3.246094-14.113281-8.449219-2.78125-5.199219-2.480469-11.511719.800781-16.421875l64-96c2.96875-4.457031 7.960938-7.128906 13.3125-7.128906s10.34375 2.671875 13.3125 7.128906l64 96c3.273438 4.910156 3.574219 11.222656.800781 16.421875-2.792969 5.203125-8.21875 8.449219-14.113281 8.449219h-16v70.609375c46.886719-19 80-64.90625 80-118.609375 0-70.695312-57.3125-128-128-128zm0 0" fill="#ffd740" data-original="#FFD740" class="active-path" style="fill:#EBAA39" data-old_color="#FFD740"/><g fill="#263238"><path d="m228 424c-108.078125 0-196-87.929688-196-196s87.921875-196 196-196 196 87.929688 196 196-87.921875 196-196 196zm0-384c-103.664062 0-188 84.335938-188 188s84.335938 188 188 188 188-84.335938 188-188-84.335938-188-188-188zm0 0" data-original="#000000" class=""/><path d="m4 232c-2.207031 0-4-1.792969-4-4 0-125.71875 102.28125-228 228-228 2.207031 0 4 1.792969 4 4s-1.792969 4-4 4c-121.304688 0-220 98.6875-220 220 0 2.207031-1.792969 4-4 4zm0 0" data-original="#000000" class=""/><path d="m252 8h-8c-2.207031 0-4-1.792969-4-4s1.792969-4 4-4h8c2.207031 0 4 1.792969 4 4s-1.792969 4-4 4zm0 0" data-original="#000000" class=""/><path d="m228 456c-2.207031 0-4-1.792969-4-4s1.792969-4 4-4c121.304688 0 220-98.6875 220-220 0-2.207031 1.792969-4 4-4s4 1.792969 4 4c0 125.71875-102.28125 228-228 228zm0 0" data-original="#000000" class=""/><path d="m212 456h-8c-2.207031 0-4-1.792969-4-4s1.792969-4 4-4h8c2.207031 0 4 1.792969 4 4s-1.792969 4-4 4zm0 0" data-original="#000000" class=""/><path d="m396 24h-32c-2.207031 0-4-1.792969-4-4s1.792969-4 4-4h32c2.207031 0 4 1.792969 4 4s-1.792969 4-4 4zm0 0" data-original="#000000" class=""/><path d="m380 40c-2.207031 0-4-1.792969-4-4v-32c0-2.207031 1.792969-4 4-4s4 1.792969 4 4v32c0 2.207031-1.792969 4-4 4zm0 0" data-original="#000000" class=""/><path d="m452 76h-32c-2.207031 0-4-1.792969-4-4s1.792969-4 4-4h32c2.207031 0 4 1.792969 4 4s-1.792969 4-4 4zm0 0" data-original="#000000" class=""/><path d="m436 92c-2.207031 0-4-1.792969-4-4v-32c0-2.207031 1.792969-4 4-4s4 1.792969 4 4v32c0 2.207031-1.792969 4-4 4zm0 0" data-original="#000000" class=""/></g><path d="m228 164-64 96h32v88c0 4.414062 3.585938 8 8 8h48c4.414062 0 8-3.585938 8-8v-88h32zm0 0" fill="#ff5252" data-original="#FF5252" class="" style="fill:#C13D3D" data-old_color="#FF5252"/><path d="m252 360h-48c-6.617188 0-12-5.382812-12-12v-84h-28c-1.480469 0-2.832031-.816406-3.519531-2.113281-.703125-1.300781-.625-2.878907.191406-4.101563l64-96c1.488281-2.226562 5.167969-2.226562 6.65625 0l64 96c.824219 1.222656.894531 2.808594.191406 4.101563-.6875 1.296875-2.039062 2.113281-3.519531 2.113281h-28v84c0 6.617188-5.382812 12-12 12zm-80.519531-104h24.519531c2.207031 0 4 1.792969 4 4v88c0 2.207031 1.800781 4 4 4h48c2.199219 0 4-1.792969 4-4v-88c0-2.207031 1.792969-4 4-4h24.519531l-56.519531-84.792969zm0 0" fill="#263238" data-original="#263238" class="" style="fill:#031B4E" data-old_color="#263238"/><path d="m276 350.609375c-1.574219 0-3.078125-.945313-3.710938-2.496094-.832031-2.050781.167969-4.386719 2.207032-5.210937 47.078125-19.078125 77.503906-64.183594 77.503906-114.902344 0-68.375-55.625-124-124-124s-124 55.625-124 124c0 50.71875 30.425781 95.824219 77.496094 114.902344 2.046875.832031 3.039062 3.160156 2.207031 5.210937-.832031 2.039063-3.167969 3.023438-5.207031 2.199219-50.113282-20.304688-82.496094-68.3125-82.496094-122.3125 0-72.785156 59.214844-132 132-132s132 59.214844 132 132c0 54-32.382812 102.007812-82.503906 122.320312-.488282.191407-1 .289063-1.496094.289063zm0 0" fill="#263238" data-original="#263238" class="" style="fill:#031B4E" data-old_color="#263238"/></g> </svg>
