<?xml version="1.0"?>
<svg xmlns="http://www.w3.org/2000/svg" id="Layer_1" data-name="Layer 1" viewBox="0 0 512 512" width="512px" height="512px" class=""><g><title>Tools Maintenance</title><path d="M486,222.24v67.52l-49.44,4.82a185.313,185.313,0,0,1-25.92,61.5l31.95,38.58-47.63,47.63-38.58-31.95a180.216,180.216,0,0,1-61.49,25.92l-4.83,50.04H222.54l-4.82-50.04a185.313,185.313,0,0,1-61.5-25.92l-38.58,31.95L70.01,394.66l31.95-38.58a180.38,180.38,0,0,1-25.92-61.5L26,289.76V222.24l50.04-4.82a185.521,185.521,0,0,1,25.92-61.5L70.01,117.34l47.63-47.63,38.58,31.95a180.183,180.183,0,0,1,61.5-25.92l4.82-50.04h67.52l4.83,50.04a185.349,185.349,0,0,1,61.49,25.92l38.58-31.95,47.03,47.63-31.95,38.58a180.38,180.38,0,0,1,25.92,61.5ZM387.77,256A131.465,131.465,0,1,0,256.3,387.46,131.46,131.46,0,0,0,387.77,256Z" style="fill:#5E8DA7" data-original="#E48E66" class="" data-old_color="#E48E66"/><path d="M296.34,173.17a37.314,37.314,0,0,1-3.58,68.34V325.8a13.055,13.055,0,0,1-26.11,0V241.51a37.31,37.31,0,0,1-3.53-68.36h.01l-.07,20.7,16.75,11.72,16.53-11.01Z" style="fill:#EBAA39" data-original="#F8EC7D" class="active-path" data-old_color="#F8EC7D"/><path d="M233.38,279.68v45.91a13.264,13.264,0,0,1-13.26,13.26H209.51a13.258,13.258,0,0,1-13.26-13.26V279.68l6.63-22.8h23.87Z" style="fill:#EBAA39" data-original="#F8EC7D" class="active-path" data-old_color="#F8EC7D"/><path d="M25.329,296.728l45.025,4.336a188.451,188.451,0,0,0,22.945,54.5L64.618,390.2a7,7,0,0,0,.442,9.415l47.629,47.63a7,7,0,0,0,9.415.441l34.68-28.72a192.663,192.663,0,0,0,54.451,22.984l4.337,44.876A6.871,6.871,0,0,0,222.54,493h67.52a6.871,6.871,0,0,0,6.967-6.178l4.346-44.95a188.211,188.211,0,0,0,54.492-22.907l34.63,28.7a7,7,0,0,0,9.415-.432l47.63-47.625a7,7,0,0,0,.441-9.412l-28.72-34.679a192.584,192.584,0,0,0,22.985-54.456l44.434-4.332A7,7,0,0,0,493,289.76V222.24a7,7,0,0,0-6.329-6.968l-45.025-4.336a188.451,188.451,0,0,0-22.945-54.5l28.681-34.631a7,7,0,0,0-.41-9.384L399.941,64.792a7,7,0,0,0-9.446-.473l-34.68,28.72a192.649,192.649,0,0,0-54.442-22.983l-4.346-44.878A6.871,6.871,0,0,0,290.06,19H222.54a6.871,6.871,0,0,0-6.968,6.179l-4.337,44.949a188.2,188.2,0,0,0-54.5,22.907l-34.63-28.7a7,7,0,0,0-9.415.432L65.06,112.4a7,7,0,0,0-.442,9.412l28.722,34.68a192.865,192.865,0,0,0-22.985,54.449l-45.026,4.337A7,7,0,0,0,19,222.24v67.52A7,7,0,0,0,25.329,296.728ZM33,228.6l43.711-4.21a7,7,0,0,0,6.171-5.49,179.023,179.023,0,0,1,24.961-59.185,7,7,0,0,0-.491-8.258L79.466,117.783l38.617-38.617,33.672,27.885a7,7,0,0,0,8.348.433,173.612,173.612,0,0,1,59.1-24.9,6.832,6.832,0,0,0,5.49-6.021L228.9,33h54.8l4.219,43.562a6.915,6.915,0,0,0,5.489,6.095,178.7,178.7,0,0,1,59.173,24.922,7,7,0,0,0,8.261-.509L394.485,79.2l38.075,38.556-27.912,33.7a7,7,0,0,0-.434,8.345,173.806,173.806,0,0,1,24.9,59.1,7,7,0,0,0,6.171,5.489L479,228.6v54.811l-43.12,4.2a7,7,0,0,0-6.162,5.489,178.787,178.787,0,0,1-24.96,59.183,7,7,0,0,0,.49,8.26l27.886,33.672-38.617,38.617-33.672-27.885a7,7,0,0,0-8.348-.433,173.63,173.63,0,0,1-59.086,24.9,6.831,6.831,0,0,0-5.489,6.02L283.7,479H228.9l-4.21-43.562a6.914,6.914,0,0,0-5.49-6.095,178.708,178.708,0,0,1-59.183-24.922,7,7,0,0,0-8.26.509l-33.672,27.895L79.466,394.212l27.886-33.669a7,7,0,0,0,.434-8.345,173.806,173.806,0,0,1-24.9-59.1,7,7,0,0,0-6.171-5.489L33,283.4Z" style="fill:#031B4E" data-original="#63316D" class="" data-old_color="#63316D"/><path d="M256.3,394.46c76.352,0,138.47-62.113,138.47-138.46S332.652,117.54,256.3,117.54,117.84,179.653,117.84,256,179.953,394.46,256.3,394.46Zm0-262.92A124.46,124.46,0,1,1,131.84,256,124.606,124.606,0,0,1,256.3,131.54Z" style="fill:#031B4E" data-original="#63316D" class="" data-old_color="#63316D"/><path d="M193.6,263.739,189.4,277.726a7.189,7.189,0,0,0-.4,1.954v45.91A20.627,20.627,0,0,0,209.51,346h10.61A20.091,20.091,0,0,0,240,325.59V279.68a6.928,6.928,0,0,0-.088-1.954l-3.973-13.987a6.978,6.978,0,0,0,5.643-6.8A6.908,6.908,0,0,0,234.63,250H222V173.95a7,7,0,0,0-14,0V250H195a6.935,6.935,0,0,0-1.4,13.739ZM226,325.59c0,3.452-2.429,6.41-5.88,6.41H209.51a6.615,6.615,0,0,1-6.51-6.41V280.677L208.135,264H221.5l4.5,16.677Z" style="fill:#031B4E" data-original="#63316D" class="" data-old_color="#63316D"/><path d="M260,246.066V325.8a19.717,19.717,0,0,0,5.7,14.179A20.1,20.1,0,0,0,300,325.8V246.066c14-7.478,24.12-22.784,24.12-39.506a44.146,44.146,0,0,0-24.591-39.652,7.39,7.39,0,0,0-7.01.308A7.2,7.2,0,0,0,289,173.17v17.642l-9.263,6.283-9.75-6.882.1-17.039A6.977,6.977,0,0,0,260,166.882a44.307,44.307,0,0,0,0,79.184Zm-3.919-58.516-.021,6.276a7,7,0,0,0,2.987,5.759l16.75,11.72a7,7,0,0,0,7.892.091l16.361-11.01A6.846,6.846,0,0,0,303,194.56v-6.994c5,5.274,6.83,11.915,6.83,18.994a30.25,30.25,0,0,1-19.484,28.392A6.819,6.819,0,0,0,286,241.51V325.8a6.161,6.161,0,0,1-6.17,6.05,5.753,5.753,0,0,1-4.175-1.781A5.872,5.872,0,0,1,274,325.8V241.51a7.164,7.164,0,0,0-4.726-6.558A30.517,30.517,0,0,1,249.5,206.56,30.091,30.091,0,0,1,256.081,187.55Z" style="fill:#031B4E" data-original="#63316D" class="" data-old_color="#63316D"/></g> </svg>
