<?xml version="1.0"?>
<svg xmlns="http://www.w3.org/2000/svg" height="512px" viewBox="-2 0 484 484.27999" width="512px" class=""><g><path d="m440.058594 236.28125h16.082031c8.800781 0 16 7.199219 16 16v64l-32 32h-56v-32h-8v-80zm0 0" fill="#64c1e2" data-original="#64C1E2" class="" style="fill:#5E8DA7" data-old_color="#64C1E2"/><path d="m472.140625 412.28125v64h-64c0-35.359375 28.640625-64 64-64zm0 0" fill="#aad3e2" data-original="#AAD3E2"/><path d="m215.101562 37.878906c16.636719-2.078125 33.4375-2.078125 50.078126 0l16.160156-29.839844c12.558594 2.242188 25.039062 5.519532 37.199218 9.839844l-.960937 34c15.28125 6.402344 29.84375 14.800782 43.441406 25.121094l28.878907-17.839844c4.882812 4.160156 9.679687 8.480469 14.320312 13.039063 4.5625 4.640625 8.882812 9.441406 13.042969 14.320312l-17.839844 28.878907c10.316406 13.601562 18.71875 28.160156 25.117187 43.441406l34-.960938c4.320313 12.160156 7.601563 24.640625 9.839844 37.199219l-29.839844 16.160156c1.039063 8.320313 1.519532 16.640625 1.519532 25.042969h-39.917969c0-88.402344-71.601563-160-160-160-88.402344 0-160 71.597656-160 160h-39.921875c0-8.402344.480469-16.722656 1.519531-25.042969l-29.839843-16.160156c2.242187-12.558594 5.523437-25.039063 9.839843-37.199219l34 .960938c6.402344-15.28125 14.722657-29.839844 25.121094-43.441406l-17.839844-28.878907c4.160157-4.878906 8.480469-9.679687 13.039063-14.320312 4.640625-4.558594 9.441406-8.878907 14.320312-13.039063l28.882813 17.839844c13.597656-10.398438 28.160156-18.71875 43.4375-25.121094l-.960938-34c12.160157-4.320312 24.640625-7.597656 37.203125-9.839844zm0 0" fill="#ed8c4a" data-original="#ED8C4A" class="" style="fill:#C13D3D" data-old_color="#ED8C4A"/><path d="m336.140625 316.28125h48v64h-48zm0 0" fill="#ffca55" data-original="#FFCA55" class="" style="fill:#EBAA39" data-old_color="#FFCA55"/><path d="m376.140625 380.28125h8v-32h56l32-32v96c-35.359375 0-64 28.640625-64 64h-32zm0 0" fill="#64c1e2" data-original="#64C1E2" class="" style="fill:#5E8DA7" data-old_color="#64C1E2"/><path d="m344.140625 380.28125h32v96h-32zm0 0" fill="#aad3e2" data-original="#AAD3E2"/><path d="m344.140625 236.28125h32v80h-32zm0 0" fill="#aad3e2" data-original="#AAD3E2"/><path d="m80.140625 236.28125c0-88.402344 71.597656-160 160-160 88.398437 0 160 71.597656 160 160h-72v-56c0-17.679688-14.320313-32-32-32h-112c-17.679687 0-32 14.320312-32 32v56zm0 0" fill="#f3f3fb" data-original="#F3F3FB" class=""/><path d="m136.140625 236.28125h208v80h-8v32h-192v-32h-8zm0 0" fill="#64c1e2" data-original="#64C1E2" class="" style="fill:#5E8DA7" data-old_color="#64C1E2"/><path d="m136.140625 380.28125h8v-32h72v32h48v-32h72v32h8v96h-208zm0 0" fill="#64c1e2" data-original="#64C1E2" class="" style="fill:#5E8DA7" data-old_color="#64C1E2"/><path d="m328.140625 180.28125v56h-32v-56h-112v56h-32v-56c0-17.679688 14.320313-32 32-32h112c17.679687 0 32 14.320312 32 32zm0 0" fill="#ffca55" data-original="#FFCA55" class="" style="fill:#EBAA39" data-old_color="#FFCA55"/><path d="m184.140625 180.28125h112v56h-112zm0 0" fill="#f3f3fb" data-original="#F3F3FB" class=""/><path d="m216.140625 348.28125h48v32h-48zm0 0" fill="#ffca55" data-original="#FFCA55" class="" style="fill:#EBAA39" data-old_color="#FFCA55"/><path d="m96.140625 316.28125h48v64h-48zm0 0" fill="#ffca55" data-original="#FFCA55" class="" style="fill:#EBAA39" data-old_color="#FFCA55"/><path d="m104.140625 380.28125h32v96h-32zm0 0" fill="#aad3e2" data-original="#AAD3E2"/><path d="m104.140625 236.28125h32v80h-32zm0 0" fill="#aad3e2" data-original="#AAD3E2"/><path d="m96.140625 380.28125h8v96h-32c0-35.359375-28.640625-64-64-64v-96l32 32h56zm0 0" fill="#64c1e2" data-original="#64C1E2" class="" style="fill:#5E8DA7" data-old_color="#64C1E2"/><path d="m8.140625 412.28125c35.359375 0 64 28.640625 64 64h-64zm0 0" fill="#aad3e2" data-original="#AAD3E2"/><path d="m24.140625 236.28125h80v80h-8v32h-56l-32-32v-64c0-8.800781 7.199219-16 16-16zm0 0" fill="#64c1e2" data-original="#64C1E2" class="" style="fill:#5E8DA7" data-old_color="#64C1E2"/><g fill="#0d2c33"><path d="m8.140625 484.28125h464c4.414063 0 8-3.585938 8-8v-224c0-13.234375-10.769531-24-24-24h-8.257813c-.160156-4.191406-.40625-8.394531-.816406-12.570312l25.152344-13.582032c3.042969-1.640625 4.679688-5.050781 4.074219-8.457031-2.359375-13.136719-5.808594-26.078125-10.25-38.480469-1.167969-3.253906-4.351563-5.488281-7.75-5.296875l-28.570313.792969c-5.65625-12.519531-12.574218-24.496094-20.628906-35.6875l14.949219-24.320312c1.808593-2.953126 1.519531-6.726563-.710938-9.359376-4.695312-5.542968-9.113281-10.367187-13.480469-14.734374-4.367187-4.371094-9.191406-8.785157-14.734374-13.488282-2.632813-2.242187-6.410157-2.511718-9.359376-.714844l-24.320312 14.953126c-11.203125-8.0625-23.167969-14.984376-35.691406-20.632813l.792968-28.566406c.097657-3.464844-2.039062-6.59375-5.304687-7.753907-12.382813-4.4375-25.335937-7.886718-38.46875-10.246093-3.425781-.601563-6.816406 1.023437-8.457031 4.070312l-13.585938 25.152344c-13.679687-1.351563-27.460937-1.351563-41.144531 0l-13.589844-25.160156c-1.648437-3.039063-5.046875-4.6875-8.457031-4.070313-13.136719 2.359375-26.078125 5.808594-38.480469 10.246094-3.253906 1.167969-5.390625 4.296875-5.292969 7.753906l.789063 28.566406c-12.527344 5.65625-24.488281 12.578126-35.6875 20.632813l-24.328125-14.953125c-2.941406-1.800781-6.710938-1.527344-9.359375.714844-5.542969 4.695312-10.367187 9.109375-14.734375 13.476562-4.371094 4.371094-8.785156 9.195313-13.488281 14.738282-2.242188 2.640624-2.519531 6.414062-.714844 9.359374l14.953125 24.320313c-8.0625 11.199219-14.984375 23.167969-20.632812 35.6875l-28.566407-.792969c-3.441406-.160156-6.585937 2.042969-7.753906 5.296875-4.429687 12.375-7.878906 25.320313-10.246094 38.480469-.609375 3.398438 1.03125 6.816406 4.070313 8.457031l25.152344 13.582031c-.414063 4.191407-.65625 8.382813-.816407 12.585938h-8.253906c-13.234375 0-24 10.765625-24 24v224c0 4.414062 3.582031 8 8 8zm312-256h-16v-48c0-4.417969-3.585937-8-8-8h-112c-4.417969 0-8 3.582031-8 8v48h-16v-48c0-13.234375 10.765625-24 24-24h112c13.230469 0 24 10.765625 24 24zm-32 0h-96v-40h96zm-144 16h192v64c-4.417969 0-8 3.582031-8 8v24h-176v-24c0-4.417969-3.585937-8-8-8zm232 80v48h-32v-48zm-152 32h32v16h-32zm-88-32v48h-32v-48zm8 64c4.414063 0 8-3.585938 8-8v-24h56v24c0 4.414062 3.582031 8 8 8h48c4.414063 0 8-3.585938 8-8v-24h56v24c0 4.414062 3.582031 8 8 8v80h-192zm-16 80h-16v-80h16zm224-80h16v80h-16zm32 0c4.414063 0 8-3.585938 8-8v-24h48c2.121094 0 4.160156-.839844 5.65625-2.34375l18.34375-18.34375v69.160156c-33.3125 3.703125-59.824219 30.214844-63.527344 63.527344h-16.472656zm-32-80v-64h16v64zm-16-80v-48c0-22.058594-17.945313-40-40-40h-112c-22.054687 0-40 17.941406-40 40v48h-55.59375c4.199219-80.089844 70.480469-144 151.59375-144s147.390625 63.910156 151.589844 144zm-208 16v64h-16v-64zm-32 144v80h-16.472656c-3.703125-33.3125-30.214844-59.824219-63.527344-63.527344v-69.160156l18.34375 18.34375c1.496094 1.503906 3.535156 2.34375 5.65625 2.34375h48v24c0 4.414062 3.582031 8 8 8zm-80 32.640625c24.472656 3.519531 43.839844 22.886719 47.359375 47.359375h-47.359375zm400.640625 47.359375c3.527344-24.472656 22.886719-43.839844 47.359375-47.359375v47.359375zm47.359375-216v60.6875l-27.3125 27.3125h-44.6875v-24c0-4.417969-3.585937-8-8-8v-64h72c4.40625 0 8 3.589844 8 8zm-418.578125-48.089844-24.734375-13.359375c1.734375-8.425781 3.945313-16.71875 6.59375-24.785156l28.085937.785156c3.214844.089844 6.320313-1.855469 7.601563-4.902343 6.207031-14.800782 14.3125-28.824219 24.085937-41.671876 2-2.632812 2.175782-6.21875.449219-9.035156l-14.703125-23.933594c3.023438-3.417968 5.933594-6.519531 8.816406-9.402343 2.871094-2.878907 5.972657-5.789063 9.390626-8.816407l23.9375 14.714844c2.8125 1.734375 6.398437 1.550782 9.03125-.449218 12.839843-9.777344 26.863281-17.878907 41.671874-24.097657 3.046876-1.277343 5-4.292969 4.902344-7.597656l-.777344-28.082031c8.082032-2.65625 16.378907-4.863282 24.785157-6.597656l13.359375 24.734374c1.578125 2.90625 4.824218 4.550782 8.035156 4.136719 15.964844-2.007812 32.140625-2 48.09375 0 3.242188.382813 6.464844-1.230469 8.03125-4.136719l13.359375-24.734374c8.410156 1.734374 16.707031 3.941406 24.785156 6.589843l-.773437 28.089844c-.097656 3.304687 1.855468 6.320313 4.902344 7.597656 14.800781 6.210938 28.824218 14.3125 41.671874 24.089844 2.632813 2.007813 6.214844 2.175781 9.03125.449219l23.929688-14.714844c3.414062 3.027344 6.519531 5.9375 9.398438 8.816406 2.878906 2.875 5.792968 5.976563 8.816406 9.394532l-14.710938 23.925781c-1.730468 2.816406-1.554687 6.410156.445313 9.03125 9.777343 12.847656 17.882812 26.875 24.097656 41.671875 1.28125 3.050781 4.257813 5.019531 7.601563 4.90625l28.085937-.777344c2.65625 8.082031 4.863281 16.375 6.601563 24.785156l-24.738282 13.351563c-2.902344 1.566406-4.542968 4.761719-4.132812 8.03125.664062 5.3125 1.109375 10.6875 1.335937 16.046875h-24.1875c-4.222656-88.878906-77.664062-159.964844-167.597656-159.964844-89.9375 0-163.375 71.085938-167.59375 160h-24.183594c.226563-5.371094.664063-10.738281 1.335938-16.050781.410156-3.277344-1.230469-6.460938-4.136719-8.039063zm-21.421875 40.089844h72v64c-4.417969 0-8 3.582031-8 8v24h-44.6875l-27.3125-27.3125v-60.6875c0-4.410156 3.589844-8 8-8zm0 0" data-original="#000000" class="active-path" style="fill:#031B4E" data-old_color="#000000"/><path d="m232.140625 308.28125h16v16h-16zm0 0" data-original="#000000" class="active-path" style="fill:#031B4E" data-old_color="#000000"/><path d="m264.140625 308.28125h16v16h-16zm0 0" data-original="#000000" class="active-path" style="fill:#031B4E" data-old_color="#000000"/><path d="m200.140625 308.28125h16v16h-16zm0 0" data-original="#000000" class="active-path" style="fill:#031B4E" data-old_color="#000000"/></g></g> </svg>
