<?xml version="1.0"?>
<svg xmlns="http://www.w3.org/2000/svg" height="512px" viewBox="0 0 480 480.00009" width="512px" class=""><g><path d="m456 0h-432c-13.25.015625-23.984375 10.75-24 24v400c.015625 13.25 10.75 23.984375 24 24h20.6875l24.96875 24.96875c4.488281 4.515625 10.601562 7.046875 16.96875 7.03125h306.75c6.367188.015625 12.480469-2.515625 16.96875-7.03125l24.96875-24.96875h20.6875c13.25-.015625 23.984375-10.75 24-24v-400c-.015625-13.25-10.75-23.984375-24-24zm-56.96875 461.65625c-1.503906 1.492188-3.535156 2.335938-5.65625 2.34375h-306.75c-2.121094-.007812-4.152344-.851562-5.65625-2.34375l-13.65625-13.65625h345.375zm64.96875-37.65625c-.003906 4.417969-3.582031 7.996094-8 8h-432c-4.417969-.003906-7.996094-3.582031-8-8v-400c.003906-4.417969 3.582031-7.996094 8-8h432c4.417969.003906 7.996094 3.582031 8 8zm0 0" data-original="#000000" class="active-path" data-old_color="#ffffff" fill="#ffffff"/><path d="m416 40h-352c-13.25.015625-23.984375 10.75-24 24v264c.015625 13.25 10.75 23.984375 24 24h352c13.25-.015625 23.984375-10.75 24-24v-264c-.015625-13.25-10.75-23.984375-24-24zm8 288c-.003906 4.417969-3.582031 7.996094-8 8h-352c-4.417969-.003906-7.996094-3.582031-8-8v-264c.003906-4.417969 3.582031-7.996094 8-8h352c4.417969.003906 7.996094 3.582031 8 8zm0 0" data-original="#000000" class="active-path" data-old_color="#ffffff" fill="#ffffff"/><path d="m136 240h-32c-13.25.015625-23.984375 10.75-24 24v32c.015625 13.25 10.75 23.984375 24 24h32c13.25-.015625 23.984375-10.75 24-24v-32c-.015625-13.25-10.75-23.984375-24-24zm8 56c-.003906 4.417969-3.582031 7.996094-8 8h-32c-4.417969-.003906-7.996094-3.582031-8-8v-32c.003906-4.417969 3.582031-7.996094 8-8h32c4.417969.003906 7.996094 3.582031 8 8zm0 0" data-original="#000000" class="active-path" data-old_color="#ffffff" fill="#ffffff"/><path d="m184 240h16v16h-16zm0 0" data-original="#000000" class="active-path" data-old_color="#ffffff" fill="#ffffff"/><path d="m216 240h152v16h-152zm0 0" data-original="#000000" class="active-path" data-old_color="#ffffff" fill="#ffffff"/><path d="m384 240h16v16h-16zm0 0" data-original="#000000" class="active-path" data-old_color="#ffffff" fill="#ffffff"/><path d="m184 272h16v16h-16zm0 0" data-original="#000000" class="active-path" data-old_color="#ffffff" fill="#ffffff"/><path d="m216 272h152v16h-152zm0 0" data-original="#000000" class="active-path" data-old_color="#ffffff" fill="#ffffff"/><path d="m384 272h16v16h-16zm0 0" data-original="#000000" class="active-path" data-old_color="#ffffff" fill="#ffffff"/><path d="m184 304h16v16h-16zm0 0" data-original="#000000" class="active-path" data-old_color="#ffffff" fill="#ffffff"/><path d="m216 304h152v16h-152zm0 0" data-original="#000000" class="active-path" data-old_color="#ffffff" fill="#ffffff"/><path d="m384 304h16v16h-16zm0 0" data-original="#000000" class="active-path" data-old_color="#ffffff" fill="#ffffff"/><path d="m80 152h16v16h-16zm0 0" data-original="#000000" class="active-path" data-old_color="#ffffff" fill="#ffffff"/><path d="m307.867188 137.566406c-4.210938-7.070312-11.769532-11.472656-20-11.648437-8.21875-.167969-15.960938 3.855469-20.546876 10.679687l-18.117187 27.175782c-1.605469 2.410156-4.390625 3.765624-7.277344 3.539062-2.886719-.222656-5.429687-1.992188-6.644531-4.621094l-22.804688-49.429687c-3.769531-8.222657-11.859374-13.609375-20.898437-13.921875-9.050781-.421875-17.546875 4.363281-21.875 12.324218l-22.414063 40.335938h-35.289062v16h44.710938l26.976562-48.5625c1.480469-2.613281 4.285156-4.195312 7.289062-4.109375 3.023438.078125 5.730469 1.882813 6.96875 4.640625l22.804688 49.425781c3.59375 7.929688 11.246094 13.253907 19.929688 13.867188.65625.050781 1.304687.078125 1.945312.078125 8.011719.03125 15.496094-3.992188 19.890625-10.691406l18.117187-27.175782c1.539063-2.265625 4.113282-3.605468 6.851563-3.558594 2.75.035157 5.277344 1.511719 6.664063 3.882813l13.320312 22.203125h68.53125v-16h-59.46875zm0 0" data-original="#000000" class="active-path" data-old_color="#ffffff" fill="#ffffff"/><path d="m392 152h16v16h-16zm0 0" data-original="#000000" class="active-path" data-old_color="#ffffff" fill="#ffffff"/><path d="m428 416h-24c-6.625-.007812-11.992188-5.375-12-12v-24c.007812-6.625 5.375-11.992188 12-12h24c6.625.007812 11.992188 5.375 12 12v24c-.007812 6.625-5.375 11.992188-12 12zm-20-16h16v-16h-16zm0 0" data-original="#000000" class="active-path" data-old_color="#ffffff" fill="#ffffff"/><path d="m364 416h-24c-6.625-.007812-11.992188-5.375-12-12v-24c.007812-6.625 5.375-11.992188 12-12h24c6.625.007812 11.992188 5.375 12 12v24c-.007812 6.625-5.375 11.992188-12 12zm-20-16h16v-16h-16zm0 0" data-original="#000000" class="active-path" data-old_color="#ffffff" fill="#ffffff"/><path d="m296 384h16v16h-16zm0 0" data-original="#000000" class="active-path" data-old_color="#ffffff" fill="#ffffff"/></g> </svg>
