<?xml version="1.0"?>
<svg xmlns="http://www.w3.org/2000/svg" height="512px" viewBox="-9 0 452 452.71881" width="512px" class=""><g transform="matrix(0.851458 0 0 0.851458 32.2336 33.6239)"><path d="m373.703125 5.078125h-237.09375c-14.046875 0-25.429687 11.382813-25.429687 25.429687v265.464844h.011718v30.640625c-.003906 0-.007812 0-.011718 0v97.679688c0 14.042969 11.382812 25.429687 25.429687 25.429687h237.09375c14.042969 0 25.429687-11.386718 25.429687-25.429687v-393.785157c-.003906-14.042968-11.386718-25.429687-25.429687-25.429687zm0 0" fill="#d7e057" data-original="#D7E057" class="" style="fill:#EBAA39" data-old_color="#D7E057"/><path d="m373.703125 2.078125h-237.09375c-15.679687 0-28.429687 12.753906-28.429687 28.429687v265.464844c0 .089844.003906.179688.011718.269532v30.101562c-.007812.089844-.011718.179688-.011718.269531v97.675781c0 15.679688 12.75 28.429688 28.429687 28.429688h237.09375c15.675781 0 28.429687-12.75 28.429687-28.429688v-393.78125c0-15.675781-12.753906-28.429687-28.429687-28.429687zm22.429687 422.210937c0 12.371094-10.0625 22.429688-22.429687 22.429688h-237.09375c-12.371094 0-22.429687-10.0625-22.429687-22.429688v-97.410156c.007812-.085937.011718-.175781.011718-.265625v-30.640625c0-.089844-.003906-.179687-.011718-.269531v-265.195313c0-12.367187 10.058593-22.429687 22.429687-22.429687h237.09375c12.367187 0 22.429687 10.0625 22.429687 22.429687zm0 0" fill="#3a312a" data-original="#3A312A" class="" style="fill:#031B4E" data-old_color="#3A312A"/><path d="m355.363281 34.539062h-200.414062c-7.527344 0-13.628907 6.101563-13.628907 13.628907v327.84375c0 7.523437 6.101563 13.625 13.628907 13.625h200.414062c7.523438 0 13.625-6.101563 13.625-13.625v-327.84375c0-7.527344-6.101562-13.628907-13.625-13.628907zm0 0" fill="#8ac6dd" data-original="#8AC6DD" class="" style="fill:#5E8DA7" data-old_color="#8AC6DD"/><path d="m355.363281 31.539062h-36.097656c-1.652344 0-3 1.34375-3 3 0 1.660157 1.347656 3 3 3h36.097656c5.859375 0 10.625 4.769532 10.625 10.628907v327.84375c0 5.859375-4.769531 10.625-10.625 10.625h-200.414062c-5.863281 0-10.628907-4.765625-10.628907-10.625v-327.84375c0-5.859375 4.769532-10.628907 10.628907-10.628907h134.835937c1.65625 0 3-1.339843 3-3 0-1.65625-1.34375-3-3-3h-134.835937c-9.167969 0-16.628907 7.460938-16.628907 16.628907v327.84375c0 9.167969 7.460938 16.625 16.628907 16.625h200.414062c9.167969 0 16.625-7.457031 16.625-16.625v-327.84375c0-9.167969-7.457031-16.628907-16.625-16.628907zm0 0" fill="#3a312a" data-original="#3A312A" class="" style="fill:#031B4E" data-old_color="#3A312A"/><path d="m255.15625 401.960938c-9.234375 0-16.722656 7.484374-16.722656 16.71875 0 9.234374 7.488281 16.722656 16.722656 16.722656s16.71875-7.488282 16.71875-16.722656c0-9.234376-7.484375-16.71875-16.71875-16.71875zm0 0" fill="#f16c7a" data-original="#F16C7A" class="" style="fill:#C13D3D" data-old_color="#F16C7A"/><path d="m255.15625 398.960938c-10.875 0-19.722656 8.847656-19.722656 19.71875 0 10.875 8.847656 19.722656 19.722656 19.722656s19.71875-8.847656 19.71875-19.722656c0-10.871094-8.84375-19.71875-19.71875-19.71875zm0 33.441406c-7.566406 0-13.722656-6.15625-13.722656-13.722656 0-7.5625 6.15625-13.71875 13.722656-13.71875s13.71875 6.152343 13.71875 13.71875c0 7.566406-6.152344 13.722656-13.71875 13.722656zm0 0" fill="#3a312a" data-original="#3A312A" class="" style="fill:#031B4E" data-old_color="#3A312A"/><path d="m270.207031 180.117188-25.804687-12.503907c-14.339844-5.054687-30.144532-7.90625-46.789063-7.90625-.023437 0-.046875 0-.070312 0-.023438 0-.046875 0-.066407 0-1.570312 0-3.132812.039063-4.683593.097657-62.503907 2.046874-112.402344 43.617187-112.402344 94.621093 0 26.09375 13.058594 49.71875 34.179687 66.847657l-15.5625 39.214843c-1.636718 4.128907 2.289063 8.296875 6.507813 6.90625l63.378906-20.863281c9.105469 2.191406 18.683594 3.382812 28.582031 3.382812 11.742188 0 23.035157-1.664062 33.621094-4.710937 48.417969-11.644531 83.738282-47.867187 83.738282-90.777344.003906-30.144531-17.464844-56.960937-44.628907-74.308593zm0 0" fill="#f16c7a" data-original="#F16C7A" class="" style="fill:#C13D3D" data-old_color="#F16C7A"/><g fill="#3a312a"><path d="m271.824219 177.589844c-.101563-.066406-.203125-.121094-.308594-.171875l-25.800781-12.503907c-.101563-.050781-.207032-.089843-.308594-.128906-15.199219-5.359375-31.277344-8.078125-47.925781-8.078125-1.609375 0-3.207031.042969-4.78125.101563-64.65625 2.113281-115.304688 44.996094-115.304688 97.621094 0 25.492187 11.90625 49.476562 33.585938 67.765624l-14.753907 37.1875c-1.191406 3.003907-.554687 6.335938 1.660157 8.6875 1.59375 1.691407 3.738281 2.597657 5.960937 2.597657.867188 0 1.746094-.140625 2.609375-.421875l62.574219-20.597656c20.679688 4.820312 42.753906 4.230468 62.773438-1.527344 50.65625-12.183594 86.035156-50.710938 86.035156-93.695313-.003906-30.152343-16.773438-58.160156-46.015625-76.835937zm-41.550781 164.734375c-19.535157 5.613281-40.765626 6.082031-60.679688 1.292969-.539062-.128907-1.109375-.105469-1.636719.066406l-63.375 20.863281c-1.230469.398437-2.039062-.28125-2.328125-.589844-.292968-.3125-.925781-1.167969-.453125-2.359375l15.5625-39.214844c.480469-1.21875.117188-2.609374-.898437-3.4375-21.328125-17.292968-33.074219-40.207031-33.074219-64.515624 0-49.367188 48.101563-89.617188 109.519531-91.625 1.515625-.058594 3.035156-.097657 4.46875-.097657h.238282c15.773437 0 31.125 2.585938 45.632812 7.683594l25.492188 12.351563c27.390624 17.550781 43.097656 43.671874 43.097656 71.6875-.003906 40.195312-33.492188 76.328124-81.566406 87.894531zm0 0" data-original="#000000" class=""/><path d="m259.917969 210.664062h-124.605469c-1.65625 0-3 1.34375-3 3 0 1.660157 1.34375 3 3 3h124.609375c1.65625 0 3-1.339843 3-3 0-1.65625-1.34375-3-3.003906-3zm0 0" data-original="#000000" class=""/><path d="m275.199219 250.769531h-155.167969c-1.65625 0-3 1.34375-3 3 0 1.660157 1.34375 3 3 3h155.167969c1.65625 0 3-1.339843 3-3 0-1.65625-1.34375-3-3-3zm0 0" data-original="#000000" class=""/><path d="m259.917969 290.878906h-124.605469c-1.65625 0-3 1.34375-3 3s1.34375 3 3 3h124.609375c1.65625 0 3-1.34375 3-3s-1.34375-3-3.003906-3zm0 0" data-original="#000000" class=""/></g><path d="m65.179688 22.355469c-1.949219 23.128906-26.050782 26.78125-26.050782 26.78125 20.695313.972656 25.851563 28.117187 25.851563 28.117187.441406-19.355468 26.640625-28.40625 26.640625-28.40625-19.625-1.175781-26.441406-26.492187-26.441406-26.492187zm0 0" fill="#d7e057" data-original="#D7E057" class="" style="fill:#EBAA39" data-old_color="#D7E057"/><path d="m91.800781 45.851562c-17.207031-1.027343-23.664062-24.046874-23.726562-24.277343-.378907-1.40625-1.695313-2.324219-3.167969-2.207031-1.449219.132812-2.59375 1.285156-2.714844 2.734374-1.722656 20.429688-22.628906 23.929688-23.511718 24.066407-1.527344.230469-2.625 1.582031-2.546876 3.121093.082032 1.542969 1.316407 2.769532 2.855469 2.84375 18.058594.851563 23 25.4375 23.046875 25.683594.273438 1.421875 1.519532 2.433594 2.945313 2.433594.082031 0 .167969 0 .25-.007812 1.53125-.128907 2.714843-1.386719 2.75-2.917969.386719-17.015625 24.382812-25.554688 24.625-25.640625 1.351562-.46875 2.183593-1.828125 1.988281-3.246094-.199219-1.417969-1.363281-2.5-2.792969-2.585938zm-27.132812 20.691407c-2.710938-6.257813-7.417969-13.8125-15.175781-17.75 5.867187-2.808594 12.820312-7.824219 16.40625-16.546875 3.101562 6.144531 8.398437 13.761718 16.667968 17.445312-6.011718 3.28125-13.84375 8.8125-17.898437 16.851563zm0 0" fill="#3a312a" data-original="#3A312A" class="" style="fill:#031B4E" data-old_color="#3A312A"/><path d="m21.78125 56.316406c-1.378906 16.359375-18.421875 18.941406-18.421875 18.941406 14.632813.6875 18.28125 19.890626 18.28125 19.890626.3125-13.691407 18.84375-20.09375 18.84375-20.09375-13.882813-.828126-18.703125-18.738282-18.703125-18.738282zm0 0" fill="#d7e057" data-original="#D7E057" class="" style="fill:#EBAA39" data-old_color="#D7E057"/><path d="m40.664062 72.058594c-11.53125-.691406-15.941406-16.371094-15.984374-16.527344-.378907-1.40625-1.730469-2.332031-3.164063-2.203125-1.453125.128906-2.601563 1.285156-2.722656 2.734375-1.15625 13.742188-15.292969 16.132812-15.882813 16.226562-1.527344.230469-2.625 1.582032-2.546875 3.125.082031 1.539063 1.3125 2.765626 2.855469 2.839844 12.070312.570313 15.449219 17.289063 15.480469 17.453125.269531 1.421875 1.515625 2.441407 2.945312 2.441407.082031 0 .164063-.003907.25-.011719 1.527344-.125 2.714844-1.386719 2.75-2.921875.261719-11.417969 16.664063-17.269532 16.824219-17.320313 1.351562-.46875 2.1875-1.828125 1.992188-3.246093-.199219-1.417969-1.367188-2.503907-2.796876-2.589844zm-19.167968 13.59375c-1.847656-3.773438-4.679688-7.894532-8.894532-10.5625 3.710938-2.082032 7.394532-5.257813 9.742188-9.832032 2.113281 3.75 5.308594 7.910157 9.882812 10.445313-3.703124 2.203125-7.980468 5.480469-10.730468 9.949219zm0 0" fill="#3a312a" data-original="#3A312A" class="" style="fill:#031B4E" data-old_color="#3A312A"/><path d="m21.78125 3c-1.378906 16.359375-18.421875 18.941406-18.421875 18.941406 14.632813.6875 18.28125 19.886719 18.28125 19.886719.3125-13.6875 18.84375-20.089844 18.84375-20.089844-13.882813-.828125-18.703125-18.738281-18.703125-18.738281zm0 0" fill="#d7e057" data-original="#D7E057" class="" style="fill:#EBAA39" data-old_color="#D7E057"/><path d="m40.664062 18.746094c-11.53125-.691406-15.941406-16.371094-15.984374-16.53125-.378907-1.402344-1.730469-2.324219-3.164063-2.2031252-1.453125.1289062-2.601563 1.2851562-2.722656 2.7343752-1.15625 13.742187-15.292969 16.132812-15.882813 16.230468-1.527344.226563-2.625 1.578126-2.546875 3.121094.082031 1.539063 1.3125 2.765625 2.855469 2.839844 12.070312.570312 15.449219 17.289062 15.480469 17.453125.269531 1.425781 1.515625 2.441406 2.945312 2.441406.082031 0 .164063-.003906.25-.011719 1.527344-.125 2.714844-1.386718 2.75-2.921874.261719-11.417969 16.664063-17.265626 16.824219-17.320313 1.351562-.46875 2.1875-1.828125 1.992188-3.246094-.199219-1.417969-1.367188-2.5-2.796876-2.585937zm-19.167968 13.589844c-1.847656-3.773438-4.679688-7.894532-8.894532-10.5625 3.710938-2.082032 7.394532-5.257813 9.742188-9.832032 2.113281 3.75 5.308594 7.910156 9.882812 10.449219-3.699218 2.199219-7.980468 5.480469-10.730468 9.945313zm0 0" fill="#3a312a" data-original="#3A312A" class="" style="fill:#031B4E" data-old_color="#3A312A"/><path d="m397.882812 221.371094c21.121094-17.128906 34.179688-40.753906 34.179688-66.847656 0-51.003907-49.898438-92.574219-112.402344-94.621094-1.550781-.058594-3.113281-.097656-4.683594-.097656-.019531 0-.042968.003906-.066406.003906-.023437 0-.046875-.003906-.070312-.003906-16.644532 0-32.449219 2.851562-46.789063 7.90625l-25.804687 12.503906c-27.164063 17.347656-44.628906 44.164062-44.628906 74.3125 0 42.90625 35.316406 79.128906 83.734374 90.777344 10.585938 3.039062 21.882813 4.707031 33.625 4.707031 9.898438 0 19.472657-1.191407 28.582032-3.382813l63.375 20.863282c4.222656 1.390624 8.144531-2.773438 6.507812-6.90625zm0 0" fill="#fce8cb" data-original="#FCE8CB" class=""/><path d="m401.476562 222.292969c21.679688-18.289063 33.585938-42.277344 33.585938-67.769531 0-52.621094-50.648438-95.503907-115.289062-97.617188-1.59375-.0625-3.191407-.101562-4.9375-.101562-16.507813 0-32.585938 2.71875-47.785157 8.078124-1.5625.550782-2.382812 2.265626-1.832031 3.828126s2.265625 2.382812 3.828125 1.832031c14.554687-5.132813 29.960937-7.734375 45.925781-7.734375 1.535156 0 3.054688.039062 4.589844.09375 61.402344 2.011718 109.5 42.257812 109.5 91.625 0 24.308594-11.746094 47.222656-33.074219 64.515625-1.015625.828125-1.378906 2.21875-.898437 3.4375l15.5625 39.214843c.472656 1.195313-.15625 2.046876-.453125 2.359376-.292969.3125-1.097657.992187-2.328125.589843l-63.375-20.863281c-.527344-.171875-1.097656-.195312-1.636719-.066406-19.914063 4.785156-41.039063 4.347656-60.804687-1.328125-47.953126-11.535157-81.4375-47.664063-81.4375-87.863281 0-28.066407 15.761718-54.230469 43.246093-71.78125 1.394531-.890626 1.800781-2.746094.914063-4.140626-.898438-1.398437-2.753906-1.808593-4.144532-.914062-29.246093 18.671875-46.015624 46.679688-46.015624 76.835938 0 42.984374 35.375 81.511718 85.90625 93.660156 20.25 5.824218 42.222656 6.382812 62.902343 1.5625l62.570313 20.597656c.863281.28125 1.742187.421875 2.613281.421875 2.21875 0 4.367187-.90625 5.957031-2.597656 2.21875-2.351563 2.855469-5.679688 1.664063-8.683594zm0 0" fill="#3a312a" data-original="#3A312A" class="" style="fill:#031B4E" data-old_color="#3A312A"/><path d="m377.144531 110.761719h-124.609375c-1.65625 0-3 1.339843-3 3 0 1.65625 1.34375 3 3 3h124.609375c1.65625 0 3-1.34375 3-3 0-1.660157-1.34375-3-3-3zm0 0" fill="#3a312a" data-original="#3A312A" class="" style="fill:#031B4E" data-old_color="#3A312A"/><path d="m392.421875 150.867188h-155.167969c-1.65625 0-3 1.339843-3 3 0 1.65625 1.34375 3 3 3h155.167969c1.65625 0 3-1.34375 3-3 0-1.660157-1.34375-3-3-3zm0 0" fill="#3a312a" data-original="#3A312A" class="" style="fill:#031B4E" data-old_color="#3A312A"/><path d="m377.144531 190.976562h-124.609375c-1.65625 0-3 1.339844-3 3 0 1.65625 1.34375 3 3 3h124.609375c1.65625 0 3-1.34375 3-3 0-1.660156-1.34375-3-3-3zm0 0" fill="#3a312a" data-original="#3A312A" class="" style="fill:#031B4E" data-old_color="#3A312A"/><path d="m355.371094 37.539062h-30.140625c5.859375 0 10.617187 4.761719 10.617187 10.621094v10.140625c10.621094 1.5 20.722656 4.140625 30.140625 7.71875v-17.859375c0-5.859375-4.757812-10.621094-10.617187-10.621094zm0 0" fill="#6ca8bf" data-original="#6CA8BF" class="" style="fill:#4D7790" data-old_color="#4D7891"/><path d="m343.429688 249.742188c-2.511719.582031-5.039063 1.085937-7.582032 1.511718v124.765625c0 5.839844-4.757812 10.621094-10.617187 10.621094h30.140625c5.859375 0 10.617187-4.78125 10.617187-10.621094v-118.839843zm0 0" fill="#6ca8bf" data-original="#6CA8BF" class="" style="fill:#4D7790" data-old_color="#4D7891"/><path d="m216.628906 210.660156c-12.058594-13.9375-19.738281-30.417968-21.578125-47.917968-.703125.019531-1.421875.039062-2.140625.058593-6.140625.199219-12.140625.78125-17.980468 1.71875 2.160156 16.839844 9.738281 32.679688 21.378906 46.140625zm95.160156 42.300782c-10.597656-.28125-21.140624-1.859376-31.257812-4.78125-23.320312-5.597657-43.402344-16.839844-58.28125-31.519532h-20.320312c14.878906 14.679688 34.941406 25.921875 58.261718 31.519532 3.597656 1.042968 7.257813 1.902343 10.9375 2.601562h4.082032c.878906 0 1.679687.398438 2.238281 1.019531 4.640625.660157 9.320312 1.039063 14 1.160157.019531.480468.058593.980468.058593 1.460937 0 40.199219-33.5 76.339844-81.558593 87.898437-7.378907 2.121094-14.980469 3.5-22.679688 4.140626 14.460938 1.238281 29.160157-.160157 43-4.140626 48.078125-11.558593 81.558594-47.699218 81.558594-87.898437 0-.480469-.039063-.980469-.039063-1.460937zm0 0" fill="#d34e5c" data-original="#D34E5C" class="" style="fill:#A83333" data-old_color="#A93333"/><path d="m395.089844 222.480469c-.480469-1.21875-.121094-2.621094.898437-3.441407 21.320313-17.296874 33.082031-40.199218 33.082031-64.519531 0-49.359375-48.101562-89.617187-109.5-91.617187-1.539062-.0625-3.0625-.101563-4.601562-.101563-3.378906 0-6.71875.121094-10.039062.359375 58.980468 3.960938 104.460937 43.359375 104.460937 91.359375 0 24.320313-11.742187 47.222657-33.0625 64.519531-1.019531.820313-1.378906 2.222657-.898437 3.441407l14.359374 36.21875 18.082032 5.941406c1.238281.398437 2.039062-.28125 2.339844-.578125.277343-.320312.917968-1.183594.4375-2.363281zm0 0" fill="#decaad" data-original="#DECAAD" class="active-path" style="fill:#DECAAD"/></g> </svg>
