<?xml version="1.0" encoding="iso-8859-1"?>
<!-- Generator: Adobe Illustrator 16.0.0, SVG Export Plug-In . SVG Version: 6.00 Build 0)  -->
<!DOCTYPE svg PUBLIC "-//W3C//DTD SVG 1.1//EN" "http://www.w3.org/Graphics/SVG/1.1/DTD/svg11.dtd">
<svg version="1.1" id="Layer_1" xmlns="http://www.w3.org/2000/svg" xmlns:xlink="http://www.w3.org/1999/xlink" x="0px" y="0px"
	 width="400px" height="400px" viewBox="248.75 165.25 400 400" style="enable-background:new 248.75 165.25 400 400;"
	 xml:space="preserve">
<g style="opacity:0.04;">
	<image style="overflow:visible;" width="356" height="355" xlink:href="1A5FE946.png"  transform="matrix(1 0 0 1 270.5 188.5)">
	</image>
	<g>
		<ellipse style="fill:#0635c9;" cx="448.75" cy="365.875" rx="162.633" ry="162.125"/>
	</g>
</g>
<g>
	<path style="fill:#FFFFFF;" d="M400.61,325.27c0-4.441,3.599-8.042,8.043-8.042h80.192c4.442,0,8.044,3.598,8.044,8.042v80.193
		c0,4.442-3.599,8.044-8.044,8.044h-80.192c-4.442,0-8.043-3.599-8.043-8.044V325.27z"/>
	<path style="fill:#031B4E;" d="M488.846,415.512h-80.193c-5.541,0-10.049-4.506-10.049-10.049V325.27
		c0-5.542,4.508-10.049,10.049-10.049h80.193c5.543,0,10.049,4.507,10.049,10.049v80.193
		C498.895,411.006,494.389,415.512,488.846,415.512z M408.652,319.231c-3.327,0-6.037,2.71-6.037,6.038v80.193
		c0,3.329,2.71,6.037,6.037,6.037h80.193c3.329,0,6.038-2.708,6.038-6.037V325.27c0-3.328-2.709-6.038-6.038-6.038H408.652z"/>
	<path style="fill:#C13D3D;" d="M420.668,341.977c0-2.592,2.1-4.691,4.691-4.691h46.779c2.592,0,4.691,2.1,4.691,4.691v46.779
		c0,2.591-2.099,4.691-4.691,4.691h-46.779c-2.591,0-4.691-2.099-4.691-4.691V341.977z"/>
	<path style="fill:#C13D3D;" d="M472.14,395.454h-46.78c-3.692,0-6.697-3.005-6.697-6.697v-46.78c0-3.692,3.005-6.697,6.696-6.697
		h46.781c3.692,0,6.697,3.005,6.697,6.696v46.781C478.837,392.449,475.832,395.454,472.14,395.454z M425.358,339.291
		c-1.479,0-2.685,1.204-2.685,2.685v46.781c0,1.48,1.205,2.686,2.685,2.686h46.781c1.481,0,2.686-1.205,2.686-2.686v-46.781
		c0-1.48-1.204-2.685-2.686-2.685H425.358z"/>
	<path style="fill:#EBAA39;" d="M426.686,369.379v-22.391c0-2.035,1.649-3.686,3.687-3.686h36.756c2.034,0,3.685,1.649,3.685,3.686
		v36.757c0,2.036-1.648,3.686-3.685,3.686h-36.756c-2.036,0-3.687-1.649-3.687-3.686v-4.338"/>
	<g>
		<path style="fill:#031B4E;" d="M467.128,389.437h-36.756c-3.139,0-5.692-2.554-5.692-5.691v-4.338
			c0-1.109,0.896-2.005,2.004-2.005c1.109,0,2.007,0.896,2.007,2.005v4.338c0,0.926,0.754,1.68,1.682,1.68h36.756
			c0.926,0,1.681-0.754,1.681-1.68v-36.757c0-0.927-0.755-1.681-1.681-1.681h-36.756c-0.928,0-1.682,0.754-1.682,1.681v22.39
			c0,1.109-0.897,2.007-2.007,2.007c-1.108,0-2.004-0.897-2.004-2.007v-22.39c0-3.137,2.554-5.691,5.692-5.691h36.756
			c3.138,0,5.691,2.555,5.691,5.691v36.757C472.819,386.883,470.266,389.437,467.128,389.437z"/>
		<path style="fill:#031B4E;" d="M506.919,335.279h-8.024c-1.108,0-2.005-0.897-2.005-2.006c0-1.109,0.896-2.007,2.005-2.007h8.024
			c1.108,0,2.006,0.897,2.006,2.007C508.925,334.382,508.027,335.279,506.919,335.279z"/>
		<path style="fill:#031B4E;" d="M398.604,335.279h-8.022c-1.108,0-2.006-0.897-2.006-2.006c0-1.109,0.897-2.007,2.006-2.007h8.022
			c1.109,0,2.007,0.897,2.007,2.007C400.61,334.382,399.713,335.279,398.604,335.279z"/>
		<path style="fill:#031B4E;" d="M506.919,351.325h-8.024c-1.108,0-2.005-0.896-2.005-2.005s0.896-2.006,2.005-2.006h8.024
			c1.108,0,2.006,0.897,2.006,2.006S508.027,351.325,506.919,351.325z"/>
		<path style="fill:#031B4E;" d="M398.604,351.325h-8.022c-1.108,0-2.006-0.896-2.006-2.005s0.897-2.006,2.006-2.006h8.022
			c1.109,0,2.007,0.897,2.007,2.006S399.713,351.325,398.604,351.325z"/>
		<path style="fill:#031B4E;" d="M506.919,367.372h-8.024c-1.108,0-2.005-0.896-2.005-2.005c0-1.109,0.896-2.007,2.005-2.007h8.024
			c1.108,0,2.006,0.897,2.006,2.007C508.925,366.476,508.027,367.372,506.919,367.372z"/>
		<path style="fill:#031B4E;" d="M398.604,367.372h-8.022c-1.108,0-2.006-0.896-2.006-2.005c0-1.109,0.897-2.007,2.006-2.007h8.022
			c1.109,0,2.007,0.897,2.007,2.007C400.61,366.476,399.713,367.372,398.604,367.372z"/>
		<path style="fill:#031B4E;" d="M506.919,383.418h-8.024c-1.108,0-2.005-0.896-2.005-2.005s0.896-2.006,2.005-2.006h8.024
			c1.108,0,2.006,0.897,2.006,2.006S508.027,383.418,506.919,383.418z"/>
		<path style="fill:#031B4E;" d="M398.604,383.418h-8.022c-1.108,0-2.006-0.896-2.006-2.005s0.897-2.006,2.006-2.006h8.022
			c1.109,0,2.007,0.897,2.007,2.006S399.713,383.418,398.604,383.418z"/>
		<path style="fill:#031B4E;" d="M506.919,399.465h-8.024c-1.108,0-2.005-0.896-2.005-2.005s0.896-2.006,2.005-2.006h8.024
			c1.108,0,2.006,0.897,2.006,2.006S508.027,399.465,506.919,399.465z"/>
		<path style="fill:#031B4E;" d="M398.604,399.465h-8.022c-1.108,0-2.006-0.896-2.006-2.005s0.897-2.006,2.006-2.006h8.022
			c1.109,0,2.007,0.897,2.007,2.006S399.713,399.465,398.604,399.465z"/>
		<path style="fill:#031B4E;" d="M416.657,317.228c-1.109,0-2.007-0.897-2.007-2.007v-8.023c0-1.108,0.897-2.006,2.007-2.006
			c1.108,0,2.005,0.897,2.005,2.006v8.023C418.662,316.33,417.766,317.228,416.657,317.228z"/>
		<path style="fill:#031B4E;" d="M432.703,317.228c-1.108,0-2.006-0.897-2.006-2.007v-8.023c0-1.108,0.897-2.006,2.006-2.006
			c1.109,0,2.006,0.897,2.006,2.006v8.023C434.709,316.33,433.813,317.228,432.703,317.228z"/>
		<path style="fill:#031B4E;" d="M448.75,317.228c-1.108,0-2.007-0.897-2.007-2.007v-8.023c0-1.108,0.898-2.006,2.007-2.006
			s2.005,0.897,2.005,2.006v8.023C450.755,316.33,449.858,317.228,448.75,317.228z"/>
		<path style="fill:#031B4E;" d="M464.797,317.228c-1.109,0-2.006-0.897-2.006-2.007v-8.023c0-1.108,0.896-2.006,2.006-2.006
			c1.108,0,2.005,0.897,2.005,2.006v8.023C466.802,316.33,465.905,317.228,464.797,317.228z"/>
		<path style="fill:#031B4E;" d="M480.843,317.228c-1.108,0-2.006-0.897-2.006-2.007v-8.023c0-1.108,0.897-2.006,2.006-2.006
			s2.005,0.897,2.005,2.006v8.023C482.848,316.33,481.951,317.228,480.843,317.228z"/>
		<path style="fill:#031B4E;" d="M416.657,425.542c-1.109,0-2.007-0.897-2.007-2.006v-8.024c0-1.108,0.897-2.005,2.007-2.005
			c1.108,0,2.005,0.896,2.005,2.005v8.024C418.662,424.645,417.766,425.542,416.657,425.542z"/>
		<path style="fill:#031B4E;" d="M432.703,425.542c-1.108,0-2.006-0.897-2.006-2.006v-8.024c0-1.108,0.897-2.005,2.006-2.005
			c1.109,0,2.006,0.896,2.006,2.005v8.024C434.709,424.645,433.813,425.542,432.703,425.542z"/>
		<path style="fill:#031B4E;" d="M448.75,425.542c-1.108,0-2.007-0.897-2.007-2.006v-8.024c0-1.108,0.898-2.005,2.007-2.005
			s2.005,0.896,2.005,2.005v8.024C450.755,424.645,449.858,425.542,448.75,425.542z"/>
		<path style="fill:#031B4E;" d="M464.797,425.542c-1.109,0-2.006-0.897-2.006-2.006v-8.024c0-1.108,0.896-2.005,2.006-2.005
			c1.108,0,2.005,0.896,2.005,2.005v8.024C466.802,424.645,465.905,425.542,464.797,425.542z"/>
		<path style="fill:#031B4E;" d="M480.843,425.542c-1.108,0-2.006-0.897-2.006-2.006v-8.024c0-1.108,0.897-2.005,2.006-2.005
			s2.005,0.896,2.005,2.005v8.024C482.848,424.645,481.951,425.542,480.843,425.542z"/>
	</g>
	<path style="fill:#5E8DA7;" d="M416.657,329.263c0,2.215-1.797,4.011-4.012,4.011c-2.217,0-4.013-1.796-4.013-4.011
		c0-2.217,1.796-4.014,4.013-4.014C414.86,325.249,416.657,327.046,416.657,329.263z"/>
	<path style="fill:#5E8DA7;" d="M416.657,401.472c0,2.215-1.797,4.011-4.012,4.011c-2.217,0-4.013-1.796-4.013-4.011
		c0-2.216,1.796-4.012,4.013-4.012C414.86,397.46,416.657,399.256,416.657,401.472z"/>
	<path style="fill:#5E8DA7;" d="M488.866,329.263c0,2.215-1.797,4.011-4.012,4.011s-4.012-1.796-4.012-4.011
		c0-2.217,1.797-4.014,4.012-4.014S488.866,327.046,488.866,329.263z"/>
	<path style="fill:#5E8DA7;" d="M488.866,401.472c0,2.215-1.797,4.011-4.012,4.011s-4.012-1.796-4.012-4.011
		c0-2.216,1.797-4.012,4.012-4.012S488.866,399.256,488.866,401.472z"/>
	<path style="fill:#031B4E;" d="M442.261,354.282c0-0.212,0.142-0.351,0.35-0.351h8.874c5.052,0,7.436,2.524,7.436,6.349
		c0,2.7-1.263,4.241-2.77,5.049v0.071c1.473,0.562,3.19,2.456,3.19,5.366c0,4.734-2.981,7.016-8.207,7.016h-8.523
		c-0.208,0-0.35-0.142-0.35-0.352V354.282z M451.381,363.856c2.104,0,3.402-1.262,3.402-3.121c0-1.894-1.299-3.157-3.402-3.157
		h-4.772c-0.139,0-0.209,0.07-0.209,0.209v5.858c0,0.141,0.07,0.211,0.209,0.211H451.381z M446.608,374.135h4.981
		c2.315,0,3.611-1.334,3.611-3.333c0-1.964-1.296-3.299-3.611-3.299h-4.981c-0.139,0-0.209,0.07-0.209,0.212v6.207
		C446.399,374.064,446.47,374.135,446.608,374.135z"/>
	<path style="fill:#031B4E;" d="M448.75,357.343c-1.108,0-2.007-0.896-2.007-2.005v-4.013c0-1.109,0.898-2.005,2.007-2.005
		s2.005,0.896,2.005,2.005v4.013C450.755,356.446,449.858,357.343,448.75,357.343z"/>
	<path style="fill:#031B4E;" d="M448.75,381.413c-1.108,0-2.007-0.897-2.007-2.006v-2.005c0-1.109,0.898-2.007,2.007-2.007
		s2.005,0.897,2.005,2.007v2.005C450.755,380.516,449.858,381.413,448.75,381.413z"/>
</g>
<ellipse style="opacity:0.04;fill:#0635c9;" cx="448.75" cy="365.367" rx="94.113" ry="93.818"/>
</svg>
