<?xml version="1.0" standalone="no"?><!DOCTYPE svg PUBLIC "-//W3C//DTD SVG 1.1//EN" "http://www.w3.org/Graphics/SVG/1.1/DTD/svg11.dtd"><svg t="1596622783542" class="icon" viewBox="0 0 1024 1024" version="1.1" xmlns="http://www.w3.org/2000/svg" p-id="17295" width="32" height="32" xmlns:xlink="http://www.w3.org/1999/xlink"><defs><style type="text/css"></style></defs><path d="M736 1024H256c-35.2 0-64-28.8-64-64V64c0-35.2 28.8-64 64-64h480c35.2 0 64 28.8 64 64v896c0 35.2-28.8 64-64 64z" fill="#F2F2F2" p-id="17296"></path><path d="M736 0H256C220.8 0 192 28.8 192 64v896c0 35.2 28.8 64 64 64h480c35.2 0 64-28.8 64-64V64c0-35.2-28.8-64-64-64z m32 960c0 19.2-12.8 32-32 32H256c-19.2 0-32-12.8-32-32V64c0-19.2 12.8-32 32-32h480c19.2 0 32 12.8 32 32v896z" fill="#4C7CEA" p-id="17297"></path><path d="M384 352h32v320h-32zM480 352h32v320h-32zM576 352h32v320h-32z" fill="#4C7CEA" p-id="17298"></path></svg>