<?xml version="1.0"?>
<svg xmlns="http://www.w3.org/2000/svg" xmlns:xlink="http://www.w3.org/1999/xlink" version="1.1" id="Layer_1" x="0px" y="0px" viewBox="0 0 470 470" style="enable-background:new 0 0 470 470;" xml:space="preserve" width="512px" height="512px" class=""><g><g>
	<g>
		<g>
			<path d="M235,150c-20.678,0-37.5,16.822-37.5,37.5S214.322,225,235,225s37.5-16.822,37.5-37.5S255.678,150,235,150z M235,210     c-12.407,0-22.5-10.093-22.5-22.5S222.593,165,235,165s22.5,10.093,22.5,22.5S247.407,210,235,210z" data-original="#000000" class="active-path" data-old_color="#000000" fill="#999999"/>
			<circle cx="385" cy="37.5" r="7.5" data-original="#000000" class="active-path" data-old_color="#000000" fill="#999999"/>
			<circle cx="85" cy="37.5" r="7.5" data-original="#000000" class="active-path" data-old_color="#000000" fill="#999999"/>
			<circle cx="385" cy="432.5" r="7.5" data-original="#000000" class="active-path" data-old_color="#000000" fill="#999999"/>
			<circle cx="85" cy="432.5" r="7.5" data-original="#000000" class="active-path" data-old_color="#000000" fill="#999999"/>
			<path d="M415,0H55c-4.142,0-7.5,3.358-7.5,7.5v455c0,4.142,3.358,7.5,7.5,7.5h360c4.142,0,7.5-3.358,7.5-7.5V7.5     C422.5,3.358,419.142,0,415,0z M222.501,455h-160V295H81.38c12.146,17.343,26.923,32.306,44.042,44.634     c-3.055,2.467-3.193,2.604-3.299,2.71c-14.621,14.621-14.621,38.412,0,53.033c7.082,7.082,16.499,10.982,26.516,10.983     c10.018,0,19.435-3.9,26.517-10.983c0.214-0.214,0.54-0.543,19.864-24.677c9.031,1.962,18.231,3.264,27.481,3.877V455z      M287.803,229.697c-3.304-3.304-7.696-5.124-12.368-5.124c-3.953,0-7.827,1.355-10.912,3.817     c-49.083,39.202-81.191,64.863-102.225,81.688C119.119,284.427,92.5,237.913,92.5,187.5C92.5,108.925,156.425,45,235,45     s142.5,63.925,142.5,142.5S313.575,330,235,330c-2.413,0-4.837-0.084-7.261-0.208c15.446-19.324,35.443-44.351,61.373-76.817     C294.67,246.009,294.108,236.001,287.803,229.697z M167.631,325.022c0.022-0.017,0.044-0.035,0.065-0.052     c31.498-25.194,76.958-61.514,106.185-84.857c0.558-0.446,1.153-0.54,1.553-0.54c0.385,0,1.126,0.095,1.762,0.73     c0.899,0.899,0.981,2.324,0.192,3.313c-37.539,47.001-108.635,135.98-113.056,141.368c-4.225,4.115-9.784,6.376-15.691,6.376     c-6.013,0-11.664-2.341-15.913-6.59c-8.701-8.701-8.772-22.814-0.213-31.604C134.555,351.494,148.516,340.312,167.631,325.022z      M407.5,455h-170v-87.58c0-4.063-3.234-7.386-7.295-7.497c-8.248-0.225-16.481-1.056-24.599-2.451     c3.253-4.067,6.869-8.588,10.862-13.581C222.625,344.615,228.838,345,235,345c86.846,0,157.5-70.654,157.5-157.5     S321.846,30,235,30S77.5,100.654,77.5,187.5c0,53.838,27.468,103.649,72.37,132.523c-4.917,3.936-8.957,7.172-12.275,9.832     c-18.224-12.478-33.695-28.105-46.028-46.527c-1.393-2.08-3.73-3.328-6.232-3.328H62.5V15h345V455z" data-original="#000000" class="active-path" data-old_color="#000000" fill="#999999"/>
			<path d="M355,425h-95c-4.142,0-7.5,3.358-7.5,7.5c0,4.142,3.358,7.5,7.5,7.5h95c4.142,0,7.5-3.358,7.5-7.5     C362.5,428.358,359.142,425,355,425z" data-original="#000000" class="active-path" data-old_color="#000000" fill="#999999"/>
		</g>
	</g>
</g></g> </svg>
