<?xml version="1.0" standalone="no"?><!DOCTYPE svg PUBLIC "-//W3C//DTD SVG 1.1//EN" "http://www.w3.org/Graphics/SVG/1.1/DTD/svg11.dtd"><svg t="1605756912223" class="icon" viewBox="0 0 4820 1024" version="1.1" xmlns="http://www.w3.org/2000/svg" p-id="3213" width="150.625" height="32" xmlns:xlink="http://www.w3.org/1999/xlink"><defs><style type="text/css"></style></defs><path d="M882.303997 997.8895H685.175071V817.849566h146.669303V187.037002H0.000673v-51.132418A128.503839 128.503839 0 0 1 128.504512 7.266186h753.530367a128.503839 128.503839 0 0 1 128.50384 128.638398v733.0774a128.503839 128.503839 0 0 1-128.234722 128.907516z" fill="#ffffff" p-id="3214"></path><path d="M179.63693 746.667858H0.000673v122.314126a128.503839 128.503839 0 0 0 128.503839 128.907516h622.604466V817.849566H179.63693zM544.695481 512.669767h179.501698v-122.179566a128.638398 128.638398 0 0 0-128.638398-128.638399H0.000673v179.770817h544.694808z" fill="#ffffff" p-id="3215"></path><path d="M397.487942 512.669767H168.468534L0.000673 746.667858l102.937631 179.636257L397.487942 512.669767zM724.466297 512.669767L567.301392 417.132882 331.419476 746.667858h224.578961L724.466297 512.669767z" fill="#ffffff" p-id="3216"></path><path d="M2276.200617 308.543773h111.953083v330.073213h-111.953083zM2481.537642 612.781659V306.25627h389.010052v306.525389z m111.953083-57.994926h165.238445v-67.279497h-165.238445z m0-124.736188h165.238445v-65.799348h-165.238445zM2288.176367 266.023131l-42.386083-75.083918h111.549406l42.386083 75.083918h-111.549406zM2908.224212 148.956806l-55.841983-61.089783h-54.496392l-17.35811 61.089783h-115.182499L2703.156305 13.455899h115.317058l-4.575006 16.416198h264.542982v57.994926h-113.836909l69.836118 61.089783h-126.216336zM2501.452373 148.956806l-55.707424-61.089783h-56.245659l-17.35811 61.089783h-114.644263L2295.442553 13.455899h114.644263l-4.575006 16.416198h251.221642v57.994926h-97.824389l55.707424 61.089783h-113.164114zM2139.757797 545.502162v-91.769234h-533.391853v55.303747h393.31594v67.952292h-524.510959v-176.272283h664.586872V344.471025h-776.539955v287.821688h689.614845l86.92511-86.790551zM2078.937131 31.621364h-242.878984v269.117988h335.455572V124.197952z m-19.376495 210.853943h-122.98692V90.558203h122.98692zM3457.494026 246.781195h98.228065v-94.594973h106.032488V122.314126h-106.032488V100.515569h-98.228065v21.798557h-105.628811v29.872096h105.628811v94.594973z" fill="#ffffff" p-id="3217"></path><path d="M4016.452087 22.74047h-312.311425L3676.017832 0h-138.999441l27.988271 22.74047h-322.537909l-7.266186 61.089783-37.676518 556.670559h81.408192l40.233139-577.93088h697.284707V22.74047z" fill="#ffffff" p-id="3218"></path><path d="M3772.362072 246.781195l38.349313-71.989062h-52.20889l-38.349313 71.989062h52.20889z" fill="#ffffff" p-id="3219"></path><path d="M4016.452087 122.314126h-115.182499V100.515569h-98.228066v21.798557h-101.053804v29.872096h101.053804v94.594973h98.228066v-94.594973h115.182499V122.314126z" fill="#ffffff" p-id="3220"></path><path d="M3947.019646 246.781195h49.51771l-51.805213-71.989062h-49.51771l51.805213 71.989062zM3425.872662 246.781195l38.349313-71.989062h-52.208889l-38.349314 71.989062h52.20889zM3761.462793 605.380914v-62.973609h-84.906725v98.093507h347.969559v-35.119898h-263.062834z" fill="#ffffff" p-id="3221"></path><path d="M3899.116644 596.230903l29.199302-76.025832h-72.527298l-29.872097 76.025832h73.200093zM3946.077733 543.887454l17.492669 52.343449h49.921387l-17.627228-52.343449h-49.786828z" fill="#ffffff" p-id="3222"></path><path d="M3725.939219 494.773421h284.86139V294.953315H3743.431888l10.899279-23.682383h-107.647196l-10.899278 23.682383h-276.653292v199.820106h216.63998l-217.98557 145.727391h154.877402m224.175284-320.250406h162.143588v64.319199h-162.143588z m0 98.497184h162.143588v52.612566h-162.143588zM3633.093513 471.360156h-162.143588v-52.07433H3633.093513z m0-86.790551h-162.143588V320.250406H3633.093513zM3550.60885 174.792133l51.805212 71.989062h50.190505l-52.343449-71.989062h-49.652268zM3037.669964 198.205398h-552.095552v58.129486h507.287407v309.351127l-58.129485 73.065534h89.212613l54.496392-71.450826V251.894437l-40.771375-53.689039zM4762.581709 235.343681h-428.166719l13.590458-92.442029h470.014567V71.316267h-226.328228L4535.580686 12.513986h-111.953083l56.111101 58.802281h-362.367371v71.585385h132.40605l-70.105236 496.657247h98.228066l48.03756-319.173934h387.799021v218.658365l-72.661857 100.515569h90.289086l67.414056-81.139074V298.451849l-36.19637-63.108168zM1796.228685 145.996509h-159.856085V89.750849h141.556062V35.254456h-311.369513L1484.186378 13.455899h-108.45455l-27.315475 77.236863 175.868605-0.941913v56.24566H1340.881049v53.554479h144.381801l-144.381801 101.053805h132.136932l95.536886-71.585385 95.402327 71.585385h132.271491l-130.387665-101.053805h130.387665v-53.554479zM1407.487751 1016.5932h-67.279497l40.367698-256.604002h67.279497zM1593.179163 759.989198h94.191296a107.647195 107.647195 0 0 1 110.338375 128.234722 157.434023 157.434023 0 0 1-150.840632 128.36928h-94.191296z m35.119897 200.089225h14.936049a81.677309 81.677309 0 0 0 85.444961-71.854503c7.131627-45.884617-19.107377-71.719944-62.031696-71.719944h-15.608844zM2079.879044 846.106955a60.282429 60.282429 0 0 0-53.823597-28.257389 81.946427 81.946427 0 0 0-79.524366 71.047149c-6.189714 40.367698 16.954433 69.836118 58.398604 69.836118a92.038352 92.038352 0 0 0 62.031696-26.911799l-13.455899 79.793483a203.184081 203.184081 0 0 1-60.551548 12.11031 122.717803 122.717803 0 0 1-90.423644-37.811077 108.992785 108.992785 0 0 1-25.566209-97.017035 159.721526 159.721526 0 0 1 52.478008-94.191296 163.489178 163.489178 0 0 1 104.417779-41.578729 142.228857 142.228857 0 0 1 58.802281 13.455899zM2339.847021 826.057665a60.416988 60.416988 0 0 0-41.309611-16.550757c-12.244868 0-30.006656 7.131627-32.025041 21.529439s14.66693 20.587526 25.566209 24.489737l16.281638 5.113242c34.043425 10.495602 58.936839 28.526507 52.074331 70.105236a103.610425 103.610425 0 0 1-37.4074 69.028764 129.176634 129.176634 0 0 1-76.564068 24.220619c-32.294159 0-35.389015-10.899279-58.80228-29.46842l10.091924-53.823597a77.775099 77.775099 0 0 0 55.169188 26.911798 34.177984 34.177984 0 0 0 36.330928-25.835327c3.094857-18.7037-22.067675-25.297091-35.658133-29.468419-40.367698-11.841191-66.068466-22.74047-57.860368-72.392739a100.650128 100.650128 0 0 1 102.130277-86.117756 155.819315 155.819315 0 0 1 76.833185 21.125762zM2564.560541 863.330506h0.672795a76.833186 76.833186 0 0 1 59.609634-26.911799 52.747126 52.747126 0 0 1 53.823598 33.370631 80.735396 80.735396 0 0 1 64.588317-33.370631c44.269909 0 54.765511 28.795625 48.710356 69.028764l-17.627228 111.280288h-62.031696l13.455899-83.426576c2.69118-18.030905 8.208099-47.633884-18.030905-47.633884-28.526507 0-34.043425 26.911799-37.003724 47.633884l-13.455899 83.426576h-62.031696l13.455899-83.426576c3.094857-19.376495 7.804422-48.979474-19.645613-48.979474s-32.428718 29.602979-35.523574 48.979474l-13.4559 83.426576h-61.897137l26.911799-174.926692h62.569932zM3107.236964 1016.5932h-61.897137l2.960298-19.511054h-0.672795a72.392739 72.392739 0 0 1-56.783896 25.162532c-51.805213 0-80.735396-43.193437-73.200093-93.114824a107.647195 107.647195 0 0 1 102.130277-92.845706 60.013311 60.013311 0 0 1 50.325064 22.74047l2.825739-17.088992h61.897137z m-125.543541-87.194228a30.948569 30.948569 0 0 0 33.236071 39.156667 45.48094 45.48094 0 0 0 46.288294-39.156667 31.755923 31.755923 0 0 0-33.639748-39.425785 45.750058 45.750058 0 0 0-45.884617 39.425785zM3334.641664 870.596692h0.672795a72.25818 72.25818 0 0 1 61.224342-30.948569h11.841192l-9.150012 59.475075a46.961089 46.961089 0 0 0-25.566209-5.786036c-34.312543 0-46.153735 22.875029-50.997858 52.747125l-11.168397 70.508913h-61.897137l26.911799-174.926692h62.031696zM3579.404474 1016.5932h-62.031696l19.107377-123.659715h-20.183849l8.208099-50.997859h20.04929l8.611775-52.343449h61.897138l-8.477217 52.343449h34.985339l-8.07354 50.997859h-35.119898zM3819.054043 983.491688a48.441238 48.441238 0 0 1-46.019176 40.367698 33.370631 33.370631 0 0 1-33.639749-40.367698 48.441238 48.441238 0 0 1 46.288294-39.694904 32.832395 32.832395 0 0 1 33.370631 39.694904zM4098.802191 898.85408a46.422853 46.422853 0 0 0-29.872096-12.244868 50.8633 50.8633 0 0 0-49.383151 42.520642 34.71622 34.71622 0 0 0 36.734605 42.924319 55.303747 55.303747 0 0 0 32.697836-11.97575l-8.208099 52.478007a107.647195 107.647195 0 0 1-45.211822 9.688248c-51.670654 0-88.808936-38.349313-80.735396-91.096439a113.298673 113.298673 0 0 1 112.625878-94.864091 76.160391 76.160391 0 0 1 39.156667 10.091925zM4404.520226 929.398972c-9.553689 59.205957-63.915522 92.845706-120.026623 92.845706s-99.708215-33.236072-90.289085-92.845706 63.780963-93.114824 119.757505-93.114824 99.708215 33.639749 90.558203 93.114824z m-144.920037 0a31.083128 31.083128 0 0 0 33.370631 39.156667 45.615499 45.615499 0 0 0 46.288294-39.156667 31.890482 31.890482 0 0 0-33.774308-39.425785 45.750058 45.750058 0 0 0-45.884617 39.425785zM4579.043241 863.330506a76.833186 76.833186 0 0 1 59.609635-26.911799 52.747126 52.747126 0 0 1 53.823597 33.370631 80.735396 80.735396 0 0 1 64.722876-33.370631c44.13535 0 54.630952 28.795625 48.575797 69.028764l-17.627228 111.280288h-61.897137l13.455899-83.426576c2.69118-18.030905 8.208099-47.633884-18.030905-47.633884-28.526507 0-34.043425 26.911799-37.003723 47.633884l-13.4559 83.426576h-61.897137l13.455899-83.426576c3.094857-19.376495 7.804422-48.979474-19.645613-48.979474s-32.428718 29.602979-35.389015 48.979474l-13.4559 83.426576h-61.897137l26.911799-174.926692h62.031696z" fill="#ffffff" p-id="3223"></path></svg>