<?xml version="1.0" encoding="utf-8"?>
<!-- Generator: Adobe Illustrator 23.0.2, SVG Export Plug-In . SVG Version: 6.00 Build 0)  -->
<svg version="1.1" id="图层_1" xmlns="http://www.w3.org/2000/svg" xmlns:xlink="http://www.w3.org/1999/xlink" x="0px" y="0px"
	 viewBox="0 0 358.1 76.9" style="enable-background:new 0 0 358.1 76.9;" xml:space="preserve">
<style type="text/css">
	.st0{fill:#E50012;}
	.st1{fill:#231815;}
</style>
<g>
	<path id="XMLID_5990_" class="st0" d="M65.6,75H50.9V61.6h10.9V14.7H0v-3.8c0-5.3,4.3-9.6,9.6-9.6h56c5.3,0,9.6,4.3,9.6,9.6v54.5
		C75.1,70.7,70.8,75,65.6,75z"/>
	<path id="XMLID_15_" class="st0" d="M13.4,56.3H0v9.1C0,70.7,4.3,75,9.6,75h46.3V61.6H13.4V56.3z"/>
	<path id="XMLID_5988_" class="st0" d="M40.5,38.9h13.4v-9.1c0-5.3-4.3-9.6-9.6-9.6H0v13.4h40.5V38.9z"/>
	<polygon id="XMLID_8_" class="st0" points="29.5,38.9 12.5,38.9 0,56.3 7.7,69.7 	"/>
	<polygon id="XMLID_5986_" class="st0" points="53.8,38.9 42.2,31.8 24.6,56.3 41.3,56.3 	"/>
	<rect id="XMLID_5984_" x="169.2" y="23.8" class="st1" width="8.3" height="24.5"/>
	<path id="XMLID_5980_" class="st1" d="M184.4,46.4V23.6h28.9v22.8H184.4z M192.7,42.1H205v-5h-12.3V42.1z M192.7,32.8H205v-4.9
		h-12.3V32.8z"/>
	<polygon id="XMLID_5979_" class="st1" points="170.1,20.6 166.9,15 175.2,15 178.3,20.6 	"/>
	<polygon id="XMLID_5978_" class="st1" points="216.1,11.9 212,7.4 207.9,7.4 206.6,11.9 198.1,11.9 200.9,1.8 209.5,1.8 209.1,3.1 
		228.8,3.1 228.8,7.4 220.3,7.4 225.5,11.9 	"/>
	<polygon id="XMLID_5977_" class="st1" points="185.9,11.9 181.8,7.4 177.6,7.4 176.3,11.9 167.8,11.9 170.6,1.8 179.1,1.8 
		178.8,3.1 197.4,3.1 197.4,7.4 190.2,7.4 194.3,11.9 	"/>
	<polygon id="XMLID_5976_" class="st1" points="159,41.4 159,34.6 119.4,34.6 119.4,38.7 148.6,38.7 148.6,43.7 109.6,43.7 
		109.6,30.6 159,30.6 159,26.4 101.3,26.4 101.3,47.8 152.6,47.8 	"/>
	<path id="XMLID_5973_" class="st1" d="M154.5,3.2h-18.1v20h24.9V10.1L154.5,3.2z M153.1,18.9h-9.1V7.6h9.1V18.9z"/>
	<g id="XMLID_5956_">
		<polygon id="XMLID_5972_" class="st1" points="256.9,19.2 264.3,19.2 264.3,12.1 272.1,12.1 272.1,9.9 264.3,9.9 264.3,8.3 
			256.9,8.3 256.9,9.9 249.1,9.9 249.1,12.1 256.9,12.1 		"/>
		<polygon id="XMLID_5971_" class="st1" points="298.5,2.5 275.3,2.5 273.2,0.8 262.9,0.8 264.9,2.5 241,2.5 240.4,7.1 237.6,48.4 
			243.7,48.4 246.7,5.5 298.5,5.5 		"/>
		<polygon id="XMLID_5970_" class="st1" points="280.4,19.2 283.2,13.8 279.3,13.8 276.5,19.2 		"/>
		<polygon id="XMLID_5969_" class="st1" points="298.5,9.9 289.9,9.9 289.9,8.3 282.6,8.3 282.6,9.9 275.1,9.9 275.1,12.1 
			282.6,12.1 282.6,19.2 289.9,19.2 289.9,12.1 298.5,12.1 		"/>
		<polygon id="XMLID_5968_" class="st1" points="293.3,19.2 297,19.2 293.2,13.8 289.5,13.8 		"/>
		<polygon id="XMLID_5967_" class="st1" points="254.6,19.2 257.5,13.8 253.6,13.8 250.7,19.2 		"/>
		<polygon id="XMLID_5966_" class="st1" points="279.5,45.8 279.5,41.1 273.2,41.1 273.2,48.4 299.1,48.4 299.1,45.8 		"/>
		<polygon id="XMLID_5965_" class="st1" points="289.8,45.2 291.9,39.5 286.6,39.5 284.3,45.2 		"/>
		<polygon id="XMLID_5964_" class="st1" points="293.3,41.3 294.6,45.2 298.3,45.2 297,41.3 		"/>
		<path id="XMLID_5958_" class="st1" d="M276.9,37.6h21.2V22.8h-19.9L279,21h-8l-0.8,1.8h-20.6v14.9h16.1l-16.2,10.8h11.5
			 M277.7,24.6h12v4.8h-12V24.6z M277.7,32h12v3.9h-12V32z M270,35.9h-12V32h12V35.9z M270,29.4h-12v-4.8h12V29.4z"/>
		<polygon id="XMLID_5957_" class="st1" points="263.9,13.8 267.7,19.2 271.5,19.2 267.6,13.8 		"/>
	</g>
	<polygon id="XMLID_5955_" class="st1" points="225.8,15.6 184.7,15.6 184.7,19.9 222.4,19.9 222.4,42.9 218.1,48.3 224.7,48.3 
		228.8,43 228.8,19.6 	"/>
	<polygon id="XMLID_5954_" class="st1" points="353.9,18.3 322.1,18.3 323.1,11.5 358.1,11.5 358.1,6.1 341.2,6.1 337.1,1.8 
		328.7,1.8 332.9,6.1 306,6.1 306,11.5 315.8,11.5 310.6,48.4 317.9,48.4 321.5,24.6 350.3,24.6 350.3,40.9 344.9,48.4 351.6,48.4 
		356.6,42.3 356.6,23 	"/>
	<polygon id="XMLID_5953_" class="st1" points="133.5,11.7 121.6,11.7 121.6,7.5 132.1,7.5 132.1,3.5 109,3.5 110.3,1.8 102.2,1.8 
		100.2,7.6 113.3,7.5 113.3,11.7 99.6,11.7 99.6,15.7 110.4,15.7 99.6,23.2 109.5,23.2 116.6,17.9 123.7,23.2 133.5,23.2 
		123.8,15.7 133.5,15.7 	"/>
	<path id="XMLID_5950_" class="st1" d="M104.6,76.4h-5l3-19.1h5L104.6,76.4z"/>
	<path id="XMLID_5947_" class="st1" d="M118.4,57.3h7c5.3,0,9,4.2,8.2,9.5c-0.9,5.4-5.9,9.5-11.2,9.5h-7L118.4,57.3z M121,72.2h1.1
		c3,0,5.7-1.6,6.3-5.3c0.5-3.4-1.4-5.3-4.6-5.3h-1.2L121,72.2z"/>
	<path id="XMLID_5945_" class="st1" d="M154.6,63.7c-0.8-1.4-2.3-2.1-4-2.1c-3,0-5.4,2.3-5.9,5.3c-0.5,3,1.3,5.2,4.3,5.2
		c1.6,0,3.4-0.8,4.6-2l-1,5.9c-1.7,0.5-3,0.9-4.5,0.9c-2.7,0-5-1-6.7-2.8c-1.8-1.9-2.4-4.4-1.9-7.2c0.4-2.6,1.8-5.1,3.9-7
		c2.2-1.9,5.1-3.1,7.8-3.1c1.6,0,3,0.4,4.4,1L154.6,63.7z"/>
	<path id="XMLID_31_" class="st1" d="M173.9,62.2c-0.8-0.8-1.9-1.3-3.1-1.3c-0.9,0-2.2,0.5-2.4,1.6c-0.2,1.1,1.1,1.5,1.9,1.8
		l1.2,0.4c2.5,0.8,4.4,2.1,3.9,5.2c-0.3,1.9-1.1,3.8-2.8,5.1c-1.7,1.3-3.8,1.8-5.7,1.8c-2.4,0-2.6-0.8-4.4-2.2l0.8-4
		c1.1,1.1,2.4,2,4.1,2c1.2,0,2.5-0.6,2.7-1.9c0.2-1.4-1.6-1.9-2.7-2.2c-3-0.9-4.9-1.7-4.3-5.4c0.6-3.9,3.8-6.4,7.6-6.4
		c1.9,0,4.2,0.6,5.7,1.6L173.9,62.2z"/>
	<path id="XMLID_40_" class="st1" d="M190.6,65L190.6,65c1.4-1.4,2.8-2,4.5-2c1.9,0,3.4,0.8,4,2.5c1.2-1.6,3-2.5,4.8-2.5
		c3.3,0,4.1,2.1,3.6,5.1l-1.3,8.3h-4.6l1-6.2c0.2-1.3,0.6-3.5-1.3-3.5c-2.1,0-2.5,2-2.8,3.5l-1,6.2h-4.6l1-6.2
		c0.2-1.4,0.6-3.6-1.5-3.6c-2.1,0-2.4,2.2-2.6,3.6l-1,6.2h-4.6l2-13h4.6L190.6,65z"/>
	<path id="XMLID_21_" class="st1" d="M230.9,76.4h-4.6l0.2-1.4h-0.1c-1,1.3-2.7,1.9-4.2,1.9c-3.8,0-6-3.2-5.4-6.9
		c0.6-3.7,3.7-6.9,7.6-6.9c1.5,0,3,0.6,3.7,1.7l0.2-1.3h4.6L230.9,76.4z M221.6,69.9c-0.3,1.6,0.6,2.9,2.5,2.9s3.2-1.3,3.4-2.9
		c0.3-1.6-0.6-2.9-2.5-2.9C223.1,67,221.8,68.3,221.6,69.9z"/>
	<path id="XMLID_35_" class="st1" d="M247.8,65.5L247.8,65.5c1.2-1.6,2.8-2.3,4.6-2.3h0.9l-0.7,4.4c-0.6-0.3-1.2-0.4-1.9-0.4
		c-2.6,0-3.4,1.7-3.8,3.9l-0.8,5.2h-4.6l2-13h4.6L247.8,65.5z"/>
	<path id="XMLID_17_" class="st1" d="M266,76.4h-4.6l1.4-9.2h-1.5l0.6-3.8h1.5l0.6-3.9h4.6l-0.6,3.9h2.6l-0.6,3.8h-2.6L266,76.4z"/>
	<path id="XMLID_27_" class="st1" d="M283.8,73.9c-0.3,1.6-1.8,3-3.4,3c-1.6,0-2.8-1.3-2.5-3c0.3-1.6,1.8-3,3.4-3
		C283,71,284.1,72.3,283.8,73.9z"/>
	<path id="XMLID_11_" class="st1" d="M304.6,67.6c-0.6-0.5-1.3-0.9-2.2-0.9c-1.8,0-3.4,1.4-3.7,3.2c-0.3,1.9,0.8,3.2,2.7,3.2
		c0.8,0,1.7-0.3,2.4-0.9l-0.6,3.9c-1.1,0.5-2.3,0.7-3.4,0.7c-3.8,0-6.6-2.9-6-6.8c0.7-4.2,4.3-7.1,8.4-7.1c1.1,0,2.1,0.3,2.9,0.8
		L304.6,67.6z"/>
	<path id="XMLID_13_" class="st1" d="M327.3,69.9c-0.7,4.4-4.8,6.9-8.9,6.9c-4.2,0-7.4-2.5-6.7-6.9c0.7-4.4,4.7-6.9,8.9-6.9
		C324.8,63,328,65.5,327.3,69.9z M316.6,69.9c-0.3,1.6,0.6,2.9,2.5,2.9c1.9,0,3.2-1.3,3.4-2.9c0.3-1.6-0.6-2.9-2.5-2.9
		C318.1,67,316.8,68.3,316.6,69.9z"/>
	<path id="XMLID_4_" class="st1" d="M340.3,65L340.3,65c1.4-1.4,2.8-2,4.5-2c1.9,0,3.4,0.8,4,2.5c1.2-1.6,3-2.5,4.8-2.5
		c3.3,0,4.1,2.1,3.6,5.1l-1.3,8.3h-4.6l1-6.2c0.2-1.3,0.6-3.5-1.3-3.5c-2.1,0-2.5,2-2.8,3.5l-1,6.2h-4.6l1-6.2
		c0.2-1.4,0.6-3.6-1.5-3.6c-2.1,0-2.4,2.2-2.6,3.6l-1,6.2h-4.6l2-13h4.6L340.3,65z"/>
</g>
</svg>
