<?xml version="1.0" encoding="UTF-8"?>
<svg width="151px" height="32px" viewBox="0 0 151 32" version="1.1" xmlns="http://www.w3.org/2000/svg" xmlns:xlink="http://www.w3.org/1999/xlink">
    <title>logo</title>
    <g id="页面-1" stroke="none" stroke-width="1" fill="none" fill-rule="evenodd">
        <g id="logo" fill="#333333" fill-rule="nonzero">
            <path d="M27.5719999,31.1840469 L21.411721,31.1840469 L21.411721,25.5577989 L25.9951367,25.5577989 L25.9951367,5.84490631 L1.88265177e-05,5.84490631 L1.88265177e-05,4.24701825 C-0.00109495911,3.18124809 0.421498525,2.15874705 1.17471779,1.40473907 C1.92793705,0.650731102 2.94999526,0.227068313 4.015766,0.227068313 L27.56359,0.227068313 C28.6293607,0.227068313 29.6514189,0.65073109 30.4046382,1.40473906 C31.1578575,2.15874704 31.580451,3.18124809 31.5793548,4.24701825 L31.5793548,27.155687 C31.5826853,28.2214571 31.1622327,29.2448458 30.4105901,30.000432 C29.6589475,30.7560181 28.6377729,31.1818202 27.5719999,31.1840469 L27.5719999,31.1840469 Z" id="路径"></path>
            <path d="M5.61365406,23.3333706 L1.18891089e-06,23.3333706 L1.18891089e-06,27.155687 C-0.00333152724,28.2229128 0.418274189,29.247577 1.17173614,30.0034059 C1.92519808,30.7592347 2.94853494,31.1840469 4.015766,31.1840469 L23.4721556,31.1840469 L23.4721556,25.5577989 L5.61365406,25.5577989 L5.61365406,23.3333706 Z M17.0217338,16.0209302 L22.6311618,16.0209302 L22.6311618,12.2028188 C22.6311618,11.1366618 22.2076326,10.1141718 21.4537458,9.3602849 C20.6998589,8.60639804 19.6773689,8.18286881 18.6112119,8.18286881 L2.103125e-05,8.18286881 L2.103125e-05,13.8007068 L17.0217338,13.8007068 L17.0217338,16.0209302 Z" id="形状"></path>
            <path d="M12.4214982,16.0209302 L5.26464169,16.0209302 L2.103125e-05,23.3333706 L3.216822,28.9470036 L12.4214982,16.0209302 Z M22.6395718,16.0209302 L17.7281685,13.0354026 L10.3568586,23.3333706 L17.3749512,23.3333706 L22.6395718,16.0209302 Z" id="形状"></path>
            <path d="M71.1312693,9.64199291 L74.6298031,9.64199291 L74.6298031,19.9567808 L71.1312693,19.9567808 L71.1312693,9.64199291 Z M77.5480513,19.1494268 L77.5480513,9.57050844 L89.7046154,9.57050844 L89.7046154,19.1494268 L77.5480513,19.1494268 Z M81.0465852,17.3370854 L86.2102866,17.3370854 L86.2102866,15.2346011 L81.0465852,15.2346011 L81.0465852,17.3370854 Z M81.0465852,13.4390795 L86.2102866,13.4390795 L86.2102866,11.3828499 L81.0465852,11.3828499 L81.0465852,13.4390795 Z M71.5055115,8.31322284 L70.1809464,5.96685041 L73.6668653,5.96685041 L74.9914304,8.31322284 L71.5055115,8.31322284 Z M90.8820066,4.65490019 L89.1369447,2.74584447 L87.4339324,2.74584447 L86.8914915,4.65490019 L83.2920384,4.65490019 L84.4736345,0.420496844 L88.0772926,0.420496844 L87.9343237,0.933503031 L96.2012918,0.933503031 L96.2012918,2.74584447 L92.6438884,2.74584447 L94.8262671,4.65490019 L90.8820066,4.65490019 Z M78.1703867,4.65490019 L76.4295297,2.74584447 L74.6718528,2.74584447 L74.1294119,4.65490019 L70.5467787,4.65490019 L71.7325798,0.420496844 L75.315213,0.420496844 L75.1722441,0.933503031 L83.0229204,0.933503031 L83.0229204,2.74584447 L79.9659082,2.74584447 L81.7067652,4.65490019 L78.1703867,4.65490019 Z M66.8674312,17.0469426 L66.8674312,14.179154 L50.1989358,14.179154 L50.1989358,15.9073961 L62.4900589,15.9073961 L62.4900589,18.0309052 L46.0990914,18.0309052 L46.0990914,12.5223964 L66.8674312,12.5223964 L66.8674312,10.7647195 L42.6005576,10.7647195 L42.6005576,19.7591473 L64.1510215,19.7591473 L66.8674312,17.0469426 Z M64.9667853,0.988167625 L57.3768171,0.988167625 L57.3768171,9.39810475 L67.8598037,9.39810475 L67.8598037,3.881186 L64.9667853,0.988167625 Z M64.3612699,7.57735334 L60.5179286,7.57735334 L60.5179286,2.82994384 L64.3612699,2.82994384 L64.3612699,7.57735334 Z M108.046688,7.71191234 L111.116315,7.71191234 L111.116315,4.75581944 L114.429831,4.75581944 L114.429831,3.82231644 L111.116315,3.82231644 L111.116315,3.14111153 L108.046688,3.14111153 L108.046688,3.82231644 L104.745788,3.82231644 L104.745788,4.75581944 L108.046688,4.75581944 L108.046688,7.71191234 Z" id="形状"></path>
            <polygon id="路径" points="125.514128 0.710639687 115.754396 0.710639687 114.875557 0 110.531825 0 111.406458 0.710639687 101.327149 0.710639687 101.10008 2.61969541 99.922689 20.0156504 102.466695 20.0156504 103.723981 1.95531037 125.514128 1.95531037 125.514128 0.710639687"></polygon>
            <polygon id="路径" points="117.886315 7.71191234 119.084731 5.46225416 117.453203 5.46225416 116.254787 7.71191234 117.886315 7.71191234"></polygon>
            <polygon id="路径" points="125.514128 3.82231644 121.914675 3.82231644 121.914675 3.14111153 118.845048 3.14111153 118.845048 3.82231644 115.687116 3.82231644 115.687116 4.75581944 118.845048 4.75581944 118.845048 7.71191234 121.914675 7.71191234 121.914675 4.75581944 125.514128 4.75581944"></polygon>
            <path d="M123.344364,7.71191234 L124.891792,7.71191234 L123.272879,5.46225416 L121.725451,5.46225416 L123.344364,7.71191234 L123.344364,7.71191234 Z M107.058521,7.71191234 L108.256937,5.46225416 L106.625409,5.46225416 L105.426993,7.71191234 L107.058521,7.71191234 L107.058521,7.71191234 Z M117.545712,18.9181536 L117.545712,16.9502283 L114.892377,16.9502283 L114.892377,20.0156504 L125.766426,20.0156504 L125.766426,18.9181536 L117.545712,18.9181536 L117.545712,18.9181536 Z" id="形状"></path>
            <path d="M121.847395,18.6322157 L122.759873,16.2564085 L120.493395,16.2564085 L119.559892,18.6322157 L121.847395,18.6322157 Z M123.314929,16.9964829 L123.861575,18.6322157 L125.421618,18.6322157 L124.870768,16.9964829 L123.314929,16.9964829 L123.314929,16.9964829 Z" id="形状"></path>
            <path d="M116.435601,15.4616694 L125.337519,15.4616694 L125.337519,9.21729109 L116.982246,9.21729109 L117.322849,8.47721663 L113.958874,8.47721663 L113.618272,9.21729109 L104.972856,9.21729109 L104.972856,15.4616694 L111.742856,15.4616694 L104.930807,20.0156504 L109.770725,20.0156504 M116.776203,10.0078252 L121.84319,10.0078252 L121.84319,12.0178002 L116.776203,12.0178002 L116.776203,10.0078252 Z M116.776203,13.0858622 L121.84319,13.0858622 L121.84319,14.7300049 L116.776203,14.7300049 L116.776203,13.0858622 Z M113.534172,14.7300049 L108.467185,14.7300049 L108.467185,13.1026821 L113.534172,13.1026821 L113.534172,14.7300049 Z M113.534172,12.0178002 L108.467185,12.0178002 L108.467185,10.0078252 L113.534172,10.0078252 L113.534172,12.0178002 Z M110.956527,5.46225416 L112.575439,7.71191234 L114.143893,7.71191234 L112.50816,5.46225416 L110.956527,5.46225416 L110.956527,5.46225416 Z M94.9271864,6.19391869 L77.6742004,6.19391869 L77.6742004,8.01046513 L93.5269318,8.01046513 L93.5269318,17.6776878 L91.7103854,19.9609858 L94.4982796,19.9609858 L96.2012918,17.7281475 L96.2012918,7.87170116 L94.9271864,6.19391869 Z M148.830678,7.35449003 L135.450468,7.35449003 L135.87517,4.46567663 L150.563125,4.46567663 L150.563125,2.22863334 L143.490368,2.22863334 L141.736896,0.391062063 L138.238363,0.391062063 L139.991834,2.22863334 L128.667854,2.22863334 L128.667854,4.46567663 L132.805543,4.46567663 L130.614755,19.9862156 L133.684382,19.9862156 L135.185555,10.0120302 L147.304275,10.0120302 L147.304275,16.8451041 L145.033592,19.9862156 L147.855126,19.9862156 L149.961815,17.4506195 L149.961815,9.32662028 L148.830678,7.35449003 L148.830678,7.35449003 Z M56.1321464,4.56239091 L51.1366437,4.56239091 L51.1366437,2.80471403 L55.5602707,2.80471403 L55.5602707,1.10170175 L45.8299734,1.10170175 L46.3808243,0.420496844 L42.9916196,0.420496844 L42.138011,2.83414881 L47.6339049,2.80471403 L47.6339049,4.56239091 L41.9025328,4.56239091 L41.9025328,6.23596838 L46.4144641,6.23596838 L41.9025328,9.39389978 L46.0318119,9.39389978 L49.0173396,7.1568565 L51.9986623,9.39389978 L56.1321464,9.39389978 L52.0575319,6.23596838 L56.1321464,6.23596838 L56.1321464,4.56239091 Z M43.9839922,31.7685375 L41.8815079,31.7685375 L43.1429985,23.7496624 L45.2454828,23.7496624 L43.9839922,31.7685375 Z M49.7868488,23.7496624 L52.7303268,23.7496624 C53.7605584,23.7046553 54.754517,24.1346612 55.4271071,24.9163422 C56.0996973,25.6980231 56.3766034,26.7450101 56.1784011,27.7569975 C55.7504955,30.0388971 53.7855939,31.7110791 51.4646313,31.7685375 L48.5211533,31.7685375 L49.7868488,23.7496624 Z M50.8843456,30.0024507 L51.3510972,30.0024507 C52.6936167,30.0739955 53.8614719,29.0918936 54.0212522,27.7569975 C54.2441155,26.3231032 53.4241467,25.5157493 52.0827617,25.5157493 L51.5949853,25.5157493 L50.8843456,30.0024507 Z M64.9962201,26.4408423 C64.6358782,25.8646548 63.993131,25.5272125 63.3142327,25.5577989 C62.0517541,25.5839388 60.9967775,26.5264559 60.8290963,27.7780223 C60.6356677,29.0395129 61.3589223,29.960401 62.6540527,29.960401 C63.3835164,29.9361801 64.0764904,29.6355407 64.5925432,29.1194073 L64.1720463,31.6129537 C63.5642661,31.8347722 62.9261532,31.9623948 62.2798104,31.9914008 C61.2146686,32.0070935 60.1909926,31.5790385 59.4540716,30.8098047 C58.7108069,29.9891411 58.4128317,28.8584036 58.6551275,27.7780223 C58.8440591,26.6364334 59.4237562,25.5959515 60.2950653,24.8345443 C61.195022,24.0294265 62.3510631,23.5690957 63.5581209,23.5352091 C64.1936645,23.5423763 64.8202794,23.6857664 65.3956922,23.9557059 L64.9962201,26.4408423 Z M73.1202194,25.814302 C72.7713918,25.4839277 72.3097359,25.2989646 71.8292941,25.2970909 C71.4466419,25.2970909 70.8915861,25.5199542 70.8285115,25.9698858 C70.765437,26.4198175 71.2868531,26.613246 71.6274556,26.7351901 L72.1362568,26.8949789 C73.2001138,27.2229665 73.978033,27.7864323 73.7635796,29.0857676 C73.6719941,29.9303278 73.2521571,30.705063 72.5945983,31.2429164 C71.8977237,31.7430024 71.0596724,32.0081153 70.2019712,31.9998108 C69.1927787,31.9998108 69.0960645,31.6592083 68.3644,31.0789227 L68.6797726,29.3969353 C69.1148435,29.9017809 69.7381332,30.2058247 70.4038097,30.2379289 C70.9298432,30.2866255 71.4124495,29.9434387 71.5391512,29.430575 C71.6358655,28.8460843 70.8495364,28.6400409 70.4248346,28.5096869 C69.163344,28.1396497 68.360195,27.7990472 68.6166981,26.2474138 C68.846079,24.6718639 70.2166125,23.5162098 71.8082692,23.5562339 C72.6523067,23.5644706 73.4797076,23.7919697 74.2093062,24.216414 L73.1202194,25.814302 Z M80.1425169,26.9790783 L80.1635417,26.9790783 C80.6282071,26.4352685 81.3111373,26.1269479 82.0263428,26.1380846 C82.7565189,26.0730067 83.4419334,26.4979637 83.7083302,27.1809168 C84.1777019,26.5329192 84.9266224,26.1459769 85.7267152,26.1380846 C87.1101498,26.1380846 87.4381374,27.0379479 87.2489138,28.2952335 L86.6980629,31.7727425 L84.7595724,31.7727425 L85.1800692,29.165662 C85.2641686,28.6021962 85.4365723,27.6771031 84.6166035,27.6771031 C83.7251501,27.6771031 83.5527464,28.5180968 83.4602371,29.165662 L83.0397402,31.7727425 L81.1012497,31.7727425 L81.5217466,29.165662 C81.6184609,28.5601465 81.7656348,27.6350534 80.9078212,27.6350534 C80.0500076,27.6350534 79.8944237,28.5601465 79.7977095,29.165662 L79.3772126,31.7727425 L77.4429271,31.7727425 L78.2839208,26.3062833 L80.2392312,26.3062833 L80.1425169,26.9790783 Z M97.1011551,31.7685375 L95.1668696,31.7685375 L95.2593789,31.1588171 L95.2383541,31.1588171 C94.7950517,31.6742395 94.1434596,31.9629782 93.4638573,31.9451462 C91.8449444,31.9451462 90.9408762,30.5953513 91.1763544,29.0353079 C91.3986297,27.4236381 92.7424272,26.2020041 94.3679256,26.1338796 C94.9764703,26.101169 95.562964,26.3661889 95.9405838,26.8445193 L96.0288882,26.3104883 L97.9631737,26.3104883 L97.1011551,31.7685375 Z M93.1779195,29.0437179 C93.0905232,29.3535917 93.1630603,29.6866392 93.3714074,29.9321008 C93.5797544,30.1775623 93.8965903,30.3032497 94.2165467,30.2673637 C94.9399158,30.2872015 95.5627032,29.7603668 95.6630559,29.0437179 C95.7421001,28.7317055 95.6649101,28.4007364 95.4559916,28.1558839 C95.2470731,27.9110314 94.9323782,27.7827115 94.6118137,27.8116621 C93.8917782,27.8026388 93.2774051,28.3305312 93.1779195,29.0437179 L93.1779195,29.0437179 Z M104.207552,27.2061466 L104.228577,27.2061466 C104.662886,26.5822756 105.381949,26.2187935 106.141838,26.2390038 L106.511875,26.2390038 L106.225937,28.0975999 C105.982183,27.962718 105.705071,27.9000034 105.426993,27.9167863 C104.354726,27.9167863 103.984689,28.631631 103.83331,29.565134 L103.484297,31.7685375 L101.550012,31.7685375 L102.391006,26.3020784 L104.329496,26.3020784 L104.207552,27.2061466 Z M111.85639,31.7685375 L109.917899,31.7685375 L110.515005,27.9041714 L109.88426,27.9041714 L110.140763,26.3104883 L110.767303,26.3104883 L111.036421,24.6747555 L112.970706,24.6747555 L112.705793,26.3104883 L113.799085,26.3104883 L113.546787,27.9041714 L112.44929,27.9041714 L111.85639,31.7685375 Z M119.345439,30.7341152 C119.226166,31.442599 118.625324,31.9696528 117.90734,31.9956058 C117.586887,32.0053499 117.279762,31.8671525 117.074519,31.6208603 C116.869275,31.374568 116.788727,31.0475574 116.856097,30.7341153 C116.984888,30.0309491 117.588025,29.513724 118.302607,29.4936495 C118.619217,29.4814061 118.923723,29.6161301 119.127613,29.8586604 C119.331503,30.1011908 119.411902,30.4243173 119.345439,30.7341153 L119.345439,30.7341152 Z M128.087568,28.08919 C127.832203,27.8540632 127.500992,27.7182967 127.154065,27.7065379 C126.386206,27.7185007 125.736709,28.2777404 125.610842,29.0353079 C125.526668,29.3753872 125.611901,29.735183 125.839695,30.0013588 C126.067488,30.2675345 126.409799,30.4073239 126.758798,30.3766929 C127.130813,30.3652274 127.489187,30.2339711 127.780606,30.0024507 L127.524103,31.6423884 C127.080636,31.8444564 126.59856,31.9477584 126.111233,31.9451945 C124.496525,31.9451945 123.335954,30.7467302 123.588252,29.0983825 C123.871805,27.3785986 125.364856,26.1210111 127.107811,26.1338796 C127.536659,26.1268259 127.959443,26.2357909 128.331457,26.4492523 L128.087568,28.08919 Z M137.641257,29.0437179 C137.342704,30.893904 135.643897,31.9451462 133.890425,31.9451462 C132.136953,31.9451462 130.774543,30.9065189 131.068891,29.0437179 C131.363239,27.1809168 133.062046,26.1338796 134.811313,26.1338796 C136.56058,26.1338796 137.927195,27.1851218 137.641257,29.0437179 L137.641257,29.0437179 Z M133.112506,29.0437179 C133.026927,29.354155 133.100759,29.6868255 133.309631,29.9319126 C133.518502,30.1769997 133.835259,30.3026419 134.155338,30.2673637 C134.878031,30.2852779 135.49971,29.7593811 135.601847,29.0437179 C135.679185,28.731169 135.600756,28.4005119 135.391286,28.1559914 C135.181816,27.9114709 134.867116,27.7832164 134.5464,27.8116621 C133.826365,27.8026388 133.211992,28.3305312 133.112506,29.0437179 L133.112506,29.0437179 Z M143.095101,26.9790783 C143.559767,26.4352685 144.242697,26.1269479 144.957902,26.1380846 C145.688078,26.0730067 146.373493,26.4979637 146.63989,27.1809168 C147.110138,26.531734 147.860901,26.1446466 148.66248,26.1380846 C150.041709,26.1380846 150.369697,27.0379479 150.180473,28.2952335 L149.629622,31.7727425 L147.695337,31.7727425 L148.115834,29.165662 C148.199933,28.6021962 148.372337,27.6771031 147.552368,27.6771031 C146.660915,27.6771031 146.488511,28.5180968 146.396002,29.165662 L145.975505,31.7727425 L144.041219,31.7727425 L144.461716,29.165662 C144.55843,28.5601465 144.705604,27.6350534 143.847791,27.6350534 C142.989977,27.6350534 142.834393,28.5601465 142.741884,29.165662 L142.321387,31.7727425 L140.387102,31.7727425 L141.228095,26.3062833 L143.166586,26.3062833 L143.095101,26.9790783 Z" id="形状"></path>
        </g>
    </g>
</svg>