<?xml version="1.0"?>
<svg xmlns="http://www.w3.org/2000/svg" xmlns:xlink="http://www.w3.org/1999/xlink" version="1.1" id="Capa_1" x="0px" y="0px" viewBox="0 0 512 512" style="enable-background:new 0 0 512 512;" xml:space="preserve" width="512px" height="512px" class=""><g><circle style="fill:#EBAA39;" cx="448" cy="64" r="24" data-original="#EBAA39"/><circle style="fill:#5E8DA7;" cx="368" cy="144" r="24" data-original="#5E8DA7"/><g>
	<circle style="fill:#EBAA39;" cx="40" cy="256" r="24" data-original="#EBAA39"/>
	<circle style="fill:#EBAA39;" cx="472" cy="256" r="24" data-original="#EBAA39"/>
	<circle style="fill:#EBAA39;" cx="256" cy="40" r="24" data-original="#EBAA39"/>
</g><circle style="fill:#C13D3D;" cx="256" cy="256" r="24" data-original="#C13D3D" class=""/><g>
	<circle style="fill:#5E8DA7;" cx="368" cy="256" r="24" data-original="#5E8DA7"/>
	<circle style="fill:#5E8DA7;" cx="144" cy="144" r="24" data-original="#5E8DA7"/>
</g><circle style="fill:#EBAA39;" cx="64" cy="64" r="24" data-original="#EBAA39"/><circle style="fill:#5E8DA7;" cx="256" cy="144" r="24" data-original="#5E8DA7"/><circle style="fill:#EBAA39;" cx="256" cy="472" r="24" data-original="#EBAA39"/><circle style="fill:#5E8DA7;" cx="256" cy="368" r="24" data-original="#5E8DA7"/><circle style="fill:#EBAA39;" cx="64" cy="448" r="24" data-original="#EBAA39"/><circle style="fill:#5E8DA7;" cx="144" cy="368" r="24" data-original="#5E8DA7"/><circle style="fill:#EBAA39;" cx="448" cy="448" r="24" data-original="#EBAA39"/><g>
	<circle style="fill:#5E8DA7;" cx="144" cy="256" r="24" data-original="#5E8DA7"/>
	<circle style="fill:#5E8DA7;" cx="368" cy="368" r="24" data-original="#5E8DA7"/>
</g><path style="fill:#031B4E" d="M328.808,264c3.72,18.232,19.88,32,39.192,32c19.312,0,35.472-13.768,39.192-32h25.616  c3.72,18.232,19.88,32,39.192,32c22.056,0,40-17.944,40-40s-17.944-40-40-40c-19.312,0-35.472,13.768-39.192,32h-25.616  c-3.72-18.232-19.88-32-39.192-32c-19.312,0-35.472,13.768-39.192,32h-33.616c-1.04-5.096-3.072-9.824-5.856-14.024l56.64-56.64  C352.304,181.528,359.864,184,368,184c22.056,0,40-17.944,40-40c0-8.136-2.472-15.696-6.664-22.024l24.64-24.64  C432.304,101.528,439.864,104,448,104c22.056,0,40-17.944,40-40s-17.944-40-40-40s-40,17.944-40,40  c0,8.136,2.472,15.696,6.664,22.024l-24.64,24.64C383.696,106.472,376.136,104,368,104c-22.056,0-40,17.944-40,40  c0,8.136,2.472,15.696,6.664,22.024l-56.64,56.64c-4.192-2.784-8.928-4.816-14.024-5.856v-33.616c18.232-3.72,32-19.872,32-39.192  c0-19.312-13.768-35.472-32-39.192V79.192c18.232-3.72,32-19.88,32-39.192c0-22.056-17.944-40-40-40s-40,17.944-40,40  c0,19.312,13.768,35.472,32,39.192v25.616c-18.232,3.72-32,19.872-32,39.192c0,19.312,13.768,35.472,32,39.192v33.616  c-5.096,1.04-9.832,3.072-14.024,5.856l-56.64-56.64C181.528,159.696,184,152.136,184,144c0-22.056-17.944-40-40-40  c-8.136,0-15.696,2.472-22.024,6.664l-24.64-24.64C101.528,79.696,104,72.136,104,64c0-22.056-17.944-40-40-40S24,41.944,24,64  s17.944,40,40,40c8.136,0,15.696-2.472,22.024-6.664l24.64,24.64C106.472,128.304,104,135.864,104,144c0,22.056,17.944,40,40,40  c8.136,0,15.696-2.472,22.024-6.664l56.64,56.64c-2.784,4.192-4.816,8.928-5.856,14.024h-33.616c-3.72-18.232-19.872-32-39.192-32  c-19.312,0-35.472,13.768-39.192,32H79.192c-3.72-18.232-19.88-32-39.192-32c-22.056,0-40,17.944-40,40s17.944,40,40,40  c19.312,0,35.472-13.768,39.192-32h25.616c3.72,18.232,19.872,32,39.192,32c19.312,0,35.472-13.768,39.192-32h33.616  c1.04,5.096,3.072,9.832,5.856,14.024l-56.64,56.64C159.696,330.472,152.136,328,144,328c-22.056,0-40,17.944-40,40  c0,8.136,2.472,15.696,6.664,22.024l-24.64,24.64C79.696,410.472,72.136,408,64,408c-22.056,0-40,17.944-40,40s17.944,40,40,40  s40-17.944,40-40c0-8.136-2.472-15.696-6.664-22.024l24.64-24.64C128.304,405.528,135.864,408,144,408c22.056,0,40-17.944,40-40  c0-8.136-2.472-15.696-6.664-22.024l56.64-56.64c4.192,2.784,8.928,4.816,14.024,5.856v33.616c-18.232,3.72-32,19.88-32,39.192  s13.768,35.472,32,39.192v25.616c-18.232,3.72-32,19.88-32,39.192c0,22.056,17.944,40,40,40s40-17.944,40-40  c0-19.312-13.768-35.472-32-39.192v-25.616c18.232-3.72,32-19.872,32-39.192c0-19.312-13.768-35.472-32-39.192v-33.616  c5.096-1.04,9.824-3.072,14.024-5.856l56.64,56.64C330.472,352.304,328,359.864,328,368c0,22.056,17.944,40,40,40  c8.136,0,15.696-2.472,22.024-6.664l24.64,24.64C410.472,432.304,408,439.864,408,448c0,22.056,17.944,40,40,40s40-17.944,40-40  s-17.944-40-40-40c-8.136,0-15.696,2.472-22.024,6.664l-24.64-24.64C405.528,383.696,408,376.136,408,368c0-22.056-17.944-40-40-40  c-8.136,0-15.696,2.472-22.024,6.664l-56.64-56.64c2.784-4.192,4.816-8.928,5.856-14.024H328.808z M472,232  c13.232,0,24,10.768,24,24s-10.768,24-24,24s-24-10.768-24-24S458.768,232,472,232z M368,232c13.232,0,24,10.768,24,24  s-10.768,24-24,24s-24-10.768-24-24S354.768,232,368,232z M40,280c-13.232,0-24-10.768-24-24s10.768-24,24-24s24,10.768,24,24  S53.232,280,40,280z M144,280c-13.232,0-24-10.768-24-24s10.768-24,24-24s24,10.768,24,24S157.232,280,144,280z M448,40  c13.232,0,24,10.768,24,24s-10.768,24-24,24s-24-10.768-24-24S434.768,40,448,40z M368,120c13.232,0,24,10.768,24,24  s-10.768,24-24,24s-24-10.768-24-24S354.768,120,368,120z M232,40c0-13.232,10.768-24,24-24s24,10.768,24,24s-10.768,24-24,24  S232,53.232,232,40z M232,144c0-13.232,10.768-24,24-24s24,10.768,24,24s-10.768,24-24,24S232,157.232,232,144z M64,88  c-13.232,0-24-10.768-24-24s10.768-24,24-24s24,10.768,24,24S77.232,88,64,88z M144,168c-13.232,0-24-10.768-24-24s10.768-24,24-24  s24,10.768,24,24S157.232,168,144,168z M64,472c-13.232,0-24-10.768-24-24s10.768-24,24-24s24,10.768,24,24S77.232,472,64,472z   M144,392c-13.232,0-24-10.768-24-24s10.768-24,24-24s24,10.768,24,24S157.232,392,144,392z M280,472c0,13.232-10.768,24-24,24  s-24-10.768-24-24s10.768-24,24-24S280,458.768,280,472z M280,368c0,13.232-10.768,24-24,24s-24-10.768-24-24s10.768-24,24-24  S280,354.768,280,368z M256,280c-13.232,0-24-10.768-24-24s10.768-24,24-24s24,10.768,24,24S269.232,280,256,280z M448,424  c13.232,0,24,10.768,24,24s-10.768,24-24,24s-24-10.768-24-24S434.768,424,448,424z M368,344c13.232,0,24,10.768,24,24  s-10.768,24-24,24s-24-10.768-24-24S354.768,344,368,344z" data-original="#1F2933" class="active-path" data-old_color="#031b4e"/></g> </svg>
