<?xml version="1.0"?>
<svg xmlns="http://www.w3.org/2000/svg" xmlns:xlink="http://www.w3.org/1999/xlink" version="1.1" id="Capa_1" x="0px" y="0px" viewBox="0 0 512 512" style="enable-background:new 0 0 512 512;" xml:space="preserve" width="512px" height="512px" class=""><g><path style="fill:#C13D3D;" d="M315.312,233.068H495.84c-1.864-47.768-20.416-92.56-52.872-127.656L315.312,233.068z" data-original="#C13D3D" class=""/><path style="fill:#5E8DA7;" d="M208,440.908v-199.84c0-0.984,0.184-1.952,0.536-2.872l71.736-186.512  c-20.696-7.056-42.28-10.616-64.272-10.616c-110.28,0-200,89.72-200,200C16,348.668,101.416,436.692,208,440.908z" data-original="#5E8DA7"/><path style="fill:#F5EFE6;" d="M351.208,25.42L293,176.756L407.648,62.1C391,46.7,372.064,34.396,351.208,25.42z" data-original="#F5EFE6"/><path style="fill:#EBAA39;" d="M272,297.068v191.848c103.936-4.112,187.736-87.912,191.84-191.848H272z" data-original="#EBAA39"/><g>
	<path style="fill:#031B4E" d="M472,281.068H264c-4.416,0-8,3.576-8,8v208c0,4.424,3.584,8,8,8c119.104,0,216-96.896,216-216   C480,284.644,476.416,281.068,472,281.068z M272,488.908v-191.84h191.84C459.736,400.996,375.936,484.804,272,488.908z" data-original="#1F2933" class="active-path" data-old_color="#031b4e"/>
	<path style="fill:#031B4E" d="M448.736,88.332c-3.128-3.128-8.184-3.128-11.312,0l-147.08,147.08   c-2.288,2.288-2.976,5.728-1.736,8.72c1.24,2.992,4.152,4.936,7.392,4.936h208c4.416,0,8-3.576,8-8   C512,183.372,489.528,129.132,448.736,88.332z M315.312,233.068l127.656-127.656c32.456,35.096,51.008,79.888,52.872,127.656   H315.312z" data-original="#1F2933" class="active-path" data-old_color="#031b4e"/>
	<path style="fill:#031B4E" d="M293.544,39.468c-24.808-9.552-50.896-14.4-77.544-14.4c-119.104,0-216,96.896-216,216   s96.896,216,216,216c4.416,0,8-3.576,8-8v-206.52l74.136-192.736C299.72,45.684,297.664,41.06,293.544,39.468z M208.536,238.196   c-0.36,0.92-0.536,1.888-0.536,2.872v199.848c-106.584-4.224-192-92.248-192-199.848c0-110.28,89.72-200,200-200   c21.992,0,43.576,3.56,64.272,10.608L208.536,238.196z" data-original="#1F2933" class="active-path" data-old_color="#031b4e"/>
	<path style="fill:#031B4E" d="M267.64,215.78c1.336,0.864,2.848,1.288,4.352,1.288c2.064,0,4.12-0.8,5.664-2.344l147.08-147.08   c3.128-3.128,3.128-8.184,0-11.312c-21.496-21.496-46.792-37.936-75.192-48.864c-1.984-0.76-4.184-0.712-6.12,0.152   s-3.456,2.464-4.216,4.44l-74.664,194.136C263.176,209.724,264.472,213.716,267.64,215.78z M351.208,25.42   C372.064,34.396,391,46.7,407.656,62.1L293,176.756L351.208,25.42z" data-original="#1F2933" class="active-path" data-old_color="#031b4e"/>
</g></g> </svg>
