<?xml version="1.0"?>
<svg xmlns="http://www.w3.org/2000/svg" xmlns:xlink="http://www.w3.org/1999/xlink" version="1.1" id="Capa_1" x="0px" y="0px" viewBox="0 0 512 512" style="enable-background:new 0 0 512 512;" xml:space="preserve" width="512px" height="512px" class=""><g><g>
	<path style="fill:#F5EFE6;" d="M197.267,384.914c-3.424-4.163-5.561-9.419-5.561-15.222v-85.077l-29.792-29.792   c-1.511-1.503-2.355-3.552-2.355-5.682v-12.746l-24.11,24.11v44.894c0,2.13-0.852,4.179-2.355,5.682l-10.392,10.392l69.004,69.004   L197.267,384.914z" data-original="#F5EFE6"/>
	<path style="fill:#F5EFE6;" d="M304.221,337.545c0,4.428,3.609,8.037,8.037,8.037s8.037-3.609,8.037-8.037V180.137l-13.719-13.719   c-1.511-1.503-2.355-3.552-2.355-5.682v-16.074h-96.442v16.074c0,2.13-0.852,4.179-2.355,5.682l-29.792,29.792v12.746v16.074   v20.783l16.074,16.074v-20.783h16.074v128.589c0,4.428,3.609,8.037,8.037,8.037c4.428,0,8.037-3.609,8.037-8.037V257.177h16.074   v112.515v16.074c0,4.428,3.609,8.037,8.037,8.037c4.428,0,8.037-3.609,8.037-8.037v-8.037V257.177h16.074v120.552   c0,4.428,3.609,8.037,8.037,8.037c4.428,0,8.037-3.609,8.037-8.037v-40.184v-80.368h16.074V337.545z" data-original="#F5EFE6"/>
	<path style="fill:#F5EFE6;" d="M346.414,360.354l35.105-38.617L370.87,311.08c-1.511-1.503-2.355-3.552-2.355-5.682v-20.783   l-32.147-32.147v85.077c0,13.293-10.818,24.11-24.11,24.11c-2.829,0-5.513-0.579-8.037-1.479v17.552   c0,3.721-0.916,7.201-2.427,10.343c0.024,0.016,0.048,0.024,0.072,0.048l9.837,9.837L346.414,360.354z" data-original="#F5EFE6"/>
</g><g>
	<path style="fill:#5E8DA7;" d="M312.258,96.442V0H199.742v96.442H312.258z M280.11,64.294h16.074v16.074H280.11V64.294z" data-original="#5E8DA7"/>
	<rect x="199.742" y="112.515" style="fill:#5E8DA7;" width="112.515" height="16.074" data-original="#5E8DA7"/>
</g><g>
	<path style="fill:#C13D3D;" d="M79.191,348.909l-66.649,66.649l85.077,85.077l66.649-66.649L79.191,348.909z M105.656,431.632   l11.364-11.364l16.074,16.074l-11.364,11.364L105.656,431.632z" data-original="#C13D3D"/>
	<polygon style="fill:#C13D3D;" points="188.378,409.876 186.024,407.522 105.656,327.154 103.301,324.799 90.555,337.545    175.632,422.623  " data-original="#C13D3D"/>
</g><g>
	<path style="fill:#EBAA39;" d="M367.985,410.913l-28.507,30.885l58.829,58.837l-5.682,5.682l106.15-83.406l-73.77-73.77   L367.985,410.913z M438.491,391.448l-16.074,16.074l-11.364-11.364l16.074-16.074L438.491,391.448z" data-original="#EBAA39"/>
	<path style="fill:#EBAA39;" d="M358.437,371.027l-40.232,44.259c-0.547,0.603-1.246,1.021-1.937,1.431l-0.9,0.972l12.73,12.738   l57.021-61.771l28.507-30.885l-12.73-12.738L358.437,371.027z" data-original="#EBAA39"/>
</g><g>
	<rect x="280.11" y="64.294" style="fill:#031B4E" width="16.074" height="16.074" data-original="#1F2933" class="active-path" data-old_color="#031b4e"/>
	
		<rect x="111.336" y="422.656" transform="matrix(-0.7071 0.7071 -0.7071 -0.7071 510.6794 656.5089)" style="fill:#031B4E" width="16.073" height="22.728" data-original="#1F2933" class="active-path" data-old_color="#031b4e"/>
	<path style="fill:#031B4E" d="M430.455,331.863l-24.11-24.11c-1.543-1.551-3.761-2.491-5.843-2.355   c-2.186,0.048-4.259,0.98-5.746,2.588l-2.041,2.21l-8.125-8.125v-20.783c0-2.13-0.852-4.171-2.355-5.682l-45.866-45.866v-52.93   c0-2.13-0.852-4.171-2.355-5.682l-13.719-13.719v-12.746c4.436,0,8.037-3.6,8.037-8.037v-32.147V0h-8.037h-8.037v96.442H199.742V0   h-8.037h-8.037v104.478v32.147c0,4.436,3.6,8.037,8.037,8.037v12.746l-29.792,29.792c-1.511,1.511-2.355,3.552-2.355,5.682v20.783   l-37.829,37.829c-1.511,1.511-2.355,3.552-2.355,5.682v44.894l-8.037,8.037l-2.355-2.355c-3.142-3.142-8.222-3.142-11.364,0   l-24.11,24.11L1.177,404.194l5.682,5.682l5.682,5.682l66.649-66.649l85.077,85.077l-66.649,66.649l5.682,5.682l5.682,5.682   l72.331-72.331l24.11-24.11c3.142-3.142,3.142-8.222,0-11.364l-2.355-2.355l8.471-8.471c1.39,0.257,2.813,0.434,4.276,0.434   c3.175,0,6.188-0.651,8.969-1.768c2.781,10.247,12.063,17.842,23.178,17.842c8.559,0,16.049-4.517,20.325-11.26   c3.512,1.993,7.506,3.223,11.822,3.223h12.746l7.94,7.94l-2.475,2.684c-2.925,3.167-2.829,8.085,0.225,11.131l24.11,24.11   L386.952,512l5.674-5.682l5.682-5.682l-58.829-58.837l28.507-30.885l57.021-61.771l73.77,73.77l0.683,0.683l11.364-11.364   L430.455,331.863z M199.742,112.515h112.515v16.074H199.742V112.515z M133.093,311.08c1.511-1.503,2.355-3.552,2.355-5.682v-44.894   l24.11-24.11v12.746c0,2.13,0.844,4.179,2.355,5.682l29.792,29.792v85.077c0,5.803,2.138,11.051,5.561,15.222l-5.561,5.561   l-69.004-69.004L133.093,311.08z M90.555,337.545l12.746-12.746l2.355,2.355l80.368,80.368l2.355,2.355l-12.746,12.746   L90.555,337.545z M288.147,257.177v80.368v40.184c0,4.428-3.609,8.037-8.037,8.037c-4.428,0-8.037-3.609-8.037-8.037V257.177H256   v120.552v8.037c0,4.428-3.609,8.037-8.037,8.037c-4.428,0-8.037-3.609-8.037-8.037v-16.074V257.177h-16.074v112.515   c0,4.428-3.609,8.037-8.037,8.037c-4.428,0-8.037-3.609-8.037-8.037V241.104h-16.074v20.783l-16.074-16.074V225.03v-16.074V196.21   l29.792-29.792c1.511-1.503,2.355-3.552,2.355-5.682v-16.074h96.442v16.074c0,2.13,0.844,4.179,2.355,5.682l13.719,13.719v157.409   c0,4.428-3.609,8.037-8.037,8.037s-8.037-3.609-8.037-8.037v-80.368H288.147z M301.794,388.073c1.511-3.15,2.427-6.63,2.427-10.343   v-17.552c2.524,0.9,5.208,1.479,8.037,1.479c13.293,0,24.11-10.818,24.11-24.11v-85.078l32.147,32.147v20.783   c0,2.13,0.844,4.179,2.355,5.682l10.657,10.657l-35.105,38.617l-34.711,37.604l-9.837-9.837   C301.842,388.105,301.818,388.097,301.794,388.073z M385.119,368.656l-57.021,61.771l-12.73-12.738l0.9-0.972   c0.691-0.41,1.39-0.828,1.937-1.431l40.232-44.259l42.458-45.995l12.73,12.738L385.119,368.656z" data-original="#1F2933" class="active-path" data-old_color="#031b4e"/>
	
		<rect x="413.384" y="385.781" transform="matrix(-0.7071 0.7071 -0.7071 -0.7071 1003.5612 371.9477)" style="fill:#031B4E" width="22.728" height="16.073" data-original="#1F2933" class="active-path" data-old_color="#031b4e"/>
	<path style="fill:#031B4E" d="M256,474.171c-26.843,0-52.89-5.2-77.426-15.463l-6.204,14.836   c26.513,11.083,54.65,16.7,83.631,16.7c22.792,0,45.255-3.52,66.762-10.464l-4.935-15.302   C297.92,470.908,277.113,474.171,256,474.171z" data-original="#1F2933" class="active-path" data-old_color="#031b4e"/>
	<path style="fill:#031B4E" d="M456.92,273.251c0,18.83-2.596,37.46-7.723,55.374l15.455,4.428   c5.537-19.353,8.35-39.477,8.35-59.794c0-83.912-49.137-161.114-125.181-196.668l-6.807,14.563   C411.415,124.072,456.92,195.551,456.92,273.251z" data-original="#1F2933" class="active-path" data-old_color="#031b4e"/>
	<path style="fill:#031B4E" d="M62.442,327.347c-4.886-17.52-7.362-35.724-7.362-54.096c0-77.7,45.504-149.179,115.915-182.106   l-6.807-14.563C88.144,112.137,39.007,189.339,39.007,273.251c0,19.835,2.676,39.485,7.956,58.411L62.442,327.347z" data-original="#1F2933" class="active-path" data-old_color="#031b4e"/>
</g></g> </svg>
