<?xml version="1.0"?>
<svg xmlns="http://www.w3.org/2000/svg" xmlns:xlink="http://www.w3.org/1999/xlink" version="1.1" id="Capa_1" x="0px" y="0px" viewBox="0 0 512 512" style="enable-background:new 0 0 512 512;" xml:space="preserve" width="512px" height="512px" class=""><g><circle style="fill:#5E8DA7;" cx="252.001" cy="72" r="56" data-original="#5E8DA7" class=""/><polygon style="fill:#EBAA39;" points="25.681,400 142.321,400 84.001,296.32 " data-original="#EBAA39" class=""/><rect x="380.001" y="288" style="fill:#C13D3D;" width="112" height="112" data-original="#C13D3D" class=""/><g>
	<path style="fill:#031B4E" d="M252.001,144c39.704,0,72-32.304,72-72s-32.296-72-72-72s-72,32.304-72,72S212.297,144,252.001,144z    M252.001,16c30.872,0,56,25.12,56,56s-25.128,56-56,56s-56-25.12-56-56S221.129,16,252.001,16z" data-original="#1F2933" class="active-path" data-old_color="#031b4e"/>
	<path style="fill:#031B4E" d="M162.905,412.04c1.44-2.456,1.464-5.488,0.064-7.96l-72-128c-2.824-5.04-11.112-5.04-13.936,0   l-72,128c-1.4,2.472-1.376,5.504,0.064,7.96c1.44,2.456,4.064,3.96,6.904,3.96h144C158.849,416,161.473,414.496,162.905,412.04z    M25.681,400l58.32-103.68L142.321,400H25.681z" data-original="#1F2933" class="active-path" data-old_color="#031b4e"/>
	<path style="fill:#031B4E" d="M500.001,272h-128c-4.424,0-8,3.584-8,8v128c0,4.416,3.576,8,8,8h128c4.424,0,8-3.584,8-8V280   C508.001,275.584,504.425,272,500.001,272z M492.001,400h-112V288h112V400z" data-original="#1F2933" class="active-path" data-old_color="#031b4e"/>
	<path style="fill:#031B4E" d="M252.001,456c-37.144,0-73.176-10.624-104.2-30.712l-8.704,13.432   C172.729,460.496,211.769,472,252.001,472c41.76,0,82.04-12.328,116.48-35.648l-8.968-13.248   C327.729,444.624,290.553,456,252.001,456z" data-original="#1F2933" class="active-path" data-old_color="#031b4e"/>
	<path style="fill:#031B4E" d="M443.857,256.312l15.984-0.624c-3-76.384-47.576-144.784-116.32-178.52l-7.048,14.368   C399.929,122.672,441.081,185.816,443.857,256.312z" data-original="#1F2933" class="active-path" data-old_color="#031b4e"/>
	<path style="fill:#031B4E" d="M60.609,279.368c-0.4-5.048-0.608-10.216-0.608-15.368c0-73.832,41.2-139.92,107.52-172.464   l-7.04-14.368C88.633,112.432,44.001,184.016,44.001,264c0,5.576,0.216,11.176,0.656,16.64L60.609,279.368z" data-original="#1F2933" class="active-path" data-old_color="#031b4e"/>
	<path style="fill:#031B4E" d="M134.345,58.344l11.312,11.312l24-24c3.128-3.128,3.128-8.184,0-11.312l-24-24l-11.312,11.312   L144.689,32H92.001v16h52.688L134.345,58.344z" data-original="#1F2933" class="active-path" data-old_color="#031b4e"/>
	<path style="fill:#031B4E" d="M476.001,184c2.048,0,4.096-0.784,5.656-2.344l24-24l-11.312-11.312l-10.344,10.344V104h-16v52.688   l-10.344-10.344l-11.312,11.312l24,24C471.905,183.216,473.953,184,476.001,184z" data-original="#1F2933" class="active-path" data-old_color="#031b4e"/>
	<path style="fill:#031B4E" d="M78.345,434.344l-24,24l11.312,11.312l10.344-10.344V512h16v-52.688l10.344,10.344l11.312-11.312   l-24-24C86.537,431.216,81.473,431.216,78.345,434.344z" data-original="#1F2933" class="active-path" data-old_color="#031b4e"/>
	<path style="fill:#031B4E" d="M324.001,256c0-25.624-13.792-49.52-35.992-62.36l-8.016,13.848   c17.272,9.992,28.008,28.576,28.008,48.512c0,26.096-17.968,48.008-42.152,54.2l9.312-18.616l-14.312-7.16l-16,32   c-1.536,3.08-0.936,6.8,1.504,9.232l24,24l11.312-11.312l-12.496-12.496C300.593,318.12,324.001,289.776,324.001,256z" data-original="#1F2933" class="active-path" data-old_color="#031b4e"/>
	<path style="fill:#031B4E" d="M216.017,318.376l8-13.848c-17.28-9.992-28.016-28.584-28.016-48.528   c0-26.088,17.96-48.008,42.152-54.192l-9.312,18.616l14.312,7.16l16-32c1.536-3.08,0.936-6.8-1.496-9.232l-24-24l-11.312,11.312   l12.496,12.496c-31.424,7.72-54.84,36.064-54.84,69.84C180.001,281.64,193.801,305.536,216.017,318.376z" data-original="#1F2933" class="active-path" data-old_color="#031b4e"/>
</g></g> </svg>
