<?xml version="1.0"?>
<svg xmlns="http://www.w3.org/2000/svg" xmlns:xlink="http://www.w3.org/1999/xlink" version="1.1" id="Capa_1" x="0px" y="0px" viewBox="0 0 512 512" style="enable-background:new 0 0 512 512;" xml:space="preserve" width="512px" height="512px" class=""><g><path style="fill:#C13D3D;" d="M312,287.826l6.984,76.688c4.28-0.704,8.48-0.656,11.344-0.32c5.144,0.6,9.648,2.24,14.016,3.832  l2.28,0.824c9.472,3.36,19.336,5.624,29.32,6.728c5.128,0.56,6.04-0.264,6.08-0.304c0.088-0.088,0.432-0.52,1.024-2.208  c1.536-4.376,2.2-9.144,1.936-13.776c-1.744-29.544-11.864-56.576-30.096-80.32c-5.184-6.752-11.176-13.344-16.968-19.712  c-9.232-10.144-18.624-20.608-25.92-32.672L312,287.826L312,287.826z" data-original="#C13D3D"/><path style="fill:#5E8DA7;" d="M216,215.826v72l-15.24,168h32.04l15.248-144.832c0.432-4.072,3.864-7.168,7.96-7.168  c4.096,0,7.528,3.088,7.96,7.168L279.2,455.826h32.032l-15.208-167.272L296,215.826c0-3.032,1.712-5.8,4.424-7.152l62.84-31.416  l49.424-49.424L392,107.138l-50.344,50.344c-0.808,0.808-1.776,1.432-2.848,1.84l-51.416,19.28l0.096,0.04l-24,64  c-1.176,3.12-4.16,5.192-7.496,5.192s-6.32-2.072-7.496-5.192l-24-64l0.096-0.04l-51.416-19.28c-1.072-0.4-2.04-1.024-2.848-1.84  L120,107.138l-20.688,20.688l49.424,49.424l62.84,31.416C214.288,210.018,216,212.794,216,215.826z" data-original="#5E8DA7"/><g>
	<path style="fill:#C13D3D;" d="M200.032,287.106L200,220.77l-0.528-0.264c-3.072,26.648-18.08,53.656-30.504,75.968l-3.296,5.928   c-10.264,18.568-18.968,37.976-26.008,57.976c1.04-0.744,2.104-1.472,3.168-2.176c4.384-2.888,10.288-6.336,17.2-6   c8.816,0.24,15.184,5.776,20.288,10.216c1.336,1.168,2.664,2.328,4.024,3.368c3.232,2.472,4.544,2.872,8.288,2.624L200.032,287.106   z" data-original="#C13D3D"/>
	<polygon style="fill:#C13D3D;" points="268.456,183.826 243.544,183.826 256,217.034  " data-original="#C13D3D"/>
</g><circle style="fill:#F5EFE6;" cx="256" cy="103.826" r="32" data-original="#F5EFE6"/><g>
	<path style="fill:#EBAA39;" d="M256,55.826c9.68,0,18.68,2.904,26.224,7.848l3.32-23.264l-9.112,6.072   c-1.904,1.272-4.264,1.672-6.488,1.072c-2.216-0.584-4.072-2.104-5.104-4.152L256,25.706l-8.848,17.688   c-1.024,2.048-2.888,3.568-5.104,4.152c-2.224,0.584-4.584,0.2-6.488-1.072l-9.112-6.072l3.32,23.264   C237.32,58.722,246.32,55.826,256,55.826z" data-original="#EBAA39"/>
	<polygon style="fill:#EBAA39;" points="320,471.826 272,471.826 240,471.826 192,471.826 176,471.826 176,503.826 344,503.826    344,471.826  " data-original="#EBAA39"/>
</g><g>
	<path style="fill:#031B4E" d="M256,151.826c26.472,0,48-21.528,48-48c0-9.544-2.832-18.416-7.648-25.896l7.568-52.968   c0.448-3.128-0.984-6.216-3.648-7.904c-2.664-1.672-6.064-1.64-8.704,0.112l-16.464,10.976L263.16,4.25   c-2.712-5.424-11.6-5.424-14.312,0l-11.944,23.896L220.44,17.17c-2.632-1.76-6.04-1.792-8.704-0.112   c-2.664,1.688-4.104,4.776-3.648,7.904l7.568,52.968C210.832,85.402,208,94.282,208,103.826   C208,130.29,229.528,151.826,256,151.826z M235.56,46.482c1.912,1.28,4.272,1.664,6.488,1.072c2.216-0.584,4.072-2.104,5.104-4.152   L256,25.706l8.84,17.688c1.024,2.048,2.888,3.568,5.104,4.152c2.232,0.6,4.584,0.192,6.488-1.072l9.112-6.072l-3.32,23.264   c-7.544-4.944-16.544-7.84-26.224-7.84s-18.68,2.904-26.224,7.848l-3.32-23.264L235.56,46.482z M256,71.826   c17.648,0,32,14.352,32,32s-14.352,32-32,32s-32-14.352-32-32S238.352,71.826,256,71.826z" data-original="#1F2933" class="active-path" data-old_color="#031b4e"/>
	<path style="fill:#031B4E" d="M360,463.826c0-4.416-3.584-8-8-8h-24.696l-6.856-75.264c2.2-0.488,5.192-0.8,8.04-0.472   c3.272,0.384,6.72,1.64,10.384,2.976l2.408,0.872c10.632,3.776,21.696,6.312,32.912,7.552c1.104,0.12,2.784,0.304,4.768,0.304   c4.288,0,9.984-0.864,14.288-5.104c2.688-2.648,4.032-5.84,4.904-8.328c2.232-6.352,3.2-13.28,2.8-20.008   c-1.928-32.808-13.16-62.792-33.368-89.128c-5.592-7.288-11.816-14.128-17.832-20.736c-10-11-19.344-21.568-25.912-33.64   l47.736-23.872c0.768-0.384,1.472-0.888,2.08-1.504l56-56c3.128-3.128,3.128-8.184,0-11.312l-32-32   c-3.128-3.128-8.184-3.128-11.312,0l-54.776,54.776l-61.024,22.88H241.44l-61.024-22.88L125.64,90.162   c-3.128-3.128-8.184-3.128-11.312,0l-32,32c-3.128,3.128-3.128,8.184,0,11.312l56,56c0.608,0.608,1.304,1.112,2.08,1.504   l43.448,21.72c-0.624,24.96-15.496,51.968-28.872,75.992l-3.32,5.968c-15.928,28.8-28.24,59.544-36.616,91.376   c-0.976,3.712,0.824,7.592,4.288,9.248c1.112,0.528,2.288,0.784,3.448,0.784c2.48,0,4.896-1.152,6.44-3.256   c6.184-8.384,13.72-15.536,22.408-21.256c2.432-1.6,5.144-3.392,7.968-3.368c3.08,0.08,6.544,3.104,10.216,6.296   c1.592,1.384,3.192,2.768,4.816,4.016c6.432,4.92,11.496,5.992,16.544,5.96l-6.488,71.36H168c-4.416,0-8,3.584-8,8v32H0v16h168   c4.416,0,8-3.584,8-8v-32h16h48h32h48h24v32c0,4.416,3.584,8,8,8h160v-16H360V463.826z M248.888,455.826L256,388.242l7.112,67.576   h-14.224V455.826z M337.92,259.258c5.792,6.368,11.784,12.96,16.968,19.712c18.232,23.744,28.352,50.776,30.096,80.32   c0.272,4.64-0.392,9.4-1.936,13.776c-0.592,1.688-0.936,2.12-1.024,2.208c-0.04,0.032-0.96,0.864-6.08,0.304   c-9.984-1.104-19.848-3.368-29.32-6.728l-2.28-0.824c-4.368-1.592-8.872-3.232-14.016-3.832c-2.872-0.336-7.064-0.384-11.344,0.32   L312,287.826v-61.248C319.288,238.642,328.688,249.114,337.92,259.258z M268.456,183.826L256,217.034l-12.456-33.216h24.912   V183.826z M148.736,177.25l-49.424-49.424L120,107.138l50.344,50.344c0.808,0.808,1.776,1.432,2.848,1.84l51.416,19.28l-0.096,0.04   l24,64c1.176,3.12,4.16,5.192,7.496,5.192c3.336,0,6.32-2.072,7.496-5.192l24-64l-0.096-0.04l51.416-19.28   c1.072-0.4,2.04-1.024,2.848-1.84L392,107.138l20.688,20.688l-49.424,49.424l-62.84,31.416c-2.712,1.352-4.424,4.128-4.424,7.16   l0.032,72.728l15.208,167.272H279.2l-15.248-144.832c-0.432-4.072-3.864-7.168-7.96-7.168s-7.528,3.088-7.96,7.168L232.8,455.826   h-32.04l15.24-168v-72c0-3.032-1.712-5.8-4.424-7.152L148.736,177.25z M184.352,365.786c-1.36-1.04-2.688-2.208-4.024-3.368   c-5.112-4.448-11.472-9.976-20.288-10.216c-6.912-0.328-12.816,3.112-17.2,6c-1.072,0.704-2.128,1.432-3.168,2.176   c7.04-20,15.752-39.408,26.008-57.976l3.296-5.928c12.432-22.312,27.44-49.32,30.504-75.968l0.52,0.264l0.024,66.336l-7.384,81.304   C188.896,368.658,187.584,368.258,184.352,365.786z" data-original="#1F2933" class="active-path" data-old_color="#031b4e"/>
	<path style="fill:#031B4E" d="M472,199.826v-16c-39.696,0-72,32.304-72,72h16C416,224.946,441.12,199.826,472,199.826z" data-original="#1F2933" class="active-path" data-old_color="#031b4e"/>
	<path style="fill:#031B4E" d="M88,479.826h16c0-125.608-45.68-224-104-224v16C47.696,271.826,88,367.074,88,479.826z" data-original="#1F2933" class="active-path" data-old_color="#031b4e"/>
	<path style="fill:#031B4E" d="M64,183.826v16c30.88,0,56,28.712,56,64h16C136,219.706,103.696,183.826,64,183.826z" data-original="#1F2933" class="active-path" data-old_color="#031b4e"/>
	<path style="fill:#031B4E" d="M416,447.826h16c0-74.992,35.888-136,80-136v-16C458.168,295.826,416,362.586,416,447.826z" data-original="#1F2933" class="active-path" data-old_color="#031b4e"/>
	<path style="fill:#031B4E" d="M504,231.826v-16c-39.696,0-72,28.712-72,64h16C448,253.354,473.12,231.826,504,231.826z" data-original="#1F2933" class="active-path" data-old_color="#031b4e"/>
	<path style="fill:#031B4E" d="M32,463.826h16c0-26.472-21.528-48-48-48v16C17.648,431.826,32,446.178,32,463.826z" data-original="#1F2933" class="active-path" data-old_color="#031b4e"/>
	<rect x="456" y="23.826" style="fill:#031B4E" width="16" height="16" data-original="#1F2933" class="active-path" data-old_color="#031b4e"/>
	<rect x="360" y="215.826" style="fill:#031B4E" width="16" height="16" data-original="#1F2933" class="active-path" data-old_color="#031b4e"/>
	<rect x="440" y="71.826" style="fill:#031B4E" width="16" height="16" data-original="#1F2933" class="active-path" data-old_color="#031b4e"/>
	<rect x="488" y="71.826" style="fill:#031B4E" width="16" height="16" data-original="#1F2933" class="active-path" data-old_color="#031b4e"/>
	<rect x="472" y="143.826" style="fill:#031B4E" width="16" height="16" data-original="#1F2933" class="active-path" data-old_color="#031b4e"/>
	<rect x="488" y="183.826" style="fill:#031B4E" width="16" height="16" data-original="#1F2933" class="active-path" data-old_color="#031b4e"/>
	<rect x="472" y="415.826" style="fill:#031B4E" width="16" height="16" data-original="#1F2933" class="active-path" data-old_color="#031b4e"/>
	<rect x="416" y="303.826" style="fill:#031B4E" width="16" height="16" data-original="#1F2933" class="active-path" data-old_color="#031b4e"/>
	<rect x="416" y="463.826" style="fill:#031B4E" width="16" height="16" data-original="#1F2933" class="active-path" data-old_color="#031b4e"/>
	<rect x="376" y="39.826" style="fill:#031B4E" width="16" height="16" data-original="#1F2933" class="active-path" data-old_color="#031b4e"/>
	<rect x="96" y="39.826" style="fill:#031B4E" width="16" height="16" data-original="#1F2933" class="active-path" data-old_color="#031b4e"/>
	<rect x="48" y="87.826" style="fill:#031B4E" width="16" height="16" data-original="#1F2933" class="active-path" data-old_color="#031b4e"/>
	<rect x="32" y="39.826" style="fill:#031B4E" width="16" height="16" data-original="#1F2933" class="active-path" data-old_color="#031b4e"/>
	<rect x="120" y="279.826" style="fill:#031B4E" width="16" height="16" data-original="#1F2933" class="active-path" data-old_color="#031b4e"/>
	<rect x="56" y="231.826" style="fill:#031B4E" width="16" height="16" data-original="#1F2933" class="active-path" data-old_color="#031b4e"/>
	<rect x="8" y="143.826" style="fill:#031B4E" width="16" height="16" data-original="#1F2933" class="active-path" data-old_color="#031b4e"/>
	<rect x="8" y="335.826" style="fill:#031B4E" width="16" height="16" data-original="#1F2933" class="active-path" data-old_color="#031b4e"/>
</g></g> </svg>
