<?xml version="1.0"?>
<svg xmlns="http://www.w3.org/2000/svg" height="512px" viewBox="-38 0 430 430.07584" width="512px" class=""><g><path d="m177.53125 296.957031 103.863281 4.386719c36.894531 0 66.804688 26.875 66.804688 60.027344v61.878906h-341.335938v-61.878906c0-33.152344 29.910157-60.027344 66.804688-60.027344" fill="#C13D3D" fill-rule="evenodd" data-original="#C13D3D" class=""/><path d="m348.199219 430.074219h-341.335938c-3.769531 0-6.8242185-3.050781-6.8242185-6.824219v-61.882812c0-36.859376 33.0312495-66.851563 73.6289065-66.851563 3.769531 0 6.828125 3.054687 6.828125 6.828125s-3.058594 6.824219-6.828125 6.824219c-33.070313 0-59.976563 23.867187-59.976563 53.199219v55.054687h327.679688v-55.054687c0-29.332032-26.90625-53.199219-59.980469-53.199219l-104.144531-4.390625c-3.769532-.160156-6.695313-3.339844-6.535156-7.109375.160156-3.765625 3.433593-6.847657 7.105468-6.53125l103.859375 4.386719h.015625c40.3125 0 73.332032 29.984374 73.332032 66.84375v61.882812c0 3.773438-3.050782 6.824219-6.824219 6.824219zm0 0" fill="#602f75" data-original="#602F75" class="active-path" style="fill:#031B4E" data-old_color="#031B4E"/><path d="m232.144531 305.488281c-34.378906 10.746094-74.847656 10.746094-109.226562 0v-59.734375h109.226562zm0 0" fill="#eaeaea" fill-rule="evenodd" data-original="#EAEAEA"/><path d="m177.53125 320.320312c-19.460938 0-38.914062-2.773437-56.648438-8.320312-2.851562-.886719-4.792968-3.523438-4.792968-6.511719v-59.734375c0-3.773437 3.058594-6.824218 6.828125-6.824218h109.226562c3.773438 0 6.828125 3.050781 6.828125 6.824218v59.734375c0 2.988281-1.941406 5.628907-4.789062 6.511719-17.738282 5.546875-37.191406 8.320312-56.652344 8.320312zm-47.785156-19.933593c30.285156 8.402343 65.277344 8.402343 95.570312 0v-47.804688h-95.570312zm102.398437 5.101562h.066407zm0 0" fill="#602f75" data-original="#602F75" class="active-path" style="fill:#031B4E" data-old_color="#031B4E"/><path d="m252.625 375.460938h75.09375v47.789062h-75.09375zm0 0" fill="#5E8DA7" data-original="#5E8DA7"/><path d="m327.71875 430.074219h-75.09375c-3.773438 0-6.828125-3.050781-6.828125-6.824219v-47.789062c0-3.773438 3.054687-6.824219 6.828125-6.824219h75.09375c3.773438 0 6.824219 3.050781 6.824219 6.824219v47.789062c0 3.773438-3.050781 6.824219-6.824219 6.824219zm-68.265625-13.652344h61.4375v-34.132813h-61.4375zm0 0" fill="#602f75" data-original="#602F75" class="active-path" style="fill:#031B4E" data-old_color="#031B4E"/><path d="m228.433594 245.753906h-101.804688c-24.671875 0-44.671875-20-44.671875-44.671875v-123.191406c0-9.085937 7.367188-16.453125 16.457031-16.453125h158.234376c9.089843 0 16.457031 7.367188 16.457031 16.453125v123.191406c0 24.671875-20 44.671875-44.671875 44.671875zm0 0" fill="#fff" data-original="#FFF"/><path d="m228.429688 252.582031h-101.796876c-28.398437 0-51.5-23.097656-51.5-51.5v-123.195312c0-12.832031 10.441407-23.277344 23.28125-23.277344h158.238282c12.835937 0 23.28125 10.445313 23.28125 23.277344v123.195312c-.003906 28.402344-23.101563 51.5-51.503906 51.5zm-130.015626-184.320312c-5.308593 0-9.628906 4.320312-9.628906 9.628906v123.191406c0 20.871094 16.976563 37.847657 37.847656 37.847657h101.796876c20.867187 0 37.847656-16.976563 37.847656-37.847657v-123.195312c0-5.304688-4.320313-9.625-9.625-9.625zm0 0" fill="#602f75" data-original="#602F75" class="active-path" style="fill:#031B4E" data-old_color="#031B4E"/><path d="m246.917969 109.222656h-164.960938v-60.300781c0-15.710937 12.738281-28.445313 28.449219-28.445313h183.179688v42.078126c0 25.773437-20.894532 46.667968-46.667969 46.667968zm0 0" fill="#EBAA39" data-original="#EBAA39"/><path d="m246.917969 116.050781h-164.960938c-3.769531 0-6.824219-3.054687-6.824219-6.828125v-60.300781c0-19.445313 15.820313-35.273437 35.273438-35.273437h183.179688c3.773437 0 6.824218 3.054687 6.824218 6.828124v42.078126c0 29.492187-24 53.496093-53.492187 53.496093zm-158.132813-13.65625h158.132813c21.964843 0 39.839843-17.871093 39.839843-39.839843v-35.253907h-176.351562c-11.921875 0-21.621094 9.699219-21.621094 21.621094zm0 0" fill="#602f75" data-original="#602F75" class="active-path" style="fill:#031B4E" data-old_color="#031B4E"/><path d="m198.011719 204.796875c0 11.308594-9.167969 20.480469-20.480469 20.480469s-20.480469-9.171875-20.480469-20.480469c0-11.3125 9.167969-20.480469 20.480469-20.480469s20.480469 9.167969 20.480469 20.480469zm0 0" fill="#C13D3D" fill-rule="evenodd" data-original="#C13D3D" class=""/><path d="m177.53125 232.101562c-15.058594 0-27.308594-12.246093-27.308594-27.304687 0-15.0625 12.25-27.308594 27.308594-27.308594s27.308594 12.246094 27.308594 27.308594c0 15.058594-12.25 27.304687-27.308594 27.304687zm0-40.960937c-7.527344 0-13.652344 6.128906-13.652344 13.65625 0 7.523437 6.125 13.652344 13.652344 13.652344s13.652344-6.128907 13.652344-13.652344c0-7.527344-6.125-13.65625-13.652344-13.65625zm0 0" fill="#C13D3D" data-original="#C13D3D" class=""/><g fill="#5E8DA7"><path d="m61.472656 27.300781c-1.027344 0-2.066406-.230469-3.046875-.71875l-27.308593-13.652343c-3.375-1.6875-4.738282-5.789063-3.050782-9.160157 1.683594-3.367187 5.777344-4.726562 9.15625-3.054687l27.308594 13.65625c3.375 1.683594 4.738281 5.785156 3.054688 9.15625-1.199219 2.394531-3.609376 3.773437-6.113282 3.773437zm0 0" data-original="#000000"/><path d="m54.652344 47.78125h-34.132813c-3.773437 0-6.828125-3.050781-6.828125-6.824219 0-3.773437 3.054688-6.828125 6.828125-6.828125h34.132813c3.769531 0 6.824218 3.054688 6.824218 6.828125 0 3.773438-3.054687 6.824219-6.824218 6.824219zm0 0" data-original="#000000"/><path d="m34.179688 88.742188c-2.078126 0-4.128907-.941407-5.46875-2.734376-2.261719-3.011718-1.652344-7.292968 1.363281-9.554687l27.308593-20.480469c3.023438-2.257812 7.300782-1.652344 9.554688 1.367188 2.265625 3.015625 1.65625 7.292968-1.363281 9.554687l-27.304688 20.480469c-1.230469.921875-2.667969 1.367188-4.089843 1.367188zm0 0" data-original="#000000"/></g></g> </svg>
