<?xml version="1.0"?>
<svg xmlns="http://www.w3.org/2000/svg" xmlns:xlink="http://www.w3.org/1999/xlink" version="1.1" id="Capa_1" x="0px" y="0px" viewBox="0 0 389.12 389.12" style="enable-background:new 0 0 389.12 389.12;" xml:space="preserve" width="512px" height="512px" class=""><g><polyline style="fill:#FFFFFF;" points="331.093,335.295 331.093,382.293 58.027,382.293 58.027,6.827 284.744,6.827   331.093,47.787 331.093,290.348 " data-original="#FFFFFF" class=""/><path style="fill:#031B4E" d="M331.093,389.12H58.027c-3.772,0-6.827-3.055-6.827-6.827V6.827C51.2,3.055,54.255,0,58.027,0h226.72  c1.666,0,3.273,0.608,4.519,1.713l46.346,40.96c1.468,1.294,2.307,3.154,2.307,5.113v242.558c0,3.772-3.055,6.827-6.827,6.827  c-3.772,0-6.827-3.055-6.827-6.827V50.865L282.16,13.653H64.853v361.813h259.413v-40.175c0-3.772,3.055-6.827,6.827-6.827  c3.772,0,6.827,3.055,6.827,6.827v47.002C337.92,386.065,334.865,389.12,331.093,389.12z" data-original="#602F75" class="active-path" data-old_color="#031B4E"/><polygon style="fill:#5E8DA7;" points="331.093,47.787 283.307,47.787 283.307,6.827 " data-original="#5E8DA7"/><path style="fill:#031B4E" d="M331.093,54.613h-47.787c-3.772,0-6.827-3.055-6.827-6.827V6.827c0-2.666,1.553-5.086,3.973-6.199  c2.434-1.113,5.274-0.72,7.294,1.021l47.787,40.96c2.174,1.853,2.953,4.867,1.959,7.547  C336.507,52.835,333.954,54.613,331.093,54.613z M290.133,40.96h22.508l-22.508-19.292V40.96z" data-original="#602F75" class="active-path" data-old_color="#031B4E"/><rect x="98.987" y="88.747" style="fill:#EBAA39;" width="102.4" height="102.4" data-original="#EBAA39"/><path style="fill:#031B4E" d="M201.387,197.973h-102.4c-3.772,0-6.827-3.055-6.827-6.827v-102.4c0-3.772,3.055-6.827,6.827-6.827  h102.4c3.772,0,6.827,3.055,6.827,6.827v102.4C208.213,194.918,205.158,197.973,201.387,197.973z M105.813,184.32h88.747V95.573  h-88.747V184.32z" data-original="#602F75" class="active-path" data-old_color="#031B4E"/><g>
	<rect x="153.6" y="136.533" style="fill:#C13D3D;" width="102.4" height="102.4" data-original="#C13D3D"/>
	<path style="fill:#C13D3D;" d="M256,245.76H153.6c-3.772,0-6.827-3.055-6.827-6.827v-102.4c0-3.772,3.055-6.827,6.827-6.827H256   c3.772,0,6.827,3.055,6.827,6.827v102.4C262.827,242.705,259.772,245.76,256,245.76z M160.427,232.107h88.747V143.36h-88.747   V232.107z" data-original="#C13D3D"/>
</g><circle style="fill:#5E8DA7;" cx="146.773" cy="300.373" r="27.307" data-original="#5E8DA7"/><path style="fill:#031B4E" d="M146.773,334.507c-18.821,0-34.133-15.312-34.133-34.133c0-18.821,15.312-34.133,34.133-34.133  s34.133,15.312,34.133,34.133C180.907,319.194,165.594,334.507,146.773,334.507z M146.773,279.893  c-11.295,0-20.48,9.185-20.48,20.48c0,11.295,9.185,20.48,20.48,20.48c11.295,0,20.48-9.185,20.48-20.48  C167.253,289.079,158.068,279.893,146.773,279.893z" data-original="#602F75" class="active-path" data-old_color="#031B4E"/></g> </svg>
