<svg id="图层_1" data-name="图层 1" xmlns="http://www.w3.org/2000/svg" xmlns:xlink="http://www.w3.org/1999/xlink" viewBox="0 0 1022.1 1022.1"><defs><style>.cls-1{fill:none;}.cls-2{clip-path:url(#clip-path);}.cls-3{fill:#fff;}</style><clipPath id="clip-path" transform="translate(0.04 -0.65)"><rect class="cls-1" x="0.11" width="1022.9" height="1024"/></clipPath></defs><title>xiazai </title><g class="cls-2"><path class="cls-3" d="M511,.65c282.23,0,511.05,228.82,511.05,511.05s-228.82,511.05-511,511.05S0,793.93,0,511.7,228.78.65,511,.65Zm0,255.53a42.58,42.58,0,0,0-42.59,42.58v337.3l-143.73-115L320.3,518a42.59,42.59,0,0,0-48.84,69.59L484.39,757.9a42.59,42.59,0,0,0,53.24,0L750.57,587.55l4-3.62a42.59,42.59,0,0,0-57.2-62.9L553.64,636V298.76A42.59,42.59,0,0,0,516,256.47Zm0,0" transform="translate(0.04 -0.65)"/></g></svg>