<svg id="图层_1" data-name="图层 1" xmlns="http://www.w3.org/2000/svg" viewBox="0 0 1024 966.32"><defs><style>.cls-1{fill:#dfecfd;}.cls-2{fill:#4988fd;}</style></defs><title>tup</title><path class="cls-1" d="M128,30.34H896c70.7,0,128,54.08,128,120.79V875.86c0,66.72-57.3,120.79-128,120.79H128c-70.69,0-128-54.07-128-120.79V151.13C0,84.42,57.31,30.34,128,30.34Zm0,0" transform="translate(0 -30.34)"/><path class="cls-2" d="M204.8,296.08c0,40,34.39,72.47,76.8,72.47s76.8-32.45,76.8-72.47S324,223.6,281.6,223.6s-76.8,32.45-76.8,72.48Zm0,0" transform="translate(0 -30.34)"/><path class="cls-2" d="M257.11,658.29c8.85-14.44,28.43-19.37,43.72-11a31,31,0,0,1,11.66,11L433,854.7c8.85,14.43,3.63,32.9-11.66,41.25a33.38,33.38,0,0,1-16,4.07h-241c-17.68,0-32-13.52-32-30.19a29,29,0,0,1,4.3-15.13Zm0,0" transform="translate(0 -30.34)"/><path class="cls-2" d="M593.13,461.78c8.89-14.42,28.47-19.32,43.75-10.94a31.15,31.15,0,0,1,11.58,10.94l242,392.87c8.89,14.41,3.7,32.9-11.58,41.28A33.48,33.48,0,0,1,862.79,900h-484c-17.67,0-32-13.52-32-30.19a28.83,28.83,0,0,1,4.34-15.18Zm0,0" transform="translate(0 -30.34)"/></svg>