<?xml version="1.0" standalone="no"?><!DOCTYPE svg PUBLIC "-//W3C//DTD SVG 1.1//EN" "http://www.w3.org/Graphics/SVG/1.1/DTD/svg11.dtd"><svg t="1592978837858" class="icon" viewBox="0 0 1024 1024" version="1.1" xmlns="http://www.w3.org/2000/svg" p-id="1810" xmlns:xlink="http://www.w3.org/1999/xlink" width="200" height="200"><defs><style type="text/css"></style></defs><path d="M789.333 426.667L977.067 896H885.12l-51.243-128H659.371l-51.158 128H516.31L704 426.667h85.333zM426.667 85.333v85.334h256V256h-83.968a777.472 777.472 0 0 1-154.454 268.843 634.197 634.197 0 0 0 99.67 72.832l-32.043 80.128A725.973 725.973 0 0 1 384 585.6a711.51 711.51 0 0 1-264.576 151.381l-22.87-82.304A627.2 627.2 0 0 0 323.84 524.885a771.328 771.328 0 0 1-120.448-183.552h95.573A684.032 684.032 0 0 0 384 464.085a689.707 689.707 0 0 0 124.16-208.042L85.333 256v-85.333h256V85.333h85.334z m320 464.427L693.46 682.667h106.326l-53.12-132.907z"  fill="#0e62ff" p-id="1811"></path></svg>