<svg id="图层_1" data-name="图层 1" xmlns="http://www.w3.org/2000/svg" xmlns:xlink="http://www.w3.org/1999/xlink" viewBox="0 0 1021.84 1021.19"><defs><style>.cls-1{fill:none;}.cls-2{clip-path:url(#clip-path);}.cls-3{fill:#f95f5d;}.cls-4{fill:#55c7f7;}.cls-5{fill:#7ecf3b;}.cls-6{fill:#fdaf42;}.cls-7{fill:#fff;}</style><clipPath id="clip-path" transform="translate(-1.85 -1.28)"><rect class="cls-1" x="2.04" width="1021.96" height="1024"/></clipPath></defs><title>压缩包</title><g class="cls-2"><rect class="cls-3" x="0.12" y="338.52" width="1021.72" height="344.14"/><path class="cls-4" d="M1023.69,339.8V65.58c0-34-29.35-64.3-64.25-64.3H66.11c-34.9,0-64.26,30.3-64.26,64.3V339.8Zm0,0" transform="translate(-1.85 -1.28)"/><path class="cls-5" d="M2,683.94V958.16c0,34,29.12,64.3,63.77,64.3H959.93c34.66,0,63.76-30.3,63.76-64.3V683.94Zm0,0" transform="translate(-1.85 -1.28)"/></g><rect class="cls-6" x="399.61" width="228.05" height="1021.19"/><path class="cls-7" d="M629.51,443.86V587.55H390.61V443.86h238.9m38.36-58.68H352.25c-5.42,0-14.55,5.63-14.55,15.09V629.1c0,5.62,5.42,15.09,14.55,15.09H667.87c5.42,0,14.55-5.63,14.55-15.09V400.27c-3.57-11.25-9.13-15.09-14.55-15.09Zm0,0" transform="translate(-1.85 -1.28)"/></svg>