<?xml version="1.0"?>
<svg xmlns="http://www.w3.org/2000/svg" xmlns:xlink="http://www.w3.org/1999/xlink" version="1.1" id="Capa_1" x="0px" y="0px" viewBox="0 0 423.253 423.253" style="enable-background:new 0 0 423.253 423.253;" xml:space="preserve" width="512px" height="512px" class=""><g><g>
	<circle style="fill:#EBAA39;" cx="129.707" cy="105.813" r="88.747" data-original="#EBAA39"/>
	<path style="fill:#EBAA39;" d="M129.707,201.387c-52.7,0-95.573-42.873-95.573-95.573S77.007,10.24,129.707,10.24   s95.573,42.873,95.573,95.573S182.407,201.387,129.707,201.387z M129.707,23.893c-45.174,0-81.92,36.75-81.92,81.92   s36.746,81.92,81.92,81.92s81.92-36.75,81.92-81.92S174.88,23.893,129.707,23.893z" data-original="#EBAA39"/>
</g><path style="fill:#FFFFFF;" d="M153.559,310.613h138.479h39.052h3.417c45.244,0,81.92-36.676,81.92-81.92s-36.676-81.92-81.92-81.92  c-3.2,0-6.344,0.23-9.448,0.587c1.65-6.765,2.621-13.795,2.621-21.067c0-49.014-39.733-88.747-88.747-88.747  c-45.105,0-82.265,33.678-87.917,77.244c-12.771-5.722-26.889-8.977-41.789-8.977c-56.554,0-102.4,45.846-102.4,102.4  c0,51.255,37.687,93.611,86.849,101.105" data-original="#FFFFFF"/><path style="fill:#031B4E" d="M334.507,317.44H153.561c-3.773,0-6.827-3.057-6.827-6.827s3.053-6.827,6.827-6.827h180.946  c41.407,0,75.093-33.686,75.093-75.093S375.914,153.6,334.507,153.6c-2.654,0-5.494,0.177-8.666,0.543  c-2.186,0.276-4.42-0.591-5.9-2.266c-1.473-1.673-2.039-3.963-1.514-6.13c1.613-6.613,2.427-13.158,2.427-19.453  c0-45.17-36.746-81.92-81.92-81.92c-40.987,0-75.873,30.65-81.154,71.296c-0.273,2.14-1.546,4.023-3.434,5.077  c-1.881,1.06-4.14,1.164-6.127,0.273c-12.406-5.56-25.525-8.38-38.992-8.38c-52.7,0-95.573,42.873-95.573,95.573  c0,46.747,34.847,87.31,81.046,94.353c3.727,0.57,6.294,4.05,5.721,7.781c-0.567,3.724-4.06,6.306-7.774,5.721  C39.827,308.014,0,261.651,0,208.213C0,147.987,49,98.987,109.227,98.987c12.52,0,24.774,2.127,36.533,6.337  c9.66-43.09,48.28-74.604,93.174-74.604c52.7,0,95.573,42.873,95.573,95.573c0,4.477-0.346,9.047-1.039,13.66  c0.346-0.003,0.693-0.007,1.039-0.007c48.934,0,88.747,39.81,88.747,88.747S383.44,317.44,334.507,317.44z" data-original="#602F75" class="active-path" data-old_color="#031B4E"/><path style="fill:#5E8DA7;" d="M27.307,215.04c-3.773,0-6.827-3.057-6.827-6.827c0-48.524,37.98-87.491,86.46-88.716  c0.06-0.003,0.119-0.003,0.174-0.003c3.693,0,6.733,2.944,6.827,6.653c0.094,3.77-2.886,6.903-6.653,6.997  c-41.021,1.039-73.155,34.012-73.155,75.069C34.133,211.983,31.08,215.04,27.307,215.04z" data-original="#5E8DA7"/><circle style="fill:#FFFFFF;" cx="225.28" cy="310.613" r="95.573" data-original="#FFFFFF"/><path style="fill:#031B4E" d="M225.28,413.013c-56.467,0-102.4-45.937-102.4-102.4s45.933-102.4,102.4-102.4  s102.4,45.937,102.4,102.4S281.747,413.013,225.28,413.013z M225.28,221.867c-48.934,0-88.747,39.81-88.747,88.747  s39.813,88.747,88.747,88.747s88.747-39.81,88.747-88.747S274.214,221.867,225.28,221.867z" data-original="#602F75" class="active-path" data-old_color="#031B4E"/><circle style="fill:#FFFFFF;" cx="259.413" cy="310.613" r="20.48" data-original="#FFFFFF"/><path style="fill:#031B4E" d="M259.413,337.92c-15.06,0-27.307-12.25-27.307-27.307s12.247-27.307,27.307-27.307  s27.307,12.25,27.307,27.307S274.473,337.92,259.413,337.92z M259.413,296.96c-7.526,0-13.653,6.124-13.653,13.653  s6.127,13.653,13.653,13.653c7.526,0,13.653-6.124,13.653-13.653S266.94,296.96,259.413,296.96z" data-original="#602F75" class="active-path" data-old_color="#031B4E"/><rect x="170.667" y="283.307" style="fill:#C13D3D" width="61.44" height="61.44" data-original="#C13D3D" class=""/><path style="fill:#031B4E" d="M232.107,351.573h-61.44c-3.773,0-6.827-3.057-6.827-6.827v-61.44c0-3.77,3.053-6.827,6.827-6.827  h61.44c3.773,0,6.827,3.057,6.827,6.827v61.44C238.933,348.517,235.88,351.573,232.107,351.573z M177.493,337.92h47.787v-47.787  h-47.787V337.92z" data-original="#602F75" class="active-path" data-old_color="#031B4E"/><polygon style="fill:#C13D3D" points="259.413,378.88 218.453,344.747 218.453,283.307 259.413,249.173 " data-original="#C13D3D" class=""/><path style="fill:#031B4E" d="M259.413,385.707c-1.567,0-3.12-0.539-4.372-1.584l-40.96-34.133  c-1.553-1.297-2.454-3.217-2.454-5.243v-61.44c0-2.028,0.899-3.946,2.454-5.243l40.96-34.133c2.046-1.7,4.893-2.05,7.267-0.94  c2.4,1.123,3.934,3.533,3.934,6.183V378.88c0,2.65-1.533,5.06-3.934,6.183C261.386,385.493,260.393,385.707,259.413,385.707z   M225.28,341.55l27.307,22.753V263.75l-27.307,22.753V341.55z" data-original="#602F75" class="active-path" data-old_color="#031B4E"/></g> </svg>
