<?xml version="1.0"?>
<svg xmlns="http://www.w3.org/2000/svg" height="512px" viewBox="-20 0 512 512.20773" width="512px" class=""><g><path d="m140.304688 360.808594c9.398437 9.398437 20.199218 17.597656 31.800781 24.199218 2.597656 1.398438 3.398437 4.601563 2 7l-1.800781 3.199219c45.597656 23.800781 99.800781 23.800781 145.398437 0l-1.800781-3.199219c-1.398438-2.601562-.597656-5.601562 2-7 17.402344-9.800781 32.601562-23 44.601562-38.800781-3.199218-5.199219-8.398437-9-14.398437-10.597656l-47-11.800781-28.203125-14-13 26.800781c-1 2-3 3.199219-5.199219 3.199219h-20.199219c-2.199218 0-4.398437-1.402344-5.199218-3.402344l-12-26.597656-28.199219 14-47 11.800781c-6 1.597656-11.203125 5.199219-14.402344 10.597656 3.800781 5.199219 8 10 12.601563 14.601563zm0 0" fill="#60bae2" data-original="#60BAE2" class="" style="fill:#5E8DA7" data-old_color="#60BAE2"/><path d="m301.105469 323.808594-14 34.398437c-1 2.601563-4.203125 4-6.800781 2.800781-.800782-.398437-1.601563-.800781-2.199219-1.601562l-18.402344-22.796875 13-26.800781zm0 0" fill="#e9e9ea" data-original="#E9E9EA" class="active-path" style="fill:#EBAA39" data-old_color="#E9E9EA"/><path d="m202.902344 358.207031c1 2.601563 4.203125 4 6.800781 2.800781.800781-.398437 1.601563-.800781 2.199219-1.601562l17.800781-22.199219c-.199219-.199219-.398437-.597656-.398437-.800781l-12-26.597656-18.800782 9.199218-9.398437 4.601563zm0 0" fill="#e9e9ea" data-original="#E9E9EA" class="active-path" style="fill:#EBAA39" data-old_color="#E9E9EA"/><path d="m304.703125 179.207031v-5.199219c0-5.601562 4.601563-10.199218 10.199219-10.199218 2.402344 0 4.601562.800781 6.402344 2.199218-2.402344-42.199218-38.800782-74.601562-81.199219-72-38.601563 2.398438-69.402344 33-72.203125 71.601563 4.800781-3 11.203125-1.800781 14.203125 3 1 1.597656 1.597656 3.597656 1.597656 5.597656v9.402344c.402344-1.601563 2.199219-2.601563 3.800781-2.203125 11 2.203125 43.601563 6.203125 65.601563-21.597656 1.199219-1.402344 3.199219-1.601563 4.597656-.601563 0 0 .199219.199219.199219.199219 5 5 18.402344 15 43.402344 15.601562 1.800781 0 3 1.398438 3.199218 3.199219.199219.402344.199219.800781.199219 1zm0 0" fill="#6d6c6b" data-original="#6D6C6B"/><path d="m251.105469 289.609375c0 5.597656 4.597656 10.199219 10.199219 10.199219h16.597656c5.601562 0 10.203125-4.800782 10.203125-10.402344 0-5.597656-4.601563-10-10.203125-10.199219h-16.597656c-5.601563 0-10.199219 4.601563-10.199219 10.402344zm0 0" fill="#ffae2c" data-original="#FFAE2C" class=""/><path d="m304.703125 178.40625c0-1.796875-1.398437-3.199219-3.199219-3.199219-25.199218-.800781-38.398437-10.597656-43.398437-15.597656-1.203125-1.203125-3.402344-1.203125-4.601563 0 0 0-.199218.199219-.199218.199219-22.199219 27.800781-54.800782 23.800781-65.601563 21.597656-1.800781-.398438-3.398437.800781-3.800781 2.402344v.597656 48.800781c0 33.402344 27.203125 60.402344 60.402344 60.402344 2.597656 0 5.199218-.203125 7.597656-.601563-2-5.199218.601562-11.199218 6-13.199218 1.203125-.402344 2.402344-.601563 3.601562-.601563h16.601563c1.398437 0 2.796875.402344 4.199219.800781 14.199218-11.398437 22.398437-28.800781 22.597656-47v-53.800781c-.199219-.199219-.199219-.597656-.199219-.800781zm0 0" fill="#f9d0b4" data-original="#F9D0B4" class=""/><path d="m261.503906 299.808594c-4.199218 0-8.199218-2.601563-9.601562-6.601563-2.597656.402344-5.199219.402344-7.597656.402344-9.402344 0-18.601563-2.203125-27-6.402344v22.402344l12 26.597656c1 2 3 3.402344 5.199218 3.402344h20.199219c2.199219 0 4.199219-1.203125 5.199219-3.203125l13-26.796875v-9.800781zm0 0" fill="#f9d0b4" data-original="#F9D0B4" class=""/><path d="m314.902344 260.808594c-5.597656 0-10.199219-4.601563-10.199219-10.199219v-76.601563c0-5.601562 4.402344-10.398437 10.199219-10.398437 5.601562 0 10.402344 4.398437 10.402344 10.199219v.199218 76.398438c0 5.800781-4.601563 10.402344-10.402344 10.402344zm0 0" fill="#f75c64" data-original="#F75C64" class="" style="fill:#C13D3D" data-old_color="#F75C64"/><path d="m325.304688 174.207031v76.199219c21-1.796875 36.597656-20.398438 34.597656-41.398438-1.597656-18.601562-16.199219-33.199218-34.597656-34.800781zm0 0" fill="#ea4647" data-original="#EA4647" class="" style="fill:#EA4647"/><path d="m173.503906 260.808594c5.601563 0 10.199219-4.601563 10.199219-10.199219v-76.601563c0-5.601562-4.800781-10.199218-10.398437-10.199218-5.601563 0-10 4.597656-10.199219 10.199218v76.398438c.199219 5.800781 4.796875 10.402344 10.398437 10.402344zm0 0" fill="#f75c64" data-original="#F75C64" class="" style="fill:#C13D3D" data-old_color="#F75C64"/><path d="m163.304688 174.207031v76.199219c-21-1.796875-36.601563-20.398438-34.601563-41.398438 1.402344-18.601562 16-33.199218 34.601563-34.800781zm0 0" fill="#ea4647" data-original="#EA4647" class="" style="fill:#EA4647"/><path d="m163.304688 174.207031c0-3.597656 1.800781-6.800781 4.800781-8.800781 2.796875-42.398438 39.597656-74.398438 82-71.398438 38.597656 2.601563 69.199219 33.601563 71.597656 72.199219 2.402344 2 3.800781 4.800781 3.800781 8v.199219c6 .601562 11.800782 2.402344 16.800782 5.601562v-9.199218c0-53.800782-43.601563-97.402344-97.402344-97.402344-53.796875 0-97.796875 43.402344-97.796875 97.203125v8.597656c5-2.800781 10.398437-4.597656 16.199219-5zm0 0" fill="#e9e9ea" data-original="#E9E9EA" class="active-path" style="fill:#EBAA39" data-old_color="#E9E9EA"/><path d="m108.902344 326.808594-64 35.800781c-2.597656 1.398437-3.398438 4.597656-2 7.199219 20.800781 36.800781 51.402344 67.199218 88.203125 88.199218 2.597656 1.398438 5.597656.601563 7.199219-2l35.800781-64c1.398437-2.601562.597656-5.601562-2-7-23.402344-13.199218-42.800781-32.601562-56-56-1.402344-2.601562-4.601563-3.601562-7.203125-2.199218zm0 0" fill="#f75c64" data-original="#F75C64" class="" style="fill:#C13D3D" data-old_color="#F75C64"/><path d="m381.105469 326.808594c-2.601563-1.402344-5.601563-.601563-7 2-13.203125 23.398437-32.601563 42.800781-56 56-2.601563 1.398437-3.402344 4.597656-2 7l35.796875 64c1.402344 2.597656 4.601562 3.398437 7.203125 2 36.796875-20.800782 67.199219-51.402344 88.199219-88.199219 1.398437-2.601563.597656-5.601563-2-7.203125zm0 0" fill="#f75c64" data-original="#F75C64" class="" style="fill:#C13D3D" data-old_color="#F75C64"/><path d="m446.902344 142.207031c-20.796875-36.800781-51.199219-67.199219-88-88.199219-2.597656-1.398437-5.597656-.601562-7.199219 2l-30.597656 54.601563c7 8.796875 12.398437 18.597656 15.796875 29.199219 15 11.800781 27.601562 26.597656 37 43.199218 1.402344 2.601563 4.601562 3.398438 7 2l64-35.800781c2.601562-1.398437 3.402344-4.398437 2-7zm0 0" fill="#f75c64" data-original="#F75C64" class="" style="fill:#C13D3D" data-old_color="#F75C64"/><path d="m168.503906 110.007812-30.199218-54c-1.402344-2.601562-4.601563-3.398437-7.199219-2-36.601563 21-67.203125 51.398438-88 88.199219-1.402344 2.601563-.601563 5.601563 2 7.199219l64 35.800781c2.597656 1.402344 5.597656.601563 7-2 9.199219-16.199219 21.398437-30.597656 36-42.398437 3.597656-11.199219 9.199219-21.601563 16.398437-30.800782zm0 0" fill="#f75c64" data-original="#F75C64" class="" style="fill:#C13D3D" data-old_color="#F75C64"/><path d="m441.503906 151.207031-57.199218 32c23.800781 45.601563 23.800781 99.800781 0 145.402344l57.199218 32c35-65.402344 35-143.800781 0-209.402344zm0 0" fill="#e9e9ea" data-original="#E9E9EA" class="active-path" style="fill:#EBAA39" data-old_color="#E9E9EA"/><path d="m105.703125 328.808594c-23.800781-45.601563-23.800781-99.800782 0-145.402344l-57.199219-32c-34.800781 65.402344-34.800781 144 0 209.601562zm0 0" fill="#e9e9ea" data-original="#E9E9EA" class="active-path" style="fill:#EBAA39" data-old_color="#E9E9EA"/><path d="m317.703125 395.40625c-45.597656 23.800781-99.800781 23.800781-145.398437 0l-32 57.203125c65.398437 34.796875 144 34.796875 209.597656 0zm0 0" fill="#e9e9ea" data-original="#E9E9EA" class="active-path" style="fill:#EBAA39" data-old_color="#E9E9EA"/><path d="m244.703125 73.40625c29.800781 0 58 13.601562 76.402344 37.203125l28.597656-51.203125c-65.398437-34.796875-144-34.796875-209.597656 0l28.398437 50.601562c18.601563-23 46.601563-36.601562 76.199219-36.601562zm0 0" fill="#e9e9ea" data-original="#E9E9EA" class="active-path" style="fill:#EBAA39" data-old_color="#E9E9EA"/><g fill="#231f20"><path d="m133.703125 463.609375c-1.800781 0-3.398437-.402344-5-1.402344-37.597656-21.398437-68.800781-52.398437-90-90-2.800781-5-1-11.199219 3.800781-14l64-35.800781c5-2.796875 11.199219-1 13.800782 4 12.800781 22.601562 31.597656 41.402344 54.199218 54.203125 4.800782 2.796875 6.601563 9 4 13.796875l-35.800781 64c-1.398437 2.402344-3.597656 4.203125-6.199219 4.800781-.800781.402344-1.800781.402344-2.800781.402344zm-22.199219-132.402344-64 35.800781v.199219c20.398438 36 50.199219 65.800781 86.199219 86.199219l4.601563 2.402344-4.402344-2.402344 35.800781-64c0-.199219 0-.199219 0-.199219-24.199219-13.800781-44.199219-33.800781-58-58zm0 0" data-original="#000000" class="" style="fill:#031B4E" data-old_color="#5E8DA7"/><path d="m356.304688 463.609375c-1 0-1.800782-.203125-2.800782-.402344-2.601562-.800781-4.800781-2.398437-6.199218-4.800781l-35.800782-64c-2.800781-5-1-11.199219 4-13.796875 22.601563-12.800781 41.398438-31.601563 54.199219-54.203125 2.800781-4.796875 9-6.597656 13.800781-4l64 35.800781c5 2.800781 6.601563 9 4 14-21.398437 37.601563-52.398437 68.800781-90 90-1.800781 1-3.398437 1.402344-5.199218 1.402344zm-.199219-10h.199219c36-20.402344 65.800781-50.203125 86.199218-86.203125l2.398438-4.597656-2.398438 4.398437-64-35.800781c-.199218 0-.199218 0-.199218 0-13.800782 24.203125-33.800782 44.203125-58 58-.199219 0-.199219.203125 0 .203125zm0 0" data-original="#000000" class="" style="fill:#031B4E" data-old_color="#5E8DA7"/><path d="m441.503906 365.808594c-.800781 0-1.601562-.199219-2.398437-.601563l-57.203125-32c-2.398438-1.398437-3.199219-4.199219-2-6.597656 23-44.203125 23-96.601563 0-140.800781-1.199219-2.402344-.398438-5.402344 2-6.601563l57.203125-32c2.398437-1.398437 5.398437-.398437 6.796875 2 35.601562 67 35.601562 147.199219 0 214.199219-.796875 1.402344-2.398438 2.402344-4.398438 2.402344zm-50.601562-39.199219 48.601562 27.199219c31-61.601563 31-134.199219 0-195.800782l-48.601562 27.398438c21.601562 44.601562 21.601562 96.601562 0 141.203125zm0 0" data-original="#000000" class="" style="fill:#031B4E" data-old_color="#5E8DA7"/><path d="m48.503906 365.808594c-1.800781 0-3.601562-1-4.398437-2.601563-35.601563-67-35.601563-147.199219 0-214.199219 1.398437-2.398437 4.398437-3.398437 6.796875-2l57.203125 32c2.398437 1.398438 3.199219 4.199219 2 6.601563-23 44.199219-23 96.597656 0 140.796875 1.199219 2.402344.398437 5.402344-2 6.601562l-57.203125 32c-.796875.601563-1.597656.800782-2.398438.800782zm2-207.601563c-31 61.601563-31 134.199219 0 195.800781l48.601563-27.199218c-21.601563-44.601563-21.601563-96.800782 0-141.402344zm0 0" data-original="#000000" class="" style="fill:#031B4E" data-old_color="#5E8DA7"/><path d="m245.105469 483.808594c-37.402344 0-74.203125-9.199219-107.203125-26.800782-2.398438-1.398437-3.398438-4.398437-2-6.800781l32-57.199219c1.402344-2.398437 4.203125-3.199218 6.601562-2 44.199219 23 96.601563 23 140.800782 0 2.398437-1.199218 5.398437-.398437 6.597656 2l32 57.199219c1.402344 2.402344.402344 5.402344-2 6.800781-32.796875 17.601563-69.597656 26.800782-106.796875 26.800782zm-98-33.199219c61.597656 31 134.199219 31 195.796875 0l-27.199219-48.601563c-44.597656 21.601563-96.800781 21.601563-141.398437 0zm0 0" data-original="#000000" class="" style="fill:#031B4E" data-old_color="#5E8DA7"/><path d="m245.105469 371.609375c-1.402344 0-2.601563-.601563-3.601563-1.402344-.199218-.199219-.398437-.398437-.601562-.800781-.199219-.199219-.398438-.597656-.398438-.796875-.199218-.203125-.199218-.601563-.199218-1 0-.402344 0-.601563-.199219-1 0-.402344 0-.601563.199219-1 0-.402344.199218-.601563.199218-1 .199219-.203125.199219-.601563.398438-.800781.203125-.199219.402344-.601563.601562-.800782 1.199219-1.199218 2.800782-1.601562 4.601563-1.398437.398437 0 .597656.199219 1 .199219.398437.199218.597656.199218.796875.398437.601562.402344 1 .800781 1.402344 1.402344.199218.199219.398437.597656.398437.796875.199219.402344.199219.601562.199219 1 0 .402344 0 .601562.203125 1 0 3-2.402344 5.203125-5 5.203125zm0 0" data-original="#000000" class="" style="fill:#031B4E" data-old_color="#5E8DA7"/><path d="m245.105469 398.609375c-.402344 0-.601563 0-1 0-.402344 0-.601563-.203125-1-.203125-.402344-.199219-.601563-.199219-.800781-.398438-.199219-.199218-.601563-.398437-.800782-.601562-.199218-.199219-.398437-.398438-.601562-.796875-.199219-.203125-.398438-.601563-.398438-.800781-.199218-.402344-.199218-.601563-.199218-1-.199219-.601563-.199219-1.402344 0-2 0-.402344.199218-.601563.199218-1 .199219-.199219.199219-.601563.398438-.800782.203125-.199218.402344-.601562.601562-.800781.199219-.199219.398438-.398437.800782-.597656.199218-.203125.597656-.402344.800781-.402344.199219-.199219.597656-.199219 1-.199219.597656-.199218 1.398437-.199218 2 0 .597656.199219 1.199219.398438 1.796875.800782.203125.199218.601562.398437.800781.597656.199219.203125.402344.402344.601563.800781.199218.199219.398437.601563.398437.800781.199219.398438.199219.601563.199219 1 .203125.601563.203125 1.398438 0 2 0 .398438-.199219.601563-.199219 1-.199219.398438-.199219.601563-.398437.800782-.199219.199218-.402344.597656-.601563.800781-.199219.199219-.398437.398437-.800781.597656-.597656.402344-1.199219.601563-1.796875.800781-.402344-.601562-.800781-.398437-1-.398437zm0 0" data-original="#000000" class="" style="fill:#031B4E" data-old_color="#5E8DA7"/><path d="m245.105469 265.40625c-9.402344 0-18.203125-4.597656-23.601563-12.597656-1.601562-2.199219-1-5.402344 1.398438-7 2.203125-1.601563 5.402344-1 7 1.398437 5.601562 8.402344 17.203125 10.601563 25.601562 5 2-1.398437 3.601563-3 5-5 1.601563-2.199219 4.601563-2.800781 7-1.398437 2.199219 1.597656 2.800782 4.597656 1.398438 7-5.597656 7.800781-14.398438 12.597656-23.796875 12.597656zm0 0" data-original="#000000" class="" style="fill:#031B4E" data-old_color="#5E8DA7"/><path d="m221.902344 217.609375c-.398438 0-.597656 0-1-.203125-.597656-.199219-1.199219-.398438-1.796875-.796875-.203125-.203125-.601563-.402344-.800781-.601563-.199219-.199218-.402344-.398437-.601563-.800781-.199219-.199219-.398437-.597656-.398437-.800781-.199219-.398438-.199219-.597656-.199219-1 0-.398438 0-.597656-.203125-1 0-1.398438.601562-2.597656 1.402344-3.597656.199218-.199219.398437-.402344.800781-.601563.199219-.199219.597656-.398437.796875-.398437.402344-.199219.601562-.199219 1-.199219.601562-.203125 1.402344-.203125 2 0 .402344 0 .601562.199219 1 .199219.402344.199218.601562.199218.800781.398437s.601563.402344.800781.601563c1 1 1.398438 2.199218 1.398438 3.597656 0 .601562-.199219 1.402344-.398438 2-.199218.402344-.199218.601562-.398437.800781-.203125.199219-.402344.601563-.601563.800781-.199218.199219-.398437.398438-.800781.601563-.199219.199219-.597656.398437-.800781.398437-.398438.199219-.597656.199219-1 .199219-.199219.402344-.597656.402344-1 .402344zm0 0" data-original="#000000" class="" style="fill:#031B4E" data-old_color="#5E8DA7"/><path d="m268.105469 217.609375c-1.402344 0-2.601563-.601563-3.601563-1.402344-.199218-.199219-.398437-.398437-.601562-.800781-.199219-.199219-.398438-.597656-.398438-.796875-.199218-.402344-.199218-.601563-.199218-1 0-.402344 0-.601563 0-1 0-2.800781 2.199218-5 5-5h1c.398437 0 .597656.199219 1 .199219.398437.199218.597656.199218.800781.398437.199219.199219.597656.402344.796875.601563 1 1 1.402344 2.199218 1.402344 3.597656v1c0 .402344-.199219.601562-.199219 1-.203125.402344-.203125.601562-.402344.800781s-.398437.601563-.597656.800781c-.203125.199219-.402344.398438-.800781.601563-.199219.199219-.601563.398437-.800782.398437-1.199218.398438-1.800781.601563-2.398437.601563zm0 0" data-original="#000000" class="" style="fill:#031B4E" data-old_color="#5E8DA7"/><path d="m282.304688 366.609375c-3 0-6-1.402344-8-3.800781l-18.402344-22.800782c-1.199219-1.601562-1.398438-3.601562-.597656-5.398437l13-26.800781c1.199218-2.402344 4.199218-3.601563 6.597656-2.402344l28.203125 14c2.398437 1.203125 3.398437 4 2.398437 6.402344l-14 34.398437c-1.398437 3.402344-4.398437 5.800781-8 6.199219-.199218 0-.601562.203125-1.199218.203125zm-16.601563-30.601563 16.402344 20.398438s.199219.203125.199219 0c0 0 .199218 0 .199218-.199219l12.199219-30.199219-19.597656-9.601562zm0 0" data-original="#000000" class="" style="fill:#031B4E" data-old_color="#5E8DA7"/><path d="m207.703125 366.609375c-.597656 0-1 0-1.597656-.203125-3.601563-.597656-6.601563-2.796875-8-6.199219l-14-34.398437c-1-2.402344 0-5.199219 2.398437-6.402344l28.199219-14c2.402344-1.199219 5.402344-.199219 6.601563 2.203125v.199219l12 26.597656c1.199218 1.800781 1.199218 4.203125-.199219 6l-17.800781 22.203125c-1.601563 2.597656-4.402344 4-7.601563 4zm-12.398437-40.402344 12.199218 30.199219s0 .203125.199219.203125h.199219l15.800781-19.800781-9-20zm0 0" data-original="#000000" class="" style="fill:#031B4E" data-old_color="#5E8DA7"/><path d="m314.902344 266.007812c-8.398438 0-15.199219-6.800781-15.199219-15.199218v-76.402344c0-8.398438 6.800781-15.199219 15.199219-15.199219 8.402344 0 15.203125 6.800781 15.203125 15.199219v76.402344c0 8.398437-6.800781 15.199218-15.203125 15.199218zm0-97c-3 0-5.199219 2.398438-5.199219 5.199219v76.402344c0 3 2.402344 5.199219 5.199219 5.199219 3 0 5.203125-2.402344 5.203125-5.199219v-76.203125c.199219-3-2.203125-5.398438-5.203125-5.398438zm0 0" data-original="#000000" class="" style="fill:#031B4E" data-old_color="#5E8DA7"/><path d="m325.304688 255.609375c-2.800782 0-5-2.203125-5-5v-76.203125c0-2.796875 2.199218-5 5-5h.398437c23.800781 2 41.402344 23 39.199219 46.800781-1.796875 20.800781-18.398438 37.402344-39.199219 39.199219-.199219.203125-.398437.203125-.398437.203125zm5-75.203125v64.203125c17.800781-4.601563 28.398437-22.601563 23.800781-40.402344-3-11.597656-12.203125-20.800781-23.800781-23.800781zm0 0" data-original="#000000" class="" style="fill:#031B4E" data-old_color="#5E8DA7"/><path d="m173.503906 266.007812c-8.398437 0-15.199218-6.800781-15.199218-15.199218v-76.402344c0-8.398438 7-15.199219 15.398437-15.199219 8.402344 0 15 6.800781 15.199219 15.199219v76.402344c-.199219 8.398437-7 15.199218-15.398438 15.199218zm0-97c-3 0-5.199218 2.398438-5.199218 5.199219v76.402344c0 3 2.199218 5.398437 5.199218 5.398437s5.398438-2.199218 5.398438-5.199218v-.199219-76.203125c-.199219-3-2.398438-5.398438-5.398438-5.398438zm0 0" data-original="#000000" class="" style="fill:#031B4E" data-old_color="#5E8DA7"/><path d="m163.304688 255.609375c-.199219 0-.199219 0-.402344 0-23.796875-2-41.398438-23-39.199219-46.800781 1.800781-20.800782 18.402344-37.402344 39.199219-39.199219 2.800781-.203125 5.203125 1.796875 5.402344 4.597656v.402344 76.199219c0 2.597656-2.402344 4.800781-5 4.800781zm-5-75.203125c-17.800782 4.601562-28.402344 22.601562-23.800782 40.402344 3 11.800781 12.199219 20.800781 23.800782 23.800781zm0 0" data-original="#000000" class="" style="fill:#031B4E" data-old_color="#5E8DA7"/><path d="m342.105469 185.007812c-1 0-1.800781-.199218-2.601563-.800781-4.398437-2.800781-9.398437-4.398437-14.601562-4.800781-2.597656-.199219-4.597656-2.398438-4.597656-5 0-1.597656-.601563-3.199219-2-4.199219-1-.800781-1.800782-2.199219-1.800782-3.597656-2.398437-39.601563-36.398437-69.800781-76-67.402344-36.199218 2.199219-65.199218 30.800781-67.601562 66.800781-.199219 1.601563-1 3-2.199219 3.800782-1.597656 1-2.398437 2.597656-2.398437 4.398437 0 2.601563-2 4.800781-4.601563 5.199219-5 .402344-9.597656 2-14 4.402344-2.398437 1.398437-5.398437.597656-6.800781-1.800782-.398438-.800781-.597656-1.601562-.597656-2.601562v-8.597656c0-56.601563 46-102.402344 102.398437-102.402344 56.601563 0 102.402344 45.800781 102.402344 102.402344v9.199218c0 2.800782-2.203125 5-5 5zm-12.601563-15c2.601563.398438 5 1.199219 7.601563 2v-1.199218c0-51-41.402344-92.402344-92.402344-92.402344s-92.398437 41.402344-92.398437 92.402344v.800781c2.199218-.800781 4.398437-1.402344 6.597656-1.800781.800781-2.601563 2.203125-5 4.203125-6.800782 4.398437-45 44.199219-78 89.398437-73.601562 39.398438 3.800781 70.398438 35.203125 73.800782 74.601562 1.398437 1.800782 2.597656 3.800782 3.199218 6zm0 0" data-original="#000000" class="" style="fill:#031B4E" data-old_color="#5E8DA7"/><path d="m244.105469 299.007812c-36.203125 0-65.402344-29.398437-65.601563-65.398437v-48.800781c0-2.402344 1.199219-4.800782 3-6.402344 2-1.597656 4.398438-2.199219 6.800782-1.597656 11.597656 2.398437 40.800781 5.398437 60.800781-19.800782 2.796875-3.601562 8-4.199218 11.597656-1.398437.199219.199219.402344.398437.601563.597656 4.199218 4 16.398437 13.601563 40.199218 14.199219 4.398438.203125 7.800782 3.601562 8 8v54.800781c0 19.800781-9 38.402344-24.398437 50.800781-1.402344 1.199219-3.402344 1.398438-5.203125.601563-.597656-.402344-1.398438-.402344-2.199219-.402344h-16.597656c-3 0-5.203125 2.402344-5.203125 5.199219 0 .601562.203125 1.203125.402344 1.800781 1 2.601563-.402344 5.402344-3 6.402344-.402344.199219-.800782.199219-1.199219.199219-2.402344 1-5.203125 1.199218-8 1.199218zm-55.402344-112.199218v46.597656c0 30.601562 24.800781 55.402344 55.601563 55.402344h2c.597656-8 7.199218-14.402344 15.199218-14.402344h16.601563c1 0 2 .203125 3 .402344 11.796875-10.402344 18.597656-25.601563 18.597656-41.402344v-53c-23.398437-1-37-9.796875-43.800781-15.796875-22.597656 27-55 24.398437-67.199219 22.199219zm112.601563-6.402344" data-original="#000000" class="" style="fill:#031B4E" data-old_color="#5E8DA7"/><path d="m277.902344 305.007812h-16.597656c-8.402344 0-15.402344-6.601562-15.402344-15.199218 0-8.402344 6.601562-15.402344 15.203125-15.402344h.398437 16.601563c8.398437 0 15.398437 6.601562 15.398437 15.203125 0 8.398437-6.601562 15.398437-15.199218 15.398437-.199219 0-.199219 0-.402344 0zm-16.398438-20.398437c-3 0-5.398437 2.199219-5.398437 5.199219s2.199219 5.398437 5.199219 5.398437h.199218 16.601563c3 0 5.398437-2.199219 5.398437-5.199219s-2.199218-5.398437-5.199218-5.398437h-.199219zm0 0" data-original="#000000" class="" style="fill:#031B4E" data-old_color="#5E8DA7"/><path d="m254.703125 345.007812h-20.199219c-4.199218 0-8-2.398437-9.800781-6.398437l-12-26.601563c-.199219-.601562-.398437-1.398437-.398437-2v-22.398437c0-2.800781 2.199218-5 5-5 .800781 0 1.597656.199219 2.199218.597656 7.601563 3.800781 16.199219 5.800781 24.800782 5.800781 2.398437 0 4.800781-.199218 7-.398437 2.398437-.203125 4.597656 1 5.398437 3.199219.800781 2 2.800781 3.398437 5 3.398437h11.402344c2.796875 0 5 2.199219 5 5v9.800781c0 .800782-.203125 1.601563-.402344 2.199219l-13 26.800781c-2.199219 3.601563-5.800781 6-10 6zm-32.597656-36.199218 11.597656 25.597656c.199219.203125.402344.402344.800781.402344h20.199219c.199219 0 .601563-.199219.800781-.402344l12.398438-25.796875v-3.601563h-6.398438c-5 0-9.601562-2.398437-12.398437-6.398437-9.203125.597656-18.203125-.601563-26.800781-3.601563zm0 0" data-original="#000000" class="" style="fill:#031B4E" data-old_color="#5E8DA7"/><path d="m288.105469 293.40625c-2.800781 0-5-2.199219-5-5 0-2.398438 1.796875-4.597656 4.199219-5 27-4.398438 43-18 47.199218-22.398438v-14.800781c0-2.800781 2.199219-5 5-5 2.800782 0 5 2.199219 5 5v16.800781c0 1.199219-.398437 2.398438-1.199218 3.199219-.800782.800781-18.601563 21-54.402344 26.800781-.199219.398438-.597656.398438-.796875.398438zm0 0" data-original="#000000" class="" style="fill:#031B4E" data-old_color="#5E8DA7"/><path d="m321.105469 115.609375c-1.601563 0-3-.800781-4-2-31.601563-40-89.601563-47-129.601563-15.402344-5.601562 4.402344-10.601562 9.402344-15 15-1.800781 2.199219-4.800781 2.402344-7 .800781-.601562-.398437-1-.800781-1.199218-1.398437l-28.402344-50.800781c-1.398438-2.402344-.398438-5.402344 2-6.800782 67-35.601562 147.203125-35.601562 214.203125 0 2.398437 1.398438 3.398437 4.398438 2 6.800782l-28.601563 51.199218c-.800781 1.398438-2.398437 2.398438-4 2.601563-.199218 0-.199218 0-.398437 0zm-76.402344-47.203125c28.800781 0 56.199219 12 75.601563 33.402344l22.597656-40.402344c-61.597656-31-134.199219-31-195.796875 0l22.398437 39.800781c19.398438-20.800781 46.601563-32.800781 75.199219-32.800781zm0 0" data-original="#000000" class="" style="fill:#031B4E" data-old_color="#5E8DA7"/><path d="m378.503906 190.808594c-3.601562 0-7.199218-2-9-5.199219-6.398437-11.203125-14.199218-21.601563-23.398437-30.800781-3.800781-3.800782-8-7.601563-12.402344-11-.800781-.601563-1.398437-1.402344-1.597656-2.402344-3.402344-10-8.402344-19.398438-15-27.796875-1.203125-1.601563-1.402344-3.800781-.402344-5.601563l30.601563-54.601562c2.800781-5 9-6.597656 14-4 37.597656 21.402344 68.800781 52.402344 90 90 2.800781 5 1 11.203125-3.800782 14l-64 35.800781c-1.398437 1.199219-3.199218 1.601563-5 1.601563zm-37.199218-53.800782c15 12.199219 27.597656 27 37 43.800782 0 .199218.199218.199218.199218.199218l64-35.800781v-.199219c-20.398437-36-50.199218-65.800781-86.199218-86.199218l-4.601563-2.402344 4.402344 2.402344-29 51.800781c6 7.796875 10.796875 16.796875 14.199219 26.398437zm0 0" data-original="#000000" class="" style="fill:#031B4E" data-old_color="#5E8DA7"/><path d="m111.503906 190.808594c-1.800781 0-3.398437-.402344-5-1.199219l-64-35.800781c-5-2.800782-6.601562-9-4-14 21.398438-37.601563 52.398438-68.800782 90-90 5-2.800782 11.199219-1 14 3.800781l30.199219 54c1 1.796875.800781 4-.398437 5.597656-7 8.601563-12.402344 18.601563-15.800782 29-.199218 1-.800781 1.800781-1.601562 2.402344-4 3.199219-7.796875 6.597656-11.398438 10.199219-9.199218 9.199218-17 19.597656-23.398437 30.800781-1.601563 3.199219-5 5.199219-8.601563 5.199219zm19.800782-136.800782 2.398437 4.398438c-36 20.402344-65.800781 50.203125-86.199219 86.203125v.398437l64 35.800782h.199219c6.800781-12 15.199219-23.199219 25-33 3.402344-3.402344 7.199219-6.800782 11-10 3.402344-10.199219 8.402344-19.601563 15-28.199219l-28.800781-51.203125zm0 0" data-original="#000000" class="" style="fill:#031B4E" data-old_color="#5E8DA7"/><path d="m245.105469 418.207031c-26.203125 0-51.800781-6.398437-75-18.398437-2.402344-1.199219-3.402344-4.402344-2.203125-6.800782 0 0 0 0 0-.199218l1.800781-3.199219c0-.203125 0-.203125 0-.203125-18-10.199219-33.597656-23.796875-46.199219-40.199219-1.199218-1.597656-1.398437-4-.199218-5.597656 4-6.402344 10.199218-11 17.398437-12.800781l46.402344-11.601563 27.796875-13.800781c2.402344-1.199219 5.402344-.199219 6.601562 2.203125v.199219l12 26.597656c.199219.203125.398438.402344.800782.402344h20.199218c.199219 0 .601563-.199219.800782-.402344l13-26.796875c1.199218-2.402344 4.199218-3.601563 6.597656-2.402344l27.800781 13.800781 46.402344 11.601563c7.199219 1.796875 13.398437 6.398437 17.398437 12.796875 1.199219 1.800781 1 4-.199218 5.601562-4 5.398438-8.402344 10.398438-13.199219 15-9.800781 9.800782-20.800781 18.199219-33 25-.203125 0-.203125.199219 0 .199219l1.796875 3.199219c1.402344 2.402344.402344 5.402344-2 6.800781 0 0 0 0-.199219 0-22.800781 12.601563-48.597656 19-74.597656 19zm-66-25c41.597656 20 90.199219 20 131.796875 0-1.796875-4.800781.203125-10 4.601562-12.597656 15.601563-8.800781 29.398438-20.601563 40.800782-34.601563-2.402344-2.800781-5.800782-4.601562-9.402344-5.601562l-47-11.796875c-.398438 0-.597656-.203125-1-.402344l-23.796875-11.800781-10.800781 22.203125c-1.800782 3.796875-5.601563 6-9.601563 6h-20.199219c-4.199218 0-8-2.402344-9.800781-6.402344l-9.800781-22-23.597656 11.601563c-.402344.199218-.601563.199218-1 .398437l-47 11.800781c-3.601563.800782-6.800782 2.800782-9.402344 5.601563 11.402344 14 25.203125 25.597656 40.800781 34.597656 4.199219 3 6.199219 8.199219 4.402344 13zm0 0" data-original="#000000" class="" style="fill:#031B4E" data-old_color="#5E8DA7"/></g><path d="m111.902344 493.40625c-9-1.796875-15.796875-8.597656-17.597656-17.597656 0-.199219-.199219-.402344-.402344-.402344-.199219 0-.199219.203125-.398438.402344-1.800781 9-8.601562 15.800781-17.601562 17.597656-.199219 0-.398438.203125-.398438.402344 0 .199218.199219.199218.398438.398437 9 1.800781 15.800781 8.601563 17.601562 17.601563 0 .199218.199219.398437.398438.398437.203125 0 .203125-.199219.402344-.398437 1.800781-9 8.597656-15.800782 17.597656-17.601563.203125 0 .402344-.199219.402344-.398437-.199219-.402344-.199219-.402344-.402344-.402344zm0 0" fill="#fcd770" data-original="#FCD770"/><path d="m415.105469 43.007812h-17.402344c-2.800781 0-5-2.199218-5-5 0-2.800781 2.199219-5 5-5h17.402344c2.796875 0 5 2.199219 5 5 0 2.800782-2.203125 5-5 5zm0 0" fill="#f75c64" data-original="#F75C64" class="" style="fill:#C13D3D" data-old_color="#F75C64"/><path d="m406.304688 51.609375c-2.800782 0-5-2.203125-5-5v-17.402344c0-2.800781 2.199218-5 5-5 2.800781 0 5 2.199219 5 5v17.402344c0 2.796875-2.199219 5-5 5zm0 0" fill="#f75c64" data-original="#F75C64" class="" style="fill:#C13D3D" data-old_color="#F75C64"/><path d="m22.503906 411.007812h-17.398437c-2.800781 0-5-2.199218-5-5 0-2.800781 2.199219-5 5-5h17.398437c2.800782 0 5 2.199219 5 5 0 2.800782-2.398437 5-5 5zm0 0" fill="#60bae2" data-original="#60BAE2" class="" style="fill:#5E8DA7" data-old_color="#60BAE2"/><path d="m13.703125 419.808594c-2.800781 0-5-2.199219-5-5v-17.402344c0-2.796875 2.199219-5 5-5s5 2.203125 5 5v17.402344c0 2.597656-2.199219 5-5 5zm0 0" fill="#60bae2" data-original="#60BAE2" class="" style="fill:#5E8DA7" data-old_color="#60BAE2"/><path d="m346.304688 10.007812c-1.402344 0-2.601563-.601562-3.601563-1.398437-.199219-.203125-.398437-.402344-.597656-.800781-.203125-.199219-.402344-.601563-.402344-.800782-.199219-.398437-.199219-.601562-.199219-1 0-.398437-.199218-.601562-.199218-1 0-.398437 0-.601562.199218-1 0-.398437.199219-.601562.199219-1 .199219-.398437.199219-.601562.402344-.800781.199219-.199219.398437-.597656.597656-.800781 1.402344-1.3984375 3.601563-1.796875 5.402344-1 .199219.203125.597656.203125.796875.402344.203125.199218.601562.398437.800781.597656.199219.203125.402344.402344.601563.800781.199218.199219.398437.601563.398437.800781.199219.199219.199219.601563.199219 1 0 .398438 0 .601563.203125 1 0 .398438 0 .601563-.203125 1 0 .398438-.199219.601563-.199219 1-.199219.398438-.199219.601563-.398437.800782-.199219.199218-.402344.597656-.601563.800781-.199219.199219-.398437.398437-.800781.597656-.199219.199219-.597656.402344-.796875.402344-.402344.199219-.601563.199219-1 .199219-.203125.199218-.402344.199218-.800781.199218zm0 0" fill="#fcd770" data-original="#FCD770"/><path d="m79.105469 452.007812c-1.402344 0-2.601563-.601562-3.601563-1.398437-.199218-.203125-.398437-.402344-.601562-.800781-.199219-.199219-.398438-.601563-.398438-.800782-.199218-.398437-.199218-.601562-.199218-1 0-.398437-.199219-.601562 0-1 0-.398437 0-.601562 0-1 0-.398437.199218-.601562.199218-1 .199219-.398437.199219-.601562.398438-.800781.203125-.199219.402344-.597656.601562-.800781 1.398438-1.398438 3.601563-1.796875 5.398438-1 .203125.203125.601562.203125.800781.402344.199219.199218.601563.398437.800781.597656.199219.203125.398438.402344.601563.800781.199219.199219.398437.601563.398437.800781.199219.199219.199219.601563.199219 1v1 1c0 .398438-.199219.601563-.199219 1-.199218.398438-.199218.601563-.398437.800782-.203125.199218-.402344.597656-.601563.800781-.199218.199219-.398437.398437-.800781.597656-.199219.199219-.597656.402344-.800781.402344-.398438.199219-.597656.199219-1 .199219-.199219.199218-.597656.199218-.796875.199218zm0 0" fill="#6dcc6d" data-original="#6DCC6D" class="" style="fill:#6DCC6D"/></g> </svg>
