<?xml version="1.0"?>
<svg xmlns="http://www.w3.org/2000/svg" height="512px" viewBox="-36 0 472 472" width="512px" class=""><g><path d="m264 104h-128c.0625 26.199219-10.636719 51.277344-29.601562 69.359375-40.328126 38.246094-53.324219 97.183594-32.824219 148.84375s70.375 85.648437 125.953125 85.835937 105.679687-33.464843 126.527344-84.984374c20.847656-51.523438 8.246093-110.546876-31.824219-149.0625-19.1875-18.238282-30.105469-43.519532-30.230469-69.992188zm0 0" fill="#fbedbf" data-original="#FBEDBF" class="" style="fill:#5E8DA7" data-old_color="#FBEDBF"/><path d="m200 200c-4.417969 0-8-3.582031-8-8v-88c0-4.417969 3.582031-8 8-8s8 3.582031 8 8v88c0 4.417969-3.582031 8-8 8zm0 0" fill="#a8a8a8" data-original="#A8A8A8" class="" style="fill:#A8A8A8"/><path d="m288 272c0 48.601562-39.398438 88-88 88s-88-39.398438-88-88 39.398438-88 88-88 88 39.398438 88 88zm0 0" fill="#fbb540" data-original="#FBB540" class="" style="fill:#EBAA39" data-old_color="#FBB540"/><path d="m146.320312 296c-3.535156 0-6.652343-2.324219-7.664062-5.710938-3.542969-11.9375-3.542969-24.640624 0-36.578124 1.261719-4.234376 5.722656-6.640626 9.957031-5.378907s6.640625 5.722657 5.378907 9.957031c-2.65625 8.949219-2.65625 18.472657 0 27.421876 1.261718 4.234374-1.148438 8.691406-5.382813 9.953124-.742187.222657-1.515625.335938-2.289063.335938zm0 0" fill="#e8b35c" data-original="#E8B35C"/><path d="m253.679688 296c-.773438 0-1.546876-.113281-2.289063-.335938-4.234375-1.261718-6.644531-5.71875-5.382813-9.953124 2.65625-8.949219 2.65625-18.472657 0-27.421876-1.261718-4.234374 1.144532-8.695312 5.378907-9.957031s8.695312 1.144531 9.957031 5.378907c3.542969 11.9375 3.542969 24.640624 0 36.578124-1.011719 3.386719-4.128906 5.710938-7.664062 5.710938zm0 0" fill="#e8b35c" data-original="#E8B35C"/><path d="m199.089844 240h4.964844c4.296874-.011719 8.222656 2.417969 10.128906 6.265625l2.65625 5.308594c1.976562 3.957031 6.78125 5.5625 10.734375 3.585937 3.957031-1.976562 5.5625-6.78125 3.585937-10.734375l-2.664062-5.320312c-3.980469-8.007813-11.644532-13.546875-20.496094-14.816407v-8.289062c0-4.417969-3.582031-8-8-8s-8 3.582031-8 8v9.023438c-11.65625 3.09375-19.890625 13.480468-20.25 25.535156-.355469 12.050781 7.246094 22.90625 18.699219 26.6875l14.046875 4.683594c5.265625 1.757812 8.480468 7.078124 7.589844 12.558593-.890626 5.480469-5.621094 9.507813-11.175782 9.511719h-4.964844c-4.296874.011719-8.222656-2.417969-10.128906-6.265625l-2.65625-5.308594c-1.976562-3.957031-6.78125-5.5625-10.734375-3.585937-3.957031 1.976562-5.5625 6.78125-3.585937 10.734375l2.664062 5.320312c3.980469 8.007813 11.644532 13.546875 20.496094 14.816407v8.289062c0 4.417969 3.582031 8 8 8s8-3.582031 8-8v-9.023438c11.65625-3.09375 19.890625-13.480468 20.25-25.535156.355469-12.050781-7.246094-22.90625-18.699219-26.6875l-14.046875-4.683594c-5.265625-1.757812-8.480468-7.078124-7.589844-12.558593.890626-5.480469 5.621094-9.507813 11.175782-9.511719zm0 0" fill="#c99b50" data-original="#C99B50"/><path d="m136 64h128v40h-128zm0 0" fill="#d9d9d9" data-original="#D9D9D9" class="" style="fill:#C13D3D" data-old_color="#D9D9D9"/><path d="m136 8h128v40h-128zm0 0" fill="#d9d9d9" data-original="#D9D9D9" class="" style="fill:#C13D3D" data-old_color="#D9D9D9"/><path d="m136 40h128c8.835938 0 16 7.164062 16 16s-7.164062 16-16 16h-128c-8.835938 0-16-7.164062-16-16s7.164062-16 16-16zm0 0" fill="#cdcdcd" data-original="#CDCDCD" class="active-path" style="fill:#5E8DA7" data-old_color="#A8A8A8"/><g fill="#fbb540"><path d="m200 472c-4.417969 0-8-3.582031-8-8v-24c0-4.417969 3.582031-8 8-8s8 3.582031 8 8v24c0 4.417969-3.582031 8-8 8zm0 0" data-original="#000000" class="" style="fill:#031B4E" data-old_color="#000000"/><path d="m335.769531 415.769531c-2.125-.003906-4.15625-.84375-5.65625-2.34375l-16.976562-16.976562c-3.03125-3.140625-2.988281-8.128907.097656-11.214844s8.074219-3.128906 11.214844-.097656l16.976562 16.976562c2.285157 2.285157 2.96875 5.726563 1.730469 8.714844s-4.152344 4.9375-7.386719 4.941406zm0 0" data-original="#000000" class="" style="fill:#031B4E" data-old_color="#000000"/><path d="m392 280h-24c-4.417969 0-8-3.582031-8-8s3.582031-8 8-8h24c4.417969 0 8 3.582031 8 8s-3.582031 8-8 8zm0 0" data-original="#000000" class="" style="fill:#031B4E" data-old_color="#000000"/><path d="m318.792969 161.207031c-3.234375 0-6.152344-1.949219-7.390625-4.9375-1.238282-2.988281-.554688-6.429687 1.734375-8.71875l16.976562-16.976562c2.007813-2.078125 4.980469-2.910157 7.777344-2.179688s4.984375 2.917969 5.714844 5.714844-.101563 5.769531-2.179688 7.777344l-16.976562 16.976562c-1.5 1.5-3.535157 2.34375-5.65625 2.34375zm0 0" data-original="#000000" class="" style="fill:#031B4E" data-old_color="#000000"/><path d="m81.207031 161.207031c-2.121093 0-4.15625-.84375-5.65625-2.34375l-16.976562-16.976562c-3.03125-3.136719-2.988281-8.128907.097656-11.214844s8.078125-3.128906 11.214844-.097656l16.976562 16.976562c2.289063 2.289063 2.972657 5.730469 1.734375 8.71875-1.238281 2.988281-4.15625 4.9375-7.390625 4.9375zm0 0" data-original="#000000" class="" style="fill:#031B4E" data-old_color="#000000"/><path d="m32 280h-24c-4.417969 0-8-3.582031-8-8s3.582031-8 8-8h24c4.417969 0 8 3.582031 8 8s-3.582031 8-8 8zm0 0" data-original="#000000" class="" style="fill:#031B4E" data-old_color="#000000"/><path d="m64.230469 415.769531c-3.234375-.003906-6.148438-1.953125-7.386719-4.941406s-.554688-6.429687 1.730469-8.714844l16.976562-16.976562c3.140625-3.03125 8.128907-2.988281 11.214844.097656s3.128906 8.074219.097656 11.214844l-16.976562 16.976562c-1.5 1.5-3.53125 2.339844-5.65625 2.34375zm0 0" data-original="#000000" class="" style="fill:#031B4E" data-old_color="#000000"/></g><path d="m138.65625 253.710938c-3.542969 11.9375-3.542969 24.640624 0 36.578124 1.011719 3.386719 4.128906 5.710938 7.664062 5.710938.773438 0 1.546876-.113281 2.289063-.335938 4.234375-1.261718 6.644531-5.71875 5.382813-9.953124-2.65625-8.949219-2.65625-18.472657 0-27.421876 1.261718-4.234374-1.144532-8.695312-5.378907-9.957031s-8.695312 1.144531-9.957031 5.378907zm0 0" data-original="#000000" class="" style="fill:#031B4E" data-old_color="#000000"/><path d="m251.390625 295.664062c.742187.222657 1.515625.335938 2.289063.335938 3.535156 0 6.652343-2.324219 7.664062-5.710938 3.542969-11.9375 3.542969-24.640624 0-36.578124-1.261719-4.234376-5.722656-6.640626-9.957031-5.378907s-6.640625 5.722657-5.378907 9.957031c2.65625 8.949219 2.65625 18.472657 0 27.421876-1.261718 4.234374 1.148438 8.691406 5.382813 9.953124zm0 0" data-original="#000000" class="" style="fill:#031B4E" data-old_color="#000000"/><path d="m171.503906 304.894531c3.980469 8.007813 11.644532 13.546875 20.496094 14.816407v8.289062c0 4.417969 3.582031 8 8 8s8-3.582031 8-8v-9.023438c11.65625-3.09375 19.890625-13.480468 20.25-25.535156.355469-12.050781-7.246094-22.90625-18.699219-26.6875l-14.046875-4.683594c-5.265625-1.757812-8.480468-7.078124-7.589844-12.558593.890626-5.480469 5.621094-9.507813 11.175782-9.511719h4.964844c4.296874-.011719 8.222656 2.417969 10.128906 6.265625l2.65625 5.308594c1.976562 3.957031 6.78125 5.5625 10.734375 3.585937 3.957031-1.976562 5.5625-6.78125 3.585937-10.734375l-2.664062-5.320312c-3.980469-8.007813-11.644532-13.546875-20.496094-14.816407v-8.289062c0-4.417969-3.582031-8-8-8s-8 3.582031-8 8v9.023438c-11.65625 3.09375-19.890625 13.480468-20.25 25.535156-.355469 12.050781 7.246094 22.90625 18.699219 26.6875l14.046875 4.683594c5.265625 1.757812 8.480468 7.078124 7.589844 12.558593-.890626 5.480469-5.621094 9.507813-11.175782 9.511719h-4.964844c-4.296874.011719-8.222656-2.417969-10.128906-6.265625l-2.65625-5.308594c-1.976562-3.957031-6.78125-5.5625-10.734375-3.585937-3.957031 1.976562-5.5625 6.78125-3.585937 10.734375zm0 0" data-original="#000000" class="" style="fill:#031B4E" data-old_color="#000000"/><path d="m299.792969 168.230469c-17.574219-16.765625-27.601563-39.941407-27.792969-64.230469v-25.472656c9.585938-3.339844 16.007812-12.378906 16.007812-22.527344s-6.421874-19.1875-16.007812-22.527344v-25.472656c0-4.417969-3.582031-8-8-8h-128c-4.417969 0-8 3.582031-8 8v25.472656c-9.585938 3.339844-16.007812 12.378906-16.007812 22.527344s6.421874 19.1875 16.007812 22.527344v25.472656c.03125 23.996094-9.757812 46.957031-27.089844 63.550781-40.570312 38.484375-55.195312 96.972657-37.507812 150.023438 17.683594 53.046875 64.484375 91.058593 120.03125 97.496093 5.578125.628907 11.183594.945313 16.796875.945313 35.371093.109375 69.511719-12.960937 95.769531-36.65625 30.53125-27.339844 47.984375-66.378906 48-107.359375.136719-39.191406-15.847656-76.714844-44.207031-103.769531zm-155.792969-152.230469h112v16h-112zm-16 40c0-4.417969 3.582031-8 8-8h128c4.417969 0 8 3.582031 8 8s-3.582031 8-8 8h-128c-4.417969 0-8-3.582031-8-8zm128 24v16h-112v-16zm29.296875 287.441406c-52.246094 45.714844-131.410156 41.453125-178.441406-9.613281-47.035157-51.0625-44.785157-130.3125 5.066406-178.628906 18.519531-17.710938 29.835937-41.644531 31.765625-67.199219h48.3125v64.40625c-51.28125 4.289062-90.0625 48.253906-87.917969 99.671875 2.148438 51.417969 44.457031 91.996094 95.917969 91.996094s93.769531-40.578125 95.917969-91.996094c2.144531-51.417969-36.636719-95.382813-87.917969-99.671875v-64.40625h48.320312c2.191407 25.777344 13.703126 49.871094 32.382813 67.769531 25.210937 24.042969 39.417969 57.394531 39.296875 92.230469-.023438 36.4375-15.550781 71.140625-42.703125 95.441406zm-85.296875-175.441406c44.183594 0 80 35.816406 80 80s-35.816406 80-80 80-80-35.816406-80-80c.046875-44.164062 35.835938-79.953125 80-80zm0 0" data-original="#000000" class="" style="fill:#031B4E" data-old_color="#000000"/><path d="m192 440v24c0 4.417969 3.582031 8 8 8s8-3.582031 8-8v-24c0-4.417969-3.582031-8-8-8s-8 3.582031-8 8zm0 0" data-original="#000000" class="" style="fill:#031B4E" data-old_color="#000000"/><path d="m313.136719 385.136719c-3.125 3.125-3.125 8.1875 0 11.3125l16.976562 16.976562c2.007813 2.078125 4.980469 2.910157 7.777344 2.179688s4.984375-2.917969 5.714844-5.714844-.101563-5.769531-2.179688-7.777344l-16.976562-16.976562c-3.125-3.125-8.1875-3.125-11.3125 0zm0 0" data-original="#000000" class="" style="fill:#031B4E" data-old_color="#000000"/><path d="m392 264h-24c-4.417969 0-8 3.582031-8 8s3.582031 8 8 8h24c4.417969 0 8-3.582031 8-8s-3.582031-8-8-8zm0 0" data-original="#000000" class="" style="fill:#031B4E" data-old_color="#000000"/><path d="m324.449219 158.863281 16.976562-16.976562c2.078125-2.007813 2.910157-4.980469 2.179688-7.777344s-2.917969-4.984375-5.714844-5.714844-5.769531.101563-7.777344 2.179688l-16.976562 16.976562c-2.082031 2.011719-2.914063 4.984375-2.183594 7.78125.734375 2.796875 2.917969 4.980469 5.714844 5.714844 2.796875.730469 5.769531-.101563 7.78125-2.183594zm0 0" data-original="#000000" class="" style="fill:#031B4E" data-old_color="#000000"/><path d="m81.207031 161.207031c3.234375 0 6.152344-1.949219 7.390625-4.9375 1.238282-2.988281.554688-6.429687-1.734375-8.71875l-16.976562-16.976562c-3.136719-3.03125-8.128907-2.988281-11.214844.097656s-3.128906 8.078125-.097656 11.214844l16.976562 16.976562c1.5 1.5 3.535157 2.34375 5.65625 2.34375zm0 0" data-original="#000000" class="" style="fill:#031B4E" data-old_color="#000000"/><path d="m8 280h24c4.417969 0 8-3.582031 8-8s-3.582031-8-8-8h-24c-4.417969 0-8 3.582031-8 8s3.582031 8 8 8zm0 0" data-original="#000000" class="" style="fill:#031B4E" data-old_color="#000000"/><path d="m75.550781 385.136719-16.976562 16.976562c-2.078125 2.007813-2.910157 4.980469-2.179688 7.777344s2.917969 4.984375 5.714844 5.714844 5.769531-.101563 7.777344-2.179688l16.976562-16.976562c3.03125-3.140625 2.988281-8.128907-.097656-11.214844s-8.074219-3.128906-11.214844-.097656zm0 0" data-original="#000000" class="" style="fill:#031B4E" data-old_color="#000000"/></g> </svg>
