<?xml version="1.0"?>
<svg xmlns="http://www.w3.org/2000/svg" xmlns:xlink="http://www.w3.org/1999/xlink" version="1.1" id="Capa_1" x="0px" y="0px" viewBox="0 0 130.939 130.939" style="enable-background:new 0 0 130.939 130.939;" xml:space="preserve" width="512px" height="512px" class=""><g><g>
	<path style="fill:#5E8DA7" d="M107.792,66.076c-0.01,0.651-0.035,1.301-0.075,1.947C107.757,67.377,107.782,66.728,107.792,66.076   z" data-original="#ADF9C6" class="active-path" data-old_color="#ADF9C6"/>
	<path style="fill:#C13D3D" d="M90.584,106.754l16.902,0.171l-0.412-16.924C103.089,96.763,97.469,102.563,90.584,106.754z" data-original="#FF8898" class="" data-old_color="#FF8898"/>
	<path style="fill:#C13D3D" d="M23.107,42.269L8.355,50.571l8.792,14.435C17.229,56.947,19.337,49.152,23.107,42.269z" data-original="#FF8898" class="" data-old_color="#FF8898"/>
	<path style="fill:#C13D3D" d="M24.186,90.575l-0.173,16.911l16.894-0.411C34.118,103.055,28.347,97.399,24.186,90.575z" data-original="#FF8898" class="" data-old_color="#FF8898"/>
	<path style="fill:#C13D3D" d="M40.355,24.185l-16.901-0.171l0.411,16.925C27.851,34.176,33.471,28.376,40.355,24.185z" data-original="#FF8898" class="" data-old_color="#FF8898"/>
	<path style="fill:#C13D3D" d="M50.571,122.583l14.412-8.778c-8.127-0.078-15.885-2.208-22.703-5.952L50.571,122.583z" data-original="#FF8898" class="" data-old_color="#FF8898"/>
	<path style="fill:#C13D3D" d="M17.15,66.581L8.564,81.124l14.826,8.111c-1.923-3.396-3.455-7.061-4.524-10.944   C17.793,74.386,17.239,70.459,17.15,66.581z" data-original="#FF8898" class="" data-old_color="#FF8898"/>
	<path style="fill:#C13D3D" d="M66.562,113.776l14.563,8.598l8.106-14.816c-3.377,1.906-7.034,3.439-10.939,4.514   C74.449,113.128,70.509,113.685,66.562,113.776z" data-original="#FF8898" class="" data-old_color="#FF8898"/>
	<path style="fill:#C13D3D" d="M106.753,40.364l0.173-16.911l-16.895,0.41C96.82,27.884,102.592,33.54,106.753,40.364z" data-original="#FF8898" class="" data-old_color="#FF8898"/>
	<path style="fill:#C13D3D" d="M113.788,64.358l8.586-14.543l-14.826-8.111c1.923,3.396,3.455,7.06,4.523,10.944   C113.146,56.554,113.7,60.48,113.788,64.358z" data-original="#FF8898" class="" data-old_color="#FF8898"/>
	<path style="fill:#C13D3D" d="M113.791,65.934c-0.081,8.06-2.189,15.854-5.961,22.738l14.753-8.304L113.791,65.934z" data-original="#FF8898" class="" data-old_color="#FF8898"/>
	<path style="fill:#C13D3D" d="M64.378,17.162L49.815,8.564l-8.106,14.816c3.377-1.907,7.034-3.439,10.939-4.514   C56.49,17.81,60.431,17.254,64.378,17.162z" data-original="#FF8898" class="" data-old_color="#FF8898"/>
	<path style="fill:#C13D3D" d="M80.368,8.356l-14.412,8.778c8.127,0.078,15.885,2.208,22.702,5.952L80.368,8.356z" data-original="#FF8898" class="" data-old_color="#FF8898"/>
	<path style="fill:#031B4E" d="M120.313,65.107l10.379-17.581l-17.911-9.799l0.207-20.423L92.569,17.8L82.552,0L65.107,10.625   L47.526,0.246l-9.799,17.912l-20.423-0.207L17.8,38.37L0,48.388l10.625,17.444L0.246,83.413l17.911,9.799l-0.207,20.423   l20.421-0.496l10.017,17.8l17.444-10.625l17.581,10.379l9.799-17.912l20.423,0.207l-0.496-20.419l17.8-10.017L120.313,65.107z    M122.374,49.815l-8.586,14.543c-0.088-3.878-0.643-7.805-1.717-11.71c-1.068-3.884-2.6-7.549-4.523-10.944L122.374,49.815z    M106.926,23.453l-0.173,16.911c-4.161-6.824-9.933-12.48-16.722-16.501L106.926,23.453z M80.368,8.356l8.29,14.73   c-6.817-3.744-14.575-5.874-22.702-5.952L80.368,8.356z M65.496,23.124c11.191,0,21.614,4.453,29.317,11.862L24.657,54.288   C28.494,40.372,39.34,28.752,54.24,24.652C57.926,23.639,61.713,23.124,65.496,23.124z M49.815,8.564l14.563,8.598   c-3.947,0.092-7.888,0.648-11.73,1.705c-3.905,1.074-7.563,2.606-10.939,4.514L49.815,8.564z M40.355,24.185   c-6.884,4.191-12.504,9.991-16.49,16.754l-0.411-16.925L40.355,24.185z M8.355,50.571l14.752-8.303   c-3.771,6.884-5.879,14.679-5.96,22.737L8.355,50.571z M8.564,81.124l8.586-14.543c0.089,3.878,0.643,7.805,1.717,11.71   c1.068,3.884,2.601,7.549,4.524,10.944L8.564,81.124z M24.013,107.486l0.173-16.911c4.161,6.824,9.933,12.479,16.722,16.5   L24.013,107.486z M50.571,122.583l-8.291-14.73c6.818,3.744,14.576,5.874,22.703,5.952L50.571,122.583z M65.443,107.814   c-11.279,0-21.779-4.521-29.501-12.034l70.402-19.369c-3.779,14.021-14.661,25.752-29.646,29.875   C73.014,107.3,69.227,107.814,65.443,107.814z M81.124,122.374l-14.563-8.598c3.947-0.092,7.888-0.648,11.729-1.705   c3.905-1.074,7.563-2.607,10.939-4.514L81.124,122.374z M90.584,106.754c6.885-4.191,12.505-9.991,16.49-16.753l0.412,16.924   L90.584,106.754z M107.717,68.023c-0.04,0.646-0.095,1.291-0.164,1.933c-0.238,0.006-0.479,0.031-0.719,0.098l-75.206,20.69   c-0.028,0.008-0.052,0.022-0.08,0.031c-3.096-4.139-5.468-8.882-6.896-14.073c-1.462-5.313-1.826-10.84-1.253-15.84   c0.002,0,0.004,0,0.006,0L98.61,40.169c0.212-0.059,0.409-0.145,0.597-0.242c3.184,4.195,5.623,9.021,7.079,14.313   c1.088,3.953,1.567,7.93,1.506,11.836C107.782,66.728,107.757,67.377,107.717,68.023z M107.83,88.672   c3.771-6.884,5.88-14.679,5.961-22.738l8.792,14.435L107.83,88.672z" data-original="#586065" class="" data-old_color="#586065"/>
	<path style="fill:#EBAA39" d="M106.345,76.411L35.942,95.78c7.722,7.514,18.222,12.034,29.501,12.034   c3.783,0,7.57-0.515,11.256-1.528C91.684,102.163,102.565,90.433,106.345,76.411z" data-original="#FFC63F" class="" data-old_color="#FFC63F"/>
	<path style="fill:#5E8DA7" d="M106.286,54.24c-1.456-5.292-3.896-10.118-7.079-14.313c-0.188,0.098-0.385,0.183-0.597,0.242   L23.405,60.862c-0.002,0-0.004,0-0.006,0c-0.573,5-0.209,10.526,1.253,15.84c1.428,5.191,3.8,9.935,6.896,14.073   c0.028-0.009,0.052-0.023,0.08-0.031l75.206-20.69c0.24-0.066,0.48-0.092,0.719-0.098c0.069-0.642,0.124-1.286,0.164-1.933   c0.04-0.646,0.065-1.296,0.075-1.947C107.854,62.17,107.374,58.193,106.286,54.24z M43.105,78.161   c-0.87,1.104-2.189,1.969-3.771,2.404c-2.412,0.64-4.771-0.006-6.315-0.659c-0.6-0.266-0.869-0.983-0.625-1.577   c0.267-0.601,0.982-0.869,1.583-0.604c1.201,0.533,3.15,1.002,4.727,0.545c1.113-0.307,2.023-0.916,2.557-1.59   c0.534-0.674,0.67-1.311,0.517-1.867c-0.079-0.289-0.202-0.472-0.397-0.658c-0.193-0.186-0.455-0.353-0.851-0.483   c-0.763-0.246-1.958-0.324-3.34-0.208l-0.044,0.013c-1.103,0.087-2.156,0.089-3.113-0.079c-0.956-0.168-1.845-0.521-2.549-1.167   c-0.482-0.442-0.831-1.017-1.015-1.686c-0.368-1.336,0.07-2.702,0.886-3.743c0.84-1.044,2.081-1.842,3.529-2.24   c2.139-0.588,4.008,0.023,5.347,0.447c0.61,0.215,0.962,0.884,0.747,1.495c-0.188,0.626-0.857,0.979-1.49,0.769   c-1.344-0.444-2.619-0.813-3.979-0.439c-1.002,0.276-1.807,0.834-2.286,1.445c-0.478,0.61-0.59,1.167-0.461,1.636   c0.073,0.268,0.168,0.433,0.328,0.58c0.16,0.148,0.416,0.294,0.762,0.414c0.688,0.241,1.789,0.323,3.054,0.214l0.044-0.012   c1.196-0.09,2.323-0.089,3.332,0.09c1.034,0.194,1.996,0.553,2.735,1.235c0.48,0.442,0.865,1.056,1.056,1.746   C44.463,75.607,43.998,77.053,43.105,78.161z M59.499,74.969c-0.1,0.075-0.249,0.141-0.405,0.184   c-0.489,0.135-1.037-0.026-1.35-0.468l-1.888-2.595l-5.413,1.489l-0.295,3.195c-0.066,0.545-0.454,0.964-0.943,1.099   c-0.156,0.043-0.297,0.058-0.442,0.05c-0.713-0.066-1.222-0.693-1.176-1.401L48.9,62.047c0.066-0.544,0.469-0.991,0.965-1.104   c0.508-0.163,1.06,0.021,1.396,0.454l8.532,11.766C60.193,73.748,60.078,74.547,59.499,74.969z M72.256,71.531l-7.218,1.985   c-0.044,0.013-0.044,0.013-0.044,0.013c-0.023,0.007-0.023,0.007-0.023,0.007c-0.69,0.189-1.377-0.221-1.561-0.889l-3.616-13.142   c-0.184-0.669,0.198-1.372,0.888-1.562c0.691-0.19,1.401,0.213,1.585,0.881l3.272,11.895l6.036-1.661   c0.646-0.178,1.378,0.221,1.568,0.911C73.327,70.638,72.901,71.354,72.256,71.531z M85.238,67.96l-7.217,1.985   c-0.044,0.012-0.05-0.011-0.05-0.011l-0.017,0.029c-0.69,0.189-1.378-0.22-1.563-0.889l-3.615-13.142   c-0.189-0.69,0.197-1.372,0.888-1.562l0.023-0.007c0,0,0,0,0.045-0.012l7.217-1.985c0.647-0.178,1.372,0.197,1.563,0.888   c0.189,0.69-0.236,1.405-0.883,1.583L75.593,56.5l1.122,4.077l5.189-1.428c0.669-0.184,1.385,0.242,1.563,0.889   c0.189,0.689-0.214,1.399-0.882,1.583l-5.19,1.428l1.128,4.099l6.036-1.66c0.646-0.178,1.379,0.221,1.568,0.91   C86.311,67.065,85.885,67.782,85.238,67.96z M99.536,62.636c-0.87,1.104-2.189,1.969-3.771,2.403   c-2.412,0.64-4.771-0.005-6.315-0.658c-0.6-0.266-0.869-0.983-0.625-1.577c0.267-0.601,0.982-0.869,1.583-0.604   c1.201,0.533,3.15,1.002,4.727,0.545c1.113-0.307,2.023-0.916,2.557-1.59c0.534-0.674,0.67-1.311,0.517-1.867   c-0.079-0.289-0.202-0.472-0.397-0.658c-0.194-0.186-0.455-0.354-0.851-0.483c-0.763-0.246-1.958-0.324-3.34-0.208l-0.045,0.013   c-1.102,0.087-2.155,0.089-3.112-0.079c-0.956-0.168-1.845-0.521-2.549-1.167c-0.482-0.442-0.831-1.017-1.015-1.686   c-0.368-1.336,0.07-2.702,0.886-3.743c0.84-1.045,2.081-1.842,3.529-2.24c2.139-0.588,4.008,0.024,5.347,0.446   c0.61,0.216,0.962,0.885,0.747,1.496c-0.187,0.626-0.857,0.979-1.49,0.769c-1.344-0.445-2.619-0.813-3.978-0.44   c-1.003,0.276-1.807,0.834-2.286,1.445c-0.479,0.61-0.59,1.167-0.461,1.636c0.073,0.268,0.168,0.433,0.328,0.58   c0.16,0.148,0.416,0.294,0.762,0.414c0.689,0.241,1.788,0.322,3.054,0.214l0.043-0.013c1.197-0.089,2.324-0.088,3.333,0.091   c1.034,0.194,1.996,0.553,2.735,1.235c0.481,0.442,0.865,1.056,1.055,1.746C100.895,60.082,100.43,61.527,99.536,62.636z" data-original="#ADF9C6" class="active-path" data-old_color="#ADF9C6"/>
	<polygon style="fill:#5E8DA7" points="50.66,70.884 54.27,69.892 51.146,65.598  " data-original="#ADF9C6" class="active-path" data-old_color="#ADF9C6"/>
	<path style="fill:#EBAA39" d="M24.657,54.288l70.156-19.302c-7.703-7.409-18.126-11.862-29.317-11.862   c-3.783,0-7.57,0.515-11.256,1.528C39.34,28.752,28.494,40.372,24.657,54.288z" data-original="#FFC63F" class="" data-old_color="#FFC63F"/>
	<path style="fill:#031B4E" d="M43.016,72.436c-0.739-0.683-1.701-1.041-2.735-1.235c-1.009-0.179-2.136-0.18-3.332-0.09   l-0.044,0.012c-1.265,0.109-2.365,0.027-3.054-0.214c-0.346-0.12-0.602-0.266-0.762-0.414c-0.16-0.147-0.255-0.313-0.328-0.58   c-0.129-0.469-0.018-1.025,0.461-1.636c0.479-0.611,1.284-1.169,2.286-1.445c1.359-0.373,2.635-0.005,3.979,0.439   c0.633,0.21,1.303-0.143,1.49-0.769c0.215-0.611-0.137-1.28-0.747-1.495c-1.339-0.424-3.208-1.035-5.347-0.447   c-1.448,0.398-2.689,1.196-3.529,2.24c-0.815,1.041-1.254,2.407-0.886,3.743c0.184,0.669,0.532,1.243,1.015,1.686   c0.704,0.646,1.593,0.999,2.549,1.167c0.957,0.168,2.011,0.166,3.113,0.079l0.044-0.013c1.382-0.116,2.577-0.038,3.34,0.208   c0.396,0.13,0.657,0.298,0.851,0.483c0.195,0.187,0.318,0.369,0.397,0.658c0.153,0.557,0.018,1.193-0.517,1.867   c-0.533,0.674-1.443,1.283-2.557,1.59c-1.576,0.457-3.525-0.012-4.727-0.545c-0.601-0.266-1.316,0.003-1.583,0.604   c-0.244,0.594,0.025,1.312,0.625,1.577c1.545,0.653,3.903,1.299,6.315,0.659c1.581-0.436,2.9-1.301,3.771-2.404   c0.894-1.108,1.358-2.554,0.967-3.979C43.881,73.491,43.496,72.878,43.016,72.436z" data-original="#586065" class="" data-old_color="#586065"/>
	<path style="fill:#031B4E" d="M51.261,61.397c-0.336-0.434-0.888-0.617-1.396-0.454c-0.496,0.112-0.899,0.559-0.965,1.104   l-1.313,14.475c-0.046,0.708,0.463,1.335,1.176,1.401c0.145,0.008,0.286-0.007,0.442-0.05c0.489-0.135,0.877-0.554,0.943-1.099   l0.295-3.195l5.413-1.489l1.888,2.595c0.313,0.441,0.86,0.603,1.35,0.468c0.156-0.043,0.306-0.108,0.405-0.184   c0.579-0.422,0.694-1.221,0.294-1.806L51.261,61.397z M50.66,70.884l0.486-5.286l3.123,4.294L50.66,70.884z" data-original="#586065" class="" data-old_color="#586065"/>
	<path style="fill:#031B4E" d="M71.575,69.059l-6.036,1.661l-3.272-11.895c-0.184-0.668-0.894-1.071-1.585-0.881   c-0.689,0.189-1.071,0.893-0.888,1.562l3.616,13.142c0.184,0.668,0.871,1.078,1.561,0.889c0,0,0,0,0.023-0.007c0,0,0,0,0.044-0.013   l7.218-1.985c0.646-0.178,1.071-0.893,0.888-1.561C72.953,69.279,72.221,68.881,71.575,69.059z" data-original="#586065" class="" data-old_color="#586065"/>
	<path style="fill:#031B4E" d="M84.559,65.487l-6.036,1.66l-1.128-4.099l5.19-1.428c0.668-0.184,1.071-0.894,0.882-1.583   c-0.178-0.646-0.894-1.072-1.563-0.889l-5.189,1.428L75.593,56.5l6.036-1.661c0.646-0.178,1.072-0.893,0.883-1.583   c-0.191-0.691-0.916-1.066-1.563-0.888l-7.217,1.985c-0.045,0.012-0.045,0.012-0.045,0.012l-0.023,0.007   c-0.69,0.189-1.077,0.871-0.888,1.562l3.615,13.142c0.185,0.669,0.872,1.078,1.563,0.889l0.017-0.029c0,0,0.006,0.022,0.05,0.011   l7.217-1.985c0.647-0.178,1.072-0.895,0.889-1.563C85.938,65.708,85.205,65.31,84.559,65.487z" data-original="#586065" class="" data-old_color="#586065"/>
	<path style="fill:#031B4E" d="M99.447,56.91c-0.739-0.683-1.701-1.041-2.735-1.235c-1.009-0.179-2.136-0.18-3.333-0.091   l-0.043,0.013c-1.266,0.108-2.365,0.027-3.054-0.214c-0.346-0.12-0.602-0.266-0.762-0.414c-0.16-0.147-0.255-0.313-0.328-0.58   c-0.129-0.469-0.018-1.025,0.461-1.636c0.479-0.611,1.283-1.169,2.286-1.445c1.359-0.373,2.635-0.006,3.978,0.44   c0.633,0.21,1.303-0.143,1.49-0.769c0.215-0.611-0.137-1.28-0.747-1.496c-1.339-0.423-3.208-1.034-5.347-0.446   c-1.448,0.399-2.689,1.195-3.529,2.24c-0.815,1.041-1.254,2.407-0.886,3.743c0.184,0.669,0.532,1.243,1.015,1.686   c0.704,0.646,1.593,0.999,2.549,1.167c0.957,0.168,2.011,0.166,3.112,0.079l0.045-0.013c1.382-0.116,2.577-0.038,3.34,0.208   c0.396,0.13,0.656,0.298,0.851,0.483c0.195,0.186,0.318,0.369,0.397,0.658c0.153,0.557,0.018,1.193-0.517,1.867   c-0.533,0.674-1.443,1.283-2.557,1.59c-1.576,0.457-3.525-0.012-4.727-0.545c-0.601-0.266-1.316,0.003-1.583,0.604   c-0.244,0.594,0.025,1.311,0.625,1.577c1.545,0.653,3.903,1.298,6.315,0.658c1.581-0.435,2.9-1.3,3.771-2.403   c0.894-1.108,1.358-2.554,0.966-3.979C100.313,57.966,99.928,57.353,99.447,56.91z" data-original="#586065" class="" data-old_color="#586065"/>
</g></g> </svg>
