<?xml version="1.0"?>
<svg xmlns="http://www.w3.org/2000/svg" height="512px" viewBox="0 0 496 496" width="512px" class=""><g><path d="m488 184v64h-112v-64zm0 0" fill="#aab2bd" data-original="#AAB2BD" class="" style="fill:#5E8DA7" data-old_color="#AAB2BD"/><path d="m488 56v64h-112v-64zm0 0" fill="#aab2bd" data-original="#AAB2BD" class="" style="fill:#5E8DA7" data-old_color="#AAB2BD"/><path d="m488 120v64h-112v-64zm0 0" fill="#838f9b" data-original="#838F9B" class="active-path" style="fill:#88A6C1" data-old_color="#87A5C1"/><path d="m8 120v-64h112v64zm0 0" fill="#aab2bd" data-original="#AAB2BD" class="" style="fill:#5E8DA7" data-old_color="#AAB2BD"/><path d="m8 248v-64h112v64zm0 0" fill="#aab2bd" data-original="#AAB2BD" class="" style="fill:#5E8DA7" data-old_color="#AAB2BD"/><path d="m120 184h-112v-64h112zm0 0" fill="#838f9b" data-original="#838F9B" class="active-path" style="fill:#88A6C1" data-old_color="#87A5C1"/><path d="m120 88h256v80h-256zm0 0" fill="#aab2bd" data-original="#AAB2BD" class="" style="fill:#5E8DA7" data-old_color="#AAB2BD"/><path d="m120 8h256v80h-256zm0 0" fill="#e6e9ed" data-original="#E6E9ED" class="" style="fill:#F0F0F0" data-old_color="#EDEFEF"/><path d="m376 184v64h-256v-80h256zm0 0" fill="#e6e9ed" data-original="#E6E9ED" class="" style="fill:#F0F0F0" data-old_color="#EDEFEF"/><path d="m464 408c0 13.253906-10.746094 24-24 24s-24-10.746094-24-24 10.746094-24 24-24 24 10.746094 24 24zm0 0" fill="#ffc729" data-original="#FFC729" class="" style="fill:#EBAA39" data-old_color="#FFC729"/><path d="m80 408c0 13.253906-10.746094 24-24 24s-24-10.746094-24-24 10.746094-24 24-24 24 10.746094 24 24zm0 0" fill="#ffc729" data-original="#FFC729" class="" style="fill:#EBAA39" data-old_color="#FFC729"/><path d="m328 408v16l-20.238281 6.71875c-.480469 1.203125-.882813 2.320312-1.441407 3.441406l9.601563 19.121094-22.640625 22.640625-19.121094-9.601563c-1.121094.558594-2.238281.960938-3.441406 1.441407l-6.71875 20.238281h-32l-6.71875-20.238281c-1.203125-.480469-2.320312-.882813-3.441406-1.441407l-19.121094 9.601563-22.640625-22.640625 9.601563-19.121094c-.558594-1.121094-.960938-2.238281-1.441407-3.441406l-20.238281-6.71875v-32l20.238281-6.71875c.480469-1.203125.882813-2.320312 1.441407-3.441406l-9.601563-19.121094 22.640625-22.640625 19.121094 9.601563c1.121094-.558594 2.238281-1.039063 3.441406-1.441407l6.71875-20.238281h32l6.71875 20.238281c1.203125.402344 2.320312.882813 3.441406 1.441407l19.121094-9.601563 22.640625 22.640625-9.601563 19.121094c.558594 1.121094.960938 2.238281 1.441407 3.441406l20.238281 6.71875zm0 0" fill="#ff826e" data-original="#FF826E" class="" style="fill:#C13D3D" data-old_color="#FF826E"/><path d="m280 408c0 17.671875-14.328125 32-32 32s-32-14.328125-32-32 14.328125-32 32-32 32 14.328125 32 32zm0 0" fill="#fcd770" data-original="#FCD770" class="" style="fill:#EBAA39" data-old_color="#FCD770"/><path d="m496 256v-208h-112v-48h-272v48h-112v208h48v121.136719c-13.761719 3.574219-24 15.992187-24 30.863281 0 17.648438 14.351562 32 32 32 14.863281 0 27.289062-10.230469 30.863281-24h73.136719v13.769531l19.648438 6.542969-9.265626 18.519531 30.785157 30.785157 18.511719-9.257813 6.550781 19.640625h43.53125l6.550781-19.640625 18.511719 9.257813 30.785156-30.785157-9.265625-18.519531 19.65625-6.542969v-13.769531h73.136719c3.574219 13.769531 16 24 30.863281 24 17.648438 0 32-14.351562 32-32 0-14.871094-10.238281-27.289062-24-30.863281v-121.136719zm-112-16v-48h96v48zm-248 0h-8v-64h240v64zm248-112h96v48h-96zm-16 32h-240v-64h240zm-256 16h-96v-48h96zm368-112v48h-96v-48zm-112-48v64h-240v-64zm-256 48v48h-96v-48zm-96 128h96v48h-96zm40 232c-8.824219 0-16-7.175781-16-16s7.175781-16 16-16 16 7.175781 16 16-7.175781 16-16 16zm30.863281-24c-2.910156-11.191406-11.671875-19.953125-22.863281-22.863281v-121.136719h176v64h-13.769531l-6.550781 19.640625-18.511719-9.257813-30.785157 30.785157 9.265626 18.519531-19.648438 6.542969v13.769531zm233.136719 18.230469-18.382812 6.128906-1.34375 3.5625c-.386719 1.015625-.785157 2.015625-1.226563 3l-1.550781 3.460937 8.648437 17.296876-14.472656 14.472656-17.296875-8.648438-3.464844 1.550782c-1 .449218-2.007812.839843-3.03125 1.242187l-3.527344 1.351563-6.121093 18.351562h-20.46875l-6.121094-18.351562-3.527344-1.351563c-1.023437-.402344-2.042969-.800781-3.035156-1.242187l-3.460937-1.550782-17.296876 8.648438-14.472656-14.472656 8.648438-17.296876-1.550782-3.460937c-.441406-.984375-.839843-1.984375-1.226562-3l-1.34375-3.5625-18.375-6.128906v-20.46875l18.382812-6.128907 1.34375-3.5625c.386719-1.015624.785157-2.015624 1.226563-3l1.550781-3.460937-8.648437-17.296875 14.472656-14.472656 17.296875 8.648437 3.464844-1.550781c1-.449219 2.007812-.839844 3.03125-1.242188l3.527344-1.351562 6.121093-18.34375h20.46875l6.121094 18.351562 3.527344 1.351563c1.023437.402344 2.042969.800781 3.035156 1.242187l3.460937 1.550782 17.296876-8.648438 14.472656 14.472656-8.648438 17.296876 1.550782 3.460937c.441406.984375.839843 1.984375 1.226562 3l1.34375 3.5625 18.375 6.128906zm136-10.230469c0 8.824219-7.175781 16-16 16s-16-7.175781-16-16 7.175781-16 16-16 16 7.175781 16 16zm-24-30.863281c-11.191406 2.910156-19.953125 11.671875-22.863281 22.863281h-73.136719v-13.769531l-19.648438-6.542969 9.265626-18.519531-30.785157-30.785157-18.511719 9.257813-6.550781-19.640625h-13.769531v-64h176zm0 0" data-original="#000000" class="" style="fill:#031B4E" data-old_color="#000000"/><path d="m144 32h16v16h-16zm0 0" data-original="#000000" class="" style="fill:#031B4E" data-old_color="#000000"/><path d="m176 32h16v16h-16zm0 0" data-original="#000000" class="" style="fill:#031B4E" data-old_color="#000000"/><path d="m336 32h16v32h-16zm0 0" data-original="#000000" class="" style="fill:#031B4E" data-old_color="#000000"/><path d="m304 32h16v32h-16zm0 0" data-original="#000000" class="" style="fill:#031B4E" data-old_color="#000000"/><path d="m272 32h16v32h-16zm0 0" data-original="#000000" class="" style="fill:#031B4E" data-old_color="#000000"/><path d="m144 112h16v16h-16zm0 0" data-original="#000000" class="" style="fill:#031B4E" data-old_color="#000000"/><path d="m176 112h16v16h-16zm0 0" data-original="#000000" class="" style="fill:#031B4E" data-old_color="#000000"/><path d="m336 112h16v32h-16zm0 0" data-original="#000000" class="" style="fill:#031B4E" data-old_color="#000000"/><path d="m304 112h16v32h-16zm0 0" data-original="#000000" class="" style="fill:#031B4E" data-old_color="#000000"/><path d="m272 112h16v32h-16zm0 0" data-original="#000000" class="" style="fill:#031B4E" data-old_color="#000000"/><path d="m144 192h16v16h-16zm0 0" data-original="#000000" class="" style="fill:#031B4E" data-old_color="#000000"/><path d="m176 192h16v16h-16zm0 0" data-original="#000000" class="" style="fill:#031B4E" data-old_color="#000000"/><path d="m336 192h16v32h-16zm0 0" data-original="#000000" class="" style="fill:#031B4E" data-old_color="#000000"/><path d="m304 192h16v32h-16zm0 0" data-original="#000000" class="" style="fill:#031B4E" data-old_color="#000000"/><path d="m272 192h16v32h-16zm0 0" data-original="#000000" class="" style="fill:#031B4E" data-old_color="#000000"/><path d="m448 80h16v16h-16zm0 0" data-original="#000000" class="" style="fill:#031B4E" data-old_color="#000000"/><path d="m416 80h16v16h-16zm0 0" data-original="#000000" class="" style="fill:#031B4E" data-old_color="#000000"/><path d="m448 144h16v16h-16zm0 0" data-original="#000000" class="" style="fill:#031B4E" data-old_color="#000000"/><path d="m416 144h16v16h-16zm0 0" data-original="#000000" class="" style="fill:#031B4E" data-old_color="#000000"/><path d="m448 208h16v16h-16zm0 0" data-original="#000000" class="" style="fill:#031B4E" data-old_color="#000000"/><path d="m416 208h16v16h-16zm0 0" data-original="#000000" class="" style="fill:#031B4E" data-old_color="#000000"/><path d="m64 80h16v16h-16zm0 0" data-original="#000000" class="" style="fill:#031B4E" data-old_color="#000000"/><path d="m32 80h16v16h-16zm0 0" data-original="#000000" class="" style="fill:#031B4E" data-old_color="#000000"/><path d="m64 144h16v16h-16zm0 0" data-original="#000000" class="" style="fill:#031B4E" data-old_color="#000000"/><path d="m32 144h16v16h-16zm0 0" data-original="#000000" class="" style="fill:#031B4E" data-old_color="#000000"/><path d="m64 208h16v16h-16zm0 0" data-original="#000000" class="" style="fill:#031B4E" data-old_color="#000000"/><path d="m32 208h16v16h-16zm0 0" data-original="#000000" class="" style="fill:#031B4E" data-old_color="#000000"/><path d="m248 368c-22.054688 0-40 17.945312-40 40s17.945312 40 40 40 40-17.945312 40-40-17.945312-40-40-40zm0 64c-13.230469 0-24-10.769531-24-24s10.769531-24 24-24 24 10.769531 24 24-10.769531 24-24 24zm0 0" data-original="#000000" class="" style="fill:#031B4E" data-old_color="#000000"/></g> </svg>
