<?xml version="1.0"?>
<svg xmlns="http://www.w3.org/2000/svg" height="512px" viewBox="0 -36 512 512" width="512px" class=""><g><path d="m192 432h-184v-424h496v424h-184" fill="#fdf8ff" data-original="#FDF8FF" class=""/><path d="m379.160156 261.457031 12.839844-7.128906c0-15.671875 0-12.167969 0-27.960937l-12.871094-7.246094c-2.328125-8.679688-3.59375-13.410156-5.914062-22.089844l7.625-12.878906c-7.863282-13.578125-6.128906-10.578125-13.992188-24.144532l-14.617187.207032c-6.398438-6.398438-9.824219-9.824219-16.222657-16.222656l.207032-14.632813c-13.703125-7.878906-10.535156-6.054687-24.230469-13.945313l-12.296875 7.386719c-8.792969-2.351562-13.429688-3.59375-22.222656-5.953125l-7.136719-12.847656c-15.671875 0-12.167969 0-27.960937 0l-7.246094 12.871094c-8.679688 2.328125-13.410156 3.59375-22.089844 5.914062l-12.878906-7.625c-13.578125 7.863282-10.578125 6.128906-24.144532 13.992188l.207032 14.617187c-6.398438 6.398438-9.824219 9.824219-16.222656 16.222657l-14.640626-.207032c-7.878906 13.703125-6.054687 10.527344-13.945312 24.230469l7.386719 12.296875c-2.351563 8.792969-3.59375 13.429688-5.953125 22.222656l-12.839844 7.144532v27.960937l12.871094 7.246094c2.328125 8.679687 3.59375 13.410156 5.914062 22.089843l-7.625 12.878907c7.863282 13.578125 6.128906 10.578125 13.992188 24.144531l14.617187-.207031c6.398438 6.398437 9.824219 9.824219 16.222657 16.222656l-.207032 14.632813c13.703125 7.878906 10.535156 6.054687 24.230469 13.945312l12.296875-7.386719c8.792969 2.351563 13.429688 3.59375 22.222656 5.953125l7.144532 12.839844h27.953124l7.246094-12.871094c8.679688-2.328125 13.410156-3.59375 22.089844-5.914062l12.878906 7.625c13.578125-7.871094 10.578125-6.128906 24.144532-13.992188l-.207032-14.617187c6.398438-6.398438 9.824219-9.824219 16.222656-16.222657l14.632813.207032c7.878906-13.703125 6.054687-10.535156 13.945313-24.230469l-7.386719-12.296875c2.367187-8.808594 3.609375-13.441406 5.960937-22.230469zm-123.160156 66.542969c-48.601562 0-88-39.398438-88-88s39.398438-88 88-88 88 39.398438 88 88-39.398438 88-88 88zm0 0" fill="#fddf81" data-original="#FDDF81" class="" style="fill:#5E8DA7" data-old_color="#FDDF81"/><path d="m8 8h496v64h-496zm0 0" fill="#cf71fb" data-original="#CF71FB" class="active-path" style="fill:#EBAA39" data-old_color="#CF71FB"/><path d="m504 0h-496c-4.425781 0-8 3.574219-8 8v424c0 4.425781 3.574219 8 8 8h184v-16h-176v-344h480v344h-176v16h184c4.425781 0 8-3.574219 8-8v-424c0-4.425781-3.574219-8-8-8zm-488 64v-48h480v48zm0 0" data-original="#000000" class="" style="fill:#031B4E" data-old_color="#000000"/><path d="m416 32h48v16h-48zm0 0" data-original="#000000" class="" style="fill:#031B4E" data-old_color="#000000"/><path d="m240 328 .472656-56-16.472656-32v-32l8-16h48l8 16v32l-16 32v56" fill="#f96437" data-original="#F96437" class="" style="fill:#C13D3D" data-old_color="#F96437"/><path d="m256 144c-52.9375 0-96 43.0625-96 96s43.0625 96 96 96 96-43.0625 96-96-43.0625-96-96-96zm-7.929688 175.601562.402344-47.53125c.007813-1.292968-.296875-2.574218-.886718-3.734374l-15.585938-30.273438v-28.167969l4.945312-9.894531h38.109376l4.945312 9.886719v28.21875l-15.160156 30.308593c-.550782 1.113282-.839844 2.347657-.839844 3.585938v47.59375c-2.632812.261719-5.296875.40625-8 .40625-2.679688 0-5.320312-.144531-7.929688-.398438zm31.929688-3.289062v-42.417969l15.160156-30.308593c.550782-1.113282.839844-2.347657.839844-3.585938v-32c0-1.238281-.289062-2.472656-.839844-3.574219l-8-16c-1.359375-2.714843-4.128906-4.425781-7.160156-4.425781h-48c-3.03125 0-5.800781 1.710938-7.160156 4.425781l-8 16c-.550782 1.101563-.839844 2.335938-.839844 3.574219v32c0 1.273438.304688 2.527344.886719 3.664062l15.5625 30.238282-.351563 42.441406c-32.472656-10.191406-56.097656-40.558594-56.097656-76.34375 0-44.113281 35.886719-80 80-80s80 35.886719 80 80c0 35.753906-23.585938 66.089844-56 76.3125zm0 0" data-original="#000000" class="" style="fill:#031B4E" data-old_color="#000000"/><path d="m216 392v33.335938c0 3.679687 3.585938 6.664062 8 6.664062h64c4.414062 0 8-2.984375 8-6.664062v-33.335938zm0 0" fill="#f96437" data-original="#F96437" class="" style="fill:#C13D3D" data-old_color="#F96437"/><path d="m288 440h-64c-8.824219 0-16-7.175781-16-16v-40h16v40h64v-40h16v40c0 8.824219-7.175781 16-16 16zm0 0" data-original="#000000" class="" style="fill:#031B4E" data-old_color="#000000"/><path d="m248 392h16v24h-16zm0 0" data-original="#000000" class="" style="fill:#031B4E" data-old_color="#000000"/><path d="m48 32h16v16h-16zm0 0" data-original="#000000" class="" style="fill:#031B4E" data-old_color="#000000"/><path d="m80 32h16v16h-16zm0 0" data-original="#000000" class="" style="fill:#031B4E" data-old_color="#000000"/><path d="m112 32h16v16h-16zm0 0" data-original="#000000" class="" style="fill:#031B4E" data-old_color="#000000"/><path d="m270.070312 384h-27.925781c-2.898437 0-5.570312-1.558594-6.984375-4.097656l-5.535156-9.910156-15.632812-4.175782-9.703126 5.785156c-2.488281 1.496094-5.578124 1.503907-8.097656.054688l-24.191406-13.976562c-2.503906-1.457032-4.039062-4.144532-4-7.039063l.160156-11.152344-11.441406-11.449219-11.359375.160157c-2.953125-.09375-5.589844-1.488281-7.039063-4l-13.96875-24.183594c-1.449218-2.503906-1.429687-5.601563.054688-8.09375l5.785156-9.707031-4.175781-15.628906-9.910156-5.539063c-2.546875-1.414063-4.105469-4.085937-4.105469-6.984375v-27.917969c0-2.898437 1.558594-5.570312 4.097656-6.984375l9.910156-5.535156 4.175782-15.632812-5.785156-9.703126c-1.488282-2.488281-1.503907-5.585937-.054688-8.097656l13.976562-24.191406c1.449219-2.503906 4.167969-3.847656 7.039063-4l11.152344.160156 11.449219-11.441406-.167969-11.351562c-.039063-2.894532 1.496093-5.589844 4-7.046876l24.191406-13.96875c2.496094-1.441406 5.609375-1.421874 8.09375.054688l9.707031 5.785156 15.621094-4.175781 5.539062-9.910156c1.414063-2.546875 4.085938-4.105469 6.984376-4.105469h27.925781c2.898437 0 5.570312 1.558594 6.984375 4.097656l5.535156 9.910156 15.625 4.175782 9.710938-5.785156c2.496093-1.476563 5.601562-1.496094 8.097656-.054688l24.191406 13.976562c2.503906 1.457032 4.039062 4.152344 4 7.046876l-.167969 11.144531 11.449219 11.449219 11.351562-.167969c3.160157.136719 5.589844 1.496093 7.046876 4l13.96875 24.191406c1.449218 2.503906 1.429687 5.609375-.054688 8.09375l-5.785156 9.707031 4.175781 15.621094 9.910156 5.539062c2.546875 1.414063 4.105469 4.085938 4.105469 6.984376v27.925781c0 2.898437-1.558594 5.570312-4.097656 6.984375l-9.910156 5.535156-4.175782 15.625 5.785156 9.710938c1.488282 2.496093 1.503907 5.585937.054688 8.097656l-13.976562 24.191406c-1.457032 2.503906-3.992188 3.894531-7.046876 4l-11.152343-.167969-11.441407 11.449219.160157 11.359375c.039062 2.894531-1.496094 5.582031-4 7.039063l-24.183594 13.96875c-2.496094 1.449218-5.609375 1.441406-8.09375-.054688l-9.707031-5.785156-15.621094 4.175781-5.539062 9.910156c-1.414063 2.539063-4.085938 4.105469-6.984376 4.105469zm-23.238281-16h18.542969l4.898438-8.769531c1.054687-1.878907 2.832031-3.261719 4.917968-3.824219l22.152344-5.925781c2.089844-.570313 4.3125-.25 6.167969.847656l8.566406 5.113281 16.066406-9.273437-.144531-10.039063c-.03125-2.160156.816406-4.242187 2.34375-5.769531l16.207031-16.222656c1.539063-1.519531 3.519531-2.351563 5.785157-2.34375l9.832031.144531 9.273437-16.058594-5.113281-8.574218c-1.105469-1.847657-1.417969-4.082032-.847656-6.167969l5.925781-22.152344c.554688-2.089844 1.9375-3.855469 3.824219-4.914063l8.769531-4.902343v-18.550781l-8.769531-4.898438c-1.878907-1.054688-3.261719-2.832031-3.824219-4.910156l-5.925781-22.152344c-.558594-2.089844-.25-4.3125.847656-6.167969l5.113281-8.566406-9.273437-16.074219-10.03125.152344c-2.335938-.113281-4.242188-.824219-5.777344-2.34375l-16.222656-16.214844c-1.527344-1.53125-2.375-3.617187-2.34375-5.785156l.144531-9.832031-16.058594-9.273438-8.574218 5.113281c-1.855469 1.105469-4.066407 1.425782-6.167969.847657l-22.152344-5.925781c-2.089844-.554688-3.855469-1.9375-4.914063-3.824219l-4.902343-8.761719h-18.550781l-4.898438 8.769531c-1.054688 1.878907-2.832031 3.261719-4.910156 3.824219l-22.152344 5.925781c-2.0625.578125-4.304688.257813-6.167969-.847656l-8.566406-5.113281-16.074219 9.273437.152344 10.03125c.03125 2.167969-.816406 4.242188-2.34375 5.777344l-16.222656 16.214844c-1.503906 1.503906-3.539063 2.34375-5.65625 2.34375-.042969 0-.082032 0-.113282 0l-9.832031-.144531-9.273437 16.066406 5.113281 8.566406c1.105469 1.847656 1.417969 4.082031.847656 6.167969l-5.925781 22.160156c-.554688 2.089844-1.9375 3.855469-3.824219 4.914063l-8.769531 4.902343v18.542969l8.769531 4.898438c1.878907 1.054687 3.261719 2.832031 3.824219 4.917968l5.925781 22.152344c.558594 2.089844.25 4.3125-.847656 6.167969l-5.113281 8.566406 9.273437 16.066406 10.039063-.144531c2.328125-.070312 4.234375.824219 5.769531 2.34375l16.222656 16.222656c1.519531 1.53125 2.367188 3.609375 2.335938 5.769532l-.144531 9.832031 16.066406 9.273437 8.566406-5.113281c1.855469-1.113281 4.074219-1.425781 6.167969-.847656l22.160156 5.925781c2.089844.554688 3.855469 1.9375 4.914063 3.824219zm0 0" data-original="#000000" class="" style="fill:#031B4E" data-old_color="#000000"/></g> </svg>
