<?xml version="1.0"?>
<svg xmlns="http://www.w3.org/2000/svg" xmlns:xlink="http://www.w3.org/1999/xlink" version="1.1" id="Layer_1" x="0px" y="0px" viewBox="0 0 512 512" style="enable-background:new 0 0 512 512;" xml:space="preserve" width="512px" height="512px" class=""><g><g>
	<g>
		<path style="fill:#5E8DA7" d="M431.72,80.28C386.74,35.32,324.62,7.5,256,7.5S125.26,35.32,80.28,80.28    C35.32,125.26,7.5,187.38,7.5,256s27.82,130.74,72.78,175.72c44.98,44.96,107.1,72.78,175.72,72.78s130.74-27.82,175.72-72.78    c44.96-44.98,72.78-107.1,72.78-175.72S476.68,125.26,431.72,80.28z" data-original="#4981C8" class="" data-old_color="#4981C8"/>
		<path style="fill:#ECECED;" d="M415.872,256L400.24,141.746l-89.228-56.877l-124.171,6.369l-75.081,82.654L93.388,285.5    l18.372,114.74c36.92,36.91,87.91,59.74,144.24,59.74s107.32-22.83,144.24-59.74l15.632-59.004V256z" data-original="#ECECED" class=""/>
		<path style="fill:#C13D3D" d="M124,256c0,36.45,14.78,69.45,38.66,93.34l-50.9,50.9C74.85,363.32,52.02,312.33,52.02,256    c0-56.33,22.83-107.32,59.74-144.24l50.9,50.9C138.78,186.55,124,219.55,124,256z" data-original="#FF7290" class="active-path" data-old_color="#FF7290"/>
		<path style="fill:#EBAA39" d="M400.24,111.76l-50.9,50.9C325.45,138.78,292.45,124,256,124s-69.45,14.78-93.34,38.66l-50.9-50.9    C148.68,74.85,199.67,52.02,256,52.02S363.32,74.85,400.24,111.76z" data-original="#FFD46B" class="" data-old_color="#FFD46B"/>
		<path style="fill:#DFDFDD;" d="M404.534,173.132l-4.294-31.386l-57.119-36.409c-3.531,1.564-6.881,3.546-9.952,5.924    l-113.232,87.674c-5.366,3.394-10.227,7.529-14.469,12.313c-23.025,25.955-22.345,66.013,1.547,91.195    c12.696,13.382,30.55,21.058,48.983,21.059c0.002,0,0.002,0,0.005,0c18.027,0,34.978-7.021,47.729-19.772    c3.537-3.538,6.67-7.454,9.334-11.664l87.674-113.233C402.157,177.001,403.419,175.095,404.534,173.132z" data-original="#DFDFDD" class=""/>
		<path style="fill:#EBAA39" d="M400.24,111.76l-50.9,50.9C325.45,138.78,292.45,124,256,124s-69.45,14.78-93.34,38.66l-50.9-50.9    C148.68,74.85,199.67,52.02,256,52.02S363.32,74.85,400.24,111.76z" data-original="#FFD46B" class="" data-old_color="#FFD46B"/>
		<path style="fill:#69D283" d="M459.98,256c0,56.33-22.83,107.32-59.74,144.24l-50.9-50.9C373.22,325.45,388,292.45,388,256    s-14.78-69.45-38.66-93.34l50.9-50.9C437.15,148.68,459.98,199.67,459.98,256z" data-original="#69D283" class=""/>
		<path style="fill:#00B617;" d="M378.712,207.281l22.028-28.45c14.807-19.124,13.076-46.442-4.026-63.545L349.34,162.66    C361.946,175.272,372.013,190.424,378.712,207.281z" data-original="#00B617" class=""/>
		<path style="fill:#E28904" d="M304.719,133.288l28.45-22.028c19.124-14.807,46.442-13.076,63.545,4.026L349.34,162.66    C336.728,150.054,321.576,139.987,304.719,133.288z" data-original="#FFA92D" class="" data-old_color="#E58B05"/>
		<path style="fill:#C13D3D" d="M288.346,274.987l88.673-114.523c5.599-7.231,4.949-17.498-1.518-23.965    c-6.467-6.467-16.733-7.117-23.965-1.518l-114.524,88.673c-3.314,1.948-6.394,4.446-9.103,7.501    c-12.804,14.434-12.411,36.641,0.869,50.638c14.577,15.365,38.856,15.606,53.738,0.724    C284.824,280.209,286.766,277.675,288.346,274.987z" data-original="#FF7290" class="active-path" data-old_color="#FF7290"/>
	</g>
	<g>
		<path d="M45.549,277.003c4.551,46.27,24.883,90.801,57.215,124.756c39.488,41.476,95.964,65.72,153.235,65.72    c56.483,0,109.591-21.996,149.544-61.938c33.531-33.54,54.407-76.354,60.246-122.653c8.154-64.655-14.167-130.341-60.247-176.434    c-41.859-41.871-100.975-64.564-160.091-61.679c-52.009,2.537-102.174,24.872-138.995,61.68    C62.066,150.831,39.408,214.564,45.549,277.003z M256,452.48c-49.97,0-97.088-18.542-133.524-52.35l45.487-45.487    c2.929-2.928,2.929-7.676,0.001-10.605C144.45,320.514,131.5,289.248,131.5,256c0-33.246,12.948-64.509,36.462-88.036    C191.486,144.45,222.752,131.5,256,131.5c22.997,0,45.102,6.202,64.518,18.012l-87.736,67.932    c-3.903,2.354-7.428,5.29-10.483,8.733c-15.342,17.296-14.886,43.992,1.039,60.777c17.193,18.121,46.834,18.513,64.482,0.865    c2.59-2.59,74.668-96.337,74.668-96.337C374.298,210.899,380.5,233.004,380.5,256c0,33.248-12.95,64.514-36.464,88.038    c-2.928,2.929-2.928,7.677,0.001,10.605l45.486,45.487C353.086,433.939,305.969,452.48,256,452.48z M356.128,140.911    c4.157-3.203,10.36-2.815,14.07,0.892c3.714,3.71,4.139,9.876,0.891,14.07c0,0-92.06,119.523-93.876,121.341    c-11.777,11.791-31.556,11.472-42.994-0.583c-10.614-11.187-10.921-28.976-0.7-40.499    C235.641,233.741,356.05,140.971,356.128,140.911z M404.135,126.918c30.688,35.124,48.001,81.037,48.34,127.668    c0.003,0.471,0.005,0.942,0.005,1.413c0,49.277-18.829,97.408-52.35,133.523L359.806,349.2    c23.072-25.644,35.694-58.457,35.694-93.2c0-27.691-8.021-54.234-23.252-77.124c0,0,8.429-10.887,8.443-10.904    c7.016-9.061,10.317-19.932,4.623-30.679l14.816-14.817C400.403,122.771,403.087,125.72,404.135,126.918z M123.363,111.052    c35.617-32.66,82.866-51.169,131.189-51.527c49.106-0.363,99.344,18.275,134.998,52.384c-5.142,4.633-9.919,9.853-14.832,14.766    c-0.021-0.011-0.043-0.021-0.064-0.032c-8.752-4.628-19.821-3.7-27.708,2.406l-13.821,10.701    C310.235,124.52,283.693,116.5,256,116.5c-34.743,0-67.556,12.622-93.2,35.694l-40.324-40.324    C122.771,111.596,123.067,111.324,123.363,111.052z M59.59,251.205c1.241-47.346,20.048-93.992,52.28-128.729l40.323,40.324    C129.122,188.444,116.5,221.257,116.5,256s12.622,67.556,35.693,93.2l-40.323,40.323c-0.272-0.293-0.547-0.585-0.817-0.879    C80.316,355.1,62.018,310.943,59.757,265.523C59.519,260.755,59.465,255.978,59.59,251.205z" data-original="#000000" class="" style="fill:#031B4E" data-old_color="#000000"/>
		<path d="M256,0C193.271,0,132.902,22.941,86.015,64.598c-3.097,2.751-3.376,7.492-0.625,10.588    c2.751,3.096,7.491,3.376,10.588,0.625C140.117,36.597,196.947,15,256,15c64.357,0,124.879,25.067,170.415,70.583    C471.933,131.12,497,191.642,497,256c0,60.078-22.245,117.639-62.636,162.078c-2.786,3.065-2.56,7.808,0.506,10.594    c3.031,2.755,7.842,2.524,10.595-0.505C488.371,380.96,512,319.817,512,256c0-68.364-26.627-132.652-74.978-181.024    C388.651,26.627,324.363,0,256,0z" data-original="#000000" class="" style="fill:#031B4E" data-old_color="#000000"/>
		<path d="M413.529,438.393C369.796,476.186,313.851,497,256,497c-64.358,0-124.88-25.067-170.417-70.583    C40.067,380.881,15,320.359,15,256c0-58.841,21.46-115.518,60.427-159.589c2.744-3.103,2.453-7.843-0.651-10.586    c-3.103-2.744-7.843-2.453-10.586,0.651C22.796,133.291,0,193.496,0,256c0,68.364,26.626,132.653,74.977,181.024    C123.348,485.373,187.637,512,256,512c61.452,0,120.88-22.11,167.336-62.258c3.134-2.708,3.479-7.445,0.771-10.579    C421.399,436.029,416.663,435.684,413.529,438.393z" data-original="#000000" class="" style="fill:#031B4E" data-old_color="#000000"/>
		<path d="M186.84,378.806c-4.142,0-7.5,3.358-7.5,7.5v12.517c0,4.142,3.358,7.5,7.5,7.5s7.5-3.358,7.5-7.5v-12.517    C194.34,382.164,190.982,378.806,186.84,378.806z" data-original="#000000" class="" style="fill:#031B4E" data-old_color="#000000"/>
		<path d="M325.159,378.806c-4.142,0-7.5,3.358-7.5,7.5v12.517c0,4.142,3.358,7.5,7.5,7.5s7.5-3.358,7.5-7.5v-12.517    C332.659,382.164,329.301,378.806,325.159,378.806z" data-original="#000000" class="" style="fill:#031B4E" data-old_color="#000000"/>
		<path d="M278.005,392.305c-3.118-2.726-7.856-2.409-10.583,0.711c-2.771,3.17-6.934,4.988-11.422,4.988    c-4.489,0-8.652-1.818-11.423-4.988c-2.727-3.119-7.464-3.437-10.583-0.711c-3.119,2.726-3.437,7.464-0.711,10.583    c5.62,6.429,13.9,10.116,22.717,10.116s17.097-3.688,22.716-10.116C281.442,399.769,281.124,395.031,278.005,392.305z" data-original="#000000" class="" style="fill:#031B4E" data-old_color="#000000"/>
		<circle cx="256" cy="256" r="11" data-original="#000000" class="" style="fill:#031B4E" data-old_color="#000000"/>
	</g>
</g></g> </svg>
