<?xml version="1.0"?>
<svg xmlns="http://www.w3.org/2000/svg" id="Layer_1" data-name="Layer 1" viewBox="0 0 512 512" width="512" height="512"><title>Announcment question mark</title><path d="M52.368,184.119a99.156,99.156,0,0,1,84-97.865,99.008,99.008,0,1,0-.053,195.723A99.156,99.156,0,0,1,52.368,184.119Z" style="fill:#d4e1f4"/><path d="M121.368,295.119a111.166,111.166,0,0,1-20.525-1.91v12.84a17.131,17.131,0,0,0,1.72,7.463A111.021,111.021,0,0,0,166.8,305.4v-20A111.261,111.261,0,0,1,121.368,295.119Z" style="fill:#d4e1f4"/><path d="M244.862,214.114c-6.3,2.942-12.787,5.683-19.295,8.183a111.207,111.207,0,0,1-46.763,56.82v20a111.207,111.207,0,0,0,46.763-56.82c6.508-2.5,12.992-5.241,19.295-8.183l68.556-31.993v-20Z" style="fill:#d4e1f4"/><polygon points="325.418 176.521 325.418 196.521 351.816 184.201 351.816 164.201 325.418 176.521" style="fill:#d4e1f4"/><path d="M395.938,292.776a40.508,40.508,0,0,0-32.122-49.9v20A40.66,40.66,0,0,1,395.938,292.776Z" style="fill:#d4e1f4"/><path d="M146.26,336.746q-6.99-.7-14-1.053v90.745a40.243,40.243,0,0,0,14-4.851Z" style="fill:#d4e1f4"/><path d="M363.816,230.734V154.78a6,6,0,0,0-8.537-5.437l-115.492,53.9c-6.569,3.066-13.34,5.918-20.125,8.477a6,6,0,0,0,4.235,11.228c7.068-2.666,14.122-5.637,20.965-8.831l68.555-31.993V383.432l-68.555-31.994A300.6,300.6,0,0,0,178.8,329.579V276.52h-12v50.825a298.726,298.726,0,0,0-48.689-4.025,17.291,17.291,0,0,1-17.272-17.271V286.5a6,6,0,0,0-12,0v19.549a29.305,29.305,0,0,0,29.272,29.271c.715,0,1.43.025,2.145.03v97.531a6,6,0,0,0,6,6A52.6,52.6,0,0,0,178.8,386.337V341.859a288.3,288.3,0,0,1,60.984,20.454l115.491,53.9a6,6,0,0,0,8.537-5.438V334.819a52.531,52.531,0,0,0,0-104.085ZM166.8,386.337a40.609,40.609,0,0,1-34.544,40.1V335.693a288.2,288.2,0,0,1,34.544,3.839Zm185.012,15.015-26.4-12.32V176.521l26.4-12.32Zm12-78.678V242.879a40.534,40.534,0,0,1,0,79.795Z" style="fill:#0635c9"/><path d="M464.92,282.78a74.617,74.617,0,0,0-45.461-68.764,6,6,0,1,0-4.7,11.041,62.728,62.728,0,0,1,0,115.433,6,6,0,1,0,4.7,11.041A74.607,74.607,0,0,0,464.92,282.78Z" style="fill:#0635c9"/><path d="M434.269,180.889a6,6,0,1,0-4.7,11.041,98.731,98.731,0,0,1,0,181.687,6,6,0,1,0,4.7,11.041,110.73,110.73,0,0,0,0-203.769Z" style="fill:#0635c9"/><path d="M121.368,73.119a111,111,0,1,0,111,111A111.125,111.125,0,0,0,121.368,73.119Zm0,210a99,99,0,1,1,99-99A99.112,99.112,0,0,1,121.368,283.119Z" style="fill:#69e781"/><path d="M152.745,111.564a45.618,45.618,0,0,0-34.639-12.25A46.02,46.02,0,0,0,77.29,158.4a6,6,0,0,0,11.5-3.438,34.022,34.022,0,0,1,30.148-43.673A34.007,34.007,0,0,1,155.368,145.2a34.172,34.172,0,0,1-16.784,29.323,46.051,46.051,0,0,0-22.266,39.706v11.931a6,6,0,0,0,12,0V214.23a34.009,34.009,0,0,1,16.355-29.366,46,46,0,0,0,8.072-73.3Z" style="fill:#69e781"/><path d="M122.368,237.038a16,16,0,1,0,16,16A16.018,16.018,0,0,0,122.368,237.038Zm0,20a4,4,0,1,1,4-4A4,4,0,0,1,122.368,257.038Z" style="fill:#69e781"/></svg>
