<svg height="492pt" viewBox="0 0 492 492" width="492pt" xmlns="http://www.w3.org/2000/svg"><path d="m93.550781 354.257812-8-7c-4.289062 5.050782-8.773437 9.917969-13.453125 14.605469-5.128906 5.132813-5.128906 13.453125 0 18.582031l4.507813 4.507813c-2.492188-5.042969-1.488281-11.113281 2.496093-15.089844 4.671876-4.675781 10.160157-10.554687 14.449219-15.605469zm0 0" fill="#d4e1f4"/><path d="m162.3125 181.746094-32.601562 89.660156c-8.730469 23.890625-21.066407 46.300781-36.578126 66.457031l7.855469 7.859375c15.113281-19.859375 27.15625-41.878906 35.722657-65.316406l32.601562-89.660156zm0 0" fill="#d4e1f4"/><g fill="#0635c9"><path d="m164.132812 166.601562c-1.449218-1.453124-3.539062-2.058593-5.539062-1.617187-2.003906.445313-3.640625 1.878906-4.339844 3.808594l-35.824218 98.511719c-11.808594 32.328124-30.515626 61.699218-54.816407 86.074218-9.816406 9.816406-9.816406 25.734375 0 35.554688l27.070313 27.066406c9.816406 9.820312 25.734375 9.820312 35.550781 0 .167969-.164062.339844-.324219.5-.488281l55.980469 55.980469c2.34375 2.34375 6.140625 2.34375 8.484375 0 17.296875-17.292969 17.296875-45.332032 0-62.625l-24.941407-24.941407c14.476563-9.234375 29.917969-16.859375 46.050782-22.742187l98.511718-35.824219c1.925782-.699219 3.363282-2.335937 3.804688-4.339844.445312-2-.164062-4.089843-1.613281-5.539062l-43.511719-43.515625c12.785156-17.621094 10.863281-41.921875-4.53125-57.316406-15.394531-15.394532-39.695312-17.316407-57.316406-4.53125zm-55.671874 244.761719c-3.488282.011719-6.832032-1.375-9.292969-3.847656l-27.066407-27.070313c-5.132812-5.128906-5.132812-13.449218 0-18.582031 4.671876-4.675781 9.15625-9.546875 13.453126-14.605469l46.796874 46.804688c-5.050781 4.292969-9.917968 8.777344-14.605468 13.453125-2.457032 2.472656-5.800782 3.859375-9.285156 3.847656zm74.257812 5.992188c10.96875 10.972656 12.585938 28.195312 3.851562 41.019531l-51.101562-51.101562c6.574219-5.882813 13.472656-11.394532 20.660156-16.507813zm25.488281-67.449219c-23.886719 8.730469-46.300781 21.066406-66.453125 36.582031l-48.625-48.625c15.511719-20.15625 27.847656-42.566406 36.578125-66.457031l32.601563-89.660156 135.558594 135.554687zm25.445313-136.226562c11.792968 0 22.644531 6.425781 28.3125 16.765624 5.667968 10.339844 5.246094 22.949219-1.101563 32.886719l-44.582031-44.582031c5.183594-3.324219 11.214844-5.085938 17.371094-5.070312zm0 0"/><path d="m305.539062 267.28125c3.074219 1.238281 6.570313-.25 7.808594-3.320312 9.765625-24.246094 4.109375-51.980469-14.371094-70.464844-18.484374-18.480469-46.21875-24.140625-70.460937-14.371094-3.074219 1.238281-4.5625 4.734375-3.324219 7.808594 1.238282 3.074218 4.734375 4.5625 7.808594 3.324218 19.78125-7.96875 42.410156-3.355468 57.492188 11.726563 15.078124 15.078125 19.695312 37.707031 11.726562 57.492187-1.238281 3.070313.246094 6.566407 3.320312 7.804688zm0 0"/><path d="m217.359375 149.929688c-3.074219 1.238281-4.5625 4.734374-3.324219 7.808593 1.238282 3.074219 4.734375 4.5625 7.808594 3.324219 31.3125-12.617188 67.136719-5.3125 91.007812 18.558594 23.871094 23.871094 31.175782 59.695312 18.558594 91.007812-1.238281 3.074219.25 6.570313 3.324219 7.808594s6.570313-.25 7.808594-3.324219c14.414062-35.777343 6.070312-76.703125-21.207031-103.976562-27.273438-27.277344-68.203126-35.621094-103.976563-21.207031zm0 0"/><path d="m401.625 0c-49.914062 0-90.375 40.460938-90.375 90.375s40.460938 90.375 90.375 90.375 90.375-40.460938 90.375-90.375c-.054688-49.890625-40.484375-90.3203125-90.375-90.375zm0 168.75c-43.285156 0-78.375-35.089844-78.375-78.375s35.089844-78.375 78.375-78.375 78.375 35.089844 78.375 78.375c-.050781 43.265625-35.109375 78.324219-78.375 78.375zm0 0"/><path d="m434.089844 79.878906c12.378906 0 22.417968-10.023437 22.4375-22.40625.015625-12.378906-9.996094-22.433594-22.375-22.46875s-22.449219 9.964844-22.5 22.34375l-27.824219 16.066406c-8.980469-7.773437-22.460937-7.203124-30.753906 1.300782-8.289063 8.503906-8.515625 21.996094-.511719 30.773437 8 8.777344 21.457031 9.796875 30.691406 2.328125l28.523438 17.875c1.175781 11.082032 10.296875 19.625 21.433594 20.070313 11.132812.445312 20.910156-7.339844 22.96875-18.292969 2.054687-10.953125-4.230469-21.757812-14.769532-25.378906-10.539062-3.625-22.140625 1.027344-27.253906 10.929687l-23.90625-14.980469c1.710938-4.707031 1.796875-9.855468.242188-14.617187l24.53125-14.167969c4.089843 6.601563 11.300781 10.621094 19.066406 10.625zm0-32.871094c5.761718 0 10.433594 4.671876 10.433594 10.4375 0 5.761719-4.671876 10.433594-10.4375 10.433594-5.761719 0-10.4375-4.671875-10.4375-10.4375.007812-5.761718 4.675781-10.429687 10.441406-10.433594zm-64.929688 53.804688c-5.761718 0-10.433594-4.675781-10.433594-10.4375 0-5.765625 4.671876-10.4375 10.4375-10.4375 5.761719 0 10.4375 4.671875 10.4375 10.4375-.007812 5.761719-4.675781 10.429688-10.441406 10.4375zm64.929688 12.058594c5.761718 0 10.433594 4.671875 10.433594 10.4375s-4.671876 10.4375-10.4375 10.4375c-5.765626 0-10.4375-4.675782-10.4375-10.4375.007812-5.761719 4.675781-10.433594 10.441406-10.4375zm0 0"/></g><path d="m401.625 311.25c-49.914062 0-90.375 40.460938-90.375 90.375s40.460938 90.375 90.375 90.375 90.375-40.460938 90.375-90.375c-.054688-49.890625-40.484375-90.320312-90.375-90.375zm0 168.75c-43.285156 0-78.375-35.089844-78.375-78.375s35.089844-78.375 78.375-78.375 78.375 35.089844 78.375 78.375c-.050781 43.265625-35.109375 78.324219-78.375 78.375zm0 0" fill="#69e781"/><path d="m438.730469 396.523438-49.148438-30.402344c-1.929687-1.144532-4.3125-1.195313-6.289062-.136719-1.953125 1.035156-3.207031 3.03125-3.292969 5.242187v60.796876c.085938 2.210937 1.339844 4.207031 3.292969 5.242187.929687.5 1.96875.757813 3.027343.757813 1.128907 0 2.242188-.308594 3.207032-.898438l49.175781-30.398438c1.773437-1.089843 2.855469-3.019531 2.859375-5.097656s-1.066406-4.011718-2.832031-5.109375zm-46.730469 24.734374v-39.265624l31.742188 19.632812zm0 0" fill="#69e781"/><path d="m180.75 90.375c0-49.914062-40.460938-90.375-90.375-90.375s-90.375 40.460938-90.375 90.375 40.460938 90.375 90.375 90.375c49.890625-.054688 90.320312-40.484375 90.375-90.375zm-90.375 78.375c-43.285156 0-78.375-35.089844-78.375-78.375s35.089844-78.375 78.375-78.375 78.375 35.089844 78.375 78.375c-.050781 43.265625-35.109375 78.324219-78.375 78.375zm0 0" fill="#69e781"/><path d="m140.179688 59.511719c-1.878907-1.082031-4.183594-1.117188-6.097657-.101563l-22.082031 12.039063v-.957031c0-8.820313-6.738281-16.492188-15.5625-16.492188h-42.9375c-9.027344.199219-16.296875 7.46875-16.5 16.492188v39.765624c0 8.820313 7.679688 15.742188 16.5 15.742188h42.9375c4.171875.035156 8.179688-1.617188 11.109375-4.582031 2.933594-2.964844 4.539063-6.992188 4.453125-11.160157v-.953124l22.144531 12.03125c.925781.484374 1.953125.742187 3 .738281 1.054688 0 2.085938-.289063 2.988281-.835938 1.804688-1.089843 2.894532-3.054687 2.867188-5.164062v-51.398438c.050781-2.101562-1.023438-4.070312-2.820312-5.164062zm-43.742188 54.488281h-42.9375c-2.207031 0-4.5-1.535156-4.5-3.742188v-39.765624c.195312-2.398438 2.101562-4.300782 4.5-4.492188h42.9375c2.207031 0 3.5625 2.285156 3.5625 4.492188v39.765624c.089844.984376-.25 1.960938-.933594 2.675782-.679687.71875-1.640625 1.105468-2.628906 1.066406zm34.5625-8.0625-19-10.320312v-10.480469l19-10.324219zm0 0" fill="#69e781"/></svg>