<svg height="429pt" viewBox="0 0 429.96113 429" width="429pt" xmlns="http://www.w3.org/2000/svg"><path d="m60 245.480469c0-113.199219 91.800781-205 205-205 27.226562-.011719 54.183594 5.390625 79.300781 15.902343-36.519531-29.753906-82.195312-45.96875-129.300781-45.902343-113.199219 0-205 91.800781-205 205 .011719 82.589843 49.550781 157.121093 125.699219 189.101562-47.941407-38.898437-75.761719-97.363281-75.699219-159.101562zm0 0" fill="#d4e1f4"/><path d="m215 .480469c-86.960938-.015625-165.363281 52.363281-198.640625 132.707031-33.273437 80.34375-14.867187 172.820312 46.640625 234.292969 83.949219 83.949219 220.054688 83.949219 304 0 83.949219-83.945313 83.949219-220.050781 0-304-40.222656-40.453125-94.953125-63.136719-152-63zm0 410c-107.5 0-195-87.5-195-195s87.5-195 195-195 195 87.5 195 195-87.5 195-195 195zm0 0" fill="#0635c9"/><path d="m296.5 133.480469c-1.867188-1.871094-4.402344-2.925781-7.050781-2.925781-2.644531 0-5.179688 1.054687-7.046875 2.925781l-67.703125 67.699219-71.199219-71.199219c-3.894531-3.894531-10.207031-3.894531-14.097656 0-3.894532 3.894531-3.894532 10.207031 0 14.101562l71.199218 71.199219-71.199218 71.199219c-1.875 1.867187-2.925782 4.40625-2.925782 7.050781s1.050782 5.179688 2.925782 7.050781c1.875 1.886719 4.4375 2.933594 7.097656 2.898438 2.652344-.011719 5.199219-1.050781 7.101562-2.898438l71.199219-71.199219 67.699219 67.699219c1.875 1.886719 4.4375 2.933594 7.101562 2.898438 2.652344-.011719 5.199219-1.050781 7.097657-2.898438 1.875-1.871093 2.925781-4.40625 2.925781-7.050781s-1.050781-5.183594-2.925781-7.050781l-67.699219-67.699219 67.699219-67.699219c3.746093-3.988281 3.65625-10.222656-.199219-14.101562zm0 0" fill="#69e781"/></svg>