<?xml version="1.0"?>
<svg xmlns="http://www.w3.org/2000/svg" id="Layer_1" data-name="Layer 1" viewBox="0 0 512 512" width="512" height="512"><title>Customer service Female</title><path d="M212.179,202.14c17.613,0,35.856-3.51,54.221-10.524a191.482,191.482,0,0,0,24.217-11.283,97.19,97.19,0,0,1-10.314-8.952,191.948,191.948,0,0,1-38.821,20.235,157.5,157.5,0,0,1-41.685,9.933Q205.927,202.139,212.179,202.14Z" style="fill:#d4e1f4"/><path d="M182.79,229.12v-.149a8.676,8.676,0,0,0-7.217-8.531,16.537,16.537,0,0,1-13.284-20.246,11.377,11.377,0,0,1,.485-1.508,121.982,121.982,0,0,1-18.266-5.93,10.106,10.106,0,0,0-7.137,7.438,16.537,16.537,0,0,0,13.284,20.246,8.676,8.676,0,0,1,7.217,8.531v.149c0,49.816,40.811,90.344,90.974,90.344A91.913,91.913,0,0,0,261.3,318.6C217.018,312.542,182.79,274.737,182.79,229.12Z" style="fill:#d4e1f4"/><path d="M236.5,349.324v-20.8a115.629,115.629,0,0,1-26.565-5.85v26.653a100.244,100.244,0,0,0,51.818,6.793A99.41,99.41,0,0,1,236.5,349.324Z" style="fill:#d4e1f4"/><path d="M170.7,385.235l46.444-19.683a110.19,110.19,0,0,1-13.295-4.927l-58.067,24.61A44.412,44.412,0,0,0,121.617,420.6v73.751h24.918V420.6A44.412,44.412,0,0,1,170.7,385.235Z" style="fill:#d4e1f4"/><path d="M340,410.416h-3.62V367.505h-14v42.911h-7.238V356.885h-14v53.531H194.083V359.009h-14v51.407h-7.239V367.505h-14v42.911h-3.619a7,7,0,0,0-7,7V496h14V424.416H333V496h14V417.416A7,7,0,0,0,340,410.416Z" style="fill:#69e781"/><path d="M318.765,427.407a7,7,0,0,0-7,7v6.371a7,7,0,0,0,14,0v-6.371A7,7,0,0,0,318.765,427.407Z" style="fill:#0635c9"/><path d="M176.464,427.407a7,7,0,0,0-7,7v6.371a7,7,0,0,0,14,0v-6.371A7,7,0,0,0,176.464,427.407Z" style="fill:#0635c9"/><path d="M382.048,495.867v-78q0-.291-.025-.582a57.085,57.085,0,0,0-31.172-46.043c-.126-.063-.254-.122-.383-.178l-53.874-22.992v-5.082c12.665.985,27.3,1.008,28.015,1.009h0a7,7,0,0,0,5.769-3.034l3.553-5.169,1.364,3.451a7.009,7.009,0,0,0,6.958,4.412c21.776-1.4,35.476-4.722,36.049-4.862a7,7,0,0,0,5-8.915l-23.417-73.8V243.541h1.938a24.905,24.905,0,0,0,24.877-24.877v-1.287h5.114a7,7,0,0,0,0-14h-5.114v-.55a24.918,24.918,0,0,0-19.715-24.335V163.013a7,7,0,0,0-14,0V177.95H340.972a7,7,0,0,0-7,7v1.429c-24.961,2.649-45.39-26.061-45.61-26.373a7,7,0,0,0-10.11-1.481c-.6.475-59.211,46.314-120.4,22.466L156.6,162.764l-13.967.963,1.128,16.349a24.629,24.629,0,0,0-15.4,17.389,30.79,30.79,0,0,0,16.49,35.025l-30.9,97.393a7,7,0,0,0,5,8.914c1.172.289,22.756,5.48,54.76,5.48,7.746,0,16.109-.309,24.933-1.061v4.857l-53.874,22.992c-.129.056-.257.115-.383.178a57.082,57.082,0,0,0-31.173,46.044c-.017.193-.024.387-.024.581v78a7,7,0,0,0,7,7H375.048A7,7,0,0,0,382.048,495.867ZM347.972,191.95h13.856a10.889,10.889,0,0,1,10.877,10.877v15.837a10.889,10.889,0,0,1-10.877,10.877H347.972Zm-2.082,55.136v25.895a14.574,14.574,0,0,1-14.558,14.558h-3.025A99.55,99.55,0,0,0,345.89,247.086ZM141.475,204.8a16.844,16.844,0,0,1,.479-4,10.644,10.644,0,0,1,7.878-7.956,115.755,115.755,0,0,0,45.24,9.028,141.521,141.521,0,0,0,49.621-9.438,177.262,177.262,0,0,0,36.592-18.847,97.785,97.785,0,0,0,15.284,14.4c12.32,9.215,25.04,13.409,37.4,12.471v27.727h-.328v.149a85.9,85.9,0,0,1-23.821,59.529l4.5,4.293a6.983,6.983,0,0,0,6.572,9.39h10.434a28.553,28.553,0,0,0,24.09-13.25l12.175,38.37c-4.946.856-12.193,1.912-21.169,2.657l-4.3-10.889a7,7,0,0,0-12.278-1.393l-8.893,12.935c-5.357-.07-15.634-.3-24.359-1.025V315.709q1.608-.908,3.186-1.872l-7.326-11.93A86.294,86.294,0,0,1,161.1,228.327v-.141a7,7,0,0,0-5.793-6.9A16.7,16.7,0,0,1,141.475,204.8ZM282.594,322.221v26.184a88.494,88.494,0,0,1-69.959,0V322.39a100.285,100.285,0,0,0,69.959-.169Zm-97.121,7.794,2.951-12.394a7,7,0,1,0-13.619-3.242l-3.775,15.852a265.408,265.408,0,0,1-41.375-3.58l21.859-68.888a100.766,100.766,0,0,0,47.121,58.172v13.231C194.119,329.568,189.727,329.842,185.473,330.015ZM368.048,488.867H127.181v-70.7a43.01,43.01,0,0,1,23.277-34.316l54.829-23.4a102.465,102.465,0,0,0,84.654,0l54.83,23.4a43.012,43.012,0,0,1,23.277,34.315Z" style="fill:#0635c9"/><path d="M261.357,64.755H236.325a7,7,0,0,0,0,14h25.032a7,7,0,0,0,0-14Z" style="fill:#0635c9"/><path d="M261.357,41.678H236.325a7,7,0,0,0,0,14h25.032a7,7,0,0,0,0-14Z" style="fill:#0635c9"/><path d="M303.4,314.868a18.328,18.328,0,0,0,18.308-18.306v-4.045A18.329,18.329,0,0,0,303.4,274.209H273.127a18.329,18.329,0,0,0-18.308,18.308v4.045a18.328,18.328,0,0,0,18.308,18.306Zm-34.584-18.306v-4.045a4.313,4.313,0,0,1,4.308-4.308H303.4a4.313,4.313,0,0,1,4.308,4.308v4.045a4.312,4.312,0,0,1-4.308,4.306H273.127A4.312,4.312,0,0,1,268.819,296.562Z" style="fill:#69e781"/><path d="M364.429,129.25H357.2a121.2,121.2,0,0,0-23.3-65.936,110.288,110.288,0,0,0-53.585-39.263l.762-7.328A7,7,0,0,0,274.115,9h-53a7,7,0,0,0-6.963,7.723l.761,7.329a110.216,110.216,0,0,0-53.589,39.36,121.555,121.555,0,0,0-23.284,65.838H130.8a7,7,0,0,0-7,7v27a7,7,0,0,0,7,7H364.429a7,7,0,0,0,7-7v-27A7,7,0,0,0,364.429,129.25ZM224.271,35.865a7,7,0,0,0,5.165-7.488L228.877,23h37.474l-.559,5.377a7,7,0,0,0,5.165,7.488,88.961,88.961,0,0,1,13.687,4.894v9.513a56.458,56.458,0,0,1-35.926,52.581,56.3,56.3,0,0,1-38.134-53.388v-8.7A88.567,88.567,0,0,1,224.271,35.865ZM172.582,71.732a99.171,99.171,0,0,1,24-23.12v.853a70.266,70.266,0,0,0,48.644,66.981l1.444.471a6.993,6.993,0,0,0,4.446-.036,70.458,70.458,0,0,0,47.526-66.609V48.586a99.024,99.024,0,0,1,24.007,23.062,107.073,107.073,0,0,1,20.529,57.6H152.06A107.4,107.4,0,0,1,172.582,71.732Zm184.847,84.513H137.8v-13H357.429Z" style="fill:#69e781"/></svg>
