<?xml version="1.0"?>
<svg xmlns="http://www.w3.org/2000/svg" id="Layer_1" data-name="Layer 1" viewBox="0 0 512 512" width="512" height="512"><title> Delivery package</title><polygon points="90.013 151.522 275.526 44.417 256 33.143 70.013 140.522 90.013 151.522" style="fill:#d4e1f4"/><polygon points="83 358.429 83 164.253 63 152.638 63 367.429 249 474.815 249 454.269 83 358.429" style="fill:#d4e1f4"/><path d="M459.5,134.468,259.5,19a7,7,0,0,0-7,0l-200,115.47A7,7,0,0,0,49,140.53V371.47a7,7,0,0,0,3.5,6.062L252.5,493a7,7,0,0,0,7,0l200-115.47a7,7,0,0,0,3.5-6.062V140.53A7,7,0,0,0,459.5,134.468ZM256,247.9l-55.641-32.124L386.345,108.4l55.642,32.124ZM142,198.467l37,21.144V334.205l-14.155-16.08a7.292,7.292,0,0,0-8.116-1.845L142,322.286Zm7.378-12.124L335.364,78.964l36.982,21.351L186.359,207.694ZM256,33.143l65.364,37.738L135.378,178.26,70.013,140.522ZM63,152.638l65,37.747V332.75a7.259,7.259,0,0,0,9.956,6.47l19.637-8.091,23.129,26.246A7.015,7.015,0,0,0,193,352.75V227.694l56,32.332V474.815L63,367.429ZM263,474.815V260.026L449,152.638V367.429Z" style="fill:#0635c9"/><path d="M82,332.173a7,7,0,0,0-7,7v27a7,7,0,0,0,14,0v-27A7,7,0,0,0,82,332.173Z" style="fill:#0635c9"/><path d="M111,352.173a7,7,0,0,0-7,7V383.5a7,7,0,0,0,14,0V359.173A7,7,0,0,0,111,352.173Z" style="fill:#0635c9"/><path d="M141,372.173a7,7,0,0,0-7,7v21.418a7,7,0,0,0,14,0V379.173A7,7,0,0,0,141,372.173Z" style="fill:#0635c9"/><path d="M171,392.173a7,7,0,0,0-7,7v18.513a7,7,0,0,0,14,0V399.173A7,7,0,0,0,171,392.173Z" style="fill:#0635c9"/><path d="M200,412.173a7,7,0,0,0-7,7v16a7,7,0,0,0,14,0v-16A7,7,0,0,0,200,412.173Z" style="fill:#0635c9"/><path d="M294.385,305.167a7,7,0,0,0,6.172-3.688L305,293.215V337.06a7,7,0,0,0,14,0V283.025l6.556,6.945a7,7,0,0,0,10.181-9.61L317.09,260.607a7,7,0,0,0-11.256,1.491l-17.608,32.753a7,7,0,0,0,6.159,10.316Z" style="fill:#69e781"/><path d="M349.907,268.039,355,259.215v52.019a7,7,0,0,0,14,0V251.971l6,6.395a6.989,6.989,0,1,0,10.151-9.61L366.5,229a7,7,0,0,0-11.169,1.328l-17.609,30.753a7.017,7.017,0,0,0,12.188,6.956Z" style="fill:#69e781"/><path d="M386.186,313.7,345.33,337.283a7,7,0,1,0,7,12.124l40.856-23.588a7,7,0,0,0-7-12.124Z" style="fill:#69e781"/><path d="M327.146,347.781l-33.214,19.177a7,7,0,1,0,7,12.124l33.214-19.177a7,7,0,1,0-7-12.124Z" style="fill:#69e781"/></svg>
