<svg height="435pt" viewBox="-22 0 435 435.341" width="435pt" xmlns="http://www.w3.org/2000/svg"><path d="m135.195312 394.628906 41.203126-123.925781.144531-.511719c3.367187-14.394531 16.226562-24.5625 31.011719-24.519531h-30c-14.78125-.039063-27.640626 10.125-31.011719 24.519531l-.144531.507813-41.199219 123.925781c-2.707031 11.277344-9.027344 21.363281-18 28.714844h30c8.972656-7.351563 15.292969-17.433594 17.996093-28.710938zm0 0" fill="#d4e1f4"/><path d="m42.171875 382.078125v-240.359375c.019531-18.878906 15.320313-34.175781 34.199219-34.199219h-30c-18.878906.023438-34.179688 15.320313-34.199219 34.199219v240.359375c.015625 13.632813 6.757813 26.378906 18.019531 34.066406 11.257813 7.6875 25.585938 9.328125 38.289063 4.378907-15.847657-6.179688-26.289063-21.4375-26.308594-38.445313zm0 0" fill="#d4e1f4"/><path d="m50.601562 435.265625v.074219h265.300782c20.84375-.039063 38.796875-14.703125 42.992187-35.121094l32.316407-113.699219.113281-.476562c2.542969-12.878907-.8125-26.21875-9.144531-36.359375-8.332032-10.140625-20.769532-16.015625-33.894532-16.015625h-16.113281v-156.640625c0-1.59375-.636719-3.121094-1.761719-4.246094l-71.027344-70.878906c-.980468-.976563-2.265624-1.585938-3.640624-1.722656l-1.484376-.148438c-.199218-.0195312-.398437-.03125-.597656-.03125h-98.667968c-18.832032.0234375-34.089844 15.28125-34.113282 34.113281v1.996094h-6.59375c-18.832031.023437-34.09375 15.28125-34.113281 34.113281v25.300782h-33.800781c-25.503906.03125-46.171875 20.699218-46.199219 46.199218v240.355469c.03125 28.304687 22.171875 51.648437 50.429687 53.1875zm322.308594-177.957031c6.015625 7.296875 8.46875 16.894531 6.6875 26.179687l-32.308594 113.675781-.117187.480469c-2.972656 14.917969-16.054687 25.671875-31.265625 25.699219h-228.710938c8.972657-7.351562 15.292969-17.433594 18-28.714844l41.199219-123.925781.144531-.507813c3.371094-14.394531 16.230469-24.5625 31.015626-24.519531h170.730468c9.539063-.019531 18.578125 4.253907 24.625 11.632813zm-152.625-200.734375 50.820313 50.710937h-28.699219c-12.210938-.015625-22.101562-9.90625-22.117188-22.113281zm40.710938-36.109375 50.816406 50.710937h-28.699219c-12.207031-.011719-22.101562-9.90625-22.113281-22.113281zm-128.117188 13.648437c.015625-12.207031 9.90625-22.097656 22.113282-22.113281h94v37.0625c.023437 18.832031 15.285156 34.09375 34.117187 34.113281h37.0625v150.5h-28.710937v-120.539062c0-1.59375-.632813-3.121094-1.761719-4.246094l-71.027344-70.878906c-.980469-.980469-2.269531-1.585938-3.644531-1.726563l-1.480469-.144531c-.199219-.023437-.402344-.03125-.601563-.03125h-80.066406zm-40.707031 36.109375c.011719-12.207031 9.90625-22.097656 22.113281-22.113281h94v37.0625c.019532 18.828125 15.28125 34.089844 34.113282 34.113281h37.0625v114.386719h-101.902344c-20.25-.058594-37.886719 13.800781-42.625 33.484375l-19.078125 57.378906c-13.121094-.183594-23.667969-10.867187-23.683594-23.992187zm-80 71.5c.019531-18.878906 15.320313-34.175781 34.199219-34.199218h33.800781v193.019531c.023437 18.238281 13.664063 33.589843 31.777344 35.746093l-18.21875 54.800782-.144531.511718c-4.828126 20.371094-24.152344 33.902344-44.945313 31.46875-20.796875-2.433593-36.472656-20.054687-36.46875-40.992187zm0 0" fill="#0635c9"/><g fill="#69e781"><path d="m195.707031 185.355469h-14.054687c-3.316406 0-6 2.6875-6 6s2.683594 6 6 6h14.054687c3.3125 0 6-2.6875 6-6s-2.6875-6-6-6zm0 0"/><path d="m127.480469 162.210938h116.671875c3.3125 0 6-2.683594 6-6 0-3.3125-2.6875-6-6-6h-116.671875c-3.316407 0-6 2.6875-6 6 0 3.316406 2.683593 6 6 6zm0 0"/><path d="m163.847656 185.355469h-36.367187c-3.316407 0-6 2.6875-6 6s2.683593 6 6 6h36.367187c3.3125 0 6-2.6875 6-6s-2.6875-6-6-6zm0 0"/></g></svg>