<svg id="Layer_1" height="512" viewBox="0 0 512 512" width="512" xmlns="http://www.w3.org/2000/svg" data-name="Layer 1"><path d="m211.068 316.166a8.469 8.469 0 0 0 1.832-6.966 27.744 27.744 0 0 1 8.607-25.477 27.225 27.225 0 0 1 8.288-5.183 27.164 27.164 0 0 0 -28.288 5.183 27.744 27.744 0 0 0 -8.607 25.477 8.469 8.469 0 0 1 -1.828 6.964 8.336 8.336 0 0 1 -6.418 3h20a8.336 8.336 0 0 0 6.414-2.998z" fill="#d4e1f4"/><path d="m155.643 470.367v-132.814a18.319 18.319 0 0 1 18.213-18.383h-20a18.319 18.319 0 0 0 -18.213 18.383v132.814a18.319 18.319 0 0 0 18.213 18.383h20a18.319 18.319 0 0 1 -18.213-18.383z" fill="#d4e1f4"/><path d="m340.561 488.831.378-49.392a8.409 8.409 0 0 0 -9.9-8.335 26.313 26.313 0 0 1 -4.917.411 27.587 27.587 0 1 1 5.313-54.692 8.432 8.432 0 0 0 10.045-8.21l.379-49.234-20-.161-.38 49.395a8.432 8.432 0 0 1 -10.045 8.21 27.57 27.57 0 1 0 -5.313 54.692 26.313 26.313 0 0 0 4.917-.411 8.409 8.409 0 0 1 9.9 8.335l-.378 49.392 150.073 1.169h.144a18.275 18.275 0 0 0 2.138-.139z" fill="#d4e1f4"/><path d="m341.222 138.1a18.345 18.345 0 0 0 -18.213 18.25l-.139 19.063c0 .082-.011.162-.015.243 0 .105-.007.211-.017.315s-.026.191-.041.287-.029.206-.05.307-.044.185-.067.277-.049.2-.079.3-.063.179-.1.269-.067.189-.1.28-.08.173-.121.258-.083.179-.13.266-.094.161-.143.241-.1.171-.155.253-.108.148-.163.222-.118.163-.181.241-.118.133-.178.2-.136.154-.208.227-.127.118-.19.176c-.078.072-.154.145-.235.212-.065.054-.135.1-.2.154-.085.065-.169.131-.258.192-.07.048-.145.09-.217.135-.091.056-.18.114-.274.165-.077.042-.158.079-.237.118-.1.046-.188.094-.284.135s-.173.066-.26.1-.19.073-.287.1-.192.052-.287.077-.188.053-.284.073-.21.035-.315.051-.183.032-.276.042c-.111.012-.222.015-.334.021-.083 0-.164.014-.248.015l-7.007.074a27.59 27.59 0 0 0 -.065 55.178l6.619.1c.1 0 .193.013.29.019s.2.008.3.019.206.033.31.05.191.027.284.048.2.052.3.08.181.045.27.074.2.072.294.109.172.062.255.1.189.092.282.139.162.076.24.119.179.11.269.167c.074.046.15.089.222.139s.167.126.25.19.141.1.208.16.149.138.224.207.135.121.2.186.132.146.2.22.127.138.186.21.113.154.169.232.118.154.171.235.1.161.144.241.1.169.151.257.079.167.119.251.089.182.128.277.062.171.092.256.073.2.1.3c.025.086.044.177.066.265s.055.2.075.311c.017.089.027.181.039.272.016.108.035.215.045.325.008.088.008.177.012.266 0 .107.015.212.014.32l-.44 64.46h20l.44-64.46c0-.108-.009-.213-.014-.32 0-.089 0-.178-.012-.266-.01-.11-.029-.217-.045-.325-.012-.091-.022-.183-.039-.272-.02-.106-.05-.208-.075-.311s-.041-.179-.066-.265c-.031-.1-.069-.2-.1-.3s-.057-.172-.092-.256-.085-.185-.128-.277-.076-.169-.119-.251-.1-.171-.151-.257-.092-.163-.144-.241-.113-.157-.171-.235-.11-.157-.169-.232-.124-.14-.186-.21-.129-.15-.2-.22-.133-.124-.2-.186-.146-.141-.224-.207-.139-.107-.208-.16-.164-.13-.25-.19-.148-.093-.222-.139c-.09-.057-.177-.115-.269-.167s-.16-.079-.24-.119-.185-.1-.282-.139-.17-.065-.255-.1-.194-.077-.294-.109-.179-.05-.27-.074-.2-.058-.3-.08-.189-.032-.284-.048-.2-.038-.31-.05-.2-.013-.3-.019-.192-.018-.29-.019l-6.619-.1a27.59 27.59 0 0 1 .065-55.178l7.007-.074c.084 0 .165-.011.248-.015.112-.006.223-.009.334-.021.093-.01.184-.028.276-.042s.212-.03.315-.051.189-.048.284-.073.193-.047.287-.077.191-.069.287-.1.175-.062.26-.1.189-.089.284-.135c.079-.039.16-.076.237-.118.094-.051.183-.109.274-.165.072-.045.147-.087.217-.135.089-.061.173-.127.258-.192.067-.051.137-.1.2-.154.081-.067.157-.14.235-.212.063-.058.129-.115.19-.176s.14-.151.208-.227.121-.131.178-.2.121-.16.181-.241.111-.145.163-.222.1-.168.155-.253.1-.159.143-.241.087-.177.13-.266.084-.17.121-.258.071-.186.1-.28.067-.178.1-.269.053-.2.079-.3.049-.183.067-.277.034-.205.05-.307.031-.19.041-.287.013-.21.017-.315c0-.081.014-.161.015-.243l.139-19.063a18.345 18.345 0 0 1 18.213-18.25z" fill="#d4e1f4"/><g fill="#0635c9"><path d="m471.786 126.1h-130.564a30.377 30.377 0 0 0 -30.213 30.164l-.1 13.163-1.051.011a39.589 39.589 0 0 0 -.091 79.176l.579.009-.4 58.544h-50.9a40.232 40.232 0 0 0 -.47-9.733 39.391 39.391 0 0 0 -34.917-32.608 38.9 38.9 0 0 0 -30.229 10.014 39.769 39.769 0 0 0 -12.988 29.388q0 1.468.11 2.939h-26.7a30.333 30.333 0 0 0 -30.213 30.383v132.817a30.333 30.333 0 0 0 30.213 30.383h156.248l160.439 1.25h.241a29.935 29.935 0 0 0 21.146-8.688 30.247 30.247 0 0 0 9.06-21.5l.976-152.129h.038v-163.2a30.333 30.333 0 0 0 -30.214-30.383zm-189.28 82.926a27.519 27.519 0 0 1 27.421-27.589l7.007-.074c.084 0 .165-.011.248-.015.112-.006.223-.009.334-.021.093-.01.184-.028.276-.042s.212-.03.315-.051.189-.048.284-.073.193-.047.287-.077.191-.069.287-.1.175-.062.26-.1.189-.089.284-.135c.079-.039.16-.076.237-.118.094-.051.183-.109.274-.165.072-.045.147-.087.217-.135.089-.061.173-.127.258-.192.067-.051.137-.1.2-.154.081-.067.157-.14.235-.212.063-.058.129-.115.19-.176s.14-.151.208-.227.121-.131.178-.2.121-.16.181-.241.111-.145.163-.222.1-.168.155-.253.1-.159.143-.241.087-.177.13-.266.084-.17.121-.258.071-.186.1-.28.067-.178.1-.269.053-.2.079-.3.049-.183.067-.277.034-.205.05-.307.031-.19.041-.287.013-.21.017-.315c0-.081.014-.161.015-.243l.139-19.063a18.345 18.345 0 0 1 18.213-18.25h130.566a18.32 18.32 0 0 1 18.214 18.388v151.2h-42.954a8.336 8.336 0 0 0 -6.418 3 8.473 8.473 0 0 0 -1.828 6.963 27.746 27.746 0 0 1 -8.607 25.478 27.036 27.036 0 0 1 -21.01 6.95 27.367 27.367 0 0 1 -24.238-22.677 28.016 28.016 0 0 1 .041-9.752 8.486 8.486 0 0 0 -1.811-6.95 8.374 8.374 0 0 0 -6.4-3.038l-54.83-.441.44-64.46c0-.108-.009-.213-.014-.32 0-.089 0-.178-.012-.266-.01-.11-.029-.217-.045-.325-.012-.091-.022-.183-.039-.272-.02-.106-.05-.208-.075-.311s-.041-.179-.066-.265c-.031-.1-.069-.2-.1-.3s-.057-.172-.092-.256-.085-.185-.128-.277-.076-.169-.119-.251-.1-.171-.151-.257-.092-.163-.144-.241-.113-.157-.171-.235-.11-.157-.169-.232-.124-.14-.186-.21-.129-.15-.2-.22-.133-.124-.2-.186-.146-.141-.224-.207-.139-.107-.208-.16-.164-.13-.25-.19-.148-.093-.222-.139c-.09-.057-.177-.115-.269-.167s-.16-.079-.24-.119-.185-.1-.282-.139-.17-.065-.255-.1-.194-.077-.294-.109-.179-.05-.27-.074-.2-.058-.3-.08-.189-.032-.284-.048-.2-.038-.31-.05-.2-.013-.3-.019-.192-.018-.29-.019l-6.619-.1a27.5 27.5 0 0 1 -27.351-27.586zm-146.863 261.341v-132.814a18.319 18.319 0 0 1 18.213-18.383h30.794a8.336 8.336 0 0 0 6.418-3 8.469 8.469 0 0 0 1.832-6.97 27.744 27.744 0 0 1 8.607-25.477 27.054 27.054 0 0 1 21.011-6.951 27.366 27.366 0 0 1 24.237 22.678 27.993 27.993 0 0 1 -.037 9.731 8.49 8.49 0 0 0 1.834 6.974 8.368 8.368 0 0 0 6.44 3.013h54.875l-.348 45.3a39.319 39.319 0 0 0 -42.32 35.279 39.921 39.921 0 0 0 9.894 30.67 39.357 39.357 0 0 0 28.94 13.1c.956.006 1.919-.021 2.879-.084l-.347 45.319h-154.7a18.319 18.319 0 0 1 -18.222-18.385zm353.343 1.369a18.331 18.331 0 0 1 -5.486 13.032 18.013 18.013 0 0 1 -12.723 5.232h-.144l-150.072-1.168.378-49.392a8.409 8.409 0 0 0 -9.9-8.335 26.313 26.313 0 0 1 -4.917.411 27.587 27.587 0 1 1 5.313-54.692 8.432 8.432 0 0 0 10.045-8.21l.38-49.395 50.787.409a40.188 40.188 0 0 0 .465 9.789 39.391 39.391 0 0 0 34.917 32.607q1.971.189 3.919.189a38.8 38.8 0 0 0 26.311-10.2 39.769 39.769 0 0 0 12.987-29.389c0-.977-.036-1.959-.109-2.938h38.821z"/><path d="m459.9 281.723a6 6 0 0 0 6-6v-12.458a6 6 0 0 0 -12 0v12.458a6 6 0 0 0 6 6z"/><path d="m459.9 239.2a6 6 0 0 0 6-6v-65.233a6 6 0 1 0 -12 0v65.233a6 6 0 0 0 6 6z"/><path d="m462.192 470.988a6 6 0 0 0 6-6v-12.458a6 6 0 0 0 -12 0v12.458a6 6 0 0 0 6 6z"/><path d="m462.192 428.461a6 6 0 0 0 6-6v-65.229a6 6 0 1 0 -12 0v65.229a6 6 0 0 0 6 6z"/></g><path d="m242.137 89.687-27.758-17.035a39.72 39.72 0 0 0 -8.279-54.659 38.845 38.845 0 0 0 -31.094-7.286 39.438 39.438 0 0 0 -26.236 18.3q-.747 1.233-1.4 2.523l-22.77-13.976a30.117 30.117 0 0 0 -41.55 10.139l-68.642 113.407a30.523 30.523 0 0 0 10.07 41.731l19.678 12.077a8 8 0 0 0 11.383-3.344 24.349 24.349 0 1 1 41.308 25.324 8 8 0 0 0 2.161 11.681l42.141 25.862a29.854 29.854 0 0 0 15.666 4.426 30.221 30.221 0 0 0 25.762-14.357l14.394-23.375a8.431 8.431 0 0 0 -3.561-12.049 27.695 27.695 0 0 1 23.283-50.258 28.054 28.054 0 0 1 5.442 3.388 8.427 8.427 0 0 0 12.438-2.145l17.513-28.44a30.483 30.483 0 0 0 -9.949-41.93zm-.27 35.638-15.5 25.167a40.331 40.331 0 0 0 -4.532-2.519 39.437 39.437 0 0 0 -48 11.652 39.881 39.881 0 0 0 10.665 58.253c.09.056.18.11.27.165l-12.412 20.157a18.173 18.173 0 0 1 -24.931 6l-38.594-23.684a36.352 36.352 0 0 0 -61.952-38.019l-16.126-9.9a18.493 18.493 0 0 1 -6.081-25.29l68.637-113.401a18.118 18.118 0 0 1 25.006-6.125l26.3 16.136a8.328 8.328 0 0 0 7.068.791 8.437 8.437 0 0 0 5.172-5 27.464 27.464 0 0 1 20.421-17.213 26.981 26.981 0 0 1 21.6 5.079 27.721 27.721 0 0 1 3.882 40.443 8.35 8.35 0 0 0 -2.022 6.789 8.443 8.443 0 0 0 3.945 5.975l31.183 19.138a18.479 18.479 0 0 1 6.008 25.41z" fill="#69e781"/></svg>