<svg height="498pt" viewBox="-15 0 498 498.928" width="498pt" xmlns="http://www.w3.org/2000/svg"><path d="m139.03125 425.054688c-27.828125-20.417969-49.976562-43.746094-65.820312-69.328126-19.707032-31.816406-29.699219-67.316406-29.699219-105.515624v-112.074219c66.046875-28.632813 128.730469-64.476563 186.90625-106.878907-8.054688-5.613281-16.023438-11.34375-23.90625-17.195312-60.15625 44.675781-125.25 82.277344-194 112.070312v112.078126c0 38.199218 9.992187 73.699218 29.699219 105.515624 15.847656 25.582032 37.992187 48.910157 65.824218 69.328126 42.761719 31.375 86.128906 46.25 95.039063 49.105468l.160156-.046875c-22.632813-10.082031-44.152344-22.5-64.203125-37.058593zm0 0" fill="#d4e1f4"/><g fill="#0635c9"><path d="m101.1875 422.363281c49.414062 36.167969 98.078125 50.648438 100.125 51.246094 1.085938.320313 2.234375.324219 3.320312.015625 1.625-.460938 40.214844-11.578125 84.25-38.5 1.855469-1.105469 2.976563-3.125 2.929688-5.285156-.042969-2.160156-1.246094-4.128906-3.148438-5.152344-1.902343-1.027344-4.210937-.949219-6.039062.199219-25.015625 15.285156-51.730469 27.597656-79.601562 36.683593-8.914063-2.859374-52.277344-17.730468-95.039063-49.105468-23.597656-17.316406-43.09375-36.726563-58.144531-57.824219 2.203125-.949219 3.632812-3.117187 3.632812-5.511719v-12.230468c0-3.316407-2.6875-6-6-6s-6 2.683593-6 6v5.105468c-19.246094-31.515625-29.007812-66.625-29.007812-104.371094v-112.078124c68.75-29.792969 133.84375-67.394532 194-112.066407 60.152344 44.671875 125.25 82.273438 194 112.066407v112.078124c.144531 25.714844-4.851563 51.199219-14.699219 74.957032-1.253906 3.050781.1875 6.539062 3.230469 7.8125 3.042968 1.273437 6.539062-.144532 7.835937-3.175782 10.464844-25.226562 15.78125-52.289062 15.632813-79.59375v-116.027343c0-2.394531-1.425782-4.5625-3.628906-5.511719l-1.316407-.5625c-70.109375-30.167969-136.390625-68.546875-197.457031-114.332031-2.132812-1.597657-5.066406-1.597657-7.199219 0-61.0625 45.785156-127.347656 84.164062-197.457031 114.332031l-1.3125.5625c-2.203125.949219-3.628906 3.117188-3.628906 5.511719v116.027343c0 40.539063 10.636718 78.226563 31.609375 112.015626 16.707031 26.914062 39.960937 51.382812 69.113281 72.714843zm0 0"/><path d="m200.464844 336.90625v12.230469c0 3.3125 2.683594 6 6 6 3.3125 0 6-2.6875 6-6v-12.230469c0-3.3125-2.6875-6-6-6-3.316406 0-6 2.6875-6 6zm0 0"/><path d="m240.210938 336.90625v12.230469c0 3.3125 2.6875 6 6 6 3.316406 0 6-2.6875 6-6v-12.230469c0-3.3125-2.683594-6-6-6-3.3125 0-6 2.6875-6 6zm0 0"/><path d="m285.964844 330.90625c-3.316406 0-6 2.6875-6 6v12.230469c0 3.3125 2.683594 6 6 6 3.3125 0 6-2.6875 6-6v-12.230469c0-3.3125-2.6875-6-6-6zm0 0"/><path d="m160.714844 336.90625v12.230469c0 3.3125 2.6875 6 6 6 3.316406 0 6-2.6875 6-6v-12.230469c0-3.3125-2.683594-6-6-6-3.3125 0-6 2.6875-6 6zm0 0"/><path d="m120.964844 336.90625v12.230469c0 3.3125 2.683594 6 6 6 3.3125 0 6-2.6875 6-6v-12.230469c0-3.3125-2.6875-6-6-6-3.316406 0-6 2.6875-6 6zm0 0"/><path d="m81.222656 336.90625v12.230469c0 3.3125 2.683594 6 6 6 3.3125 0 6-2.6875 6-6v-12.230469c0-3.3125-2.6875-6-6-6-3.316406 0-6 2.6875-6 6zm0 0"/></g><path d="m372.464844 306.929688c-53.019532 0-96 42.980468-96 96 0 53.019531 42.980468 96 96 96 53.019531 0 96-42.980469 96-96-.058594-52.996094-43.007813-95.941407-96-96zm0 180c-31.21875.019531-59.871094-17.285157-74.382813-44.925782-14.507812-27.640625-12.484375-61.050781 5.261719-86.734375l130.734375 104.671875c-15.863281 17.207032-38.207031 26.992188-61.613281 26.988282zm69.121094-36.351563-130.730469-104.667969c29.894531-32.367187 79.730469-36.109375 114.128906-8.570312 34.394531 27.539062 41.644531 76.984375 16.601563 113.238281zm0 0" fill="#69e781"/></svg>