<svg height="446pt" viewBox="-22 0 446 446.5467" width="446pt" xmlns="http://www.w3.org/2000/svg"><path d="m341.382812 91.925781c-1.011718-18.386719-10.628906-35.222656-25.957031-45.433593-15.328125-10.207032-34.574219-12.59375-51.929687-6.441407-29.464844-35.503906-77.84375-49.039062-121.457032-33.984375-43.613281 15.058594-73.335937 55.558594-74.621093 101.679688-38.460938 10.0625-65.746094 44.195312-67.089844 83.929687-.847656 24.144531 8.246094 47.582031 25.160156 64.832031 17.339844 17.777344 41.125 27.792969 65.957031 27.78125h11.433594c3.3125 0 6-2.6875 6-6s-2.6875-6-6-6h-11.433594c-21.605468.144532-42.328124-8.574218-57.332031-24.125-14.644531-14.949218-22.519531-35.25-21.792969-56.164062 1.230469-35.984375 26.984376-66.433594 62.265626-73.621094 2.878906-.582031 4.910156-3.160156 4.800781-6.09375-.015625-.484375-.015625-.960937-.015625-1.453125-.003906-42.402343 27.039062-80.082031 67.214844-93.644531 40.171874-13.566406 84.523437.007812 110.222656 33.734375 1.691406 2.21875 4.6875 2.980469 7.234375 1.835937 14.363281-6.441406 31.011719-5.167968 44.226562 3.386719 13.214844 8.554688 21.195313 23.222657 21.199219 38.96875 0 .226563 0 .460938-.003906.691407-.085938 2.5625 1.464844 4.894531 3.863281 5.808593 34.472656 13.230469 57.148437 46.421875 56.949219 83.34375-.351563 43.5-33.601563 80.808594-77.332032 86.789063-2.136718.273437-3.964843 1.671875-4.789062 3.664062-.820312 1.996094-.507812 4.277344.820312 5.976563 1.324219 1.699219 3.460938 2.558593 5.59375 2.246093 23.882813-3.277343 45.84375-14.890624 62-32.78125 16.339844-18.042968 25.484376-41.457031 25.707032-65.796874.214844-40.445313-23.753906-77.105469-60.894532-93.128907zm0 0" fill="#0635c9"/><g fill="#69e781"><path d="m215.277344 301.988281v-203.9375c0-3.3125-2.6875-6-6-6s-6 2.6875-6 6v203.9375c-12.597656 3.039063-20.929688 15.019531-19.398438 27.886719 1.527344 12.867188 12.441406 22.558594 25.398438 22.558594 12.957031 0 23.871094-9.691406 25.398437-22.558594 1.53125-12.867188-6.800781-24.847656-19.398437-27.886719zm3.609375 34.5c-4.316407 4.328125-10.988281 5.242188-16.308594 2.230469-5.324219-3.007812-7.980469-9.195312-6.496094-15.125 1.480469-5.929688 6.738281-10.140625 12.851563-10.292969.113281.007813.226562.015625.34375.015625.117187 0 .230468-.007812.34375-.015625 3.488281.074219 6.808594 1.496094 9.265625 3.964844 5.300781 5.3125 5.300781 13.910156 0 19.222656zm0 0"/><path d="m280.277344 396.050781v-86.441406c-.035156-14.339844-11.664063-25.945313-26-25.957031-7.710938-.003906-13.96875-6.242188-14-13.957032v-121.644531c0-3.3125-2.6875-6-6-6s-6 2.6875-6 6v121.644531c.035156 14.339844 11.664062 25.945313 26 25.957032 7.714844.003906 13.972656 6.242187 14 13.957031v86.441406c-4.523438 1.21875-8.667969 3.554688-12.058594 6.789063-10.003906 9.992187-10.007812 26.207031-.007812 36.207031 9.996093 10 26.210937 10 36.207031 0 10-10 9.996093-26.214844-.007813-36.207031-3.269531-3.433594-7.496094-5.800782-12.132812-6.789063zm3.6875 34.5c-5.308594 5.308594-13.914063 5.308594-19.222656 0-5.308594-5.308593-5.308594-13.917969 0-19.226562 2.460937-2.46875 5.78125-3.886719 9.265624-3.960938.117188.003907.230469.015625.34375.015625.117188 0 .230469-.011718.347657-.015625 5.433593.128907 10.265625 3.488281 12.28125 8.535157 2.019531 5.046874.832031 10.8125-3.015625 14.652343zm0 0"/><path d="m164.277344 295.652344c14.335937-.011719 25.964844-11.617188 26-25.957032v-121.644531c0-3.3125-2.6875-6-6-6s-6 2.6875-6 6v121.644531c-.027344 7.714844-6.285156 13.953126-14 13.957032-14.335938.011718-25.960938 11.617187-26 25.957031v86.441406c-4.636719.988281-8.863282 3.355469-12.136719 6.789063-9.980469 9.992187-9.972656 26.183594.015625 36.167968 9.992188 9.984376 26.183594 9.984376 36.171875 0 9.988281-9.984374 9.996094-26.175781.015625-36.167968-3.394531-3.234375-7.542969-5.570313-12.066406-6.789063v-86.441406c.03125-7.714844 6.289062-13.953125 14-13.957031zm-10.464844 115.671875c4.585938 4.5625 5.328125 11.722656 1.777344 17.132812-3.550782 5.410157-10.417969 7.574219-16.429688 5.179688-6.011718-2.390625-9.507812-8.683594-8.371094-15.054688 1.136719-6.367187 6.597657-11.058593 13.066407-11.222656.117187.003906.230469.015625.347656.015625.113281 0 .226563-.011719.34375-.015625 3.484375.074219 6.804687 1.492187 9.265625 3.964844zm0 0"/><path d="m95.277344 334.15625v-33.335938c.066406-8.015624 5.078125-15.152343 12.59375-17.9375l35.066406-12.984374c12.195312-4.546876 20.296875-16.175782 20.339844-29.1875v-32.660157c0-3.3125-2.6875-6-6-6s-6 2.6875-6 6v32.660157c-.007813 7.988281-4.96875 15.136718-12.453125 17.9375l-35.136719 12.980468c-12.210938 4.542969-20.335938 16.164063-20.410156 29.191406v34.421876c-3 1.21875-6.871094 3.046874-9.738282 6.046874h.054688c-7.378906 7.304688-9.625 18.339844-5.683594 27.945313 3.9375 9.605469 13.28125 15.886719 23.664063 15.90625 10.382812.023437 19.753906-6.222656 23.730469-15.8125 3.976562-9.59375 1.777343-20.636719-5.574219-27.96875-3.953125-3.84375-9.003907-6.363281-14.453125-7.203125zm6.082031 34.917969c-5.308594 5.308593-13.917969 5.308593-19.226563 0-5.308593-5.308594-5.308593-13.914063 0-19.222657 1.410157-1.40625 3.109376-2.480468 4.980469-3.152343 1.996094.867187 4.304688.578125 6.027344-.75 5.21875.535156 9.664063 4.023437 11.417969 8.964843 1.757812 4.941407.511718 10.453126-3.199219 14.160157zm0 0"/><path d="m344.90625 341.289062h.109375c-2.863281-3-6.738281-4.828124-9.738281-6.046874v-34.421876c-.082032-13.03125-8.210938-24.652343-20.425782-29.191406l-35.066406-12.980468c-7.496094-2.796876-12.476562-9.941407-12.507812-17.9375v-32.660157c0-3.3125-2.6875-6-6-6s-6 2.6875-6 6v32.660157c.023437 13.003906 8.105468 24.632812 20.285156 29.191406l35.136719 12.976562c7.511719 2.789063 12.519531 9.929688 12.578125 17.941406v33.335938c-5.449219.84375-10.503906 3.363281-14.457032 7.210938-9.972656 9.988281-9.949218 26.175781.050782 36.140624 9.996094 9.960938 26.183594 9.929688 36.140625-.078124 9.953125-10.007813 9.910156-26.191407-.105469-36.140626zm-8.484375 27.785157c-4.226563 4.238281-10.722656 5.210937-16.007813 2.402343-5.28125-2.808593-8.105468-8.746093-6.957031-14.617187 1.152344-5.871094 6.007813-10.300781 11.957031-10.910156 1.722657 1.328125 4.03125 1.617187 6.027344.75 4.375 1.574219 7.640625 5.277343 8.652344 9.816406 1.007812 4.539063-.375 9.277344-3.671875 12.558594zm0 0"/></g></svg>