<?xml version="1.0"?>
<svg xmlns="http://www.w3.org/2000/svg" id="Layer_1" data-name="Layer 1" viewBox="0 0 512 512" width="512" height="512"><title>Phone settings</title><path d="M271,431V405H231v26a34.038,34.038,0,0,0,34,34h40A34.038,34.038,0,0,1,271,431Z" style="fill:#d4e1f4"/><path d="M271,81a34.038,34.038,0,0,1,34-34H265a34.038,34.038,0,0,0-34,34V95h40Z" style="fill:#d4e1f4"/><rect x="231" y="107" width="40" height="286" style="fill:#d4e1f4"/><path d="M424.811,95H413.694a6,6,0,1,0,0,12h11.117a6,6,0,0,0,0-12Z" style="fill:#0635c9"/><path d="M345,414a21,21,0,1,0,21,21A21.024,21.024,0,0,0,345,414Zm0,30a9,9,0,1,1,9-9A9.01,9.01,0,0,1,345,444Z" style="fill:#0635c9"/><path d="M227,430H206.264l-3.256-33.622a5.933,5.933,0,0,0-4.705-5.229,139.224,139.224,0,0,1-46.131-19.43,6,6,0,0,0-7.08.434l-26,21.526L89.551,364.136l21.518-25.993a6,6,0,0,0,.37-7.153,135.3,135.3,0,0,1-19.41-46.065,6,6,0,0,0-5.29-4.7L53,276.972V235.028l33.739-3.248a6,6,0,0,0,5.29-4.706,139.45,139.45,0,0,1,19.46-46.14,6,6,0,0,0-.42-7.079L89.551,147.86,119.1,118.314l26,21.519a6,6,0,0,0,7.154.37A135.282,135.282,0,0,1,198.3,120.792a5.867,5.867,0,0,0,4.705-5.17L206.264,82H227V70H200.815a5.9,5.9,0,0,0-5.972,5.305l-3.365,34.813a147.825,147.825,0,0,0-42.115,17.7L122.542,105.6a6,6,0,0,0-8.068.372L77.2,143.24a6,6,0,0,0-.38,8.067l22.238,26.862A151.3,151.3,0,0,0,81.3,220.249l-34.872,3.357A6,6,0,0,0,41,229.578v52.844a6,6,0,0,0,5.425,5.972l34.87,3.357a147.847,147.847,0,0,0,17.732,42.123L76.824,360.7a6,6,0,0,0,.38,8.069l37.27,37.269a6,6,0,0,0,8.068.38L149.4,384.176a151.158,151.158,0,0,0,42.074,17.763l3.365,34.756A5.9,5.9,0,0,0,200.815,442H227Z" style="fill:#69e781"/><path d="M227.014,159.116l-.028-12a108.884,108.884,0,0,0,0,217.768l.028-12a96.884,96.884,0,0,1,0-193.768Z" style="fill:#69e781"/><path d="M425,35H265a46.053,46.053,0,0,0-46,46V431a46.053,46.053,0,0,0,46,46H425a46.053,46.053,0,0,0,46-46V81A46.053,46.053,0,0,0,425,35Zm0,430H265a34.038,34.038,0,0,1-34-34V405H459v26A34.038,34.038,0,0,1,425,465ZM459,95H445a6,6,0,0,0,0,12h14V393H231V107H394a6,6,0,0,0,0-12H231V81a34.038,34.038,0,0,1,34-34H425a34.038,34.038,0,0,1,34,34Z" style="fill:#0635c9"/></svg>
