<?xml version="1.0"?>
<svg xmlns="http://www.w3.org/2000/svg" id="Layer_1" data-name="Layer 1" viewBox="0 0 512 512" width="512" height="512"><title> 24hr Service </title><path d="M278.221,37.112a7,7,0,0,0,0,14C391.2,51.112,483.108,143.024,483.108,256S391.2,460.888,278.221,460.888A204.661,204.661,0,0,1,75.73,287.343h40.885a7,7,0,0,0,5.9-10.761l-47.363-74.34a7,7,0,0,0-11.807,0l-47.361,74.34a7,7,0,0,0,5.9,10.761H61.575C76.931,394.7,168.977,474.888,278.221,474.888A218.888,218.888,0,0,0,433,101.223,217.45,217.45,0,0,0,278.221,37.112ZM67.638,273.343H34.652l34.6-54.312,34.6,54.312H67.638Z" style="fill:#0635c9"/><path d="M190.239,314.481H247.2c2.88,0,5.6-3.68,5.6-7.68s-2.72-7.36-5.6-7.36H200.159v-6.08c0-18.4,51.841-29.6,51.841-64,0-19.2-15.68-31.84-34.241-31.84-17.44,0-32.8,11.2-32.8,28.32,0,7.2,3.2,9.441,7.68,9.441,5.6,0,8.96-3.2,8.96-6.4,0-10.88,7.2-15.84,16.16-15.84,12.161,0,17.281,8.961,17.281,16.8,0,24.641-52.322,37.6-52.322,63.522v15.52C182.718,312.241,187.038,314.481,190.239,314.481Z" style="fill:#69e781"/><path d="M307.2,244.72c-4.32,0-8.48,1.6-8.48,5.6V272.4H275.2l32.961-65.761a5.88,5.88,0,0,0,.8-2.56c0-4-5.28-6.56-8.48-6.56a8.106,8.106,0,0,0-7.36,4.64L254.4,278.48a7.3,7.3,0,0,0-.96,3.52c0,3.841,2.56,6.241,5.92,6.241h39.361v20.64c0,3.681,4.16,5.6,8.48,5.6,4.16,0,8.48-1.919,8.48-5.6v-20.64h7.84c3.041,0,5.761-4,5.761-7.84,0-4-1.921-8-5.761-8h-7.84V250.32C315.681,246.32,311.361,244.72,307.2,244.72Z" style="fill:#69e781"/><path d="M334.129,233.288c2.762,0,5.228-1.776,5.228-3.453V205.371c0-6.412,4.736-10.259,9.47-10.259,5.426,0,9.964,5.13,9.964,10.259v24.464c0,2.269,2.762,3.453,5.129,3.453,2.565,0,5.228-1.184,5.228-3.453V205.371c0-10.653-7.891-19.433-17.164-19.433a13.844,13.844,0,0,0-12.627,7.5V162.066c0-1.973-2.466-3.354-5.228-3.354-3.057,0-5.129,1.381-5.129,3.354v67.769C329,231.512,331.072,233.288,334.129,233.288Z" style="fill:#69e781"/><path d="M384.635,186.53c-2.959,0-5.031,1.381-5.031,3.354v39.951c0,1.677,2.072,3.453,5.031,3.453s5.327-1.776,5.327-3.453V209.613c0-8.977,5.918-14.5,11.936-14.5h3.156c2.072,0,3.946-2.071,3.946-4.636,0-2.466-1.874-4.538-3.946-4.538H401.9c-5.82,0-10.457,4.143-12.528,8.286v-4.34C389.37,187.911,387.2,186.53,384.635,186.53Z" style="fill:#69e781"/></svg>
