<?xml version="1.0"?>
<svg xmlns="http://www.w3.org/2000/svg" id="Layer_1" data-name="Layer 1" viewBox="0 0 512 512" width="512" height="512"><title>bell time</title><path d="M362.674,402.869a196.57,196.57,0,0,1-18.094,11.578,190.442,190.442,0,0,1-147.788,17.368c-50.072-14.5-91.576-47.977-116.866-94.277A201.086,201.086,0,0,1,99.962,115.1a196.916,196.916,0,0,0-63.241,98.384A199.786,199.786,0,0,0,53.742,364.076c25.29,46.3,66.794,79.783,116.866,94.278A190.44,190.44,0,0,0,318.4,440.985a195.66,195.66,0,0,0,45.521-35.464Z" style="fill:#d4e1f4"/><path d="M418.678,173.9A211.121,211.121,0,0,0,318.408,73.258a209.6,209.6,0,0,0-179.123,0A210.6,210.6,0,0,0,19,263.768C19,379.9,113.136,474.376,228.845,474.376a208.782,208.782,0,0,0,142.34-55.858,7,7,0,0,0-9.517-10.268,194.822,194.822,0,0,1-132.823,52.126C120.855,460.376,33,372.178,33,263.768A196.6,196.6,0,0,1,145.286,85.9a195.609,195.609,0,0,1,167.121,0,197,197,0,0,1,93.558,93.959C414.7,198.407,420,218.145,423,238.537v4.315a7,7,0,0,0,14,0V238.1a7.029,7.029,0,0,0-.007-.871A209.392,209.392,0,0,0,418.678,173.9Z" style="fill:#0635c9"/><path d="M248.293,271H307a7,7,0,0,0,0-14H248.293a20.8,20.8,0,0,0-19.448-13.855,20.5,20.5,0,0,0-6.629,1.053l-56.1-79.035a6.993,6.993,0,1,0-11.414,8.083L211.263,252.9a20.617,20.617,0,0,0-3.106,10.872,20.837,20.837,0,0,0,20.688,20.855A20.6,20.6,0,0,0,248.293,271Zm-19.448-.493a6.74,6.74,0,1,1,6.687-6.739A6.722,6.722,0,0,1,228.845,270.507Z" style="fill:#0635c9"/><path d="M389.259,184.057c-.06-.142-.123-.282-.192-.419a180.414,180.414,0,0,0-83.831-82.354,178.8,178.8,0,0,0-152.779,0A179.622,179.622,0,0,0,49.868,263.768c0,99.044,80.288,179.624,178.977,179.624a178.95,178.95,0,0,0,112.907-40.246A7,7,0,0,0,332.9,392.3a164.915,164.915,0,0,1-104.05,37.088c-90.969,0-164.977-74.3-164.977-165.624a165.622,165.622,0,0,1,94.591-149.836,164.791,164.791,0,0,1,140.776,0,166.368,166.368,0,0,1,77.2,75.734l.967,2.316a7,7,0,1,0,12.918-5.4Z" style="fill:#0635c9"/><path d="M235,132.275V111.2a7,7,0,0,0-14,0v21.079a7,7,0,0,0,14,0Z" style="fill:#0635c9"/><path d="M221,396.264v21.079a7,7,0,1,0,14,0V396.264a7,7,0,0,0-14,0Z" style="fill:#0635c9"/><path d="M76,258a7,7,0,0,0,0,14H96a7,7,0,0,0,0-14Z" style="fill:#0635c9"/><path d="M486.523,373.832a29.635,29.635,0,0,1-9.288-10.392c-6.668-13.06-14.617-35.248-14.617-66.778,0-19.295-8.1-38.852-22.22-53.659a77.383,77.383,0,0,0-32.037-20.339,25.637,25.637,0,1,0-41.536,0A77.4,77.4,0,0,0,334.789,243c-14.121,14.8-22.221,34.36-22.221,53.655,0,35.694-10.235,58.866-16.337,69.5a25.215,25.215,0,0,1-7.243,7.7,15.35,15.35,0,0,0-1.85,1.57,16.53,16.53,0,0,0-4.95,11.817A16.821,16.821,0,0,0,299.127,404h60.267a30.74,30.74,0,0,0-.172,3.175,28.372,28.372,0,1,0,56.743-.012,30.387,30.387,0,0,0-.173-3.163H476.06A16.822,16.822,0,0,0,493,387.241c0-3.556-1.19-8.48-4.52-11.811A15.325,15.325,0,0,0,486.523,373.832ZM375.956,207.616a11.638,11.638,0,1,1,11.7,11.7l-.061,0-.062,0A11.685,11.685,0,0,1,375.956,207.616ZM401.965,407.2a14.373,14.373,0,1,1-28.743-.055,15.854,15.854,0,0,1,.316-3.141h28.109A16.264,16.264,0,0,1,401.965,407.2Zm74.1-17.2H299.127a2.777,2.777,0,0,1-2.939-2.759,2.689,2.689,0,0,1,.862-2,.526.526,0,0,0,.154-.089A39.029,39.029,0,0,0,308.376,373.1c6.794-11.843,18.192-37.519,18.192-76.458,0-33.116,29.034-63.272,60.937-63.328.029,0,.059,0,.089,0h.089c31.9.056,60.935,30.22,60.935,63.341,0,34.313,8.781,58.716,16.149,73.143a43.419,43.419,0,0,0,13.557,15.374,1.941,1.941,0,0,1,.17.135,4.29,4.29,0,0,1,.506,1.927A2.777,2.777,0,0,1,476.06,390Z" style="fill:#69e781"/></svg>
