<svg height="492pt" viewBox="0 -17 492.00644 492" width="492pt" xmlns="http://www.w3.org/2000/svg"><path d="m107.46875 233.042969c5.585938-2.78125 11.628906-4.535157 17.835938-5.179688-.144532-.199219-.300782-.402343-.441407-.609375-7.886719-11.867187-4.660156-27.882812 7.210938-35.769531.609375-.398437 1.234375-.773437 1.867187-1.121094.125.222657.234375.453125.363282.675781 1.882812 3.253907 6.050781 4.367188 9.304687 2.480469 3.257813-1.882812 4.367187-6.050781 2.484375-9.304687-5.90625-10.242188-6.820312-22.613282-2.488281-33.613282 4.328125-10.996093 13.433593-19.421874 24.738281-22.886718-15.242188-4.65625-31.78125.480468-41.707031 12.953125-9.921875 12.46875-11.210938 29.742187-3.246094 43.546875 1.882813 3.253906.769531 7.421875-2.484375 9.304687-3.257812 1.886719-7.425781.773438-9.308594-2.480469-.128906-.222656-.238281-.453124-.363281-.675781-.632813.347657-1.257813.71875-1.867187 1.121094-6.863282 4.535156-11.144532 12.078125-11.519532 20.296875s3.199219 16.121094 9.621094 21.261719zm0 0" fill="#d4e1f4"/><path d="m184.121094 123.621094c1.613281 1.191406 2.621094 3.039062 2.746094 5.042968 4.265624 1.269532 8.28125 3.273438 11.863281 5.914063 3.027343 2.234375 7.292969 1.59375 9.527343-1.429687 2.234376-3.027344 1.59375-7.292969-1.433593-9.527344-1.152344-.851563-2.332031-1.652344-3.539063-2.398438-5.363281-10.109375-1.921875-22.644531 7.847656-28.601562-8.328124-5.140625-19.0625-4.066406-26.207031 2.621094s-8.925781 17.332031-4.34375 25.980468c1.203125.746094 2.382813 1.546875 3.539063 2.398438zm0 0" fill="#d4e1f4"/><path d="m202.65625 363.820312c6.777344-7.515624 10.523438-17.277343 10.515625-27.398437 0-3.765625-3.050781-6.816406-6.8125-6.816406-3.765625 0-6.816406 3.050781-6.816406 6.816406.058593 11.679687-7.3125 22.105469-18.347657 25.9375-.40625.496094-.820312.984375-1.25 1.460937 7.878907 5.226563 17.894532 6.015626 26.496094 2.085938-1.316406-.59375-2.582031-1.292969-3.785156-2.085938zm0 0" fill="#d4e1f4"/><path d="m146.308594 337.421875v-8.332031c1.804687.234375 3.628906.339844 5.449218.320312 1.792969-.007812 3.507813-.730468 4.761719-2.011718 1.253907-1.28125 1.941407-3.007813 1.910157-4.800782-.035157-3.777344-3.105469-6.816406-6.882813-6.8125-21.425781.015625-38.8125-17.34375-38.824219-38.773437-.015625-21.429688 17.34375-38.8125 38.773438-38.824219 3.730468-.050781 6.726562-3.089844 6.722656-6.820312-.003906-3.730469-3.007812-6.761719-6.738281-6.804688-5.832031 0-11.621094.980469-17.128907 2.902344 1.464844 2.074218 1.648438 4.792968.476563 7.050781-1.167969 2.253906-3.496094 3.667969-6.039063 3.671875-21.425781.011719-38.785156 17.394531-38.773437 38.824219.015625 21.429687 17.398437 38.789062 38.828125 38.773437 3.773438-.003906 6.847656 3.035156 6.882812 6.8125.03125 1.792969-.65625 3.519532-1.910156 4.800782s-2.96875 2.003906-4.761718 2.011718c-1.824219.019532-3.644532-.085937-5.453126-.320312v8.332031c-.054687 7.234375 2.777344 14.195313 7.867188 19.335937 5.085938 5.144532 12.015625 8.046876 19.253906 8.0625 3.917969.007813 7.792969-.847656 11.351563-2.5-9.660157-4.515624-15.8125-14.234374-15.765625-24.898437zm0 0" fill="#d4e1f4"/><g fill="#0635c9"><path d="m80.570312 277.804688c.046876 20.859374 12.9375 39.535156 32.425782 46.976562v11.847656c-.042969 10.394532 4.050781 20.378906 11.378906 27.75 7.328125 7.375 17.285156 11.53125 27.679688 11.550782 6.605468.007812 13.101562-1.679688 18.867187-4.902344 11.722656 9.910156 28.121094 12.140625 42.066406 5.722656 13.945313-6.421875 22.914063-20.332031 23.007813-35.683594v-228.640625c-.164063-12.535156-7.222656-23.957031-18.359375-29.707031s-24.535157-4.894531-34.851563 2.226562c-10.3125 7.121094-15.859375 19.347657-14.429687 31.800782-17.273438-4.25-35.507813.914062-47.988281 13.589844-12.480469 12.679687-17.355469 30.996093-12.835938 48.199218-11.261719 5.265625-19.183594 15.777344-21.136719 28.054688-1.953125 12.28125 2.3125 24.730468 11.386719 33.230468-10.976562 9.566407-17.253906 23.425782-17.210938 37.984376zm21.785157-50.976563c-7.851563-11.84375-4.636719-27.808594 7.191406-35.6875.785156-.515625 1.59375-.984375 2.429687-1.414063.214844.394532.410157.800782.632813 1.183594 1.660156 2.867188 5.332031 3.847656 8.199219 2.1875 2.867187-1.660156 3.847656-5.328125 2.1875-8.199218-9.09375-15.746094-5.894532-35.710938 7.660156-47.828126 13.554688-12.121093 33.753906-13.070312 48.386719-2.277343 2.667969 1.96875 6.421875 1.40625 8.390625-1.261719 1.96875-2.664062 1.40625-6.421875-1.257813-8.390625-1.15625-.851563-2.335937-1.648437-3.546875-2.390625-1.714844-3.171875-2.613281-6.71875-2.613281-10.324219.140625-12.046875 9.945313-21.738281 21.992187-21.738281 12.042969 0 21.847657 9.691406 21.988282 21.738281v228.640625c-.097656 10.222656-5.84375 19.550782-14.929688 24.234375-9.085937 4.6875-20.019531 3.957031-28.402344-1.894531 6.78125-7.265625 10.539063-16.839844 10.511719-26.777344 0-3.324218-2.695312-6.023437-6.023437-6.023437-3.324219 0-6.023438 2.699219-6.023438 6.023437.058594 9.710938-5.085937 18.707032-13.484375 23.578125-8.398437 4.871094-18.761719 4.871094-27.164062 0-8.398438-4.871093-13.542969-13.867187-13.484375-23.578125v-8.824218c1.980468.261718 3.976562.394531 5.972656.398437 1.578125-.003906 3.089844-.644531 4.195312-1.769531 1.105469-1.128906 1.710938-2.652344 1.683594-4.230469-.027344-3.324219-2.734375-6.003906-6.058594-6-13.839843.195313-26.714843-7.074219-33.699218-19.027344-6.980469-11.953125-6.988282-26.738281-.019532-38.699219 6.964844-11.960937 19.832032-19.246093 33.671876-19.066406 3.316406-.003906 6-2.691406 5.996093-6.003906-.003906-3.316406-2.691406-6-6.003906-5.996094-7.921875-.003906-15.730469 1.867188-22.785156 5.464844-2.179688-1.699219-4.070313-3.742188-5.59375-6.046875zm0 0"/><path d="m195.765625 232.351562c.800781-7.214843-1.304687-14.453124-5.847656-20.117187-2.074219-2.582031-5.847657-2.996094-8.433594-.925781-2.585937 2.074218-3 5.851562-.925781 8.4375 3.425781 4.28125 4.324218 10.0625 2.351562 15.183594-.234375.109374-.46875.210937-.699218.328124-10.429688 5.25-16.402344 16.515626-14.894532 28.09375.433594 3.285157 3.449219 5.601563 6.734375 5.167969 3.285157-.433593 5.597657-3.445312 5.167969-6.734375-.789062-6.109375 2.121094-12.109375 7.414062-15.265625 5.292969-3.15625 11.953126-2.871093 16.957032.726563 2.691406 1.9375 6.441406 1.328125 8.378906-1.359375 1.933594-2.691407 1.328125-6.441407-1.363281-8.378907-4.339844-3.121093-9.496094-4.910156-14.839844-5.15625zm0 0"/><path d="m132.167969 216.800781c2.375 2.289063 6.148437 2.230469 8.453125-.125 2.304687-2.359375 2.273437-6.132812-.066406-8.453125-1.402344-1.371094-2.398438-3.101562-2.882813-5 3.09375-5.1875 3.992187-11.390625 2.503906-17.242187-.511719-2.097657-2.113281-3.757813-4.191406-4.347657-2.078125-.585937-4.3125-.011718-5.851563 1.503907-1.535156 1.515625-2.140624 3.742187-1.578124 5.828125 1.253906 4.917968-1.109376 10.042968-5.664063 12.285156-1.9375.929688-3.230469 2.828125-3.386719 4.972656-.152344 2.148438.851563 4.210938 2.636719 5.410156 1.785156 1.203126 4.078125 1.355469 6.003906.402344.078125-.035156.152344-.082031.226563-.121094 1.039062 1.792969 2.3125 3.4375 3.796875 4.886719zm0 0"/><path d="m165.519531 157.230469c3.566407-.910157 7.351563.078125 10.019531 2.613281 2.667969 2.535156 3.847657 6.265625 3.125 9.875-.214843 1.070312-.59375 2.101562-1.121093 3.058594-1.046875 1.878906-1.007813 4.175781.101562 6.019531s3.121094 2.949219 5.269531 2.902344c2.152344-.046875 4.113282-1.238281 5.140626-3.128907 1.90625-3.464843 2.875-7.363281 2.8125-11.316406 5.519531-.394531 10.703124-2.792968 14.570312-6.75 2.316406-2.367187 2.273438-6.167968-.09375-8.484375-2.371094-2.316406-6.167969-2.273437-8.484375.09375-2.535156 2.582031-6.199219 3.710938-9.742187 3-5.324219-8.089843-15.199219-11.910156-24.582032-9.507812-2.089844.519531-3.742187 2.121093-4.324218 4.195312-.585938 2.070313-.015626 4.300781 1.496093 5.835938 1.511719 1.535156 3.726563 2.140625 5.8125 1.589843zm0 0"/><path d="m143.136719 295.78125c2.359375 2.355469 4.09375 5.261719 5.042969 8.453125.042968.195313.097656.386719.164062.578125 1.65625 6.246094.203125 12.90625-3.902344 17.898438-2.074218 2.558593-1.699218 6.316406.84375 8.410156 2.542969 2.097656 6.300782 1.75 8.417969-.777344 4.261719-5.175781 6.792969-11.558594 7.234375-18.25 8.742188 1.929688 17.898438.109375 25.238281-5.023438 1.761719-1.226562 2.734375-3.300781 2.550781-5.441406-.1875-2.140625-1.5-4.019531-3.449218-4.921875-1.945313-.90625-4.230469-.703125-5.984375.535157-5.976563 4.167968-13.746094 4.765624-20.285157 1.554687-1.605468-4.320313-4.125-8.246094-7.390624-11.5-2.34375-2.34375-6.140626-2.339844-8.484376.003906-2.339843 2.34375-2.339843 6.144531.007813 8.484375zm0 0"/><path d="m386.195312 144.304688-20.714843 1.523437c-7.492188-9.597656-16.359375-18.042969-26.308594-25.0625l.609375-20.6875c.074219-2.546875-1.464844-4.859375-3.835938-5.777344l-40.171874-15.5c-2.363282-.910156-5.042969-.238281-6.699219 1.679688l-13.421875 15.558593c-9.675782-1.019531-19.433594-1.027343-29.113282-.027343-3.089843.304687-5.46875 2.867187-5.542968 5.96875v254.785156c.074218 3.046875 2.367187 5.578125 5.390625 5.949219 11.675781 1.707031 23.546875 1.523437 35.164062-.542969l14.386719 14.957031c1.753906 1.816406 4.449219 2.351563 6.765625 1.34375l39.46875-17.265625c2.332031-1.019531 3.765625-3.398437 3.582031-5.9375l-1.523437-20.714843c9.597656-7.492188 18.042969-16.359376 25.0625-26.308594l20.6875.609375c2.542969.058593 4.847656-1.472657 5.777343-3.839844l15.5-40.167969c.910157-2.363281.238282-5.042968-1.679687-6.699218l-15.550781-13.425782c1.285156-12.085937.96875-24.285156-.9375-36.285156l14.96875-14.355469c1.8125-1.742187 2.351562-4.433593 1.34375-6.738281l-17.265625-39.460938c-1.023438-2.332031-3.402344-3.765624-5.941407-3.578124zm-133.199218 18.375c3-.25 4.9375-.390626 7.332031-.390626 37.15625.011719 67.265625 30.140626 67.253906 67.296876-.011719 37.152343-30.140625 67.265624-67.296875 67.253906-2.398437 0-4.289062-.140625-7.289062-.394532zm129.488281 39.300781c-1.453125 1.394531-2.109375 3.429687-1.746094 5.410156 2.355469 12.875 2.699219 26.039063 1.007813 39.023437-.261719 2 .5 3.996094 2.027344 5.3125l14.769531 12.746094-12.453125 32.265625-19.714844-.582031c-2.066406-.054688-4.019531.953125-5.167969 2.671875-7.226562 10.847656-16.28125 20.355469-26.765625 28.097656-1.65625 1.226563-2.566406 3.214844-2.414062 5.265625l1.449218 19.726563-31.738281 13.882812-13.660156-14.242187c-1.128906-1.179688-2.695313-1.84375-4.328125-1.84375-.417969 0-.832031.03125-1.242188.097656-11.269531 2.0625-19.511718 2.542969-29.511718 1.601562v-42.894531c3 .210938 4.941406.324219 7.332031.324219 43.78125-.011719 79.265625-35.515625 79.253906-79.296875s-35.511719-79.265625-79.296875-79.253906c-2.390625 0-4.289062.105469-7.289062.320312v-43.113281c8.066406-.488281 16.164062-.214844 24.179687.816406 2.027344.261719 4.050781-.5 5.398438-2.03125l12.785156-14.769531 32.285156 12.453125-.570312 19.714844c-.058594 2.070312.953125 4.023437 2.675781 5.167968 10.847656 7.226563 20.359375 16.28125 28.105469 26.765626 1.222656 1.652343 3.210937 2.566406 5.261719 2.414062l19.726562-1.449219 13.886719 31.738281zm0 0"/></g><path d="m457.714844 201.652344c-1.109375-1.691406-2.992188-2.707032-5.015625-2.707032-2.023438 0-3.910157 1.015626-5.015625 2.707032l-33.300782 50.769531c-1.210937 1.785156-1.3125 4.09375-.265624 5.976563 1.070312 1.898437 3.105468 3.050781 5.28125 2.984374h25.71875c-6.101563 52.605469-31.875 100.960938-72.144532 135.359376-36.949218 31.679687-83.371094 49.933593-127.367187 49.933593-28.699219 0-58.699219-7.691406-86.757813-22.320312-29.128906-15.203125-54.394531-36.871094-73.863281-63.339844-1.964844-2.671875-5.722656-3.25-8.394531-1.285156-2.671875 1.960937-3.25 5.71875-1.289063 8.390625 20.558594 27.960937 47.238281 50.847656 78 66.914062 29.765625 15.519532 61.683594 23.722656 92.304688 23.722656 46.820312 0 96.089843-19.222656 135.175781-52.738281 42.804688-36.664062 70.109375-88.199219 76.402344-144.207031.007812-.089844.007812-.429688.015625-.429688h28.796875c2.183594.078126 4.222656-1.074218 5.28125-2.984374 1.058594-1.90625.957031-4.25-.261719-6.058594zm-27.203125 47.730468 22.183593-33.832031 22.191407 33.832031zm0 0" fill="#69e781"/><path d="m77.871094 194.589844c-1.039063-1.953125-3.0625-3.183594-5.273438-3.207032h-24.988281c7.410156-50.390624 32.769531-96.410156 71.410156-129.589843 36.949219-31.679688 83.371094-49.820313 127.367188-49.820313 28.699219 0 58.699219 7.75 86.753906 22.378906 29.132813 15.214844 54.398437 36.890626 73.867187 63.367188 1.242188 1.785156 3.359376 2.757812 5.523438 2.542969 2.167969-.21875 4.046875-1.59375 4.910156-3.59375.863282-2 .574219-4.308594-.753906-6.035157-20.558594-27.957031-47.238281-50.84375-78-66.90625-29.761719-15.519531-61.679688-23.72265575-92.296875-23.72265575-46.820313 0-96.089844 19.16406275-135.179687 52.67968775-41.390626 35.386718-68.34375 84.746094-75.734376 138.699218h-29.480468c-2.210938.027344-4.234375 1.253907-5.277344 3.207032-1.042969 1.949218-.945312 4.316406.261719 6.171875l33.300781 50.785156c1.105469 1.691406 2.992188 2.710937 5.011719 2.714844 2.023437 0 3.910156-1.015625 5.023437-2.707031l33.296875-50.796876c1.207031-1.855468 1.308594-4.21875.257813-6.167968zm-38.574219 42.621094-22.191406-33.828126h44.375zm0 0" fill="#69e781"/></svg>