<svg height="495pt" viewBox="-15 0 495 495.99891" width="495pt" xmlns="http://www.w3.org/2000/svg"><path d="m278.601562 80h-20c-.679687 0-1.101562.082031-1.101562.761719v15.238281h20v-15.238281c0-.679688.425781-.761719 1.101562-.761719zm0 0" fill="#d4e1f4"/><path d="m203.5 224.589844v-92.191406c.128906-13.386719 10.925781-24.222657 24.316406-24.398438h-20c-13.390625.175781-24.1875 11.011719-24.316406 24.398438v92.191406c.128906 13.390625 10.925781 24.226562 24.316406 24.410156h20c-13.390625-.183594-24.1875-11.019531-24.316406-24.410156zm0 0" fill="#d4e1f4"/><path d="m438 128h-16.089844v12h16.089844c8.09375.109375 14.574219 6.742188 14.5 14.832031v262.03125l-68.476562-48.929687c-1.011719-.675782-2.210938-1-3.421876-.933594h-230.691406c-8.078125 0-14.410156-6.953125-14.410156-15.03125v-197.136719c-.117188-8.074219 6.335938-14.71875 14.410156-14.832031h28.042969v-12h-28.042969c-14.699218.121094-26.523437 12.132812-26.410156 26.832031v35.167969h-96.5c-7.011719-.070312-13.761719 2.671875-18.738281 7.609375-4.980469 4.941406-7.773438 11.667969-7.761719 18.679687v273.710938c-.03125 2.234375 1.199219 4.300781 3.183594 5.335938.832031.433593 1.761718.664062 2.699218.664062 1.253907-.015625 2.46875-.421875 3.476563-1.160156l76.464844-54.839844h228.765625c7.03125 0 13.773437-2.808594 18.734375-7.796875 4.957031-4.988281 7.71875-11.75 7.675781-18.78125v-34.421875h37.175781l76.480469 54.609375c1.027344.703125 2.253906 1.066406 3.5 1.03125.933594-.019531 1.847656-.261719 2.664062-.710937 1.984376-1.058594 3.210938-3.136719 3.179688-5.386719v-273.710938c.070312-14.714843-11.78125-26.71875-26.5-26.832031zm-108.5 285.421875c.046875 3.851563-1.449219 7.5625-4.160156 10.300781-2.707032 2.738282-6.398438 4.28125-10.25 4.277344h-230.691406c-1.234376.011719-2.429688.417969-3.417969 1.160156l-68.480469 49.15625v-262.027344c-.015625-3.832031 1.515625-7.507812 4.242188-10.195312 2.730468-2.691406 6.425781-4.167969 10.257812-4.09375h96.5v149.96875c0 14.699219 11.714844 27.03125 26.410156 27.03125h179.589844zm0 0" fill="#0635c9"/><g fill="#69e781"><path d="m219.566406 189h28.917969c1.558594.070312 3.078125-.496094 4.214844-1.566406 1.132812-1.074219 1.785156-2.5625 1.800781-4.121094v-12.507812c-.015625-5.28125-2.136719-10.34375-5.894531-14.058594-3.757813-3.71875-8.839844-5.785156-14.121094-5.746094h-.917969c-5.289062-.042969-10.375 2.023438-14.140625 5.738281-3.765625 3.71875-5.898437 8.777344-5.925781 14.066407v12.507812c.027344 1.566406.691406 3.054688 1.832031 4.125 1.144531 1.070312 2.671875 1.632812 4.234375 1.5625zm5.933594-18.195312c.023438-2.105469.890625-4.117188 2.40625-5.585938 1.515625-1.464844 3.554688-2.265625 5.660156-2.21875h.917969c2.101563-.042969 4.132813.757812 5.640625 2.226562 1.503906 1.46875 2.359375 3.476563 2.375 5.578126v6.195312h-17zm0 0"/><path d="m350.65625 189h28.914062c1.550782.066406 3.0625-.503906 4.183594-1.578125 1.117188-1.074219 1.75-2.558594 1.746094-4.109375v-12.507812c.003906-5.273438-2.101562-10.332032-5.84375-14.050782-3.738281-3.71875-8.808594-5.789062-14.085938-5.753906h-.914062c-11.035156-.089844-20.054688 8.773438-20.15625 19.804688v12.507812c.050781 1.574219.726562 3.0625 1.886719 4.132812 1.15625 1.070313 2.695312 1.628907 4.269531 1.554688zm5.84375-18.195312c.09375-4.40625 3.746094-7.902344 8.15625-7.804688h.914062c2.09375-.039062 4.117188.765625 5.605469 2.234375 1.492188 1.46875 2.332031 3.476563 2.324219 5.570313v6.195312h-17zm0 0"/><path d="m298.652344 241h1.832031c8.984375.058594 17.621094-3.460938 24.003906-9.78125 6.382813-6.320312 9.984375-14.925781 10.011719-23.90625v-.914062c.023438-3.394532-2.621094-6.214844-6.015625-6.398438h-57.832031c-3.417969.171875-6.113282 2.976562-6.152344 6.398438v.917968c0 18.742188 15.398438 33.683594 34.152344 33.683594zm23.242187-29c-2.25 9.996094-11.164062 17.070312-21.410156 17h-1.832031c-10.246094.070312-19.15625-7.003906-21.40625-17zm0 0"/><path d="m353.5 80.761719c.039062-3.433594-1.324219-6.730469-3.769531-9.140625-2.445313-2.40625-5.765625-3.714844-9.195313-3.621094h-35.035156v-11c14.765625-3.25 24.515625-17.347656 22.34375-32.308594-2.175781-14.960937-15.53125-25.703125-30.613281-24.6171872-15.078125 1.0898432-26.757813 13.6367192-26.761719 28.7539062.089844 13.652344 9.675781 25.398437 23.03125 28.222656v10.949219h-34.898438c-3.445312-.097656-6.78125 1.207031-9.25 3.609375s-3.855468 5.707031-3.851562 9.152344v15.238281h-37.683594c-20.015625.183594-36.179687 16.386719-36.316406 36.398438v92.191406c.136719 20.011718 16.300781 36.21875 36.316406 36.410156h183.507813c19.851562 0 36.175781-16.558594 36.175781-36.410156v-92.191406c-.050781-19.996094-16.183594-36.226563-36.175781-36.398438h-37.824219zm-71.175781-51.933594c0-9.292969 7.535156-16.828125 16.828125-16.828125 9.292968 0 16.828125 7.535156 16.828125 16.828125s-7.535157 16.828125-16.828125 16.828125c-9.289063-.011719-16.820313-7.539062-16.828125-16.828125zm-24.824219 51.933594c0-.679688.425781-.761719 1.101562-.761719h81.929688c.679688 0 .964844.082031.964844.761719v15.238281h-83.996094zm150.882812 34.464843c4.546876 4.558594 7.105469 10.734376 7.117188 17.171876v92.191406c0 13.234375-10.941406 24.410156-24.175781 24.410156h-183.507813c-13.390625-.183594-24.1875-11.019531-24.316406-24.410156v-92.191406c.128906-13.386719 10.925781-24.222657 24.316406-24.398438h183.507813c6.417969.054688 12.554687 2.652344 17.058593 7.226562zm0 0"/></g></svg>