<svg height="498pt" viewBox="-15 0 498 498.928" width="498pt" xmlns="http://www.w3.org/2000/svg"><path d="m137.984375 422.472656c-29.65625-19.097656-66.511719-70.460937-66.511719-70.460937-19.246094-31.527344-29.007812-66.632813-29.007812-104.378907v-112.078124c65.703125-28.480469 128.074218-64.097657 185.992187-106.210938-7.402343-5.1875-14.734375-10.472656-21.992187-15.855469-60.15625 44.671875-125.25 82.273438-194 112.066407v112.078124c0 37.746094 9.761718 72.851563 29.007812 104.378907 0 0 36.855469 51.363281 66.511719 70.460937 44.589844 28.714844 86.125 46.25 95.039063 49.105469.875-.269531 2.097656-.65625 3.601562-1.15625-23.683594-11.136719-46.613281-23.8125-68.640625-37.949219zm0 0" fill="#d4e1f4"/><g fill="#0635c9"><path d="m101.1875 422.363281c49.414062 36.167969 98.078125 50.648438 100.125 51.246094 1.082031.316406 2.234375.320313 3.320312.015625 1.621094-.460938 40.214844-11.578125 84.25-38.5 2.820313-1.730469 3.710938-5.421875 1.984376-8.246094-1.726563-2.824218-5.414063-3.714844-8.242188-1.992187-25.015625 15.285156-51.726562 27.597656-79.601562 36.683593-8.914063-2.859374-52.277344-17.730468-95.039063-49.105468-23.597656-17.316406-43.09375-36.726563-58.144531-57.824219 2.203125-.949219 3.632812-3.117187 3.632812-5.511719v-12.222656c0-3.316406-2.6875-6-6-6s-6 2.683594-6 6v5.105469c-19.246094-31.527344-29.007812-66.632813-29.007812-104.378907v-112.078124c68.75-29.792969 133.84375-67.394532 194-112.066407 60.152344 44.671875 125.25 82.273438 194 112.066407v112.078124c.144531 25.714844-4.851563 51.199219-14.699219 74.957032-1.253906 3.050781.1875 6.539062 3.230469 7.8125 3.042968 1.273437 6.539062-.144532 7.835937-3.175782 10.464844-25.226562 15.78125-52.289062 15.632813-79.59375v-116.027343c0-2.394531-1.425782-4.5625-3.628906-5.507813l-1.316407-.566406c-70.109375-30.167969-136.390625-68.546875-197.457031-114.332031-2.132812-1.597657-5.066406-1.597657-7.199219 0-61.066406 45.785156-127.347656 84.164062-197.457031 114.332031l-1.3125.566406c-2.203125.945313-3.628906 3.113282-3.628906 5.507813v116.027343c0 40.539063 10.632812 78.226563 31.609375 112.015626 16.707031 26.914062 39.960937 51.382812 69.113281 72.714843zm0 0"/><path d="m200.464844 336.90625v12.230469c0 3.3125 2.683594 6 6 6 3.3125 0 6-2.6875 6-6v-12.230469c0-3.316406-2.6875-6-6-6-3.316406 0-6 2.683594-6 6zm0 0"/><path d="m240.210938 336.90625v12.230469c0 3.3125 2.6875 6 6 6 3.316406 0 6-2.6875 6-6v-12.230469c0-3.316406-2.683594-6-6-6-3.3125 0-6 2.683594-6 6zm0 0"/><path d="m279.964844 336.90625v12.230469c0 3.3125 2.683594 6 6 6 3.3125 0 6-2.6875 6-6v-12.230469c0-3.316406-2.6875-6-6-6-3.316406 0-6 2.683594-6 6zm0 0"/><path d="m160.714844 336.90625v12.230469c0 3.3125 2.6875 6 6 6 3.316406 0 6-2.6875 6-6v-12.230469c0-3.316406-2.683594-6-6-6-3.3125 0-6 2.683594-6 6zm0 0"/><path d="m120.964844 336.90625v12.230469c0 3.3125 2.683594 6 6 6 3.3125 0 6-2.6875 6-6v-12.230469c0-3.316406-2.6875-6-6-6-3.316406 0-6 2.683594-6 6zm0 0"/><path d="m81.21875 336.90625v12.230469c0 3.3125 2.6875 6 6 6 3.316406 0 6-2.6875 6-6v-12.230469c0-3.316406-2.683594-6-6-6-3.3125 0-6 2.683594-6 6zm0 0"/></g><path d="m372.464844 306.929688c-53.019532 0-96 42.980468-96 96 0 53.019531 42.980468 96 96 96 53.019531 0 96-42.980469 96-96-.058594-52.996094-43.007813-95.941407-96-96zm0 180c-46.394532 0-84-37.609376-84-84 0-46.394532 37.605468-84 84-84 46.390625 0 84 37.605468 84 84-.054688 46.367187-37.632813 83.941406-84 84zm0 0" fill="#69e781"/><path d="m352.796875 378.328125c-1.910156-2.707031-5.652344-3.355469-8.359375-1.449219l-30 21.144532c-1.597656 1.125-2.546875 2.953124-2.546875 4.902343 0 1.953125.949219 3.78125 2.546875 4.90625l30 21.144531c1.75 1.257813 4.042969 1.480469 6.003906.582032 1.960938-.898438 3.289063-2.78125 3.476563-4.933594.1875-2.148438-.792969-4.230469-2.570313-5.457031l-23.039062-16.238281 23.039062-16.242188c2.710938-1.910156 3.359375-5.652344 1.449219-8.359375zm0 0" fill="#69e781"/><path d="m384.949219 349.949219c-3.226563-.75-6.453125 1.253906-7.207031 4.480469l-22 94.269531c-.515626 2.097656.132812 4.3125 1.707031 5.796875 1.570312 1.488281 3.820312 2.011718 5.886719 1.375 2.066406-.636719 3.628906-2.335938 4.09375-4.445313l22-94.269531c.753906-3.226562-1.253907-6.453125-4.480469-7.207031zm0 0" fill="#69e781"/><path d="m430.492188 398.023438-30-21.144532c-1.75-1.257812-4.042969-1.480468-6.003907-.582031-1.960937.898437-3.289062 2.78125-3.476562 4.929687-.1875 2.152344.792969 4.234376 2.566406 5.460938l23.042969 16.242188-23.042969 16.234374c-1.773437 1.226563-2.753906 3.308594-2.566406 5.460938.1875 2.148438 1.515625 4.03125 3.476562 4.929688 1.960938.898437 4.253907.675781 6.003907-.582032l30-21.144531c1.59375-1.125 2.542968-2.953125 2.542968-4.902344 0-1.953125-.949218-3.78125-2.542968-4.90625zm0 0" fill="#69e781"/></svg>