<svg height="492pt" viewBox="0 -33 492.00782 492" width="492pt" xmlns="http://www.w3.org/2000/svg"><path d="m150.757812 289.128906c0-63.988281 48.234376-116.910156 110.25-124.347656-48-5.789062-95.046874 16.566406-120.875 57.4375-25.828124 40.867188-25.828124 92.957031 0 133.824219 25.828126 40.871093 72.875 63.226562 120.875 57.4375-62.015624-7.4375-110.25-60.363281-110.25-124.351563zm0 0" fill="#d4e1f4"/><g fill="#0635c9"><path d="m42.5625 330.074219h9.332031c10.066407.003906 19.320313-5.515625 24.101563-14.375 2.675781-4.96875 7.867187-8.074219 13.511718-8.078125l27.207032.152344.070312-12-27.242187-.152344c-10.066407-.003906-19.320313 5.515625-24.101563 14.375-2.683594 4.980468-7.886718 8.082031-13.542968 8.078125h-9.523438c-3.09375-9.023438-12.285156-14.457031-21.679688-12.816407-9.394531 1.640626-16.203124 9.871094-16.054687 19.40625.148437 9.535157 7.210937 17.546876 16.652344 18.894532 9.4375 1.347656 18.457031-4.371094 21.269531-13.484375zm-25.972656-5.742188c0-4.097656 3.324218-7.417969 7.417968-7.417969 4.097657 0 7.421876 3.320313 7.421876 7.417969-.003907 4.097657-3.324219 7.417969-7.421876 7.417969-4.09375-.003906-7.414062-3.320312-7.417968-7.417969zm0 0"/><path d="m82.382812 372.003906c-2.339843 7.832032-9.527343 13.207032-17.699218 13.242188h-10.148438c-2.953125-9.085938-12.074218-14.675782-21.507812-13.183594-9.4375 1.496094-16.382813 9.628906-16.382813 19.183594 0 9.550781 6.945313 17.6875 16.382813 19.179687 9.433594 1.496094 18.554687-4.09375 21.507812-13.179687h10.148438c13.488281-.058594 25.351562-8.929688 29.210937-21.855469 2.339844-7.828125 9.527344-13.207031 17.699219-13.242187h22.410156v-12h-22.410156c-13.488281.058593-25.351562 8.933593-29.210938 21.855468zm-46.308593 26.660156c-4.097657 0-7.421875-3.320312-7.421875-7.417968s3.320312-7.421875 7.421875-7.421875c4.097656 0 7.417969 3.324219 7.417969 7.421875-.003907 4.09375-3.324219 7.414062-7.417969 7.417968zm0 0"/><path d="m84.707031 206.945312c-2.144531-9.664062-10.691406-16.554687-20.589843-16.597656h-26.230469c-2.949219-9.085937-12.070313-14.675781-21.503907-13.183594-9.4375 1.496094-16.382812 9.628907-16.382812 19.183594 0 9.550782 6.945312 17.683594 16.382812 19.179688 9.433594 1.492187 18.554688-4.097656 21.503907-13.179688h26.230469c4.261718.019532 7.945312 2.984375 8.867187 7.144532 2.144531 9.664062 10.695313 16.554687 20.59375 16.601562h42.296875v-12h-42.296875c-4.261719-.019531-7.945313-2.988281-8.871094-7.148438zm-65.28125-3.175781c-4.097656 0-7.421875-3.324219-7.421875-7.421875.003906-4.097656 3.324219-7.421875 7.421875-7.417968 4.097657 0 7.421875 3.320312 7.421875 7.417968-.007812 4.097656-3.324218 7.414063-7.417968 7.421875zm0 0"/><path d="m69.886719 254.808594h4.832031c5.707031-.007813 10.855469 3.425781 13.042969 8.695312 4.039062 9.75 13.5625 16.097656 24.117187 16.082032h4.871094v-12h-4.871094c-5.707031.007812-10.855468-3.425782-13.042968-8.695313-4.039063-9.75-13.5625-16.097656-24.117188-16.082031h-4.832031c-2.949219-9.085938-12.070313-14.671875-21.507813-13.179688-9.433594 1.492188-16.382812 9.628906-16.382812 19.179688 0 9.554687 6.949218 17.6875 16.382812 19.183594 9.4375 1.492187 18.558594-4.097657 21.507813-13.183594zm-25.878907-6c0-4.097656 3.324219-7.417969 7.421876-7.417969 4.097656 0 7.417968 3.320313 7.417968 7.421875 0 4.097656-3.320312 7.417969-7.417968 7.417969-4.097657-.003907-7.417969-3.324219-7.421876-7.421875zm0 0"/><path d="m468.007812 304.914062c-8.304687.011719-15.683593 5.300782-18.363281 13.160157h-9.523437c-5.65625.003906-10.855469-3.097657-13.542969-8.078125-4.785156-8.867188-14.058594-14.390625-24.136719-14.375l-28.203125.152344.066407 12 28.171874-.152344c5.65625-.003906 10.859376 3.101562 13.542969 8.078125 4.777344 8.859375 14.035157 14.378906 24.101563 14.375h9.332031c2.949219 9.527343 12.636719 15.273437 22.410156 13.292969 9.777344-1.984376 16.460938-11.046876 15.464844-20.972657-.996094-9.921875-9.34375-17.480469-19.320313-17.480469zm0 26.835938c-4.097656.003906-7.417968-3.320312-7.421874-7.417969 0-4.097656 3.324218-7.421875 7.421874-7.421875 4.097657 0 7.421876 3.324219 7.421876 7.421875-.007813 4.09375-3.324219 7.414063-7.421876 7.417969zm0 0"/><path d="m455.945312 371.824219c-8.410156.011719-15.855468 5.425781-18.460937 13.421875h-10.152344c-8.171875-.035156-15.359375-5.410156-17.699219-13.242188-3.859374-12.925781-15.722656-21.800781-29.210937-21.855468h-24.28125v12h24.285156c8.171875.03125 15.359375 5.410156 17.699219 13.242187 3.859375 12.921875 15.722656 21.796875 29.210938 21.855469h10.148437c3.074219 9.449218 12.785156 15.054687 22.507813 12.988281 9.71875-2.070313 16.308593-11.144531 15.265624-21.027344-1.039062-9.882812-9.375-17.382812-19.3125-17.382812zm0 26.839843c-4.097656 0-7.421874-3.320312-7.421874-7.417968s3.324218-7.421875 7.421874-7.421875c4.097657 0 7.417969 3.324219 7.417969 7.421875-.003906 4.09375-3.324219 7.414062-7.417969 7.417968zm0 0"/><path d="m472.589844 176.929688c-8.40625.011718-15.855469 5.425781-18.460938 13.417968h-26.230468c-9.898438.046875-18.445313 6.9375-20.589844 16.601563-.925782 4.160156-4.605469 7.125-8.867188 7.144531h-42.300781v12h42.300781c9.898438-.046875 18.445313-6.9375 20.589844-16.601562.925781-4.160157 4.605469-7.125 8.867188-7.144532h26.230468c3.074219 9.449219 12.785156 15.050782 22.503906 12.984375 9.71875-2.070312 16.308594-11.140625 15.269532-21.023437-1.042969-9.882813-9.375-17.382813-19.3125-17.382813zm0 26.839843c-4.097656 0-7.421875-3.324219-7.421875-7.421875s3.324219-7.421875 7.421875-7.417968c4.097656 0 7.417968 3.320312 7.417968 7.417968-.003906 4.097656-3.324218 7.414063-7.417968 7.421875zm0 0"/><path d="m404.257812 263.503906c2.183594-5.269531 7.335938-8.703125 13.039063-8.695312h4.832031c2.953125 9.085937 12.074219 14.675781 21.507813 13.179687 9.433593-1.492187 16.382812-9.625 16.382812-19.179687 0-9.550782-6.949219-17.683594-16.382812-19.179688-9.433594-1.492187-18.554688 4.097656-21.507813 13.179688h-4.832031c-10.550781-.015625-20.074219 6.332031-24.117187 16.082031-2.1875 5.269531-7.335938 8.703125-13.042969 8.695313h-4.867188v12h4.867188c10.554687.015624 20.078125-6.332032 24.121093-16.082032zm36.332032-22.113281c4.097656 0 7.421875 3.324219 7.421875 7.421875-.003907 4.097656-3.324219 7.417969-7.421875 7.417969s-7.421875-3.320313-7.421875-7.417969c.007812-4.097656 3.324219-7.417969 7.421875-7.421875zm0 0"/></g><path d="m261.382812 336.59375v-20.460938c8.253907-6.542968 11.460938-17.589843 8-27.535156-3.464843-9.945312-12.84375-16.609375-23.375-16.609375s-19.90625 6.664063-23.371093 16.609375c-3.464844 9.945313-.253907 20.992188 7.996093 27.535156v20.460938c0 8.488281 6.882813 15.375 15.375 15.375 8.492188 0 15.375-6.886719 15.375-15.375zm-18.75 0v-23.617188c.003907-2.144531-1.140624-4.125-3-5.199218-4.996093-2.886719-7.433593-8.765625-5.941406-14.339844 1.496094-5.574219 6.546875-9.453125 12.316406-9.453125 5.773438 0 10.824219 3.878906 12.316407 9.453125 1.492187 5.574219-.941407 11.453125-5.941407 14.339844-1.855468 1.074218-3 3.054687-3 5.199218v23.617188c0 1.863281-1.511718 3.375-3.375 3.375-1.863281 0-3.375-1.511719-3.375-3.375zm0 0" fill="#69e781"/><path d="m350.445312 104.441406c0-57.679687-46.757812-104.43749975-104.4375-104.43749975-57.679687 0-104.4375 46.75781275-104.4375 104.43749975v95.742188c-21.203124 24.78125-32.839843 56.332031-32.8125 88.945312 0 75.679688 61.570313 137.25 137.25 137.25 75.679688 0 137.25-61.570312 137.25-137.25.027344-32.613281-11.609374-64.164062-32.8125-88.945312zm-104.4375-92.4375c51.027344.058594 92.382813 41.410156 92.4375 92.4375v83.324219c-5.054687-4.613281-10.441406-8.84375-16.125-12.660156v-70.664063c0-42.144531-34.164062-76.3125-76.3125-76.3125-42.144531 0-76.3125 34.167969-76.3125 76.3125v70.664063c-5.679687 3.816406-11.070312 8.046875-16.125 12.660156v-83.324219c.058594-51.027344 41.410157-92.378906 92.4375-92.4375zm64.3125 155.90625c-40.210937-21.375-88.414062-21.375-128.625 0v-63.46875c0-35.519531 28.796876-64.3125 64.3125-64.3125 35.519532 0 64.3125 28.792969 64.3125 64.3125zm-64.3125 246.46875c-69.171874 0-125.25-56.074218-125.25-125.25 0-69.171875 56.078126-125.25 125.25-125.25 69.175782 0 125.25 56.078125 125.25 125.25-.078124 69.140625-56.109374 125.171875-125.25 125.25zm0 0" fill="#69e781"/><path d="m265.367188 383.207031c-6.371094 1.296875-12.855469 1.953125-19.359376 1.949219-3.3125 0-6 2.6875-6 6s2.6875 6 6 6c7.3125.003906 14.601563-.734375 21.765626-2.195312 2.113281-.414063 3.839843-1.933594 4.527343-3.976563.6875-2.039063.226563-4.292969-1.207031-5.902344-1.433594-1.605469-3.617188-2.324219-5.726562-1.875zm0 0" fill="#69e781"/><path d="m284.273438 377.230469c-2.015626.820312-3.433594 2.671875-3.695313 4.832031-.261719 2.164062.664063 4.300781 2.425781 5.582031 1.761719 1.277344 4.082032 1.503907 6.058594.585938 39.457031-17.148438 64.980469-56.078125 64.972656-99.105469 0-3.3125-2.6875-6-6-6s-6 2.6875-6 6c.007813 38.25-22.683594 72.859375-57.761718 88.105469zm0 0" fill="#69e781"/><path d="m227.480469 194.78125c.363281 0 .730469-.035156 1.089843-.101562 5.753907-1.050782 11.589844-1.578126 17.4375-1.578126 3.316407 0 6-2.6875 6-6s-2.683593-6-6-6c-6.574218 0-13.132812.59375-19.597656 1.777344-3.046875.5625-5.164062 3.355469-4.886718 6.441406.28125 3.085938 2.863281 5.449219 5.960937 5.457032zm0 0" fill="#69e781"/><path d="m203.957031 189.59375c-40.023437 16.871094-66.027343 56.101562-65.976562 99.535156 0 3.3125 2.6875 6 6 6 3.316406 0 6-2.6875 6-6-.042969-38.613281 23.070312-73.488281 58.652343-88.484375 3.050782-1.289062 4.480469-4.8125 3.1875-7.863281-1.289062-3.050781-4.808593-4.480469-7.863281-3.1875zm0 0" fill="#69e781"/></svg>