<?xml version="1.0"?>
<svg xmlns="http://www.w3.org/2000/svg" id="Layer_1" data-name="Layer 1" viewBox="0 0 512 512" width="512" height="512"><title>Crowdfunding Dollars</title><path d="M213.107,267.893a64.032,64.032,0,0,1,52.923-75.1A64.165,64.165,0,0,0,256,192h-.148c-.154,0-.305,0-.455,0l-.117,0a64,64,0,1,0,10.749,127.2A63.967,63.967,0,0,1,213.107,267.893Z" style="fill:#d4e1f4"/><path d="M255.1,180.009A75.7,75.7,0,1,0,256,180C255.7,180,255.394,180,255.1,180.009ZM320,256a64,64,0,1,1-64.72-63.993l.117,0c.15,0,.3,0,.455,0H256A64.072,64.072,0,0,1,320,256Z" style="fill:#0635c9"/><path d="M250,205.985v5.4a25.443,25.443,0,0,0,6,50.168,13.441,13.441,0,0,1,.135,26.881c-.045,0-.089-.006-.135-.006s-.09,0-.135.006A13.456,13.456,0,0,1,242.556,275a6,6,0,0,0-12,0A25.484,25.484,0,0,0,250,299.725v6.29a6,6,0,0,0,12,0v-6.29a25.442,25.442,0,0,0-6-50.167,13.445,13.445,0,1,1,13.444-13.445,6,6,0,0,0,12,0A25.484,25.484,0,0,0,262,211.39v-5.4a6,6,0,0,0-12,0Z" style="fill:#0635c9"/><path d="M225.525,471.525A30.475,30.475,0,1,0,262,441.647V369.694L275.2,382.889a6,6,0,0,0,8.485-8.486l-23.438-23.437a6,6,0,0,0-8.484,0L228.32,374.4a6,6,0,0,0,8.485,8.486L250,369.694v71.953A30.525,30.525,0,0,0,225.525,471.525Zm48.95,0A18.475,18.475,0,1,1,256,453.051,18.5,18.5,0,0,1,274.475,471.525Z" style="fill:#69e781"/><path d="M286.475,40.475A30.475,30.475,0,1,0,250,70.353v71.953l-13.195-13.2a6,6,0,1,0-8.485,8.486l23.438,23.437a6,6,0,0,0,8.484,0L283.68,137.6a6,6,0,1,0-8.485-8.486L262,142.306V70.353A30.525,30.525,0,0,0,286.475,40.475Zm-48.95,0A18.475,18.475,0,1,1,256,58.949,18.5,18.5,0,0,1,237.525,40.475Z" style="fill:#69e781"/><path d="M142.307,262,129.112,275.2a6,6,0,1,0,8.485,8.485l23.437-23.437a6,6,0,0,0,0-8.486L137.6,228.32a6,6,0,0,0-8.485,8.485L142.307,250H70.353a30.475,30.475,0,1,0,0,12ZM40.475,274.475A18.475,18.475,0,1,1,58.949,256,18.5,18.5,0,0,1,40.475,274.475Z" style="fill:#69e781"/><path d="M471.525,225.525A30.524,30.524,0,0,0,441.647,250H369.693l13.195-13.195a6,6,0,0,0-8.485-8.485l-23.437,23.437a6,6,0,0,0,0,8.486L374.4,283.68a6,6,0,0,0,8.485-8.485L369.693,262h71.954a30.475,30.475,0,1,0,29.878-36.475Zm0,48.95A18.475,18.475,0,1,1,490,256,18.5,18.5,0,0,1,471.525,274.475Z" style="fill:#69e781"/><path d="M129.052,120.492a30.309,30.309,0,1,0-8.566,8.553L171.364,180H152.7a6,6,0,1,0,0,12h33.146A6.261,6.261,0,0,0,192,185.849V152.7a6,6,0,0,0-12,0v18.66Zm-38.515-3.828a18.474,18.474,0,1,1,26.126-26.127h0a18.475,18.475,0,1,1-26.127,26.127Z" style="fill:#69e781"/><path d="M326,365.3a6,6,0,0,0,6-6v-18.66l50.948,50.872a30.506,30.506,0,1,0,47-4.657,30.535,30.535,0,0,0-38.433-3.9L340.636,332H359.3a6,6,0,0,0,0-12H326.151A6.261,6.261,0,0,0,320,326.151V359.3A6,6,0,0,0,326,365.3Zm82.4,24.638a18.47,18.47,0,1,1-13.062,31.529h0A18.466,18.466,0,0,1,408.4,389.934Z" style="fill:#69e781"/><path d="M326.151,192H359.3a6,6,0,0,0,0-12H340.636l50.879-50.955A30.651,30.651,0,0,0,430,125.168v-.009a30.439,30.439,0,1,0-47.051-4.667L332,171.364V152.7a6,6,0,0,0-12,0v33.145A6.261,6.261,0,0,0,326.151,192ZM395.337,90.537a18.474,18.474,0,1,1-5.412,13.064A18.348,18.348,0,0,1,395.337,90.537Z" style="fill:#69e781"/><path d="M186,365.3a6,6,0,0,0,6-6V326.151A6.261,6.261,0,0,0,185.849,320H152.7a6,6,0,1,0,0,12h18.661l-50.9,50.955C108.625,375.074,92,376.383,82,386.813v.019a30.444,30.444,0,1,0,47.051,4.676L180,340.636V359.3A6,6,0,0,0,186,365.3Zm-69.337,56.167a18.474,18.474,0,0,1-26.126-26.127h0a18.475,18.475,0,1,1,26.127,26.127Z" style="fill:#69e781"/></svg>
