<?xml version="1.0"?>
<svg xmlns="http://www.w3.org/2000/svg" id="Layer_1" data-name="Layer 1" viewBox="0 0 512 512" width="512px" height="512px" class=""><g><title>slae ads email</title><path d="M76.487,254.449a13.868,13.868,0,0,1,7.125-11.9l47.82-27.1V194.862L65.8,232.056a13.868,13.868,0,0,0-7.124,11.9v11.185l17.811,10.177Z" style="fill:#d4e1f4" data-original="#D4E1F4" class=""/><path d="M81.379,438.028V280.816l-21.7-12.4V438.028c0,21.213,18.456,38.472,41.143,38.472h21.7C99.836,476.5,81.379,459.241,81.379,438.028Z" style="fill:#d4e1f4" data-original="#D4E1F4" class=""/><path d="M102.3,487.5H409.7a49.97,49.97,0,0,0,49.914-49.914V245.346a25.91,25.91,0,0,0-12.3-21.969L382.74,183.532a6.178,6.178,0,0,0-.626-.337l-1.546-.717v-9.525a44.312,44.312,0,0,0,6.314.464,43.678,43.678,0,0,0,38.93-23.69c.016-.029.042-.081.056-.11a7,7,0,0,0,.739-3.131V113.025c0-.029,0-.056,0-.085,0-.065-.008-.128-.01-.192a7.036,7.036,0,0,0-.086-.854c-.009-.054-.015-.107-.025-.161a6.854,6.854,0,0,0-.249-.949c-.015-.047-.034-.093-.05-.139a7.151,7.151,0,0,0-.4-.908l-.008-.016a7,7,0,0,0-.533-.832c-.039-.054-.077-.106-.118-.159a7.09,7.09,0,0,0-.643-.721c-.038-.037-.08-.071-.119-.108a7.138,7.138,0,0,0-.765-.622c-.012-.008-.022-.018-.034-.027l-.034-.023-.019-.013-48.56-33.3v-8.58A40.885,40.885,0,0,0,334.114,24.5H179.994a40.885,40.885,0,0,0-40.839,40.838V73.7L88.53,107.187a6.989,6.989,0,0,0-3.123,5.858c0,.1-.014.195-.014.3v33.146a7.057,7.057,0,0,0,.684,3.02c.033.07.068.139.1.207a43.678,43.678,0,0,0,38.932,23.693h0a44.237,44.237,0,0,0,6.319-.465v9.988L64.714,223.364a25.918,25.918,0,0,0-12.328,21.982v192.24A49.97,49.97,0,0,0,102.3,487.5ZM441.028,233.6a13.844,13.844,0,0,1,6.586,11.743v11.022L380.568,297.34V196.293ZM179.994,38.5h154.12a26.869,26.869,0,0,1,26.839,26.838v5.124h-207.8V65.338A26.869,26.869,0,0,1,179.994,38.5ZM148.261,84.462H365.573l31.448,21.563H115.663Zm-23.149,74.944A29.3,29.3,0,0,1,99.393,144.7v-24.67H412.607V144.7a29.836,29.836,0,0,1-52.223-1.4l-.074-.141a7.007,7.007,0,0,0-12.38.132,29.835,29.835,0,0,1-52.971.049,7,7,0,0,0-6.155-3.84h-.1a7.009,7.009,0,0,0-6.22,3.789,29.835,29.835,0,0,1-53,0c-.023-.045-.052-.1-.077-.146a7,7,0,0,0-6.145-3.648h-.078a7,7,0,0,0-6.14,3.784,29.834,29.834,0,0,1-53,0,7,7,0,0,0-6.22-3.779h-.116A7.008,7.008,0,0,0,151.6,143.3,29.349,29.349,0,0,1,125.112,159.406Zm32.724-.646A43.661,43.661,0,0,0,190.55,173.4h0a43.667,43.667,0,0,0,32.715-14.638,43.879,43.879,0,0,0,65.444,0,43.878,43.878,0,0,0,65.443,0,43.582,43.582,0,0,0,14.415,10.664V304.674L256,373.465,143.432,304.674V169.415A43.575,43.575,0,0,0,157.836,158.76ZM70.952,233.615l60.48-36.654V297.34L64.386,256.368V245.346A13.835,13.835,0,0,1,70.952,233.615Zm-6.566,36.816L252.871,385.617a6,6,0,0,0,6.258,0L447.614,270.431V437.586A37.957,37.957,0,0,1,409.7,475.5H102.3a37.957,37.957,0,0,1-37.914-37.914Z" style="fill:#0635C9" data-original="#0635C9" class=""/><path d="M252,208.5a6,6,0,0,0-6-6H168.4a6,6,0,1,0,0,12H246A6,6,0,0,0,252,208.5Z" style="fill:#69E781" data-original="#1AE5BE" class="active-path" data-old_color="#1AE5BE"/><path d="M273.6,202.5a6,6,0,0,0,0,12h33.6a6,6,0,1,0,0-12Z" style="fill:#69E781" data-original="#1AE5BE" class="active-path" data-old_color="#1AE5BE"/><path d="M329,202.5a6,6,0,0,0,0,12h14.6a6,6,0,0,0,0-12Z" style="fill:#69E781" data-original="#1AE5BE" class="active-path" data-old_color="#1AE5BE"/><path d="M168.4,248.5a6,6,0,1,0,0,12h14.4a6,6,0,0,0,0-12Z" style="fill:#69E781" data-original="#1AE5BE" class="active-path" data-old_color="#1AE5BE"/><path d="M210.4,248.5a6,6,0,1,0,0,12H227a6,6,0,0,0,0-12Z" style="fill:#69E781" data-original="#1AE5BE" class="active-path" data-old_color="#1AE5BE"/><path d="M349.6,254.5a6,6,0,0,0-6-6H248.8a6,6,0,0,0,0,12h94.8A6,6,0,0,0,349.6,254.5Z" style="fill:#69E781" data-original="#1AE5BE" class="active-path" data-old_color="#1AE5BE"/><path d="M242.8,294.5H168.4a6,6,0,1,0,0,12h74.4a6,6,0,0,0,0-12Z" style="fill:#69E781" data-original="#1AE5BE" class="active-path" data-old_color="#1AE5BE"/><path d="M318,300.5a6,6,0,0,0-6-6H264.4a6,6,0,0,0,0,12H312A6,6,0,0,0,318,300.5Z" style="fill:#69E781" data-original="#1AE5BE" class="active-path" data-old_color="#1AE5BE"/><path d="M343.6,306.5a6,6,0,0,0,0-12h-9.8a6,6,0,1,0,0,12Z" style="fill:#69E781" data-original="#1AE5BE" class="active-path" data-old_color="#1AE5BE"/></g> </svg>
