<?xml version="1.0"?>
<svg xmlns="http://www.w3.org/2000/svg" id="Layer_1" data-name="Layer 1" viewBox="0 0 512 512" width="512" height="512"><title>library book shop</title><path d="M128.124,328.741C109.5,308.9,95.809,287.211,87.442,264.278a174.867,174.867,0,0,1-10.584-71.969,186.244,186.244,0,0,1,53.767-119.1,172.755,172.755,0,0,1,103.363-50.07,177.331,177.331,0,0,0-20-1.139A172.972,172.972,0,0,0,90.625,73.209a186.244,186.244,0,0,0-53.767,119.1,174.867,174.867,0,0,0,10.584,71.969C55.809,287.211,69.5,308.9,88.124,328.741L213.988,462.805l20-21.3Z" style="fill:#d4e1f4"/><path d="M380.757,250.141c1.373.218,2.741.451,4.1.713.126-.448.242-.9.364-1.345Q382.977,249.785,380.757,250.141Z" style="fill:#d4e1f4"/><path d="M286.064,375.275A114.91,114.91,0,0,1,380.789,262.3a114.724,114.724,0,1,0,0,225.952A114.912,114.912,0,0,1,286.064,375.275Z" style="fill:#d4e1f4"/><path d="M213.988,103.652c-46.3,0-83.961,38.6-83.961,86.055s37.665,86.054,83.961,86.054,83.96-38.6,83.96-86.054S260.284,103.652,213.988,103.652Zm0,160.109c-39.679,0-71.961-33.221-71.961-74.054s32.282-74.055,71.961-74.055,71.96,33.221,71.96,74.055S253.667,263.761,213.988,263.761Z" style="fill:#0635c9"/><path d="M345.851,64.739a186.2,186.2,0,0,0-263.727,0A198.237,198.237,0,0,0,24.886,191.508a186.769,186.769,0,0,0,11.283,76.884c8.926,24.464,23.463,47.532,43.207,68.562L209.614,475.677a6,6,0,0,0,8.748,0l39.117-41.665a6,6,0,1,0-8.748-8.213l-34.743,37.006L88.124,328.741C69.5,308.9,55.809,287.211,47.442,264.278a174.854,174.854,0,0,1-10.583-71.969,186.233,186.233,0,0,1,53.766-119.1,174.2,174.2,0,0,1,246.726,0,186.238,186.238,0,0,1,53.766,119.1,173.87,173.87,0,0,1-7.784,63.706,6,6,0,0,0,11.452,3.582,185.78,185.78,0,0,0,8.3-68.089A198.238,198.238,0,0,0,345.851,64.739Z" style="fill:#0635c9"/><path d="M360.789,248.552A126.724,126.724,0,1,0,487.513,375.275,126.867,126.867,0,0,0,360.789,248.552Zm0,241.448A114.724,114.724,0,1,1,475.513,375.275,114.855,114.855,0,0,1,360.789,490Z" style="fill:#69e781"/><path d="M420.789,315.23h-11.81V292.759a6,6,0,0,0-6-6H315.4a20.446,20.446,0,0,0-20.606,20.222V443.566A20.442,20.442,0,0,0,315.4,463.793H420.789a6,6,0,0,0,6-6V321.23A6,6,0,0,0,420.789,315.23ZM315.4,298.759h81.584V315.23H315.4a8.243,8.243,0,1,1,0-16.471Zm99.394,153.034H315.4a8.432,8.432,0,0,1-8.606-8.227V325.381a20.809,20.809,0,0,0,8.606,1.849h99.394Z" style="fill:#69e781"/><path d="M338.638,385.323h44.3a6,6,0,0,0,0-12h-44.3a6,6,0,0,0,0,12Z" style="fill:#69e781"/><path d="M338.638,405.692h44.3a6,6,0,1,0,0-12h-44.3a6,6,0,1,0,0,12Z" style="fill:#69e781"/></svg>
