<svg height="484pt" viewBox="0 -47 484.00737 484" width="484pt" xmlns="http://www.w3.org/2000/svg"><path d="m346 358.007812h-280c-18.21875-.019531-32.980469-14.78125-33-33v-187.425781c0-3.777343.648438-7.523437 1.917969-11.082031-13.132813 4.699219-21.902344 17.136719-21.917969 31.082031v187.425781c.019531 18.21875 14.78125 32.980469 33 33h280c13.945312-.015624 26.382812-8.785156 31.082031-21.917968-3.558593 1.273437-7.304687 1.921875-11.082031 1.917968zm0 0" fill="#d4e1f4"/><path d="m187.046875 301.207031c10.195313-.003906 20.054687-3.636719 27.8125-10.25l85.164063-72.226562c.117187-.097657.226562-.199219.335937-.304688l7.300781-7.058593c1.832032-1.730469 2.589844-4.3125 1.988282-6.757813-.601563-2.445313-2.472657-4.378906-4.894532-5.066406-2.425781-.683594-5.03125-.011719-6.824218 1.757812l-7.136719 6.902344-84.988281 72.078125c-10.800782 9.214844-26.691407 9.21875-37.5.015625l-156.78125-132.757813c-2.953126-2.492187-7.363282-2.121093-9.855469.828126-2.496094 2.945312-2.132813 7.355468.808593 9.855468l156.785157 132.757813c7.753906 6.597656 17.605469 10.222656 27.785156 10.226562zm0 0" fill="#69e781"/><path d="m283.136719 189.269531 157.9375-154.523437 9.792969 10.003906-157.941407 154.527344zm0 0" fill="#69e781"/><path d="m360.792969 376.625c.988281-.652344 1.796875-1.546875 2.34375-2.597656 7.027343-8.421875 10.875-19.046875 10.863281-30.019532v-110.214843c62.636719-3.75 111.160156-56.242188 109.988281-118.976563-1.175781-62.738281-51.628906-113.378906-114.363281-114.785156-62.730469-1.402344-115.402344 46.929688-119.382812 109.550781h-203.242188c-25.945312.027344-46.9726562 21.054688-47 47v187.425781c-.0117188 10.960938 3.828125 21.582032 10.847656 30 .542969 1.046876 1.34375 1.933594 2.324219 2.585938 8.839844 9.214844 21.058594 14.417969 33.828125 14.414062h280c12.75.003907 24.953125-5.1875 33.792969-14.382812zm6.207031-362.617188c56.886719 0 103 46.117188 103 103 0 56.886719-46.113281 103-103 103s-103-46.113281-103-103c.066406-56.859374 46.140625-102.933593 103-103zm-339.800781 356.382813 84.449219-86.375c1.773437-1.78125 2.457031-4.378906 1.785156-6.804687-.671875-2.421876-2.59375-4.300782-5.03125-4.917969-2.4375-.613281-5.019532.125-6.761719 1.9375l-83.628906 85.535156c-2.640625-4.832031-4.019531-10.25-4.011719-15.757813v-187.425781c.019531-18.21875 14.78125-32.980469 33-33h203.1875c3.410156 59.246094 50.578125 106.585938 109.8125 110.210938v110.214843c.007812 5.527344-1.382812 10.964844-4.039062 15.808594l-84.132813-85.601562c-2.71875-2.703125-7.109375-2.71875-9.84375-.027344-2.734375 2.6875-2.796875 7.074219-.140625 9.839844l84.914062 86.394531c-5.695312 4.28125-12.632812 6.59375-19.757812 6.585937h-280c-7.144531.007813-14.09375-2.316406-19.800781-6.617187zm0 0" fill="#0635c9"/></svg>