<svg id="Layer_1" height="512" viewBox="0 0 512 512" width="512" xmlns="http://www.w3.org/2000/svg" data-name="Layer 1"><path d="m153.347 342.779a12.831 12.831 0 0 1 9.341-8.305 12.445 12.445 0 0 1 9.894 1.892l-10-10.352a12.527 12.527 0 0 0 -11.891-3.54 12.831 12.831 0 0 0 -9.341 8.305l-14.962 51.46 16.932-4.962z" fill="#d4e1f4"/><path d="m183.291 329.761c-.013-.014-.021-.03-.034-.043-.038-.039-.079-.074-.117-.113l-27.134-28.081 9.506-9.143-11.776-12.215-9.73 9.358 27.134 28.081c.038.039.079.074.117.113.013.013.021.029.034.043l46.337 47.954.21-.2z" fill="#d4e1f4"/><path d="m166.006 275.155 29.464-36.136-11.833-12.205-29.631 36.341 87.657 90.932.249-.19z" fill="#d4e1f4"/><path d="m203.272 229.45 116.028-142.305c28.053-34.406 68.905-53.791 112.1-53.1q1.761.026 3.531.091l55.063 2 .006-11.564-67.072-2.435q-1.77-.064-3.531-.091c-43.19-.692-84.042 18.693-112.1 53.1l-116.025 142.304 97.528 100.585.209-.16z" fill="#d4e1f4"/><g fill="#69e781"><path d="m279.448 190.906a28.544 28.544 0 0 0 -.461 40.1 27.938 27.938 0 0 0 19.867 8.561h.333a27.926 27.926 0 0 0 19.721-8.1 28.545 28.545 0 0 0 .461-40.1 28.088 28.088 0 0 0 -39.921-.465zm31.04 32.013a16.086 16.086 0 0 1 -22.885-.267 16.511 16.511 0 0 1 .265-23.195 16.01 16.01 0 0 1 11.305-4.648h.191a16.018 16.018 0 0 1 11.389 4.914 16.511 16.511 0 0 1 -.265 23.196z"/><path d="m374.2 143.316a5.978 5.978 0 0 0 4.209-1.725l50.181-49.418a75.095 75.095 0 0 0 66.6 18.887 6 6 0 0 0 -2.414-11.76 63.469 63.469 0 0 1 -58.6-18.442 63.9 63.9 0 0 1 -15.225-63.1 6 6 0 1 0 -11.472-3.522 75.848 75.848 0 0 0 12.967 69.114l-50.461 49.691a6 6 0 0 0 4.211 10.275z"/><path d="m353.937 163.266a5.984 5.984 0 0 0 4.209-1.725l8.436-8.307a6 6 0 0 0 -8.42-8.55l-8.436 8.306a6 6 0 0 0 4.211 10.276z"/><path d="m335.328 167.169-2.109 2.077a6 6 0 1 0 8.42 8.55l2.109-2.076a6 6 0 0 0 -8.42-8.551z"/><path d="m43.82 387.226a5.986 5.986 0 0 0 4.21-1.725l72.461-71.355a6 6 0 0 0 -8.42-8.551l-72.461 71.355a6 6 0 0 0 4.21 10.276z"/><path d="m32.171 401.117a6 6 0 0 0 -8.42-8.551l-11.961 11.779a6 6 0 0 0 8.42 8.551z"/><path d="m88.042 379.6-33.772 33.259a6 6 0 1 0 8.419 8.551l33.772-33.257a6 6 0 0 0 -8.419-8.55z"/><path d="m43.758 431.632a6 6 0 0 0 -8.486-.066l-16.182 15.934a6 6 0 0 0 8.42 8.551l16.182-15.935a6 6 0 0 0 .066-8.484z"/><path d="m88.814 448.354 30.254-29.792a6 6 0 0 0 -8.42-8.551l-30.254 29.789a6 6 0 1 0 8.42 8.55z"/><path d="m57.176 462.667-11.961 11.778a6 6 0 1 0 8.42 8.555l11.965-11.782a6 6 0 0 0 -8.42-8.551z"/><path d="m113.4 469.378a6 6 0 0 0 8.485.065l77.063-75.885a6 6 0 1 0 -8.42-8.551l-77.063 75.886a6 6 0 0 0 -.065 8.485z"/><path d="m101.543 481.051a6 6 0 0 0 -8.485-.066l-10.906 10.74a6 6 0 1 0 8.42 8.55l10.906-10.739a6 6 0 0 0 .065-8.485z"/></g><path d="m491.6 12.622-68.234-2.477q-1.9-.069-3.783-.1a152.044 152.044 0 0 0 -67.283 14.775 158.548 158.548 0 0 0 -54.3 42.742l-66.567 81.638-139.162-48.985a7.97 7.97 0 0 0 -9.421 3.123 8.241 8.241 0 0 0 1.136 10.2l95.68 99.158-37.142 45.552a8.114 8.114 0 0 0 .446 10.752l2.438 2.529-12.836 12.346a7.686 7.686 0 0 0 -2.372 5.425 7.505 7.505 0 0 0 2.114 5.388l15.575 16.119a24.747 24.747 0 0 0 -17.932 16.193l-15.234 52.37a11.778 11.778 0 0 0 2.843 11.467 11.621 11.621 0 0 0 11.648 3.078l51.417-15.069.285-.092a24.892 24.892 0 0 0 15.976-17.23l15.174 15.7a7.519 7.519 0 0 0 5.425 2.287 7.685 7.685 0 0 0 5.339-2.154l12.77-12.281a8.055 8.055 0 0 0 10.567.671l46.839-35.824 87.441 90.589a8.594 8.594 0 0 0 6.17 2.681 7.881 7.881 0 0 0 7.461-10.517l-42.138-127.83 85.237-65.194a155.035 155.035 0 0 0 44.776-53.968c13.25-26.81 19.98-56.559 20-88.422l.047-53.855a11.017 11.017 0 0 0 -10.4-10.785zm-387.5 104.478 119.271 41.987-36.071 44.241zm77.977 229.16a12.618 12.618 0 0 1 3.3 11.9 12.95 12.95 0 0 1 -8.278 9.22l-50.714 14.863 14.962-51.46a12.831 12.831 0 0 1 9.341-8.305 12.527 12.527 0 0 1 11.891 3.54l19.2 19.872c.104.119.185.253.298.37zm35.551 19.455-46.337-47.954c-.013-.014-.021-.03-.034-.043-.038-.039-.079-.074-.117-.113l-27.134-28.081 9.73-9.358 73.531 76.278zm24.035-11.628-87.657-90.932 29.631-36.341 95.563 98.562zm135.572 45.813-74.635-77.316 39.25-30.02zm112.724-322.647c-.022 30-6.334 57.969-18.761 83.114a142.987 142.987 0 0 1 -41.308 49.754l-141.09 107.914-97.528-100.585 116.028-142.305c28.053-34.406 68.905-53.791 112.1-53.1q1.761.026 3.531.091l67.069 2.436z" fill="#0635c9"/></svg>