<svg height="487pt" viewBox="0 -11 487.10334 487" width="487pt" xmlns="http://www.w3.org/2000/svg"><path d="m244.601562 421.726562c-14.476562-.011718-26.28125-11.613281-26.546874-26.089843l28.210937-202.363281h-17.3125c-4.800781-.019532-8.898437 3.464843-9.644531 8.207031l-31.253906 224.15625c.265624 14.472656 12.066406 26.074219 26.542968 26.089843h192.898438c14.484375-.007812 26.292968-11.609374 26.558594-26.089843l-.546876-3.910157zm0 0" fill="#d4e1f4"/><path d="m76.054688 391.40625c-18.039063-.019531-32.726563-14.503906-33-32.539062l34.609374-248.308594h-14.503906c-6.390625-.027344-11.84375 4.617187-12.835937 10.929687l-37.269531 267.378907c.273437 18.035156 14.960937 32.519531 33 32.539062h128.457031l4.183593-30zm0 0" fill="#d4e1f4"/><path d="m228.101562 154.1875c-3.867187 0-7-3.132812-7-7v-74.035156c0-32.640625-26.460937-59.101563-59.097656-59.101563-32.640625 0-59.101562 26.460938-59.101562 59.101563v74.035156c0 3.867188-3.132813 7-7 7-3.867188 0-7-3.132812-7-7v-74.035156c0-40.371094 32.726562-73.1015628 73.101562-73.1015628 40.371094 0 73.097656 32.7304688 73.097656 73.1015628v74.035156c0 3.867188-3.132812 7-7 7zm0 0" fill="#69e781"/><path d="m312 320.867188c-34.46875-.039063-62.402344-27.972657-62.441406-62.441407v-32.09375c0-3.867187 3.136718-7 7-7 3.867187 0 7 3.132813 7 7v32.09375c0 26.753907 21.6875 48.441407 48.441406 48.441407s48.441406-21.6875 48.441406-48.441407v-32.09375c0-3.867187 3.132813-7 7-7 3.863282 0 7 3.132813 7 7v32.09375c-.039062 34.46875-27.972656 62.402344-62.441406 62.441407zm0 0" fill="#69e781"/><g fill="#0635c9"><path d="m156.863281 173.527344c6.699219 6.699218 17.566407 6.699218 24.265625 0 6.703125-6.703125 6.703125-17.566406 0-24.269532-6.699218-6.703124-17.566406-6.699218-24.265625 0-3.246093 3.203126-5.074219 7.574219-5.074219 12.132813 0 4.5625 1.828126 8.933594 5.074219 12.136719zm9.898438-14.371094c1.234375-1.234375 3.234375-1.234375 4.46875 0s1.234375 3.238281 0 4.46875c-1.234375 1.234375-3.234375 1.234375-4.46875 0s-1.234375-3.234375 0-4.46875zm0 0"/><path d="m433.859375 316.074219-16.25-116.59375-.015625-.117188c-1.773438-11.589843-11.765625-20.136719-23.488281-20.089843h-99.1875l-8.332031-59.785157-.019532-.117187c-2.007812-13.164063-13.355468-22.871094-26.671875-22.816406h-195.789062c-13.316407-.054688-24.664063 9.652343-26.671875 22.816406l-.019532.117187-37.3476558 267.953125c-.0429687.316406-.0664062.640625-.0664062.964844.0273438 25.945312 21.054688 46.96875 47 47h129.308594c4.675781 17.847656 20.796875 30.300781 39.246094 30.320312h192.898437c22.386719-.023437 40.523437-18.164062 40.550781-40.546874 0-.15625-.023437-.3125-.03125-.464844.539063-.367188 1.058594-.761719 1.554688-1.183594l30.652344-26.472656c7.148437-6.1875 7.9375-16.992188 1.765624-24.152344zm-258.40625 105.332031h-128.453125c-18.039062-.019531-32.726562-14.5-33-32.539062l37.269531-267.378907c.992188-6.3125 6.445313-10.957031 12.835938-10.933593h151l-17.25 15.578124c-.179688-.011718-.359375-.027343-.539063-.027343l-42.886718-.21875c-1.871094-.007813-3.664063.730469-4.988282 2.050781l-53.914062 53.917969c-6.691406 6.707031-6.691406 17.5625 0 24.269531l28.738281 28.738281c6.699219 6.699219 17.566406 6.699219 24.265625 0l53.921875-53.917969c1.320313-1.320312 2.058594-3.117187 2.050781-4.984374l-.1875-36.792969 28.875-26.078125c.773438-.699219 1.378906-1.5625 1.773438-2.527344h24.929687c6.390625-.027344 11.839844 4.613281 12.835938 10.925781l8.050781 57.785157h-50.886719c-11.722656-.050782-21.714843 8.496093-23.488281 20.085937l-.015625.121094zm15.027344-248.296875-51.851563 51.855469c-1.234375 1.234375-3.234375 1.234375-4.46875 0l-28.738281-28.738282c-1.234375-1.234374-1.234375-3.234374 0-4.46875l51.851563-51.851562 33.042968.164062zm217.972656 278.617187h-192.898437c-14.476563-.015624-26.28125-11.613281-26.546876-26.089843l31.246094-224.15625c.75-4.742188 4.847656-8.226563 9.644532-8.207031h164.210937c4.800781-.019532 8.898437 3.464843 9.648437 8.207031l15.453126 110.882812-29.558594-2.011719-23.710938-28.601562c-2.480468-2.925781-6.855468-3.3125-9.808594-.863281-2.957031 2.449219-3.386718 6.820312-.96875 9.800781l23.046876 27.796875-3.179688 40.65625c-.148438 1.863281.457031 3.707031 1.679688 5.121094l49.664062 57.503906c2.242188 2.609375 5.226562 4.476563 8.554688 5.351563-1.03125 13.863281-12.574219 24.59375-26.476563 24.609374zm64.648437-67.398437c-.058593.824219-.445312 1.59375-1.074218 2.136719l-30.648438 26.46875c-1.304687 1.128906-3.277344.984375-4.40625-.320313l-47.757812-55.296875 2.5625-32.789062 32.816406 2.234375 47.753906 55.292969c.542969.628906.8125 1.445312.75 2.273437zm0 0"/><path d="m412.644531 330.164062c-9.429687-.691406-17.636719 6.394532-18.328125 15.828126-.691406 9.433593 6.398438 17.640624 15.828125 18.328124.429688.03125.851563.046876 1.277344.046876 9.1875-.042969 16.703125-7.332032 17.03125-16.511719.328125-9.183594-6.648437-16.988281-15.808594-17.6875zm.792969 19.441407c-1.304688 1.128906-3.277344.980469-4.402344-.324219s-.980468-3.277344.324219-4.402344c1.304687-1.128906 3.273437-.984375 4.402344.320313 1.125 1.308593.980469 3.277343-.324219 4.40625zm0 0"/></g></svg>