<?xml version="1.0"?>
<svg xmlns="http://www.w3.org/2000/svg" id="Layer_1" data-name="Layer 1" viewBox="0 0 512 512" width="512" height="512"><title>Business Success</title><path d="M262,117.18V114h7.958a6,6,0,0,0,0-12H262V96h7.958a6,6,0,0,0,0-12H262v-.686l22.648-30.2a6,6,0,1,0-9.6-7.2L256,71.314l-19.049-25.4a6,6,0,1,0-9.6,7.2L250,83.314V84h-7.958a6,6,0,0,0,0,12H250v6h-7.958a6,6,0,0,0,0,12H250v3.18a6,6,0,0,0,12,0Z" style="fill:#0635c9"/><path d="M324.223,83.348A68.223,68.223,0,1,0,250,151.291v89.414a6,6,0,1,0,12,0V151.291A68.3,68.3,0,0,0,324.223,83.348Zm-124.446,0A56.223,56.223,0,1,1,256,139.57,56.286,56.286,0,0,1,199.777,83.348Z" style="fill:#0635c9"/><path d="M336,149h-7.778A60.223,60.223,0,0,0,268,209.327V217.1a5.726,5.726,0,0,0,5.777,5.9h7.779A60.424,60.424,0,0,0,342,162.66v-7.777A5.9,5.9,0,0,0,336,149Zm-6,13.66A48.41,48.41,0,0,1,281.556,211H280v-1.673A48.21,48.21,0,0,1,328.222,161H330Z" style="fill:#0635c9"/><path d="M183.778,149H176a5.9,5.9,0,0,0-6,5.883v7.777A60.424,60.424,0,0,0,230.444,223h7.779A5.726,5.726,0,0,0,244,217.1v-7.777A60.223,60.223,0,0,0,183.778,149ZM232,211h-1.556A48.41,48.41,0,0,1,182,162.66V161h1.778A48.21,48.21,0,0,1,232,209.327Z" style="fill:#0635c9"/><path d="M256,251.231a6,6,0,0,0-6,6v23.623a6,6,0,1,0,12,0V257.231A6,6,0,0,0,256,251.231Z" style="fill:#0635c9"/><path d="M256,296.787a6,6,0,0,0-6,6v19.947a6,6,0,0,0,12,0V302.787A6,6,0,0,0,256,296.787Z" style="fill:#0635c9"/><path d="M241.535,372.179a6.109,6.109,0,0,0-6.365.615l-7.9,6.024a28.151,28.151,0,0,1-.369-3.062l-.679-11.581c-.01-.164-.031-.328-.053-.491A63.656,63.656,0,0,0,183.9,312.266l-3.766-1.312a35.559,35.559,0,0,1-13.382-8.392L148.675,284.49l-6.165-20.862A29.736,29.736,0,0,0,117.7,241.92l-.793-2.647c-.013-.047-.029-.1-.045-.144-3-9.149-12.695-15.152-22.78-14.915l-.027-.091a26.931,26.931,0,0,0-32.336-18.449,6,6,0,0,0-4.453,6.919l20.049,107.9a6.156,6.156,0,0,0,.214.824,69.833,69.833,0,0,0,26.208,34.815L147.521,386.3c.106.073.214.142.325.208a13.4,13.4,0,0,1,5.994,7.74l7.327,32.517a5.969,5.969,0,0,0,.839,1.967l-7.813,6.1A5.855,5.855,0,0,0,152,439.6v51.271a5.856,5.856,0,0,0,3,5.284,5.683,5.683,0,0,0,2.762.716,5.872,5.872,0,0,0,3.267-.994l81.179-53.568A6.1,6.1,0,0,0,245,437.306V377.559A6.115,6.115,0,0,0,241.535,372.179ZM130.936,266.8c.013.053.028.1.043.157l1.262,4.27a31.507,31.507,0,0,0-6.359-1.989l-4.1-13.686A17.707,17.707,0,0,1,130.936,266.8Zm-25.5-24,7.921,26.428a31.6,31.6,0,0,0-5.343,1.565L97.777,236.583C101.34,237.451,104.4,239.745,105.433,242.8Zm60.075,148.639c-.025-.1-.051-.209-.08-.313a25.353,25.353,0,0,0-11.245-14.808l-43.628-30.058a57.744,57.744,0,0,1-21.527-28.39L70.288,217.016a14.949,14.949,0,0,1,12.265,10.545L96.57,274.419l.959,3.1c-.154.148-.312.291-.464.442a6,6,0,0,0,.2,8.672L119.2,306.667a140.975,140.975,0,0,1,17.3,18.971,6,6,0,0,0,9.568-7.242,153.068,153.068,0,0,0-18.769-20.589l-16.548-15.115a19.91,19.91,0,0,1,22.908,3.748l24.607,24.608a47.642,47.642,0,0,0,17.923,11.239l3.765,1.312a51.7,51.7,0,0,1,34.3,41.524l.657,11.329a39.778,39.778,0,0,0,1.982,10.288l-44.724,34.226ZM233,434.078l-69,45.641V442.566l69-52.861Z" style="fill:#69e781"/><path d="M450.286,205.674a26.925,26.925,0,0,0-32.335,18.447l-.028.094c-10.084-.236-19.784,5.765-22.78,14.914-.016.048-.032.1-.045.144l-.793,2.647a29.736,29.736,0,0,0-24.815,21.708l-6.165,20.862-18.07,18.072a35.581,35.581,0,0,1-13.384,8.393l-3.764,1.31a63.657,63.657,0,0,0-42.27,51.419c-.023.163-.039.327-.049.491l-.672,11.58a27.871,27.871,0,0,1-.353,3.063l-7.872-6.024a6.213,6.213,0,0,0-6.426-.615,6.115,6.115,0,0,0-3.465,5.38v59.747a6.122,6.122,0,0,0,2.814,5.006l81.138,53.568a6.1,6.1,0,0,0,3.338.994,5.447,5.447,0,0,0,2.7-.716A5.869,5.869,0,0,0,360,490.874V439.6a5.855,5.855,0,0,0-2.193-4.765l-7.893-6.1a6.043,6.043,0,0,0,.879-1.967l7.347-32.517a13.415,13.415,0,0,1,6-7.74c.111-.066.224-.135.33-.208l43.805-30.181a69.81,69.81,0,0,0,26.195-34.805,6.163,6.163,0,0,0,.216-.824l20.049-107.9A6,6,0,0,0,450.286,205.674ZM406.567,242.8c1.031-3.056,4.093-5.353,7.657-6.22L403.989,270.8a31.6,31.6,0,0,0-5.343-1.565Zm-25.5,24a17.707,17.707,0,0,1,9.157-11.248l-4.1,13.687a31.568,31.568,0,0,0-6.359,1.988l1.262-4.27C381.036,266.9,381.051,266.85,381.064,266.8ZM348,479.719l-69-45.641V389.705l69,52.861Zm74.972-161.847a57.73,57.73,0,0,1-21.513,28.38L357.817,376.32a25.353,25.353,0,0,0-11.245,14.808c-.029.1-.055.209-.08.313l-6.653,29.525L295.115,386.74a39.793,39.793,0,0,0,1.982-10.289l.657-11.328a51.7,51.7,0,0,1,34.3-41.525l3.763-1.31a47.655,47.655,0,0,0,17.925-11.241l24.605-24.606a19.91,19.91,0,0,1,22.909-3.749l-16.548,15.116A153,153,0,0,0,365.937,318.4a6,6,0,0,0,9.568,7.242,140.975,140.975,0,0,1,17.3-18.971l21.938-20.038a6,6,0,0,0,.2-8.672c-.152-.151-.31-.294-.464-.442l.975-3.151,14-46.8a14.945,14.945,0,0,1,12.264-10.543Z" style="fill:#69e781"/><path d="M266,128.544a56.176,56.176,0,0,1-44.413-90.635,56.19,56.19,0,1,0,78.826,78.825A55.923,55.923,0,0,1,266,128.544Z" style="fill:#d4e1f4"/><path d="M146.063,319.421a6,6,0,0,1,.2,6.948c.075.1.153.195.228.294a6,6,0,0,0,9.568-7.242,153.22,153.22,0,0,0-18.769-20.589l-16.541-15.107a19.819,19.819,0,0,1,3.853-1.421,19.975,19.975,0,0,0-13.853,1.421l16.541,15.107A153.22,153.22,0,0,1,146.063,319.421Z" style="fill:#d4e1f4"/><path d="M175.508,392.467c-.025-.1-.051-.209-.08-.314a25.348,25.348,0,0,0-11.245-14.807l-43.628-30.058A57.742,57.742,0,0,1,99.028,318.9l-17.09-91.971a14.941,14.941,0,0,0-11.65-8.885L89.028,318.9a57.742,57.742,0,0,0,21.527,28.391l43.628,30.058a25.348,25.348,0,0,1,11.245,14.807c.029.1.055.209.08.314l6.653,29.524,8.529-6.527Z" style="fill:#d4e1f4"/><polygon points="174 443.592 233 398.392 233 390.73 164 443.592 164 480.744 174 474.13 174 443.592" style="fill:#d4e1f4"/><polygon points="279 390.73 279 398.392 338 443.592 338 474.13 348 480.744 348 443.592 279 390.73" style="fill:#d4e1f4"/><path d="M391.247,283.725l-16.541,15.108a153.152,153.152,0,0,0-18.769,20.588,6,6,0,0,0,9.568,7.242c.075-.1.153-.195.228-.294a6,6,0,0,1,.2-6.948,153.152,153.152,0,0,1,18.769-20.588l16.541-15.108A19.969,19.969,0,0,0,387.4,282.3,19.777,19.777,0,0,1,391.247,283.725Z" style="fill:#d4e1f4"/><path d="M430.061,226.926,412.972,318.9a57.728,57.728,0,0,1-21.513,28.381l-43.642,30.068a25.348,25.348,0,0,0-11.245,14.807c-.029.1-.055.209-.08.314l-5.182,23,8.529,6.527,6.653-29.524c.025-.1.051-.209.08-.314a25.348,25.348,0,0,1,11.245-14.807l43.642-30.068A57.728,57.728,0,0,0,422.972,318.9l18.74-100.856A14.941,14.941,0,0,0,430.061,226.926Z" style="fill:#d4e1f4"/><path d="M230.444,200a48.46,48.46,0,0,1-47.706-40H182v1.635A48.432,48.432,0,0,0,230.444,210H232v-1.7a48.824,48.824,0,0,0-.721-8.3Z" style="fill:#d4e1f4"/><path d="M281.556,200h-.835a48.824,48.824,0,0,0-.721,8.3V210h1.556A48.432,48.432,0,0,0,330,161.635V160h-.738A48.46,48.46,0,0,1,281.556,200Z" style="fill:#d4e1f4"/></svg>
