<?xml version="1.0"?>
<svg xmlns="http://www.w3.org/2000/svg" id="Layer_1" data-name="Layer 1" viewBox="0 0 512 512" width="512" height="512"><title>Wealth mechanism</title><path d="M72,318.018c0-74.212,55.323-135.737,126.891-145.524a147.635,147.635,0,0,0-20-1.367C97.9,171.127,32,237.022,32,318.018s65.9,146.89,146.891,146.89a147.474,147.474,0,0,0,20-1.367C127.323,453.754,72,392.23,72,318.018Z" style="fill:#d4e1f4"/><path d="M455.861,108.521,419.1,71.285a6,6,0,0,0-8.1-.406L384.173,93.1a151.18,151.18,0,0,0-42.03-17.747L338.786,40.47A6.041,6.041,0,0,0,332.813,35h-52.79a6.039,6.039,0,0,0-5.972,5.47l-3.357,34.852a147.836,147.836,0,0,0-42.072,17.727L201.836,70.873a6,6,0,0,0-8.069.381l-37.236,37.238a6,6,0,0,0-.379,8.07l22.216,26.828a158.84,158.84,0,0,0-10.09,19.442l11.015,4.763a148.359,148.359,0,0,1,11.5-21.441,6,6,0,0,0-.421-7.079l-21.5-25.958L198.39,83.605l25.959,21.5a6,6,0,0,0,7.154.371,135.278,135.278,0,0,1,46.018-19.395,6.054,6.054,0,0,0,4.7-5.335L285.473,47h41.891l3.248,33.743a6.028,6.028,0,0,0,4.7,5.312,139.4,139.4,0,0,1,46.092,19.456,6,6,0,0,0,7.08-.415L414.42,83.625l29.089,29.463L421.99,139.074a6,6,0,0,0-.371,7.156,135.262,135.262,0,0,1,19.395,46.017,6,6,0,0,0,5.289,4.7L480,200.2v41.9l-33.232,3.242a6,6,0,0,0-5.282,4.7,139.367,139.367,0,0,1-19.446,46.092,6,6,0,0,0,.421,7.08l21.5,25.958-29.511,29.512-25.959-21.5a6,6,0,0,0-7.155-.372,135.239,135.239,0,0,1-46.017,19.4,5.889,5.889,0,0,0-4.7,5.19L327.364,395H307v12h25.813a5.916,5.916,0,0,0,5.973-5.325l3.357-34.78a147.8,147.8,0,0,0,42.072-17.69L411,371.4a6,6,0,0,0,8.07-.372l37.236-37.234a6,6,0,0,0,.379-8.068L434.468,298.9a151.211,151.211,0,0,0,17.749-42.035l34.366-3.352A6,6,0,0,0,492,247.54V194.75a6,6,0,0,0-5.424-5.972l-34.829-3.358a147.871,147.871,0,0,0-17.715-42.072l22.181-26.785A6,6,0,0,0,455.861,108.521Z" style="fill:#0635c9"/><path d="M403.2,221.145a96.739,96.739,0,0,1-72.482,93.707l3,11.618A108.8,108.8,0,1,0,211.86,167.332l10.424,5.944A96.794,96.794,0,0,1,403.2,221.145Z" style="fill:#0635c9"/><path d="M337.781,318.018c0-87.613-71.278-158.891-158.89-158.891S20,230.405,20,318.018s71.278,158.89,158.891,158.89S337.781,405.63,337.781,318.018ZM32,318.018c0-81,65.9-146.891,146.891-146.891s146.89,65.895,146.89,146.891-65.895,146.89-146.89,146.89S32,399.013,32,318.018Z" style="fill:#69e781"/><path d="M198.214,397.266a6,6,0,0,0,4.168-10.317l-56.423-54.475,12.108.13a46.486,46.486,0,0,0,33.219-13.344,45.821,45.821,0,0,0,13.6-26.71l21.457.45h.066a6.192,6.192,0,0,0,6-6.155,6.094,6.094,0,0,0-5.935-6.174l-21.457-.285A46.485,46.485,0,0,0,192,253.143c-.579-.592-1.173-1.071-1.777-1.627l36.558.484h.066a6.08,6.08,0,0,0,.063-12.158l-67.836-.754-27.192-.305a5.995,5.995,0,1,0-.128,11.989l27.191.29a34.823,34.823,0,0,1,33.935,29.14l-61.435-.66a6,6,0,1,0-.129,12l61.441.659A34.467,34.467,0,0,1,158.2,320.448L131,320h-.065a6.172,6.172,0,0,0-4.167,10.551l67.275,64.992A6.022,6.022,0,0,0,198.214,397.266Z" style="fill:#69e781"/></svg>
