<svg height="491pt" viewBox="0 -12 491.90374 491" width="491pt" xmlns="http://www.w3.org/2000/svg"><g fill="#d4e1f4"><path d="m106.617188 219.449219c4.476562 6.671875 9.515624 12.941406 15.066406 18.75h-15.960938c.117188-6.292969.414063-12.554688.894532-18.75zm0 0"/><path d="m126.617188 219.449219c4.476562 6.671875 9.515624 12.941406 15.066406 18.75h-15.960938c.117188-6.292969.414063-12.554688.894532-18.75zm0 0"/><path d="m88.945312 99.925781c3.050782-10.039062 7.222657-19.699219 12.433594-28.808593-12.117187 8.578124-23.304687 18.402343-33.371094 29.308593 3.269532 3.554688 6.683594 6.984375 10.191407 10.3125 3.441406-3.726562 7.023437-7.328125 10.746093-10.8125zm0 0"/><path d="m60.085938 109.523438c-29.863282 36.359374-46.753907 81.640624-48 128.675781h20c1.125-42.160157 14.816406-83.027344 39.328124-117.351563-3.90625-3.640625-7.683593-7.417968-11.328124-11.324218zm0 0"/><path d="m32.089844 250.199219h-20c1.285156 47.007812 18.226562 92.242187 48.132812 128.53125 3.652344-3.921875 7.429688-7.691407 11.332032-11.3125-24.570313-34.253907-38.316407-75.082031-39.464844-117.21875zm0 0"/><path d="m88.144531 387.820312c8.746094-9.476562 18.335938-18.136718 28.65625-25.871093-1.535156-3.507813-2.996093-7.070313-4.390625-10.6875-16.347656 10.117187-31.238281 22.417969-44.265625 36.558593 32.519531 35.410157 76.109375 58.714844 123.617188 66.085938-3.199219-2.144531-6.324219-4.382812-9.378907-6.714844-36.128906-11.066406-68.65625-31.558594-94.238281-59.371094zm0 0"/></g><path d="m440.164062 304.472656c28.835938-103.453125-19.699218-212.828125-115.757812-260.859375l-5.371094 10.730469c23.050782 11.554688 43.8125 27.203125 61.265625 46.183594-8.070312 8.851562-16.886719 16.992187-26.34375 24.339844l7.355469 9.480468c9.632812-7.484375 18.628906-15.75 26.902344-24.714844 29.898437 36.300782 46.8125 81.554688 48.054687 128.566407h-81.625c-.226562-13.667969-1.324219-27.308594-3.277343-40.839844l-11.875 1.730469c1.871093 12.957031 2.921874 26.019531 3.152343 39.109375h-13.582031l-6.144531-6.140625-8.484375 8.484375 34.25 34.246093-18.175782 18.175782c-2.339843 2.34375-2.339843 6.140625 0 8.484375l5.78125 5.777343c-1.855468 8.835938-4.148437 17.574219-6.878906 26.179688-30.597656-16.257812-64.585937-25.101562-99.226562-25.8125v-31.855469h-12v31.871094c-34.644532.886719-68.609375 9.808594-99.21875 26.066406-8.160156-25.5-12.707032-53.574219-13.242188-83.476562h31.09375v-12h-31.09375c.214844-12.195313 1.140625-24.371094 2.773438-36.457031l-11.890625-1.625c-1.707031 12.628906-2.671875 25.34375-2.886719 38.082031h-81.628906c1.246094-47.035157 18.136718-92.316407 48-128.675781 7.902344 8.492187 16.453125 16.359374 25.570312 23.53125l7.410156-9.4375c-8.960937-7.042969-17.339843-14.800782-25.058593-23.191407 16.789062-18.1875 36.617187-33.316406 58.597656-44.699219l-5.523437-10.644531c-74.402344 38.527344-121.1093755 115.332031-121.085938 199.117188 0 97.054687 62.449219 183.085937 154.730469 213.152343 92.277343 30.070313 193.425781-2.65625 250.601562-81.082031l22.3125 22.3125c14.738281 14.632813 38.53125 14.589844 53.21875-.09375 14.683594-14.6875 14.726563-38.480469.09375-53.21875zm-54.273437-54.273437h50.378906c-.40625 14.980469-2.402343 29.875-5.945312 44.4375zm-44.828125 0h32.210938l-16.105469 16.105469zm-15.613281 94.707031c-18.648438 50.160156-51.550781 88.585938-95.265625 110.527344v-135.839844c33.316406.730469 65.980468 9.410156 95.265625 25.3125zm-107.265625-25.300781v135.851562c-43.863282-22.019531-76.683594-60.773437-95.234375-110.300781 29.292969-15.890625 61.921875-24.640625 95.234375-25.546875zm-109.882813 20.113281c-17.757812 10.710938-33.9375 23.839844-48.078125 39.011719-29.90625-36.289063-46.847656-81.523438-48.132812-128.53125h81.632812c.550782 32.105469 5.566406 62.222656 14.578125 89.519531zm-40.15625 48.101562c13.027344-14.140624 27.917969-26.441406 44.265625-36.5625 16.601563 43.285157 43.710938 78.71875 79.355469 102.648438-47.507813-7.375-91.097656-30.675781-123.621094-66.085938zm188.460938 66.074219c35.542969-23.820312 62.699219-59.074219 79.371093-102.875 16.40625 10.183594 31.324219 22.589844 44.332032 36.863281-32.554688 35.394532-76.175782 58.675782-123.703125 66.011719zm131.628906-75.109375c-14.121094-15.304687-30.332031-28.542968-48.152344-39.316406 2.355469-7.191406 4.441407-14.589844 6.25-22.195312l50.410157 50.410156c-2.726563 3.800781-5.5625 7.5-8.507813 11.101562zm84.238281 11.316406c-10.035156 10.035157-26.308594 10.035157-36.34375 0l-92.890625-92.890624 36.34375-36.347657 92.890625 92.890625c10.039063 10.039063 10.039063 26.308594 0 36.347656zm0 0" fill="#0635c9"/><path d="m123.96875 41.589844c-54.851562 54.851562-54.851562 144.101562 0 198.953125 54.925781 55.015625 144.058594 55.050781 199.03125.078125 54.96875-54.96875 54.933594-144.105469-.082031-199.03125-54.851563-54.851563-144.101563-54.851563-198.949219 0zm216.03125 154.09375c-6.339844 13.519531-14.992188 25.832031-25.566406 36.378906-4.03125 4.027344-8.320313 7.789062-12.84375 11.257812v-22.09375l19.410156-18.417968c1.195312-1.132813 1.871094-2.707032 1.871094-4.351563v-17.21875c10.769531-3 17.671875-13.496093 16.15625-24.574219-1.511719-11.078124-10.976563-19.335937-22.15625-19.335937-11.183594 0-20.644532 8.257813-22.160156 19.335937-1.511719 11.078126 5.386718 21.574219 16.160156 24.574219v14.640625l-19.414063 18.414063c-1.195312 1.136719-1.871093 2.707031-1.871093 4.355469v32.855468c-8.738282 5.253906-18.078126 9.4375-27.820313 12.460938v-66.300782l28.234375-38.714843c.75-1.027344 1.152344-2.265625 1.152344-3.535157v-44.480468c10.769531-3 17.671875-13.492188 16.15625-24.570313-1.511719-11.078125-10.976563-19.335937-22.15625-19.335937-11.179688 0-20.644532 8.257812-22.15625 19.335937-1.515625 11.078125 5.386718 21.570313 16.15625 24.570313v42.523437l-28.230469 38.71875c-.75 1.027344-1.152344 2.265625-1.152344 3.535157v71.347656c-8.003906 1.652344-16.144531 2.542968-24.3125 2.664062v-92.226562l16.050781-16.050782c1.125-1.125 1.757813-2.652343 1.757813-4.246093v-95.195313c10.773437-3 17.671875-13.492187 16.160156-24.570312-1.515625-11.078125-10.980469-19.335938-22.160156-19.335938s-20.644531 8.257813-22.15625 19.335938c-1.515625 11.078125 5.386719 21.570312 16.15625 24.570312v92.710938l-16.050781 16.054687c-1.128906 1.125-1.757813 2.648438-1.757813 4.242188v94.351562c-4.09375-.3125-8.148437-.8125-12.160156-1.5v-126.890625c0-1.59375-.632813-3.117187-1.757813-4.242187l-23.054687-23.058594v-28.757813c10.769531-3 17.671875-13.496093 16.15625-24.574218-1.511719-11.078125-10.976563-19.335938-22.15625-19.335938s-20.644531 8.257813-22.160156 19.335938c-1.511719 11.078125 5.386719 21.574218 16.160156 24.574218v31.242188c0 1.59375.632813 3.117188 1.757813 4.242188l23.058593 23.058593v121.730469c-8.085937-2.207031-15.929687-5.210938-23.421875-8.964844v-65.890625c0-2.445312-1.484375-4.648437-3.753906-5.5625l-23.683594-9.558593v-20.640626c10.769532-3 17.671875-13.496093 16.15625-24.574218-1.511718-11.074219-10.976562-19.332032-22.15625-19.332032-11.179687 0-20.644531 8.257813-22.15625 19.332032-1.515625 11.078125 5.386719 21.574218 16.15625 24.574218v24.691407c0 2.445312 1.488282 4.648437 3.753906 5.5625l23.683594 9.558593v54.984376c-57.933594-37.226563-76.296875-113.453126-41.679687-172.980469 34.621093-59.523438 109.957031-81.25 170.957031-49.304688 61.003906 31.945313 86.050781 106.242188 56.84375 168.601563zm-23.128906-25.617188c-5.722656 0-10.363282-4.640625-10.363282-10.363281s4.640626-10.363281 10.363282-10.367187c5.722656 0 10.363281 4.640624 10.363281 10.367187-.007813 5.71875-4.644531 10.351563-10.363281 10.359375zm-31.714844-70.300781c-5.722656 0-10.363281-4.640625-10.363281-10.363281s4.640625-10.363282 10.363281-10.363282c5.726562 0 10.363281 4.640626 10.363281 10.363282-.007812 5.71875-4.644531 10.347656-10.363281 10.355468zm-47.890625-48.929687c-5.722656 0-10.363281-4.636719-10.363281-10.359376-.003906-5.722656 4.636718-10.363281 10.359375-10.367187 5.722656-.003906 10.363281 4.632813 10.367187 10.355469-.007812 5.722656-4.640625 10.355468-10.363281 10.363281zm-66.78125 22.910156c-5.722656 0-10.363281-4.636719-10.363281-10.359375-.003906-5.722657 4.632812-10.363281 10.355468-10.367188 5.722657-.003906 10.367188 4.632813 10.371094 10.355469-.007812 5.71875-4.640625 10.355469-10.363281 10.363281zm-38.042969 69.648437c-5.726562-.003906-10.363281-4.644531-10.363281-10.367187s4.640625-10.363282 10.363281-10.363282 10.363282 4.640626 10.363282 10.367188c-.007813 5.71875-4.644532 10.355469-10.363282 10.363281zm0 0" fill="#69e781"/></svg>